<svg width="20" height="20" viewBox="0 0 20 20" fill="none" xmlns="http://www.w3.org/2000/svg">
<path d="M19.3188 8.91063L4.66095 1.76045C4.53489 1.69895 4.39647 1.66699 4.2562 1.66699C3.74634 1.66699 3.33301 2.08033 3.33301 2.59019V2.61683C3.33301 2.74071 3.3482 2.86413 3.37824 2.98431L4.78428 8.60843C4.82268 8.76207 4.95257 8.87555 5.10993 8.89305L11.2899 9.57972C11.5042 9.60351 11.6663 9.78464 11.6663 10.0003C11.6663 10.216 11.5042 10.3971 11.2899 10.4209L5.10993 11.1076C4.95257 11.1251 4.82268 11.2386 4.78428 11.3922L3.37824 17.0163C3.3482 17.1365 3.33301 17.2599 3.33301 17.3838V17.4105C3.33301 17.9203 3.74634 18.3337 4.2562 18.3337C4.39647 18.3337 4.53489 18.3017 4.66095 18.2402L19.3188 11.09C19.7354 10.8868 19.9997 10.4639 19.9997 10.0003C19.9997 9.53677 19.7354 9.11381 19.3188 8.91063Z" fill="white"/>
</svg>
