<svg width="342" height="342" viewBox="0 0 342 342" fill="none" xmlns="http://www.w3.org/2000/svg">
<g opacity="0.3">
<circle cx="171" cy="171" r="171" fill="black"/>
<g clip-path="url(#clip0_888_1735)">
<path fill-rule="evenodd" clip-rule="evenodd" d="M158.851 48.9727C151.174 49.7445 139.412 52.3907 131.353 55.2023C129.066 55.9741 128.63 56.3049 129.447 56.5254C130.1 56.746 129.883 56.8011 128.957 56.6908C126.942 56.4152 125.908 56.8011 125.908 57.7934C125.908 58.2345 125.635 58.5652 125.309 58.5652C125.036 58.5652 124.927 58.2896 125.091 58.0139C125.254 57.6832 125.145 57.4626 124.873 57.4626C123.893 57.4626 124.165 58.896 125.309 59.8884C125.908 60.4397 126.888 61.9282 127.541 63.141C130.427 68.9296 131.788 70.9143 132.006 69.8117C132.188 69.1502 132.424 69.1502 132.714 69.8117C132.986 70.4733 132.877 70.9694 132.387 71.3554C131.135 72.2374 134.348 71.5207 141.154 69.3707C151.01 66.2283 158.797 65.1257 170.286 65.0706C177.91 65.0706 181.776 65.3462 187.711 66.3385C191.904 67.0001 195.988 67.6065 196.805 67.6065C197.567 67.6617 198.112 67.827 198.003 67.9924C197.676 68.5437 201.978 69.6463 203.013 69.2053C203.666 68.9848 203.829 69.0399 203.557 69.4809C203.176 70.1425 204.102 70.4181 206.116 70.2528C206.661 70.1976 206.933 70.4181 206.77 70.6938C206.606 71.0246 206.661 71.2451 206.988 71.2451C207.26 71.2451 207.968 71.4105 208.512 71.5759C209.329 71.8515 209.329 71.7964 208.676 71.3002C207.695 70.5835 208.512 70.5835 210.037 71.2451C210.799 71.5759 210.854 71.7413 210.309 71.7964C209.656 71.7964 209.71 71.9618 210.473 72.4028C210.963 72.6785 211.671 72.7887 211.943 72.6233C212.27 72.458 212.487 72.5682 212.487 72.899C212.487 73.2849 212.814 73.4503 213.25 73.2849C213.631 73.1195 214.339 73.4503 214.829 74.0567C215.863 75.2144 217.116 75.4901 216.571 74.3875C216.353 74.0567 216.68 74.2772 217.225 74.8837C218.314 76.2068 221.036 77.8055 220.437 76.8132C220.165 76.4273 220.383 76.317 220.873 76.5376C221.363 76.7029 221.635 77.0889 221.472 77.3094C221.309 77.5299 221.581 77.9158 222.071 78.0812C222.616 78.3017 222.779 78.1915 222.561 77.6953C222.343 77.3645 222.507 77.4196 222.942 77.9158C223.323 78.412 223.977 78.6876 224.358 78.5222C224.739 78.412 224.957 78.6325 224.903 79.0735C224.794 79.4594 225.066 79.7351 225.447 79.68C225.774 79.5697 226.1 79.7351 226.1 80.0659C226.1 80.3415 226.645 80.8377 227.244 81.2236C228.17 81.7198 228.333 81.6646 228.006 81.0582C227.789 80.6723 228.17 80.9479 228.823 81.7198C229.477 82.4916 229.858 82.7121 229.64 82.2711C229.422 81.83 229.749 82.0505 230.348 82.7672C230.947 83.539 231.872 84.2006 232.417 84.2557C232.962 84.366 234.105 85.2481 234.976 86.2404C235.848 87.2327 236.338 87.6738 236.12 87.2327C235.902 86.7917 236.882 87.7289 238.298 89.3277C239.714 90.8713 241.075 92.0842 241.347 91.9188C241.946 91.5329 243.58 93.5727 243.144 94.124C242.872 94.3445 243.035 94.3996 243.416 94.1791C243.798 93.9586 244.07 94.0688 244.07 94.4547C244.07 94.8407 244.233 95.006 244.397 94.7855C244.56 94.6201 245.377 95.2266 246.139 96.1086C247.01 97.2112 247.827 97.7074 248.535 97.542C249.134 97.3766 249.406 97.4869 249.188 97.8728C249.025 98.2587 249.515 97.7625 250.277 96.8805C251.04 95.9433 251.693 95.4471 251.693 95.7779C251.693 96.0535 251.966 95.8881 252.292 95.3368C252.564 94.8407 253.163 94.3996 253.545 94.3996C253.98 94.3996 254.688 93.8483 255.178 93.1316C255.668 92.4701 255.941 92.3047 255.777 92.7457C255.559 93.1868 255.832 93.0765 256.322 92.4701C256.812 91.8636 257.356 91.3675 257.629 91.3675C257.846 91.3675 258.718 90.5957 259.589 89.7136C260.406 88.7764 260.732 88.5559 260.351 89.1623C259.643 90.1546 259.643 90.2098 260.569 89.4931C261.44 88.7764 261.44 88.6661 260.623 87.2879C260.079 86.5161 259.208 85.5237 258.663 85.1378C258.119 84.7519 257.792 84.1455 258.01 83.8698C258.173 83.5942 258.01 83.4288 257.574 83.4839C257.193 83.5942 256.921 83.3185 257.03 82.9326C257.084 82.6018 256.812 82.3262 256.485 82.3813C256.104 82.4916 255.832 82.2159 255.941 81.83C255.995 81.389 255.832 81.2236 255.614 81.389C255.342 81.5544 254.307 80.7274 253.272 79.5146C252.292 78.3568 251.312 77.4748 251.094 77.6402C250.876 77.7504 250.332 77.1991 249.842 76.4824C249.352 75.7106 248.698 75.2144 248.481 75.3798C248.208 75.4901 247.609 74.9939 247.065 74.2221C246.575 73.4503 246.03 72.9541 245.867 73.1195C245.703 73.2849 245.104 72.8439 244.505 72.1823C243.907 71.5207 243.58 71.3554 243.798 71.7964C244.015 72.2374 243.471 71.8515 242.709 70.9694C241.892 70.0322 241.402 69.7015 241.619 70.1425C241.837 70.5835 241.456 70.363 240.803 69.5912C240.149 68.8194 239.768 68.5989 239.986 69.0399C240.204 69.4809 239.877 69.2604 239.278 68.5437C238.734 67.827 237.971 67.386 237.644 67.6065C237.318 67.7719 236.882 67.6617 236.664 67.3309C236.446 66.8898 236.501 66.8347 236.882 67.0552C237.263 67.2757 237.536 67.3309 237.536 67.1655C237.536 67.0001 236.828 66.5039 235.902 66.0078C235.031 65.5116 234.268 65.3462 234.268 65.5667C234.268 65.7872 233.887 65.4565 233.397 64.85C232.962 64.2987 232.689 64.1885 232.907 64.6295C233.125 65.1808 233.016 65.1257 232.471 64.5193C232.036 63.968 231.546 63.6923 231.382 63.9128C231.165 64.0782 231.001 63.9128 231.001 63.5269C231.001 63.141 230.838 62.9205 230.675 63.141C230.457 63.3064 229.967 63.0859 229.531 62.6448C229.095 62.2038 228.551 61.9833 228.279 62.1487C227.68 62.5346 224.957 61.2666 225.284 60.7704C225.665 60.164 223.977 59.5576 223.269 60.0537C222.942 60.2191 222.833 60.1089 222.997 59.8332C223.214 59.5024 222.997 59.0614 222.507 58.896C221.254 58.3999 221.091 58.455 221.472 59.2268C221.69 59.6127 221.472 59.5024 221.036 59.0063C220.165 57.9037 215.972 55.9741 216.571 56.8562C216.735 57.2421 216.571 57.2973 216.081 57.1319C215.591 56.9665 215.319 56.5806 215.482 56.36C215.646 56.1395 215.319 55.8087 214.774 55.6434C214.284 55.478 213.032 55.0921 212.052 54.7613C211.017 54.4305 210.418 54.4305 210.581 54.7613C210.799 55.0369 210.69 55.2575 210.364 55.2575C210.091 55.2575 209.601 54.9267 209.383 54.4856C209.166 54.0446 207.641 53.3279 206.007 52.8317C202.849 51.8945 201.107 51.7291 202.958 52.501C203.829 52.8869 203.72 52.942 202.305 52.8869C200.508 52.7766 199.909 52.2253 201.107 51.8394C201.488 51.7291 198.82 51.0125 195.28 50.3509C189.672 49.1932 186.949 49.0278 174.915 48.9175C167.292 48.8073 160.049 48.8624 158.851 48.9727ZM190.434 50.2958C190.597 50.5714 189.617 50.6817 187.875 50.4612C184.063 50.0201 183.845 49.7445 187.33 49.7445C188.855 49.7445 190.216 49.965 190.434 50.2958ZM193.864 51.233C193.32 51.3432 192.449 51.3432 191.959 51.233C191.414 51.0676 191.85 50.9573 192.884 50.9573C193.919 50.9573 194.355 51.0676 193.864 51.233ZM206.77 54.0446C206.606 54.21 206.171 54.0446 205.79 53.6587C205.3 53.1074 205.354 53.0523 206.116 53.383C206.661 53.5484 206.933 53.8792 206.77 54.0446ZM136.961 54.5408C136.58 54.651 135.927 54.651 135.6 54.5408C135.219 54.3754 135.491 54.2651 136.254 54.2651C137.016 54.2651 137.288 54.3754 136.961 54.5408ZM182.266 64.0782C182.484 64.409 181.667 64.6295 180.251 64.5744C178.291 64.5193 178.128 64.4641 179.271 64.0782C181.231 63.4718 181.885 63.4718 182.266 64.0782ZM186.241 65.0154C185.697 65.1257 184.825 65.1257 184.335 65.0154C183.791 64.85 184.226 64.7398 185.261 64.7398C186.296 64.7398 186.731 64.85 186.241 65.0154ZM188.909 65.5116C188.746 65.677 188.256 65.7321 187.875 65.5667C187.439 65.4013 187.602 65.2359 188.201 65.2359C188.8 65.1808 189.127 65.3462 188.909 65.5116ZM191.959 66.118C191.577 66.2283 190.924 66.2283 190.597 66.118C190.216 65.9526 190.488 65.8424 191.251 65.8424C192.013 65.8424 192.285 65.9526 191.959 66.118ZM194.681 66.6693C194.3 66.7796 193.647 66.7796 193.32 66.6693C192.939 66.5039 193.211 66.3937 193.973 66.3937C194.736 66.3937 195.008 66.5039 194.681 66.6693ZM240.53 90.5405C241.075 91.147 241.402 91.6431 241.238 91.6431C241.075 91.6431 240.53 91.147 239.986 90.5405C239.441 89.9341 239.115 89.4379 239.278 89.4379C239.441 89.4379 239.986 89.9341 240.53 90.5405Z" fill="white"/>
<path fill-rule="evenodd" clip-rule="evenodd" d="M107.938 65.126C107.938 65.8427 103.8 67.9376 103.255 67.4965C103.037 67.276 103.037 67.4414 103.255 67.7722C103.582 68.3786 103.31 68.5991 102.166 68.4338C102.003 68.4338 101.513 68.8748 101.077 69.4261C100.696 69.9774 100.315 70.1979 100.315 69.9223C100.315 69.5915 99.9336 69.8671 99.4979 70.4736C99.0623 71.0249 98.6812 71.3005 98.6812 71.0249C98.6812 70.8043 98.1911 71.1351 97.5376 71.8518C96.9387 72.5685 96.6119 72.789 96.7753 72.348C96.9931 71.9069 96.5575 72.2377 95.7407 73.1749C94.9784 74.057 94.3794 74.6083 94.3249 74.3326C94.3249 74.1121 93.8349 74.4429 93.1814 75.1596C92.5825 75.8763 92.2557 76.0968 92.4735 75.6558C92.6914 75.2147 91.929 75.8211 90.84 77.034C89.6965 78.2469 88.9886 78.8533 89.2064 78.4122C89.4242 77.9712 87.2461 80.0661 84.3601 83.0983C81.4741 86.0753 79.0782 88.7215 79.0782 88.8869C79.0782 89.0523 77.7713 90.5959 76.1377 92.305C74.5586 94.0691 73.3606 95.5576 73.4151 95.6679C73.524 95.7781 72.8161 96.7153 71.8904 97.7628C70.9103 98.8103 70.0935 99.8577 70.0935 100.078C70.0935 100.299 69.7123 100.74 69.2767 101.015C68.8411 101.291 68.6777 101.567 68.95 101.567C69.2767 101.567 69.0044 101.953 68.4055 102.449C67.8609 102.89 67.752 103.166 68.1876 102.945C68.6233 102.724 68.4599 103.055 67.8065 103.662C67.153 104.268 66.7719 104.875 66.9352 105.095C67.153 105.26 66.9897 105.426 66.6085 105.426C66.2273 105.426 66.1184 105.702 66.2818 105.977C66.4452 106.308 66.2273 106.694 65.7917 106.859C65.3016 107.025 65.0294 107.355 65.1927 107.631C65.3016 107.852 64.9749 108.513 64.376 109.12C63.8314 109.781 63.5047 110.443 63.6681 110.608C63.8859 110.773 63.7225 110.939 63.3958 110.939C63.0146 110.939 62.7968 111.104 62.8513 111.325C63.0146 111.931 59.4208 119.429 58.8218 119.815C58.4951 119.98 58.3317 120.256 58.4406 120.366C58.7129 120.807 57.1882 124.721 56.7526 124.721C56.4803 124.721 56.3714 125.052 56.5348 125.493C56.6981 125.879 56.4803 126.596 56.0991 126.982C55.718 127.423 55.3913 127.974 55.3368 128.305C55.2824 129.959 54.4111 132.991 53.9755 132.991C53.7032 132.991 53.6488 133.377 53.8121 133.818C54.0299 134.259 53.921 134.645 53.7032 134.645C53.431 134.645 53.1587 135.582 53.1042 136.684C53.0498 137.842 52.7775 138.835 52.4508 138.945C52.1785 139.055 52.0696 139.496 52.233 139.937C52.3964 140.378 52.3419 141.15 52.1241 141.646C51.9063 142.197 51.634 143.135 51.5796 143.741C51.3618 146.057 50.5994 150.357 50.3816 150.798C50.0004 151.404 49.6737 156.862 49.7282 160.942C49.7282 162.871 49.5104 164.415 49.2926 164.415C49.0747 164.415 48.8569 166.62 48.8569 169.376C48.8569 172.133 49.0203 174.338 49.2926 174.338C49.5104 174.338 49.7282 176.378 49.7282 178.859C49.8371 186.853 49.946 188.672 50.3816 188.672C50.6539 188.672 50.7628 189.113 50.7083 189.609C50.6539 190.16 50.7083 190.987 50.8717 191.428C51.5796 193.413 52.4508 198.65 52.1241 199.147C51.9607 199.422 52.0152 199.698 52.233 199.698C52.832 199.698 54.7378 207.251 54.3022 207.967C54.1388 208.243 54.1933 208.519 54.4656 208.519C54.7378 208.519 55.119 209.015 55.2824 209.621C55.5546 210.724 55.6091 210.724 58.2228 209.401C59.6386 208.684 63.2324 206.92 66.1184 205.542L71.4548 202.951L71.237 200.911C71.1281 199.808 70.8014 198.209 70.4747 197.382C70.1479 196.611 69.8757 195.453 69.8212 194.902C69.7668 192.476 69.549 191.428 69.1678 191.428C68.95 191.428 68.7322 190.601 68.7322 189.609C68.6233 185.695 68.4599 184.261 68.1332 184.261C67.8065 184.261 67.4798 176.709 67.4798 170.479C67.4798 164.249 67.8065 158.35 68.0787 158.35C68.2965 158.35 68.5144 157.468 68.5688 156.421C68.7322 151.68 68.8411 150.632 69.2222 150.632C69.4401 150.632 69.6034 150.191 69.6579 149.64C69.7123 149.144 69.7668 147.876 69.8757 146.883C69.9301 145.946 70.1479 145.119 70.3113 145.119C70.5291 145.119 70.6925 144.678 70.7469 144.127C71.1281 140.654 72.1082 136.85 72.7072 136.85C73.0339 136.85 73.0884 136.684 72.925 136.464C72.7072 136.299 72.8161 135.802 73.1428 135.361C73.4696 134.975 73.5785 134.645 73.4151 134.645C73.1973 134.645 73.3606 134.093 73.7418 133.377C74.123 132.715 74.3953 131.888 74.4497 131.613C74.4497 131.282 74.9398 130.069 75.4298 128.856C75.9744 127.643 76.6823 125.989 77.0634 125.107C77.3901 124.28 77.8802 123.619 78.0436 123.619C78.2614 123.619 78.5881 123.012 78.7515 122.24C78.9693 121.469 79.3504 120.862 79.6772 120.862C80.0039 120.862 80.0583 120.587 79.895 120.311C79.7316 119.98 79.8405 119.76 80.1672 119.76C80.494 119.76 80.6573 119.539 80.4395 119.208C80.2761 118.933 80.6029 118.216 81.2563 117.554C81.8553 116.948 82.182 116.452 81.9642 116.452C81.6919 116.452 82.0186 116.066 82.5632 115.625C83.1621 115.184 83.4344 114.798 83.1621 114.798C82.8899 114.798 83.1621 114.412 83.7611 113.916C84.3056 113.475 84.4145 113.199 83.9789 113.42C83.5433 113.64 83.7611 113.254 84.5235 112.593C85.2858 111.931 85.5036 111.545 85.068 111.766C84.6324 111.986 84.7957 111.6 85.5036 110.994C86.2115 110.388 86.7016 109.726 86.7016 109.561C86.7016 109.395 87.4094 108.348 88.3896 107.19C89.3153 106.087 89.9143 105.481 89.6965 105.922C89.3697 106.418 89.4786 106.584 89.9143 106.308C90.241 106.087 90.4043 105.702 90.241 105.481C90.1321 105.205 90.6222 104.434 91.4389 103.717C92.2013 103 92.6914 102.78 92.4735 103.221C92.2557 103.662 92.528 103.441 93.1814 102.669C93.7804 101.898 94.5972 101.291 94.9784 101.291C95.3595 101.236 95.6318 100.96 95.5229 100.574C95.4684 100.189 95.6318 99.9129 95.9041 99.9129C96.1763 99.9129 96.2852 99.4718 96.1219 98.8654C95.9585 98.3141 96.1219 97.6526 96.4486 97.4872C96.7753 97.2666 96.8842 96.4948 96.7209 95.723C96.503 94.9512 96.6119 94.3999 96.9931 94.3999C97.3198 94.3999 97.4287 94.0691 97.2654 93.6281C97.102 93.2422 97.3198 92.5255 97.701 92.1396C98.0822 91.6985 98.4633 90.9818 98.5723 90.5408C98.6812 90.0998 99.389 89.1074 100.206 88.3907C101.023 87.6741 101.295 87.2881 100.859 87.5087C100.424 87.7292 101.132 86.792 102.493 85.3586C104.943 82.7675 105.597 82.2713 104.889 83.4842C104.671 83.8701 105.161 83.4842 105.923 82.6572C106.74 81.7752 107.666 81.279 108.047 81.4995C108.374 81.72 108.483 81.6649 108.319 81.3341C107.938 80.7828 110.606 79.2392 111.042 79.7354C111.205 79.9008 111.695 79.6251 112.131 79.1841C112.621 78.743 113.329 78.4674 113.71 78.6328C114.146 78.7982 114.472 78.6879 114.472 78.3571C114.472 78.0263 114.908 77.861 115.453 77.9712C115.943 78.0815 116.651 77.8058 116.977 77.3648C117.467 76.7032 117.304 76.2071 116.052 74.9391C115.18 74.057 114.581 73.1749 114.745 72.8993C114.908 72.6787 114.636 72.2928 114.146 72.1274C113.71 71.9621 113.438 71.5762 113.601 71.3005C113.765 71.0249 113.547 70.6389 113.057 70.4736C112.621 70.3082 112.349 69.9223 112.512 69.6466C112.675 69.371 112.458 68.9851 111.968 68.8197C111.532 68.6543 111.26 68.2684 111.423 67.9927C111.586 67.7171 111.369 67.3312 110.879 67.1658C110.443 67.0004 110.171 66.6696 110.28 66.4491C110.606 65.9529 109.572 64.9606 108.592 64.7401C108.21 64.6849 107.938 64.8503 107.938 65.126Z" fill="white"/>
<path fill-rule="evenodd" clip-rule="evenodd" d="M163.752 81.5546C162.881 81.6648 161.737 81.9405 161.302 82.1059C160.866 82.2713 160.049 82.3815 159.505 82.3264C158.96 82.2161 155.639 82.8777 152.154 83.7046C147.198 84.9175 146.109 85.3034 147.144 85.6342L148.505 86.0201L147.035 86.0752C146.164 86.1303 145.51 86.406 145.51 86.7368C145.51 87.0124 145.238 87.1227 144.857 86.9022C144.53 86.6816 144.857 87.3432 145.619 88.3907C146.327 89.4381 147.525 91.6433 148.233 93.2972C148.887 94.9511 149.812 96.5499 150.193 96.7704C150.629 96.9909 150.956 97.873 150.901 98.6999L150.847 100.188L150.357 98.8102L149.921 97.432L150.03 98.7551C150.193 100.464 151.282 100.629 156.673 99.6371C167.074 97.7627 172.029 97.5422 179.543 98.5345C183.464 99.0858 187.439 99.5269 188.419 99.5269C189.508 99.5269 189.944 99.6923 189.508 100.023C188.964 100.354 189.018 100.464 189.726 100.464C190.216 100.464 191.087 100.629 191.632 100.795C192.449 101.071 192.449 101.015 191.795 100.519C191.196 100.078 191.196 99.9128 191.686 99.9128C192.067 99.9128 192.503 100.299 192.721 100.795C192.884 101.291 193.429 101.567 194.028 101.401C194.627 101.236 194.953 101.346 194.736 101.622C194.572 101.897 194.79 102.173 195.171 102.173C195.552 102.228 196.26 102.339 196.696 102.394C197.132 102.449 197.839 102.559 198.221 102.614C198.602 102.614 198.765 102.945 198.547 103.331C198.275 103.717 198.438 103.827 199.037 103.606C199.528 103.441 200.018 103.606 200.181 104.103C200.399 104.654 200.889 104.819 201.597 104.599C202.305 104.378 202.795 104.544 203.013 105.095C203.176 105.591 203.557 105.812 203.829 105.646C204.102 105.481 204.319 105.646 204.319 105.977C204.319 106.308 204.592 106.418 204.864 106.253C205.191 106.087 205.408 106.198 205.408 106.528C205.408 106.859 205.626 107.025 205.898 106.804C206.225 106.639 206.661 106.969 206.988 107.466C207.314 108.017 207.587 108.237 207.587 107.962C207.587 107.631 207.968 107.907 208.458 108.513C208.893 109.064 209.166 109.175 208.948 108.734C208.73 108.293 209.111 108.513 209.765 109.285C210.418 110.057 210.799 110.277 210.581 109.836C210.364 109.395 210.745 109.616 211.398 110.387C212.052 111.159 212.433 111.38 212.215 110.939C211.997 110.498 212.596 110.994 213.522 112.041C214.502 113.089 215.101 113.585 214.938 113.144C214.72 112.593 214.829 112.648 215.373 113.254C215.809 113.806 216.353 114.026 216.571 113.806C216.843 113.585 216.843 113.695 216.68 114.026C216.462 114.357 216.843 115.129 217.551 115.68C218.314 116.378 218.441 116.36 217.933 115.625C217.497 115.018 217.933 115.239 218.913 116.121C219.838 117.003 220.492 117.995 220.274 118.271C220.111 118.602 220.22 118.657 220.492 118.492C220.819 118.271 221.472 118.602 222.016 119.208C222.561 119.815 222.779 120.311 222.507 120.311C222.234 120.366 223.487 121.744 225.284 123.398C227.081 125.107 228.17 126.32 227.734 126.099C227.298 125.934 227.462 126.21 228.17 126.706C228.823 127.202 229.368 127.919 229.368 128.305C229.368 128.635 229.858 129.407 230.457 129.959C231.056 130.51 231.546 131.227 231.546 131.612C231.546 131.998 232.036 132.715 232.635 133.266C233.234 133.818 233.56 134.479 233.397 134.7C233.234 134.975 233.343 135.196 233.669 135.196C234.214 135.196 235.14 137.291 234.922 138.063C234.867 138.338 235.085 138.504 235.412 138.504C235.684 138.504 235.847 138.724 235.684 139C235.466 139.275 235.63 139.606 235.902 139.717C236.229 139.827 236.555 140.268 236.61 140.709C236.719 141.15 236.937 141.867 237.154 142.197C237.427 142.583 237.427 143.135 237.263 143.465C237.1 143.741 237.209 144.017 237.536 144.017C237.862 144.017 237.971 144.237 237.808 144.568C237.644 144.844 237.753 145.119 238.08 145.119C238.461 145.119 238.625 145.505 238.407 145.946C238.243 146.387 238.352 146.773 238.679 146.773C239.006 146.773 239.115 146.994 238.951 147.269C238.733 147.545 238.842 147.876 239.169 147.986C239.441 148.041 239.768 148.868 239.931 149.805C240.04 150.687 240.313 151.9 240.53 152.396C240.748 152.893 240.748 153.554 240.585 153.885C240.367 154.161 240.53 154.602 240.857 154.767C241.129 154.987 241.293 155.484 241.129 155.925C240.966 156.311 241.129 156.807 241.402 157.027C241.728 157.193 241.892 158.075 241.674 158.902C241.511 159.729 241.565 160.611 241.783 160.831C242.327 161.327 242.491 163.753 242.545 170.314C242.6 177.425 242.436 179.796 241.892 180.127C241.619 180.292 241.565 181.284 241.728 182.332C241.946 183.655 241.837 184.261 241.402 184.261C240.966 184.261 240.857 184.702 241.075 185.309C241.238 185.915 241.129 186.522 240.857 186.687C240.53 186.908 240.422 187.404 240.585 187.845C240.748 188.286 240.694 188.947 240.476 189.333C240.204 189.719 239.931 190.656 239.823 191.428C239.714 192.145 239.441 193.082 239.115 193.413C238.842 193.744 238.788 194.185 239.006 194.35C239.169 194.571 239.06 194.736 238.733 194.736C238.407 194.736 238.243 195.067 238.407 195.508C238.57 195.949 238.407 196.445 238.134 196.666C237.808 196.831 237.644 197.272 237.808 197.548C238.026 197.823 237.917 198.044 237.644 198.044C237.372 198.044 237.154 198.375 237.1 198.705C236.991 200.029 236.664 201.076 236.174 201.903C235.902 202.344 235.63 203.116 235.521 203.557C235.466 203.998 235.14 204.439 234.813 204.549C234.541 204.659 234.377 204.99 234.595 205.266C234.758 205.542 234.595 205.762 234.268 205.762C233.942 205.762 233.833 205.983 233.996 206.313C234.159 206.589 234.051 206.865 233.724 206.865C233.397 206.865 233.234 207.085 233.397 207.306C233.56 207.581 233.179 208.298 232.635 208.96C232.036 209.621 231.546 210.393 231.546 210.724C231.546 210.999 231.328 211.275 231.001 211.275C230.729 211.275 230.457 211.661 230.457 212.102C230.457 212.543 230.239 212.929 229.912 212.929C229.64 212.929 229.368 213.315 229.368 213.756C229.368 214.252 228.986 214.748 228.551 214.914C228.115 215.134 227.843 215.465 228.006 215.685C228.17 215.906 227.625 216.512 226.917 217.009C226.155 217.505 225.665 218.166 225.828 218.442C225.992 218.718 225.556 219.324 224.902 219.82C224.195 220.261 223.65 220.978 223.65 221.364C223.596 221.695 223.323 221.97 222.942 221.86C222.561 221.805 222.343 222.025 222.398 222.356C222.507 222.687 222.071 223.238 221.472 223.569C220.873 223.955 219.457 225.223 218.259 226.436C217.116 227.649 215.918 228.586 215.7 228.531C215.428 228.42 214.992 228.861 214.665 229.468C214.339 230.074 213.74 230.57 213.359 230.57C212.923 230.57 212.433 230.956 212.269 231.453C212.106 231.894 211.725 232.169 211.453 232.004C211.18 231.838 210.799 232.059 210.636 232.555C210.418 233.051 210.146 233.327 209.982 233.162C209.819 232.996 209.22 233.327 208.621 233.933C208.022 234.54 207.314 234.871 207.042 234.705C206.715 234.485 206.497 234.65 206.497 234.981C206.497 235.312 206.28 235.422 205.953 235.256C205.681 235.091 205.408 235.201 205.408 235.532C205.408 235.863 205.191 235.973 204.864 235.808C204.592 235.642 204.319 235.753 204.319 236.083C204.319 236.414 204.102 236.524 203.775 236.359C203.503 236.194 203.23 236.304 203.23 236.58C203.23 237.186 199.745 238.84 198.221 239.005C197.676 239.06 197.241 239.336 197.241 239.612C197.241 239.887 197.077 239.943 196.859 239.777C196.696 239.557 196.206 239.667 195.825 239.942C195.117 240.549 193.265 241.1 191.686 241.21C191.142 241.266 190.706 241.486 190.706 241.762C190.706 241.982 190.434 242.037 190.162 241.872C189.835 241.652 189.236 241.817 188.8 242.148C188.365 242.534 187.602 242.699 187.167 242.478C186.731 242.313 186.35 242.423 186.35 242.699C186.35 243.195 185.098 243.305 179.707 243.361C178.237 243.416 177.093 243.636 177.093 243.857C177.093 244.132 174.534 244.298 171.375 244.298C168.217 244.298 165.767 244.077 165.93 243.802C166.094 243.526 165.059 243.361 163.643 243.361C160.158 243.416 156.946 243.085 156.946 242.754C156.946 242.478 155.748 242.258 153.025 242.148C152.48 242.093 152.045 241.817 152.045 241.541C152.045 241.21 151.827 241.155 151.5 241.321C151.228 241.486 150.084 241.431 149.05 241.1C147.906 240.825 147.253 240.769 147.416 241.1C147.634 241.376 147.471 241.596 147.144 241.596C146.763 241.596 146.654 242.037 146.872 242.754C147.144 243.526 147.09 243.802 146.654 243.581C146.273 243.305 146.164 243.526 146.382 244.022C146.545 244.518 146.436 244.904 146.055 244.904C145.728 244.904 145.619 245.125 145.783 245.455C145.946 245.731 145.837 246.007 145.51 246.007C145.129 246.007 144.966 246.393 145.129 246.834C145.347 247.275 145.238 247.771 144.911 247.936C144.639 248.157 144.53 248.543 144.694 248.818C144.911 249.094 144.748 249.315 144.421 249.315C144.095 249.315 143.931 249.535 144.149 249.811C144.312 250.086 144.204 250.472 143.877 250.693C143.55 250.913 143.441 251.244 143.605 251.52C143.768 251.795 143.441 252.512 142.788 253.174C141.481 254.497 141.426 254.828 142.516 254.828C142.951 254.828 143.332 255.048 143.332 255.379C143.332 255.654 143.659 255.765 144.095 255.599C144.53 255.434 145.02 255.544 145.184 255.875C145.402 256.206 145.892 256.316 146.327 256.096C146.763 255.93 147.144 256.04 147.144 256.316C147.144 256.757 148.015 256.978 150.575 257.088C151.065 257.088 151.5 257.308 151.5 257.584C151.5 257.86 151.881 257.97 152.317 257.805C152.753 257.584 153.569 257.639 154.06 257.86C154.604 258.135 155.475 258.246 156.02 258.19C156.51 258.135 156.946 258.301 156.946 258.576C156.946 258.852 157.653 258.962 158.525 258.797C159.396 258.687 160.267 258.852 160.43 259.183C160.648 259.514 161.737 259.624 163.208 259.403C164.569 259.238 165.658 259.293 165.658 259.569C165.658 259.844 168.489 260.065 171.92 260.065C175.351 260.065 178.182 259.899 178.182 259.624C178.182 259.403 179.598 259.238 181.34 259.238C186.513 259.183 187.439 259.128 187.439 258.521C187.439 258.246 188.038 258.19 188.746 258.356C189.508 258.521 190.271 258.411 190.488 258.08C190.652 257.749 191.305 257.584 191.85 257.749C192.449 257.915 192.884 257.805 192.884 257.474C192.884 257.143 193.374 257.033 193.973 257.198C194.572 257.364 195.062 257.253 195.062 256.922C195.062 256.592 195.552 256.481 196.151 256.647C196.75 256.812 197.241 256.702 197.241 256.371C197.241 256.04 197.622 255.93 198.057 256.096C198.493 256.316 198.983 256.206 199.201 255.875C199.364 255.544 199.854 255.434 200.235 255.599C200.671 255.765 201.052 255.654 201.161 255.379C201.27 255.103 201.923 254.772 202.686 254.717C203.448 254.607 204.21 254.331 204.374 254.111C204.537 253.835 205.027 253.615 205.463 253.56C205.898 253.449 206.552 253.229 206.933 253.008C207.26 252.733 207.587 252.733 207.587 252.898C207.587 253.119 207.968 252.843 208.458 252.402C208.893 251.906 209.547 251.63 209.819 251.795C210.091 252.016 210.309 251.851 210.309 251.52C210.309 251.189 210.581 251.079 210.854 251.244C211.18 251.41 211.398 251.299 211.398 250.968C211.398 250.638 211.67 250.527 211.943 250.693C212.269 250.858 212.487 250.748 212.487 250.417C212.487 250.086 212.76 249.976 213.032 250.142C213.359 250.307 213.576 250.197 213.576 249.866C213.576 249.535 213.849 249.425 214.121 249.59C214.448 249.756 214.665 249.645 214.665 249.315C214.665 248.984 214.938 248.874 215.21 249.039C215.537 249.204 215.754 249.094 215.754 248.763C215.754 248.432 216.027 248.322 216.299 248.488C216.626 248.653 216.843 248.543 216.843 248.267C216.843 247.936 217.061 247.661 217.388 247.661C217.66 247.661 218.368 247.275 218.858 246.834C219.403 246.393 220.056 245.952 220.383 245.841C220.655 245.786 221.472 245.18 222.234 244.463C222.942 243.802 223.759 243.25 224.086 243.25C224.358 243.25 225.066 242.644 225.665 241.872C226.209 241.155 226.917 240.549 227.135 240.659C227.353 240.714 228.224 239.943 229.041 238.95C229.858 238.013 230.729 237.296 230.947 237.407C231.437 237.737 236.991 232.059 236.991 231.232C236.991 230.901 237.808 229.964 238.788 229.192C239.714 228.365 240.149 227.869 239.714 228.09C239.278 228.255 239.768 227.649 240.803 226.656C241.837 225.719 242.327 225.113 241.892 225.278C241.456 225.499 241.728 225.057 242.545 224.341C243.362 223.569 243.852 222.797 243.689 222.632C243.525 222.466 243.798 222.191 244.288 221.97C244.778 221.805 244.996 221.419 244.832 221.143C244.669 220.868 244.941 220.482 245.377 220.316C245.867 220.151 246.085 219.765 245.921 219.489C245.758 219.214 246.03 218.828 246.466 218.662C246.956 218.497 247.174 218.111 247.01 217.835C246.847 217.56 247.01 217.339 247.337 217.339C247.664 217.339 247.827 217.119 247.609 216.788C247.446 216.512 247.718 215.796 248.263 215.244C248.807 214.693 249.297 213.866 249.406 213.425C249.515 212.984 249.842 212.543 250.114 212.488C250.386 212.378 250.495 212.102 250.332 211.826C250.169 211.551 250.441 210.944 250.931 210.503C251.367 210.007 251.584 209.621 251.367 209.621C251.203 209.621 251.312 209.29 251.639 208.904C251.965 208.463 252.074 207.967 251.857 207.802C251.693 207.581 251.748 207.416 252.02 207.416C252.292 207.416 252.564 206.865 252.619 206.203C252.673 205.597 252.946 204.88 253.163 204.715C253.381 204.549 253.708 203.888 253.762 203.281C253.871 202.675 254.198 202.123 254.416 202.013C254.688 201.903 254.797 201.517 254.634 201.076C254.47 200.69 254.634 200.194 254.906 199.973C255.233 199.808 255.396 199.367 255.233 199.091C255.015 198.816 255.124 198.595 255.45 198.595C255.777 198.595 255.886 198.264 255.723 197.823C255.559 197.382 255.668 196.886 255.995 196.721C256.322 196.5 256.431 196.004 256.213 195.563C256.049 195.122 256.158 194.736 256.431 194.736C256.866 194.736 257.138 193.578 257.138 190.987C257.138 190.271 257.356 189.83 257.629 189.995C258.064 190.271 258.173 189.003 258.173 184.647C258.173 183.49 258.391 182.663 258.609 182.773C258.827 182.938 259.153 181.505 259.262 179.631C259.807 172.408 259.425 157.248 258.718 157.248C258.5 157.248 258.336 156.696 258.282 155.98C258.064 152.286 257.901 151.184 257.574 151.184C257.356 151.184 257.193 150.742 257.193 150.191C257.084 147.71 256.866 146.773 256.431 146.773C256.213 146.773 256.049 146.442 256.158 146.056C256.213 145.726 255.941 144.788 255.559 144.072C254.96 143.024 254.96 142.859 255.614 143.245C256.049 143.52 255.941 143.135 255.342 142.197C254.797 141.37 254.525 140.433 254.688 140.158C254.851 139.827 254.743 139.606 254.47 139.606C254.144 139.606 253.926 139.441 253.98 139.165C253.98 138.945 253.654 137.842 253.109 136.684C252.619 135.527 252.347 134.314 252.564 133.983C252.782 133.652 252.728 133.542 252.401 133.707C251.748 134.093 250.985 132.605 251.421 131.888C251.584 131.668 251.312 131.282 250.822 131.116C250.386 130.951 250.169 130.565 250.332 130.234C250.495 129.959 250.386 129.683 250.005 129.683C249.624 129.683 249.461 129.517 249.678 129.352C249.842 129.187 249.57 128.58 249.079 127.974C248.589 127.367 248.263 126.816 248.426 126.706C248.589 126.596 248.208 125.989 247.664 125.328C247.065 124.666 246.792 124.17 246.956 124.17C247.119 124.17 246.684 123.508 245.976 122.737C245.213 121.91 244.778 121.083 244.887 120.862C245.05 120.642 244.778 120.256 244.288 120.09C243.798 119.87 243.525 119.594 243.689 119.429C243.852 119.263 243.362 118.492 242.545 117.72C241.728 116.948 241.565 116.672 242.164 117.058C242.763 117.499 241.946 116.507 240.367 114.908C238.788 113.309 237.644 111.766 237.753 111.545C237.917 111.325 236.392 109.561 234.377 107.576C232.417 105.646 231.11 104.544 231.546 105.205C231.981 105.812 231.056 104.985 229.422 103.276C227.843 101.567 226.699 100.574 226.917 101.015C227.135 101.512 226.972 101.512 226.482 100.85C226.046 100.354 225.447 99.9128 225.12 99.9128C224.794 99.9128 224.358 99.6371 224.14 99.2512C223.868 98.8653 223.977 98.8102 224.467 99.0858C224.957 99.3615 225.066 99.3064 224.794 98.8653C224.576 98.5345 224.14 98.3692 223.868 98.5345C223.596 98.7551 222.779 98.2038 222.016 97.3768C221.254 96.5499 220.655 96.1088 220.655 96.3294C220.655 96.605 220.274 96.3294 219.784 95.7229C219.348 95.1716 219.076 95.0614 219.294 95.5024C219.512 95.9434 219.185 95.7781 218.64 95.1165C218.096 94.4549 217.279 93.8485 216.843 93.7383C216.408 93.628 215.7 93.187 215.319 92.7459C214.665 92.0292 214.611 92.0292 214.938 92.7459C215.155 93.2972 215.047 93.2421 214.502 92.6357C214.066 92.0844 213.576 91.8087 213.413 92.0292C213.195 92.1946 213.032 92.0844 213.032 91.7536C213.032 91.4228 212.651 91.2574 212.106 91.4779C211.562 91.6985 211.344 91.5882 211.562 91.2574C211.997 90.5959 208.403 88.8317 207.369 89.2176C206.933 89.383 206.443 89.2176 206.171 88.8317C205.898 88.3907 206.007 88.2804 206.497 88.6112C206.988 88.942 207.096 88.8317 206.77 88.3907C206.552 88.0048 205.898 87.7842 205.354 87.9496C204.755 88.115 204.319 88.0048 204.319 87.674C204.319 87.3432 203.938 87.2881 203.448 87.4535C202.958 87.674 202.74 87.5637 203.013 87.1778C203.23 86.7368 202.958 86.6816 202.141 86.9573C201.379 87.1778 201.052 87.1227 201.27 86.7919C201.706 86.0752 200.235 85.5239 199.037 85.965C198.493 86.1855 198.275 86.0752 198.493 85.7444C198.929 85.0277 194.3 83.6495 193.374 84.2008C192.939 84.5316 192.83 84.4213 193.157 83.9251C193.483 83.3739 193.211 83.2636 192.176 83.4841C191.36 83.6495 190.652 83.4841 190.543 83.1533C190.434 82.7674 188.637 82.602 185.751 82.602C183.028 82.602 181.939 82.4918 183.083 82.2713C184.771 81.9956 184.607 81.9405 181.504 81.5546C177.964 81.1687 166.747 81.1687 163.752 81.5546ZM175.351 82.1059C174.207 82.2161 172.247 82.2161 170.994 82.1059C169.687 81.9956 170.613 81.8853 173.009 81.8853C175.405 81.8853 176.44 81.9956 175.351 82.1059ZM156.782 83.7046C156.619 83.87 156.129 83.9251 155.748 83.7598C155.312 83.5944 155.475 83.429 156.074 83.429C156.673 83.3739 157 83.5392 156.782 83.7046ZM166.91 97.5422C166.529 97.6525 165.876 97.6525 165.549 97.5422C165.168 97.3768 165.44 97.2666 166.202 97.2666C166.965 97.2666 167.237 97.3768 166.91 97.5422ZM178.89 97.5422C178.509 97.6525 177.746 97.6525 177.256 97.5422C176.712 97.3768 177.039 97.2666 177.91 97.2666C178.835 97.2666 179.217 97.3768 178.89 97.5422ZM183.791 98.0935C183.41 98.2038 182.756 98.2038 182.429 98.0935C182.048 97.9281 182.32 97.8179 183.083 97.8179C183.845 97.8179 184.117 97.9281 183.791 98.0935ZM186.187 98.5897C186.023 98.7551 185.533 98.8102 185.152 98.6448C184.716 98.4794 184.88 98.314 185.479 98.314C186.078 98.2589 186.404 98.4243 186.187 98.5897ZM236.446 110.112C237.154 110.884 237.59 111.49 237.427 111.49C237.318 111.49 236.61 110.884 235.902 110.112C235.194 109.34 234.758 108.734 234.922 108.734C235.031 108.734 235.739 109.34 236.446 110.112ZM224.195 121.413C224.739 122.02 225.066 122.516 224.902 122.516C224.739 122.516 224.195 122.02 223.65 121.413C223.106 120.807 222.779 120.311 222.942 120.311C223.106 120.311 223.65 120.807 224.195 121.413Z" fill="white"/>
<path fill-rule="evenodd" clip-rule="evenodd" d="M117.849 89.1624C115.017 90.4304 112.784 92.1946 113.166 92.8561C113.383 93.1869 113.275 93.2972 113.002 93.1318C112.24 92.6356 110.497 95.337 110.988 96.1639C111.205 96.5498 111.151 96.6049 110.77 96.3844C110.171 96.0536 110.007 96.3844 110.171 97.487C110.171 97.7075 109.898 98.0383 109.463 98.314C108.973 98.6447 108.755 100.023 108.809 103.055C108.809 107.576 109.79 110.332 111.587 111.435C112.131 111.766 112.349 112.041 112.131 112.041C111.859 112.041 112.022 112.427 112.512 112.868C112.948 113.309 113.656 113.585 114.091 113.42C114.473 113.254 115.18 113.53 115.616 114.081C116.324 114.963 116.269 115.018 115.398 114.302C114.908 113.861 114.309 113.695 114.146 113.861C113.765 114.246 115.344 115.073 118.556 116.231C121.225 117.113 126.234 116.893 125.635 115.9C125.472 115.68 125.799 115.57 126.343 115.735C126.942 115.845 127.759 115.625 128.195 115.129C128.685 114.688 129.12 114.412 129.229 114.522C129.393 114.632 130.046 114.246 130.808 113.585C131.571 112.979 131.788 112.703 131.353 112.923C130.917 113.144 130.699 113.144 130.917 112.868C131.135 112.648 131.897 112.152 132.551 111.821C134.13 111.049 136.254 107.024 135.328 106.694C134.947 106.583 134.838 106.087 135.001 105.646C135.273 104.93 135.382 104.93 135.764 105.536C136.036 105.977 136.254 105.095 136.254 103.221C136.254 100.96 136.09 100.409 135.655 101.015C135.219 101.677 135.165 101.567 135.437 100.629C136.199 97.8729 132.279 91.8638 128.467 89.8791C125.526 88.3906 120.245 88.0047 117.849 89.1624ZM126.615 89.824C126.234 89.9342 125.581 89.9342 125.254 89.824C124.873 89.6586 125.145 89.5483 125.908 89.5483C126.67 89.5483 126.942 89.6586 126.615 89.824Z" fill="white"/>
<path fill-rule="evenodd" clip-rule="evenodd" d="M271.242 101.897C270.915 102.339 270.425 102.559 270.207 102.394C269.935 102.228 269.391 102.614 268.955 103.221C268.574 103.827 268.084 104.158 267.866 103.992C267.702 103.827 267.321 104.213 266.94 104.819C266.613 105.481 266.123 105.867 265.851 105.701C265.579 105.536 265.089 105.922 264.762 106.528C264.435 107.135 263.945 107.521 263.673 107.355C263.401 107.19 263.02 107.41 262.747 107.852C262.529 108.293 262.094 108.734 261.767 108.844C260.95 109.119 258.772 111.49 259.317 111.49C259.643 111.49 259.807 111.711 259.752 111.986C259.643 112.262 260.079 112.923 260.678 113.42C261.277 113.916 261.386 114.191 260.95 113.971C260.515 113.75 260.624 114.026 261.168 114.467C261.767 114.963 262.039 115.349 261.767 115.349C261.495 115.349 261.767 115.735 262.366 116.176C262.911 116.617 263.183 117.003 262.911 117.003C262.584 117.003 262.856 117.389 263.455 117.83C264 118.271 264.272 118.657 264.054 118.657C263.782 118.657 264 119.043 264.435 119.539C264.925 119.98 265.198 120.642 265.034 120.917C264.816 121.193 264.98 121.413 265.307 121.413C265.633 121.413 265.742 121.634 265.579 121.965C265.415 122.24 265.524 122.516 265.906 122.516C266.287 122.516 266.45 122.681 266.232 122.847C266.069 123.067 266.287 123.564 266.722 124.005C267.158 124.446 267.376 125.052 267.212 125.328C266.995 125.603 267.158 125.824 267.485 125.824C267.811 125.824 267.92 126.044 267.757 126.375C267.594 126.651 267.702 126.926 268.029 126.926C268.356 126.926 268.519 127.147 268.301 127.423C268.138 127.698 268.247 128.084 268.574 128.305C268.9 128.525 269.009 128.911 268.846 129.187C268.628 129.462 268.792 129.683 269.118 129.683C269.445 129.683 269.608 129.903 269.391 130.179C269.227 130.455 269.336 130.841 269.663 131.061C269.99 131.282 270.098 131.668 269.935 131.943C269.717 132.219 269.826 132.439 270.153 132.439C270.48 132.439 270.588 132.825 270.425 133.266C270.207 133.707 270.371 134.093 270.752 134.093C271.133 134.093 271.296 134.479 271.079 134.92C270.915 135.361 271.024 135.747 271.296 135.747C271.569 135.747 271.678 136.133 271.514 136.574C271.296 137.015 271.46 137.401 271.841 137.401C272.222 137.401 272.331 137.842 272.113 138.504C271.895 139.11 272.004 139.606 272.331 139.606C272.658 139.606 272.767 139.937 272.603 140.378C272.44 140.819 272.603 141.315 272.93 141.536C273.257 141.756 273.366 142.363 273.202 142.969C272.984 143.576 273.093 144.017 273.474 144.017C273.91 144.017 274.019 144.513 273.801 145.34C273.638 146.112 273.747 146.883 274.073 147.049C274.4 147.269 274.509 148.041 274.346 148.758C274.128 149.475 274.237 150.081 274.509 150.081C274.781 150.081 275.054 150.908 275.054 151.845C275.217 156.697 275.326 157.744 275.816 157.413C276.088 157.248 276.143 157.799 275.925 158.791C275.435 161.107 276.469 162.265 278.375 161.548C279.138 161.272 282.677 161.107 286.271 161.162L292.805 161.272V157.634C292.805 155.594 292.642 153.94 292.424 153.94C292.206 153.94 292.043 152.893 291.988 151.569C291.934 146.994 291.825 146.222 291.444 146.222C291.172 146.222 291.008 145.671 290.954 144.954C290.79 141.977 290.627 140.709 290.246 140.709C289.865 140.709 289.81 140.158 289.756 137.236C289.701 136.409 289.484 135.747 289.157 135.747C288.885 135.747 288.776 135.527 288.994 135.251C289.157 134.975 289.048 134.589 288.776 134.369C288.449 134.204 288.34 133.707 288.558 133.266C288.721 132.825 288.558 132.439 288.177 132.439C287.796 132.439 287.632 132.053 287.85 131.612C288.013 131.171 287.904 130.786 287.578 130.786C287.251 130.786 287.088 130.4 287.251 129.959C287.469 129.518 287.36 129.021 287.033 128.856C286.761 128.635 286.652 128.25 286.815 127.974C287.033 127.698 286.87 127.478 286.543 127.478C286.162 127.478 285.999 127.092 286.216 126.651C286.38 126.21 286.271 125.824 285.944 125.824C285.617 125.824 285.563 125.548 285.726 125.273C285.89 124.942 285.781 124.721 285.454 124.721C285.073 124.721 284.91 124.335 285.127 123.894C285.291 123.453 285.182 123.067 284.855 123.067C284.528 123.067 284.474 122.792 284.637 122.516C284.801 122.185 284.692 121.965 284.365 121.965C283.984 121.965 283.82 121.579 284.038 121.138C284.202 120.697 284.093 120.311 283.766 120.311C283.439 120.311 283.385 120.035 283.548 119.76C283.712 119.429 283.603 119.208 283.276 119.208C282.949 119.208 282.786 118.988 283.004 118.712C283.167 118.436 282.895 117.775 282.405 117.334C281.969 116.838 281.751 116.452 281.969 116.452C282.187 116.452 281.915 115.9 281.316 115.239C280.608 114.467 280.553 114.191 281.098 114.467C281.533 114.688 281.316 114.357 280.553 113.695C279.791 113.034 279.573 112.648 280.009 112.868C280.444 113.089 280.336 112.758 279.682 112.207C278.593 111.27 277.994 110.222 277.94 109.119C277.94 108.844 277.45 108.293 276.905 107.796C276.306 107.3 276.252 107.135 276.742 107.355C277.177 107.576 277.068 107.3 276.469 106.804C275.87 106.308 275.435 105.646 275.544 105.371C275.598 105.095 275.38 104.874 275.054 104.874C274.781 104.874 274.564 104.709 274.672 104.433C274.781 104.213 274.237 103.386 273.366 102.614C272.113 101.346 271.786 101.236 271.242 101.897Z" fill="white"/>
<path fill-rule="evenodd" clip-rule="evenodd" d="M164.024 114.136C164.024 114.357 163.044 114.577 161.846 114.577C160.648 114.632 159.287 115.073 158.851 115.569C158.361 116.066 157.544 116.452 157.054 116.452C156.237 116.452 156.237 116.341 156.945 115.845C157.544 115.404 157.435 115.349 156.401 115.68C155.693 115.9 154.767 116.396 154.332 116.782C153.46 117.664 152.916 117.775 153.406 117.003C154.059 115.955 152.644 116.452 151.446 117.664C150.792 118.381 150.465 118.602 150.683 118.161C151.01 117.554 150.901 117.444 150.193 117.72C149.649 117.94 149.104 118.105 148.995 118.105C148.832 118.105 148.886 118.326 149.05 118.657C149.267 118.987 148.995 119.043 148.451 118.822C147.743 118.546 147.634 118.657 147.961 119.208C148.287 119.704 148.178 119.814 147.743 119.539C147.362 119.263 146.708 119.539 146.273 120.09C145.783 120.697 145.619 120.807 145.783 120.421C146.055 119.87 145.728 119.925 144.476 120.586C143.496 121.082 142.842 121.634 143.005 121.854C143.114 122.075 142.352 122.847 141.263 123.508L139.248 124.776L140.882 123.343C142.352 122.02 142.352 121.965 141.154 122.571C139.194 123.563 134.892 126.926 135.6 126.926C135.927 126.926 136.362 126.706 136.526 126.375C136.689 126.099 137.397 125.548 138.05 125.217C138.704 124.886 138.377 125.327 137.342 126.265C136.308 127.147 135.11 127.753 134.674 127.588C134.184 127.422 134.021 127.533 134.293 127.919C134.511 128.304 134.347 128.58 133.966 128.58C132.932 128.58 129.61 132.108 130.1 132.66C130.372 132.88 130.263 133.046 129.991 132.99C128.848 132.715 128.412 133.046 129.174 133.542C129.882 133.983 129.882 134.093 129.12 134.093C128.63 134.093 127.813 134.644 127.214 135.306C126.524 136.151 126.561 136.298 127.323 135.747C127.922 135.306 127.595 135.692 126.561 136.629C125.472 137.621 124.818 138.614 125.036 139C125.308 139.386 125.145 139.551 124.709 139.496C124.328 139.386 124.056 139.771 124.056 140.268C124.11 140.819 123.947 141.15 123.729 140.984C123.511 140.819 123.13 141.095 122.967 141.591C122.749 142.142 122.858 142.307 123.348 142.087C123.675 141.866 123.402 142.197 122.695 142.804C121.987 143.355 121.551 144.127 121.769 144.457C121.932 144.733 121.714 145.119 121.279 145.34C120.843 145.505 120.462 145.946 120.462 146.332C120.462 146.828 120.625 146.828 121.061 146.222C121.551 145.56 121.606 145.56 121.333 146.387C121.17 146.938 121.007 147.545 121.007 147.655C121.007 147.82 120.789 147.82 120.516 147.6C119.863 147.214 119.155 149.309 119.645 150.081C119.809 150.356 119.7 150.632 119.373 150.632C118.992 150.632 118.883 151.018 119.046 151.514C119.264 152.065 119.155 152.231 118.72 151.955C118.284 151.679 118.229 151.845 118.447 152.506C118.665 153.058 118.502 153.83 118.012 154.271C117.576 154.767 117.195 155.428 117.195 155.759C117.195 156.145 117.413 156.09 117.739 155.594C118.665 154.105 118.284 155.539 117.195 157.633C116.051 159.839 115.616 162.209 116.65 160.555C117.413 159.343 117.304 160.335 116.378 162.595C115.18 165.407 115.235 177.149 116.433 179.024C116.977 179.906 117.195 180.898 116.923 182.001C116.705 182.938 116.814 183.765 117.195 183.986C117.522 184.206 117.63 184.868 117.413 185.474C117.195 186.301 117.249 186.466 117.739 186.191C118.229 185.915 118.284 186.08 118.066 186.907C117.848 187.514 117.957 188.175 118.284 188.396C118.611 188.616 118.72 189.223 118.556 189.719C118.393 190.27 118.611 191.042 119.046 191.373C119.482 191.759 119.7 192.476 119.536 192.917C119.319 193.523 119.427 193.688 119.809 193.413C120.244 193.192 120.353 193.302 120.135 193.799C119.972 194.24 120.244 194.736 120.734 194.956C121.279 195.122 121.551 195.673 121.388 196.059C121.224 196.5 121.442 196.996 121.878 197.162C122.368 197.327 122.64 197.823 122.477 198.209C122.368 198.54 122.64 199.201 123.13 199.587C123.838 200.194 123.838 200.249 123.185 199.973C122.749 199.753 122.858 200.028 123.402 200.469C124.001 200.966 124.274 201.351 124.001 201.351C123.729 201.351 124.001 201.737 124.6 202.178C125.145 202.619 125.417 203.005 125.145 203.005C124.818 203.005 125.09 203.391 125.689 203.887C126.234 204.328 126.343 204.604 125.907 204.384C125.472 204.163 125.581 204.439 126.18 204.935C126.779 205.431 127.269 206.037 127.269 206.258C127.269 206.534 128.14 207.526 129.174 208.518C130.209 209.511 130.699 210.062 130.263 209.841C129.828 209.566 130.536 210.558 131.897 211.991C134.347 214.583 135.164 215.244 134.293 213.866C134.021 213.48 134.347 213.811 135.001 214.583C135.709 215.354 136.526 215.961 136.852 215.961C137.179 215.961 137.778 216.457 138.214 217.008C138.649 217.615 138.976 217.89 138.976 217.56C139.03 217.284 139.466 217.615 140.011 218.276C140.555 218.938 141.154 219.324 141.372 219.158C141.535 218.938 141.699 219.103 141.699 219.489C141.699 219.875 141.916 220.04 142.189 219.82C142.515 219.655 142.951 219.985 143.278 220.481C143.604 221.033 143.877 221.253 143.877 221.033C143.877 220.426 147.144 222.411 147.144 223.017C147.144 223.238 147.416 223.293 147.688 223.128C148.015 222.962 148.233 223.073 148.233 223.403C148.233 223.734 148.451 223.9 148.723 223.679C148.995 223.514 149.376 223.624 149.594 223.955C149.812 224.285 150.193 224.396 150.465 224.23C150.738 224.01 150.956 224.175 150.956 224.506C150.956 224.837 151.173 225.002 151.446 224.782C151.718 224.616 152.099 224.726 152.317 225.057C152.535 225.388 152.916 225.498 153.188 225.333C153.46 225.112 153.678 225.223 153.678 225.498C153.678 225.829 154.168 225.939 154.767 225.774C155.366 225.609 155.856 225.719 155.856 226.05C155.856 226.38 156.401 226.491 157.054 226.27C157.925 226.05 158.089 226.16 157.762 226.711C157.435 227.262 157.544 227.373 158.252 227.097C158.797 226.877 159.505 226.877 159.831 227.097C160.212 227.318 161.138 227.428 161.955 227.318C162.826 227.262 163.48 227.373 163.48 227.648C163.48 228.145 165.821 228.365 171.539 228.475C176.33 228.53 180.36 228.2 180.36 227.703C180.36 227.483 181.013 227.318 181.885 227.262C185.805 227.207 186.35 227.097 186.023 226.601C185.805 226.27 185.969 226.16 186.404 226.27C186.84 226.435 187.874 226.215 188.691 225.774C189.508 225.333 190.434 225.167 190.706 225.333C190.978 225.498 191.305 225.388 191.523 225.057C191.741 224.726 192.122 224.616 192.394 224.782C192.666 225.002 192.884 224.837 192.884 224.451C192.884 224.065 193.047 223.9 193.211 224.12C193.429 224.285 193.919 224.065 194.354 223.624C194.844 223.183 195.552 222.907 195.933 223.073C196.369 223.238 196.696 223.128 196.696 222.797C196.696 222.466 196.968 222.411 197.24 222.576C197.567 222.742 197.785 222.632 197.785 222.301C197.785 221.97 198.057 221.86 198.329 222.025C198.656 222.19 198.874 222.08 198.874 221.694C198.874 221.308 199.037 221.143 199.201 221.364C199.364 221.529 200.017 221.198 200.671 220.647C201.27 220.04 201.923 219.71 202.141 219.82C202.413 219.985 202.74 219.71 202.903 219.213C203.067 218.772 203.448 218.552 203.775 218.717C204.047 218.883 204.319 218.772 204.319 218.442C204.319 218.111 204.918 217.615 205.68 217.229C207.423 216.457 206.987 215.685 202.304 211.054C200.29 209.07 198.874 207.416 199.146 207.416C199.418 207.416 199.092 207.03 198.438 206.534C197.785 206.093 197.404 205.431 197.567 205.1C197.785 204.769 197.676 204.659 197.349 204.88C197.077 205.045 196.696 204.935 196.587 204.604C196.424 204.163 195.933 204.218 194.899 204.935C194.082 205.431 193.429 205.652 193.429 205.431C193.429 205.155 193.211 205.266 192.939 205.652C192.721 206.037 192.176 206.423 191.741 206.478C191.305 206.589 190.652 206.809 190.325 207.03C189.944 207.305 189.617 207.305 189.617 207.14C189.617 206.92 189.236 207.195 188.746 207.636C187.983 208.408 186.84 208.794 185.696 208.573C185.424 208.573 185.261 208.794 185.261 209.125C185.261 209.455 184.771 209.621 184.172 209.455C183.573 209.29 183.083 209.4 183.083 209.731C183.083 210.062 182.701 210.172 182.266 210.007C181.83 209.786 181.34 209.897 181.122 210.227C180.959 210.558 180.414 210.668 179.979 210.503C179.543 210.338 178.89 210.338 178.563 210.558C177.637 211.165 165.658 211.22 165.658 210.668C165.658 210.393 164.95 210.338 164.024 210.558C162.935 210.779 162.391 210.668 162.391 210.172C162.391 209.786 162.009 209.621 161.574 209.841C161.138 210.007 160.757 209.897 160.757 209.566C160.757 209.235 160.267 209.125 159.613 209.345C158.851 209.621 158.579 209.566 158.797 209.125C159.069 208.739 158.851 208.629 158.361 208.849C157.871 209.014 157.49 208.904 157.49 208.573C157.49 208.243 157.163 208.132 156.728 208.298C156.346 208.463 155.856 208.188 155.693 207.746C155.475 207.25 154.985 207.03 154.604 207.195C154.168 207.361 153.678 207.085 153.515 206.644C153.297 206.148 152.807 205.927 152.317 206.093C151.881 206.313 151.391 206.037 151.173 205.541C151.01 205.045 150.629 204.769 150.411 204.935C150.193 205.1 149.812 204.825 149.649 204.328C149.485 203.887 149.104 203.612 148.832 203.832C148.505 203.998 148.07 203.667 147.743 203.171C147.416 202.619 147.144 202.344 147.144 202.564C147.144 203.06 139.303 195.177 139.248 194.626C139.248 194.405 138.758 193.854 138.159 193.358C137.56 192.861 137.451 192.586 137.887 192.806C138.431 193.027 138.377 192.917 137.778 192.365C137.233 191.924 136.961 191.428 137.179 191.263C137.342 191.042 137.07 190.767 136.58 190.546C136.09 190.381 135.818 189.995 135.981 189.774C136.417 189.113 135.654 187.514 135.11 187.9C134.838 188.065 134.783 187.845 134.946 187.404C135.11 186.963 134.838 186.466 134.347 186.246C133.748 186.025 133.585 185.584 133.803 184.812C134.021 184.151 133.912 183.71 133.531 183.71C133.149 183.71 133.041 183.324 133.204 182.828C133.422 182.277 133.313 182.111 132.877 182.387C132.442 182.662 132.387 182.497 132.659 181.78C132.877 181.174 132.768 180.567 132.333 180.347C131.407 179.741 131.026 173.235 131.461 165.131C131.57 163.146 131.788 162.044 132.06 162.375C132.333 162.761 132.442 162.54 132.278 161.768C132.115 161.107 132.224 160.555 132.551 160.555C132.877 160.555 132.986 160.004 132.768 159.232C132.551 158.405 132.768 157.689 133.313 157.248C133.748 156.862 134.021 156.2 133.857 155.759C133.694 155.318 133.748 155.098 134.021 155.263C134.62 155.649 135.273 154.05 134.838 153.278C134.62 152.947 134.892 152.341 135.437 151.9C136.035 151.514 136.308 151.183 136.09 151.183C135.872 151.183 136.199 150.687 136.798 150.081C137.451 149.419 137.778 148.647 137.56 148.261C137.342 147.876 137.342 147.765 137.615 147.986C138.214 148.537 139.684 146.387 139.248 145.67C139.03 145.34 139.085 145.174 139.357 145.229C139.902 145.395 146.327 138.944 146.164 138.338C146.109 138.118 146.218 138.007 146.436 138.007C147.634 138.228 148.396 137.787 149.703 136.409C150.52 135.582 150.956 135.251 150.738 135.637C150.411 136.188 150.738 136.133 151.99 135.526C152.916 135.03 153.678 134.369 153.678 134.093C153.678 133.817 154.059 133.762 154.604 133.928C155.257 134.203 155.366 134.093 155.039 133.542C154.767 133.046 154.822 132.935 155.257 133.211C155.584 133.431 156.292 133.321 156.728 132.935C157.163 132.605 158.307 132.219 159.287 132.108C160.212 132.053 161.792 131.667 162.663 131.281C163.589 130.951 166.148 130.565 168.38 130.454C170.613 130.344 173.553 130.124 174.915 129.958C176.712 129.793 177.147 129.848 176.548 130.234C175.949 130.675 176.276 130.73 177.801 130.454C179.053 130.234 179.815 130.344 179.815 130.675C179.815 131.006 180.85 131.392 182.048 131.612C183.3 131.833 185.152 132.384 186.186 132.77C187.221 133.211 188.256 133.432 188.528 133.266C188.855 133.046 189.072 133.211 189.072 133.542C189.072 133.873 189.345 133.983 189.617 133.817C189.944 133.652 190.161 133.762 190.161 134.093C190.161 134.479 190.543 134.644 190.978 134.424C191.414 134.258 192.013 134.534 192.231 135.03C192.557 135.582 193.102 135.802 193.646 135.582C194.191 135.361 194.409 134.92 194.191 134.589C193.973 134.203 194.028 134.093 194.354 134.258C195.117 134.755 203.393 126.099 203.502 124.721C203.557 124.115 203.23 123.288 202.74 122.902C201.978 122.295 201.923 122.35 202.631 123.343C203.012 123.949 202.74 123.729 201.923 122.902C201.161 122.075 200.507 121.523 200.507 121.744C200.507 121.965 200.181 121.744 199.8 121.138C199.364 120.586 198.765 120.311 198.384 120.531C198.057 120.752 197.621 120.531 197.458 120.035C197.24 119.539 196.75 119.263 196.315 119.429C195.879 119.594 195.661 119.539 195.825 119.263C196.206 118.657 194.627 117.995 193.919 118.436C193.646 118.602 193.429 118.436 193.429 118.105C193.429 117.775 193.211 117.664 192.884 117.83C192.612 117.995 192.34 117.885 192.34 117.499C192.34 117.168 191.904 117.003 191.251 117.168C190.652 117.334 190.27 117.278 190.434 117.058C190.543 116.782 190.053 116.341 189.29 115.955C187.657 115.239 186.84 115.184 187.983 115.9C188.528 116.286 188.582 116.452 188.092 116.452C187.711 116.452 187.275 116.066 187.058 115.569C186.785 114.853 186.241 114.742 184.226 115.018C182.375 115.239 181.994 115.184 182.81 114.798C183.736 114.301 183.736 114.246 182.429 114.412C181.558 114.577 180.905 114.467 180.905 114.301C180.905 114.081 177.093 113.916 172.464 113.86C167.836 113.805 164.024 113.971 164.024 114.136ZM203.23 125.438C203.23 125.493 201.814 126.926 200.126 128.58L196.968 131.612L199.963 128.415C202.686 125.493 203.23 124.997 203.23 125.438ZM196.696 132.108C196.696 132.219 196.26 132.66 195.77 133.046C194.899 133.762 194.844 133.707 195.552 132.825C196.26 131.943 196.696 131.667 196.696 132.108ZM149.322 136.519C149.322 136.629 148.941 136.905 148.451 137.07C148.015 137.235 147.797 137.18 147.961 136.85C148.287 136.298 149.322 136.078 149.322 136.519ZM142.788 198.871C143.822 199.918 144.53 200.8 144.367 200.8C144.203 200.8 143.278 199.918 142.243 198.871C141.208 197.823 140.501 196.941 140.664 196.941C140.827 196.941 141.753 197.823 142.788 198.871Z" fill="white"/>
<path fill-rule="evenodd" clip-rule="evenodd" d="M101.73 120.586C102.711 121.358 102.656 121.413 101.349 120.917C100.097 120.476 99.6613 120.641 98.4089 121.964C97.5921 122.847 97.102 123.784 97.3198 124.115C97.4832 124.5 97.3743 124.666 96.9931 124.611C96.6664 124.5 96.2308 124.776 96.0674 125.217C95.904 125.713 96.0674 125.824 96.5575 125.548C96.9931 125.272 97.1565 125.327 96.8842 125.603C96.6119 125.879 96.1219 126.099 95.8496 126.099C95.5229 126.099 95.1417 126.43 94.9783 126.871C94.815 127.367 94.9783 127.477 95.4684 127.257C95.904 127.036 95.6318 127.367 94.8694 128.029C94.1071 128.69 93.8348 129.076 94.216 128.856C94.5427 128.69 94.8694 128.801 94.8694 129.076C94.8694 129.407 94.5427 129.683 94.1071 129.683C93.6715 129.683 93.1814 130.069 93.0181 130.565C92.8002 131.116 92.9091 131.281 93.3992 131.006C93.7259 130.785 93.4537 131.171 92.8002 131.888C91.7656 132.88 91.6567 133.211 92.2557 133.597C92.8002 133.983 92.8002 134.093 92.1468 134.093C91.0033 134.093 89.2064 138.559 90.0776 139.165C90.6221 139.496 90.5677 139.606 89.9142 139.606C88.9341 139.606 88.0629 142.032 88.6618 143.024C88.8796 143.41 88.8252 143.465 88.444 143.245C88.0629 143.024 87.7906 143.079 87.7906 143.41C87.7906 143.686 87.6272 144.402 87.4639 144.954C87.1916 145.781 87.2461 145.836 87.7906 145.119C88.3351 144.402 88.3896 144.457 88.1173 145.284C87.9539 145.836 87.7906 146.442 87.7906 146.552C87.7906 146.718 87.5183 146.663 87.1916 146.442C86.756 146.166 86.6471 146.663 86.8104 148.041C86.9193 149.143 86.8649 149.915 86.6471 149.75C85.9937 149.364 85.5036 152.727 85.8303 155.208C86.0481 156.641 85.9937 157.137 85.7214 156.421C84.959 154.712 84.469 159.122 84.7957 164.194C85.0135 167.336 84.9591 168.218 84.5234 167.447C84.1423 166.675 84.0878 168.108 84.3056 172.133C84.469 175.33 84.6323 179.741 84.6323 181.946C84.6868 184.537 84.8501 185.695 85.1769 185.254C85.5036 184.812 85.558 185.198 85.3402 186.301C85.1224 187.293 85.2313 188.175 85.6125 188.396C85.9937 188.616 86.1026 189.443 85.8847 190.381C85.6669 191.373 85.7758 191.979 86.1026 191.979C86.4293 191.979 86.5382 192.365 86.3748 192.806C86.157 193.247 86.2659 193.633 86.5382 193.633C86.8104 193.633 86.9193 194.405 86.8104 195.342C86.6471 196.5 86.756 196.996 87.1372 196.72C87.8995 196.279 88.4985 198.154 88.0084 199.422C87.7361 200.083 87.7906 200.304 88.1718 200.083C88.4985 199.863 88.9341 200.083 89.0975 200.58C89.5875 201.903 89.4786 202.289 88.8252 201.351C88.3351 200.69 88.2807 200.69 88.5529 201.517C88.7163 202.068 88.8796 202.785 88.8796 203.06C88.8796 203.391 89.0975 203.501 89.3697 203.336C89.9687 202.95 90.6221 204.549 90.1865 205.321C90.0232 205.596 90.2954 206.203 90.8399 206.644C91.4389 207.14 91.5478 207.361 91.2211 207.14C90.1321 206.589 90.4043 207.25 91.7656 208.573C92.4191 209.235 92.6369 209.621 92.3102 209.4C91.8201 209.125 91.7112 209.29 91.929 209.841C92.0924 210.282 92.5824 210.779 93.0725 210.944C93.5081 211.165 93.7804 211.661 93.617 212.047C93.4537 212.488 93.6715 212.984 94.1616 213.149C94.5972 213.37 94.8694 213.866 94.7061 214.252C94.5427 214.693 94.7605 215.189 95.2506 215.354C95.7407 215.575 95.9585 215.851 95.7951 216.071C95.5773 216.236 95.8496 216.733 96.3941 217.174C96.9931 217.725 97.0476 217.835 96.503 217.615C96.0129 217.394 96.0674 217.56 96.6664 218.056C97.2109 218.497 97.5376 219.158 97.4832 219.544C97.3743 219.93 97.7554 220.316 98.3 220.371C98.79 220.481 99.1168 220.316 98.8989 220.04C98.7356 219.765 98.9534 219.544 99.389 219.544C100.424 219.544 103.146 216.567 102.656 215.961C102.384 215.74 102.547 215.685 102.928 215.906C103.31 216.126 103.745 215.961 103.909 215.465C104.072 214.968 104.453 214.693 104.671 214.858C104.889 215.024 105.27 214.748 105.433 214.252C105.651 213.756 105.923 213.48 106.141 213.645C106.305 213.866 106.795 213.59 107.23 213.039C107.775 212.432 107.884 212.377 107.666 212.929C107.448 213.48 107.557 213.425 108.101 212.818C108.537 212.267 109.027 211.991 109.191 212.212C109.408 212.377 109.572 212.267 109.572 211.881C109.572 211.495 109.844 211.385 110.116 211.55C110.987 212.102 111.423 210.282 110.661 209.345C110.28 208.904 110.171 208.518 110.443 208.518C110.661 208.518 110.388 208.132 109.789 207.636C109.245 207.195 109.136 206.92 109.572 207.14C110.062 207.361 109.953 207.14 109.354 206.644C108.809 206.203 108.537 205.541 108.755 205.266C108.918 204.935 108.7 204.494 108.21 204.328C107.72 204.108 107.448 203.612 107.611 203.171C107.775 202.785 107.557 202.289 107.067 202.068C106.631 201.903 106.359 201.407 106.522 201.021C106.686 200.58 106.577 200.249 106.25 200.249C105.923 200.249 105.869 199.973 106.032 199.698C106.196 199.422 106.141 199.146 105.814 199.146C105.488 199.146 105.433 198.76 105.597 198.209C105.814 197.603 105.76 197.437 105.324 197.713C104.889 197.988 104.78 197.823 104.998 197.272C105.161 196.776 105.052 196.39 104.725 196.39C104.399 196.39 104.29 196.004 104.508 195.453C104.78 194.791 104.671 194.681 104.126 195.011C103.582 195.342 103.473 195.232 103.745 194.57C103.909 194.019 103.854 193.633 103.527 193.633C103.255 193.633 103.146 193.027 103.364 192.2C103.636 191.208 103.527 190.822 103.146 191.097C102.82 191.318 102.711 190.987 102.928 190.215C103.092 189.554 102.983 189.168 102.656 189.388C102.384 189.609 102.221 189.057 102.384 188.065C102.493 187.183 102.384 186.466 102.112 186.466C101.785 186.466 101.676 185.805 101.839 185.033C102.003 183.986 101.894 183.655 101.513 183.93C101.023 184.206 100.968 183.544 101.186 181.67C101.404 179.961 101.295 179.299 100.968 179.741C100.641 180.182 100.533 179.024 100.533 176.433C100.587 174.228 100.424 170.809 100.206 168.825C99.9335 166.289 99.988 165.793 100.315 167.171C100.696 168.659 100.75 168.274 100.587 165.241C100.424 162.43 100.478 161.603 100.914 162.209C101.349 162.816 101.404 162.43 101.186 160.666C100.914 158.901 101.023 158.35 101.458 158.681C101.948 158.957 102.003 158.626 101.73 157.578C101.458 156.476 101.513 156.145 102.003 156.476C102.493 156.751 102.547 156.421 102.329 155.097C102.057 153.83 102.166 153.444 102.602 153.719C103.037 153.995 103.092 153.83 102.874 153.223C102.711 152.672 102.765 152.286 103.092 152.286C103.364 152.286 103.473 151.679 103.255 150.963C103.092 150.191 103.201 149.143 103.582 148.592C104.072 147.71 104.126 147.765 103.854 148.978C103.582 150.136 103.636 150.191 104.126 149.364C104.453 148.813 104.671 148.096 104.508 147.71C104.399 147.379 104.671 146.718 105.052 146.277C105.542 145.836 105.706 145.009 105.542 144.182C105.324 143.355 105.433 142.969 105.814 143.024C106.141 143.134 106.577 142.859 106.74 142.418C106.903 141.977 106.74 141.811 106.359 142.032C105.978 142.252 105.869 142.087 106.087 141.591C106.25 141.095 106.686 140.819 107.012 140.874C107.394 140.929 107.666 140.433 107.611 139.771C107.611 139.11 107.775 138.669 107.993 138.779C108.21 138.944 108.537 138.669 108.7 138.173C108.918 137.621 108.809 137.456 108.319 137.676C107.993 137.897 108.101 137.676 108.7 137.18C109.245 136.739 109.517 136.133 109.354 135.802C109.136 135.526 109.299 135.085 109.626 134.865C110.062 134.589 110.171 134.755 109.898 135.251C109.681 135.692 109.844 135.582 110.225 134.975C110.606 134.424 111.478 133.266 112.185 132.384C113.438 130.84 114.309 128.304 113.329 128.856C113.057 129.076 112.839 128.911 112.839 128.58C112.839 128.249 112.621 128.139 112.294 128.304C112.022 128.47 111.75 128.36 111.75 128.029C111.75 127.643 111.369 127.477 110.933 127.643C110.497 127.863 110.007 127.698 109.789 127.367C109.517 126.981 109.681 126.926 110.116 127.202C110.606 127.477 110.715 127.422 110.443 126.981C110.225 126.651 109.572 126.485 109.082 126.651C108.428 126.871 107.611 126.265 106.359 124.721C105.433 123.508 104.235 122.516 103.745 122.516C103.255 122.516 103.037 122.35 103.201 122.13C103.636 121.689 102.003 119.759 101.24 119.759C100.914 119.759 101.132 120.145 101.73 120.586ZM100.315 121.027C100.315 121.138 99.7702 121.689 99.1168 122.295L97.8643 123.343L98.8989 122.075C99.8791 120.917 100.315 120.586 100.315 121.027ZM105.488 124.17C106.032 124.776 106.359 125.272 106.196 125.272C106.032 125.272 105.488 124.776 104.943 124.17C104.399 123.563 104.072 123.067 104.235 123.067C104.399 123.067 104.943 123.563 105.488 124.17ZM85.4491 160.114C85.2858 160.5 85.1769 160.225 85.1769 159.453C85.1769 158.681 85.2858 158.405 85.4491 158.736C85.558 159.122 85.558 159.784 85.4491 160.114ZM100.151 174.999C99.988 175.44 99.8246 175.275 99.8246 174.669C99.7702 174.062 99.9335 173.731 100.097 173.952C100.26 174.117 100.315 174.613 100.151 174.999Z" fill="white"/>
<path fill-rule="evenodd" clip-rule="evenodd" d="M214.665 141.26C213.359 142.748 211.997 143.796 211.725 143.631C211.453 143.41 211.398 143.575 211.562 143.851C211.779 144.182 211.398 144.899 210.69 145.45C209.928 146.148 209.783 146.13 210.255 145.395C210.636 144.788 209.982 145.395 208.785 146.773C206.498 149.309 206.171 150.908 207.587 152.176C208.022 152.617 208.077 152.782 207.75 152.562C207.26 152.341 207.151 152.506 207.369 153.058C207.532 153.554 207.913 153.94 208.24 153.94C208.512 153.94 208.567 154.16 208.403 154.491C208.24 154.767 208.349 155.042 208.676 155.042C209.057 155.042 209.22 155.428 209.057 155.869C208.839 156.31 208.948 156.807 209.275 157.027C209.601 157.192 209.71 157.744 209.547 158.185C209.329 158.626 209.438 158.791 209.819 158.571C210.2 158.35 210.309 158.571 210.091 159.343C209.874 159.949 209.982 160.611 210.309 160.831C210.69 161.052 210.799 161.823 210.581 162.595C210.418 163.367 210.473 163.808 210.69 163.698C210.908 163.532 211.126 166.454 211.126 170.203C211.126 173.952 210.963 176.708 210.745 176.378C210.527 175.992 210.309 176.433 210.309 177.37C210.255 181.284 210.146 182.056 209.656 182.056C209.383 182.056 209.275 182.277 209.492 182.552C209.656 182.828 209.547 183.214 209.275 183.434C208.948 183.6 208.839 184.096 209.002 184.482C209.166 184.868 208.893 185.584 208.458 186.08C208.022 186.522 207.804 187.018 207.968 187.238C208.186 187.404 208.022 187.569 207.641 187.569C207.26 187.569 207.151 187.79 207.314 188.12C207.478 188.396 207.423 188.672 207.205 188.672C206.334 188.672 206.498 191.759 207.369 192.861C207.804 193.413 208.077 193.523 207.859 193.082C207.695 192.641 209.547 194.35 211.997 196.941C214.448 199.532 216.245 201.241 216.027 200.8C215.591 200.083 215.7 200.083 216.462 200.745C216.952 201.131 217.225 201.737 217.007 202.068C216.844 202.399 216.952 202.454 217.279 202.234C217.66 202.013 217.933 202.123 217.933 202.399C217.933 202.73 218.368 202.564 218.913 202.013C219.512 201.517 219.838 200.91 219.73 200.635C219.621 200.414 219.73 200.249 220.056 200.249C220.383 200.249 220.492 199.918 220.328 199.532C220.165 199.091 220.437 198.43 220.873 198.044C221.363 197.658 221.581 197.162 221.418 196.886C221.254 196.61 221.363 196.39 221.581 196.39C221.853 196.39 222.125 195.838 222.125 195.177C222.18 194.46 222.507 193.854 222.779 193.744C223.051 193.633 223.16 193.192 222.997 192.751C222.833 192.31 222.997 191.979 223.323 191.979C223.65 191.979 223.759 191.593 223.596 191.152C223.378 190.711 223.541 190.325 223.868 190.325C224.195 190.325 224.304 189.94 224.14 189.499C223.922 189.058 224.086 188.672 224.467 188.672C224.848 188.672 224.957 188.231 224.739 187.569C224.521 186.963 224.63 186.466 224.957 186.466C225.284 186.466 225.393 186.08 225.229 185.639C225.011 185.198 225.175 184.482 225.501 184.041C225.828 183.655 225.937 183.159 225.774 182.993C225.61 182.828 225.665 182.332 225.883 181.946C226.482 181.009 226.699 179.52 226.645 176.323C226.645 174.834 226.917 173.29 227.244 172.904C227.625 172.408 227.734 171.251 227.462 169.817C227.135 167.502 226.645 162.099 226.591 159.563C226.536 158.901 226.318 158.35 226.1 158.35C225.828 158.35 225.61 157.909 225.61 157.358C225.556 155.263 225.338 154.491 224.903 154.491C224.63 154.491 224.521 153.995 224.739 153.444C224.903 152.837 224.794 152.231 224.467 152.01C224.14 151.845 224.031 151.404 224.195 151.128C224.412 150.853 224.249 150.632 223.922 150.632C223.596 150.632 223.432 150.412 223.65 150.136C223.813 149.86 223.705 149.474 223.378 149.254C223.051 149.033 222.942 148.647 223.106 148.372C223.323 148.096 223.16 147.876 222.779 147.876C222.398 147.876 222.289 147.71 222.452 147.49C222.67 147.324 222.452 146.663 221.908 146.111C221.418 145.56 221.254 145.119 221.526 145.119C221.799 145.119 221.744 144.899 221.363 144.678C221.036 144.457 220.655 143.906 220.546 143.465C220.437 143.024 220.002 142.307 219.566 141.922C218.858 141.26 218.858 141.205 219.566 141.591C220.002 141.866 219.784 141.26 219.022 140.323C218.259 139.33 217.551 138.559 217.388 138.559C217.225 138.614 216.027 139.827 214.665 141.26Z" fill="white"/>
<path fill-rule="evenodd" clip-rule="evenodd" d="M168.381 145.891C168.381 146.166 167.673 146.222 166.747 146.001C165.876 145.836 165.114 145.946 165.114 146.222C165.114 146.497 164.732 146.607 164.297 146.442C163.861 146.222 163.48 146.387 163.48 146.773C163.48 147.159 163.153 147.324 162.718 147.159C162.282 146.993 161.792 147.214 161.629 147.655C161.465 148.151 160.975 148.427 160.594 148.261C160.267 148.151 159.614 148.427 159.233 148.923C158.797 149.419 158.634 149.474 158.851 149.088C159.015 148.758 159.069 148.427 158.906 148.427C158.307 148.427 151.228 155.814 151.391 156.255C151.446 156.476 151.228 156.696 150.901 156.696C150.629 156.696 150.466 156.917 150.629 157.192C150.847 157.468 150.738 157.799 150.466 157.909C150.193 157.964 149.867 158.46 149.758 158.901C149.649 159.342 149.322 160.004 148.941 160.445C148.56 160.831 148.451 161.548 148.614 162.044C148.887 162.705 148.778 162.816 148.233 162.485C147.743 162.209 147.634 162.264 147.906 162.705C148.124 163.036 148.015 163.698 147.689 164.139C147.307 164.635 147.199 165.572 147.362 166.399C147.634 167.336 147.525 167.667 147.144 167.447C146.817 167.226 146.6 168.108 146.6 169.872C146.6 171.526 146.817 172.684 147.199 172.684C147.58 172.684 147.634 173.29 147.416 174.393C147.144 175.606 147.307 176.378 147.961 177.094C148.451 177.646 148.778 178.473 148.614 178.858C148.505 179.244 148.778 180.071 149.268 180.623C149.976 181.505 149.976 181.615 149.322 181.284C148.832 181.008 148.887 181.174 149.431 181.67C149.976 182.111 150.248 182.607 150.03 182.773C149.867 182.993 149.976 183.159 150.357 183.159C150.738 183.159 150.901 183.379 150.738 183.655C150.575 183.93 150.792 184.316 151.283 184.482C151.773 184.702 152.045 184.978 151.882 185.198C151.664 185.364 152.426 186.356 153.57 187.459C154.659 188.506 155.094 189.057 154.495 188.616C153.769 188.139 153.751 188.286 154.441 189.057C154.985 189.719 155.639 190.215 155.857 190.16C156.129 190.105 156.728 190.546 157.218 191.152C157.708 191.759 157.98 191.869 157.762 191.428C157.545 190.987 157.817 191.097 158.307 191.704C158.797 192.31 159.233 192.696 159.287 192.586C159.342 192.475 159.941 192.531 160.648 192.751C161.302 192.972 161.683 193.413 161.52 193.743C161.302 194.074 161.411 194.185 161.737 193.964C162.064 193.799 162.445 193.854 162.663 194.129C162.827 194.46 163.317 194.57 163.752 194.35C164.188 194.185 164.569 194.35 164.569 194.681C164.569 195.011 164.95 195.122 165.386 194.956C165.821 194.736 166.203 194.846 166.203 195.067C166.203 195.342 168.435 195.563 171.103 195.563C173.772 195.563 176.004 195.342 176.004 195.122C176.004 194.846 176.549 194.846 177.148 195.011C178.019 195.287 178.182 195.232 177.91 194.681C177.583 194.185 177.747 194.074 178.4 194.35C178.945 194.57 179.707 194.405 180.197 193.854C180.687 193.413 181.395 193.137 181.776 193.302C182.212 193.468 182.538 193.358 182.538 193.027C182.538 192.696 182.811 192.641 183.083 192.806C183.41 192.972 183.627 192.861 183.627 192.475C183.627 192.09 183.791 191.979 184.009 192.145C184.172 192.365 184.662 192.09 185.098 191.538C185.642 190.932 185.751 190.877 185.533 191.428C185.315 191.869 185.588 191.759 186.078 191.152C186.568 190.546 187.167 190.105 187.385 190.16C187.602 190.215 188.8 189.278 189.944 188.01C191.087 186.742 191.686 185.915 191.251 186.136C190.815 186.356 191.033 186.025 191.795 185.364C192.503 184.702 193.157 183.765 193.211 183.324C193.32 182.828 193.701 182.221 194.082 182.001C194.464 181.725 194.572 181.505 194.3 181.505C194.028 181.505 194.137 181.174 194.464 180.788C194.79 180.347 194.899 179.851 194.681 179.685C194.518 179.465 194.627 179.299 195.008 179.299C195.389 179.299 195.553 179.079 195.335 178.803C195.171 178.528 195.28 178.142 195.553 177.976C195.825 177.811 195.934 177.149 195.77 176.543C195.607 175.937 195.716 175.44 195.934 175.44C196.206 175.44 196.424 173.18 196.424 170.479C196.424 167.777 196.206 165.517 195.988 165.517C195.716 165.517 195.716 165.021 195.879 164.414C196.097 163.753 195.988 163.312 195.607 163.312C195.226 163.312 195.063 162.926 195.28 162.485C195.444 162.044 195.335 161.658 195.063 161.658C194.79 161.658 194.681 161.272 194.845 160.831C195.063 160.39 194.899 160.004 194.518 160.004C194.191 160.004 194.082 159.728 194.246 159.453C194.409 159.122 194.3 158.901 193.973 158.901C193.647 158.901 193.538 158.626 193.701 158.35C193.865 158.019 193.756 157.799 193.429 157.799C193.102 157.799 192.939 157.578 193.102 157.303C193.266 157.027 193.048 156.641 192.558 156.476C192.068 156.255 191.795 155.98 191.959 155.814C192.122 155.649 191.632 154.877 190.815 154.105C189.998 153.333 189.835 153.058 190.434 153.444C191.087 153.885 190.87 153.444 189.944 152.451C189.073 151.459 188.201 150.687 188.038 150.742C186.949 150.852 186.35 150.522 186.513 149.915C186.568 149.584 186.296 149.309 185.969 149.364C185.588 149.474 185.261 149.254 185.261 148.923C185.261 148.647 185.043 148.537 184.716 148.702C184.444 148.868 184.172 148.758 184.172 148.427C184.172 148.096 183.954 147.986 183.627 148.151C183.355 148.317 183.083 148.261 183.083 147.931C183.083 147.6 182.702 147.545 182.157 147.71C181.504 147.986 181.395 147.875 181.722 147.324C182.048 146.773 181.939 146.663 181.286 146.938C180.741 147.159 180.36 147.049 180.36 146.718C180.36 146.387 179.979 146.222 179.543 146.442C179.108 146.607 178.727 146.497 178.727 146.166C178.727 145.891 178.128 145.781 177.365 146.001C176.549 146.222 176.004 146.111 176.004 145.725C176.004 145.395 174.588 145.229 172.192 145.284C170.123 145.34 168.381 145.615 168.381 145.891ZM174.915 160.61C174.915 160.941 175.133 160.996 175.46 160.831C175.732 160.666 177.039 161.548 178.291 162.816C179.598 164.084 180.251 164.911 179.816 164.635C179.326 164.359 179.543 164.635 180.197 165.296C181.014 166.013 181.34 166.73 181.123 167.336C180.959 167.888 181.068 168.274 181.395 168.274C181.722 168.274 181.994 169.321 181.994 170.809C181.994 172.574 181.831 173.18 181.34 172.904C180.905 172.629 180.85 172.794 181.068 173.401C181.286 173.952 181.123 174.338 180.796 174.338C180.469 174.338 180.36 174.503 180.578 174.724C181.014 175.22 177.583 178.803 176.984 178.417C176.766 178.252 176.549 178.417 176.549 178.748C176.549 179.079 176.331 179.189 176.004 179.024C175.732 178.858 175.46 178.969 175.46 179.299C175.46 179.685 175.024 179.796 174.37 179.575C173.772 179.41 173.281 179.41 173.281 179.685C173.281 179.961 172.301 180.126 171.103 180.126C169.905 180.126 168.925 179.906 168.925 179.685C168.925 179.41 168.544 179.299 168.108 179.52C167.673 179.685 167.292 179.575 167.292 179.299C167.292 179.024 166.965 178.914 166.529 179.079C166.094 179.244 165.604 179.079 165.331 178.693C165.059 178.252 165.168 178.142 165.713 178.417C166.148 178.638 165.658 178.087 164.678 177.149C163.698 176.212 163.099 175.44 163.317 175.44C163.534 175.44 163.262 175.11 162.663 174.724C162.119 174.283 161.846 173.676 162.064 173.29C162.282 172.96 162.173 172.243 161.792 171.802C161.247 171.14 161.247 170.699 161.737 169.927C162.064 169.321 162.228 168.439 162.01 167.943C161.737 167.226 161.846 167.116 162.391 167.447C162.881 167.777 162.99 167.667 162.718 167.226C162.445 166.84 162.718 166.179 163.262 165.738C163.861 165.241 163.916 165.076 163.48 165.296C163.044 165.517 163.262 165.076 164.024 164.359C164.787 163.643 165.713 162.705 166.094 162.209C166.529 161.731 166.638 161.731 166.42 162.209C166.203 162.65 166.584 162.485 167.237 161.823C167.891 161.162 168.762 160.721 169.197 160.886C169.633 161.107 170.014 160.996 170.014 160.721C170.014 160.445 171.103 160.169 172.465 160.114C173.88 160.059 174.915 160.28 174.915 160.61Z" fill="white"/>
<path fill-rule="evenodd" clip-rule="evenodd" d="M153.896 152.396L152.862 153.664L154.114 152.617C155.258 151.625 155.584 151.184 155.149 151.184C155.04 151.184 154.495 151.735 153.896 152.396Z" fill="white"/>
<path fill-rule="evenodd" clip-rule="evenodd" d="M276.469 178.197C276.143 178.693 276.252 178.803 276.796 178.472C277.449 178.031 277.449 178.142 276.796 178.969C276.36 179.465 276.034 180.733 276.088 181.78C276.143 182.828 275.979 183.71 275.761 183.71C275.38 183.71 275.162 185.584 275.108 188.837C275.054 189.664 274.89 190.215 274.618 190.105C274.4 189.939 274.128 190.601 274.128 191.593C274.128 192.586 274.073 193.909 274.019 194.57C274.019 195.287 273.801 195.838 273.529 195.838C273.257 195.838 273.148 196.279 273.311 196.886C273.474 197.437 273.311 198.099 272.984 198.264C272.712 198.485 272.549 198.981 272.767 199.422C272.93 199.863 272.767 200.249 272.44 200.249C272.113 200.249 272.004 200.635 272.168 201.076C272.385 201.517 272.222 202.233 271.895 202.674C271.569 203.06 271.46 203.501 271.623 203.722C271.786 203.887 271.623 204.604 271.242 205.321C270.861 205.982 270.48 207.085 270.371 207.636C270.262 208.243 269.935 209.014 269.608 209.455C269.282 209.841 269.173 210.172 269.336 210.172C269.554 210.172 269.39 210.723 269.009 211.385C268.628 212.102 268.41 212.818 268.465 213.039C268.519 213.314 268.356 213.48 268.138 213.48C267.92 213.48 267.702 214.031 267.648 214.638C267.594 215.299 267.158 216.236 266.722 216.733C266.287 217.229 265.96 217.725 266.014 217.89C266.123 218.442 263.455 223.403 262.475 224.506C261.93 225.112 261.658 225.608 261.876 225.608C262.094 225.608 261.93 225.939 261.44 226.325C260.624 226.932 260.624 227.207 261.277 228.365C261.658 229.137 261.985 229.523 262.039 229.192C262.039 228.916 262.802 229.523 263.727 230.57C264.653 231.618 265.198 232.114 265.034 231.673C264.816 231.232 265.688 231.948 266.94 233.327C268.247 234.705 268.955 235.311 268.574 234.705C268.193 234.098 268.791 234.539 269.881 235.642C270.97 236.8 272.276 237.737 272.821 237.737C273.747 237.737 275.816 236.634 274.89 236.634C274.563 236.634 274.89 236.138 275.544 235.477C276.197 234.87 276.633 234.154 276.469 233.823C276.252 233.547 276.524 233.161 276.959 232.996C277.449 232.83 277.722 232.5 277.558 232.224C277.449 232.004 277.776 231.342 278.375 230.736C278.92 230.074 279.246 229.412 279.083 229.247C278.865 229.082 279.029 228.916 279.41 228.916C279.791 228.916 279.954 228.696 279.736 228.42C279.573 228.144 279.845 227.483 280.335 227.042C280.771 226.546 280.989 226.16 280.771 226.16C280.553 226.16 280.826 225.664 281.37 225.057C281.915 224.451 282.187 223.955 281.969 223.955C281.751 223.955 281.969 223.569 282.405 223.072C282.895 222.631 283.167 221.97 283.004 221.694C282.786 221.419 282.895 221.198 283.113 221.198C283.385 221.198 283.657 220.647 283.657 219.985C283.712 219.269 284.038 218.662 284.365 218.552C284.637 218.442 284.801 218.111 284.583 217.835C284.419 217.56 284.528 217.339 284.855 217.339C285.182 217.339 285.291 216.953 285.127 216.512C284.909 216.071 285.073 215.685 285.454 215.685C285.781 215.685 285.89 215.409 285.726 215.134C285.563 214.803 285.672 214.582 285.999 214.582C286.325 214.582 286.489 214.362 286.325 214.141C285.944 213.535 287.687 207.967 288.286 207.967C288.503 207.967 288.558 207.636 288.394 207.195C288.231 206.754 288.394 206.258 288.667 206.037C288.993 205.872 289.157 205.431 288.993 205.155C288.776 204.88 288.939 204.659 289.266 204.659C289.647 204.659 289.756 204.218 289.538 203.612C289.375 203.005 289.484 202.399 289.756 202.233C290.082 202.013 290.191 201.517 289.974 201.076C289.81 200.635 289.974 200.249 290.355 200.249C290.736 200.249 290.845 199.808 290.627 199.201C290.464 198.595 290.573 197.988 290.899 197.768C291.226 197.547 291.335 196.941 291.172 196.335C290.954 195.783 291.008 195.287 291.28 195.287C291.662 195.287 291.879 193.799 291.988 190.436C291.988 189.774 292.206 189.223 292.424 189.223C293.077 189.223 293.459 178.969 292.805 178.307C292.642 178.087 288.939 177.866 284.692 177.756C278.811 177.59 276.796 177.701 276.469 178.197Z" fill="white"/>
<path fill-rule="evenodd" clip-rule="evenodd" d="M116.161 180.733C116.161 181.339 116.324 181.505 116.487 181.064C116.651 180.678 116.596 180.182 116.433 180.016C116.269 179.796 116.106 180.127 116.161 180.733Z" fill="white"/>
<path fill-rule="evenodd" clip-rule="evenodd" d="M77.0091 218.001C76.628 218.387 76.3557 218.442 76.3557 218.166C76.3557 217.946 75.9201 218.166 75.3211 218.662C74.7766 219.158 73.7964 219.655 73.143 219.71C72.544 219.765 71.9995 219.985 71.9995 220.261C71.9995 220.482 71.7817 220.537 71.455 220.371C71.1827 220.206 70.9104 220.316 70.9104 220.647C70.9104 220.978 70.6926 221.088 70.3659 220.923C70.0936 220.757 69.8214 220.867 69.8214 221.198C69.8214 221.529 69.6036 221.639 69.2768 221.474C69.0046 221.309 68.7323 221.364 68.7323 221.584C68.7323 221.86 67.7522 222.521 66.4998 223.073C65.3018 223.624 64.1583 224.396 63.9949 224.837C63.7227 225.554 67.8066 233.547 68.7868 234.154C69.059 234.374 69.1679 234.705 69.0046 234.981C68.8412 235.256 69.2224 235.753 69.8214 236.083C70.4204 236.414 70.8015 236.91 70.6926 237.131C70.5293 237.351 71.0193 237.903 71.7272 238.288C72.8163 238.895 73.1974 238.895 74.0142 238.233C74.7766 237.572 74.8855 237.572 74.4499 238.233C74.232 238.674 75.0488 237.958 76.3557 236.69C77.6081 235.477 78.8605 234.54 79.0783 234.705C79.2961 234.87 79.6773 234.595 79.8407 234.099C80.0585 233.602 80.3307 233.327 80.4941 233.492C80.6575 233.602 81.3109 233.217 81.9643 232.555C82.6178 231.949 83.7613 231.011 84.4691 230.515L85.776 229.688L83.7068 226.877C82.5633 225.333 81.6376 223.844 81.6376 223.624C81.6376 223.348 81.2564 222.852 80.7664 222.466C80.2763 222.08 80.1674 221.75 80.4396 221.75C80.7664 221.75 80.7119 221.584 80.3852 221.309C80.0585 221.088 79.2961 220.096 78.6972 219.158C77.8804 217.78 77.4992 217.505 77.0091 218.001Z" fill="white"/>
<path fill-rule="evenodd" clip-rule="evenodd" d="M119.7 222.356C119.972 222.797 119.482 222.907 118.066 222.742C116.977 222.632 116.106 222.742 116.106 222.962C116.106 223.183 115.616 223.403 115.071 223.403C114.472 223.403 113.819 223.679 113.655 223.955C113.438 224.285 113.056 224.396 112.784 224.23C112.512 224.01 112.294 224.12 112.294 224.341C112.294 224.616 111.314 225.553 110.17 226.491C108.973 227.373 108.156 228.255 108.319 228.53C108.428 228.751 108.156 229.082 107.72 229.247C107.23 229.413 107.012 229.798 107.176 230.074C107.339 230.35 107.176 230.57 106.794 230.57C106.413 230.57 106.304 230.736 106.468 230.901C106.631 231.122 106.522 231.783 106.25 232.39C105.433 233.878 105.596 240.494 106.413 240.494C106.631 240.494 106.794 240.659 106.74 240.88C106.686 241.155 106.903 241.872 107.284 242.533C107.666 243.25 107.775 243.801 107.557 243.801C107.339 243.801 107.72 244.187 108.374 244.684C109.027 245.125 109.463 245.731 109.299 246.007C109.136 246.227 109.463 246.778 109.953 247.164C110.715 247.826 110.824 247.826 110.443 247.109C110.225 246.668 110.661 246.944 111.368 247.771C112.131 248.598 112.893 249.094 113.056 248.929C113.22 248.708 113.383 248.873 113.383 249.259C113.383 249.645 113.601 249.811 113.873 249.59C114.146 249.425 114.527 249.535 114.745 249.866C114.962 250.196 115.343 250.307 115.616 250.141C115.888 249.921 116.106 249.976 116.106 250.252C116.106 250.472 117.576 250.693 119.373 250.693C121.17 250.693 122.64 250.472 122.64 250.196C122.64 249.976 123.13 249.866 123.729 250.031C124.328 250.196 124.818 250.031 124.818 249.7C124.818 249.37 124.982 249.259 125.145 249.48C125.308 249.645 125.907 249.37 126.506 248.873C127.105 248.377 127.759 247.936 127.977 247.936C128.684 247.936 132.333 243.857 132.714 242.699C132.932 242.092 133.258 241.596 133.531 241.596C133.803 241.596 133.912 241.21 133.749 240.769C133.531 240.328 133.64 239.612 133.912 239.226C134.293 238.674 134.456 233.382 134.075 232.886C133.966 232.831 133.912 232.61 133.857 232.334C133.857 232.114 133.258 231.122 132.551 230.129C131.843 229.192 131.407 228.365 131.57 228.365C131.734 228.365 131.189 227.704 130.372 226.877C129.556 226.05 128.684 225.388 128.467 225.498C128.249 225.553 127.922 225.223 127.759 224.782C127.595 224.341 127.214 224.12 126.942 224.285C126.67 224.451 126.452 224.285 126.452 223.955C126.452 223.624 126.234 223.514 125.907 223.679C125.635 223.844 125.363 223.789 125.363 223.514C125.363 223.183 125.036 222.962 124.709 223.018C122.205 223.073 120.462 222.797 120.734 222.301C120.898 221.97 120.68 221.75 120.19 221.75C119.7 221.75 119.482 222.025 119.7 222.356Z" fill="white"/>
<path fill-rule="evenodd" clip-rule="evenodd" d="M245.322 246.282C239.224 252.291 233.615 256.702 227.026 260.616C222.561 263.372 211.725 268.499 209.928 268.775C209.384 268.83 208.621 269.106 208.294 269.326C207.913 269.602 207.369 269.657 207.097 269.492C206.824 269.271 206.498 269.382 206.389 269.712C206.225 270.264 194.3 273.516 190.979 273.902C189.781 274.012 187.711 274.343 186.35 274.619C181.395 275.666 162.935 275.501 155.094 274.398C149.486 273.571 138.377 270.98 137.887 270.319C137.724 270.153 137.125 269.878 136.526 269.823C135.001 269.547 128.739 266.735 127.596 265.798C126.289 264.696 125.526 264.53 121.824 264.42C120.027 264.365 118.339 264.31 118.012 264.199C117.74 264.144 116.596 263.979 115.562 263.924C114.527 263.813 113.166 263.648 112.567 263.593C110.715 263.428 104.889 260.561 103.528 259.183C102.82 258.466 102.003 257.859 101.676 257.859C101.404 257.859 100.859 257.253 100.478 256.481C100.097 255.709 99.7703 255.323 99.7703 255.654C99.7703 255.93 99.3346 255.544 98.8446 254.827C98.3 254.055 98.0278 253.449 98.1367 253.394C98.3 253.394 97.9733 252.953 97.4288 252.402C96.9387 251.85 96.612 251.189 96.7754 250.913C96.9932 250.637 96.8843 250.417 96.612 250.417C96.1764 250.417 95.5774 248.818 94.5973 245.069C94.2161 243.581 93.3448 243.636 92.038 245.18C91.5479 245.786 91.1123 246.117 91.0578 245.951C91.0578 245.786 90.0232 246.558 88.8253 247.716C87.5729 248.873 86.3204 249.7 86.1026 249.535C85.8304 249.369 85.6126 249.48 85.6126 249.7C85.6126 249.976 84.6324 250.913 83.4345 251.85C82.2365 252.732 81.2563 253.725 81.2563 254.055C81.2563 254.827 90.1321 263.538 95.4685 267.893C97.7555 269.767 102.003 272.855 104.998 274.729C107.938 276.604 110.552 278.423 110.77 278.754C110.988 279.084 111.205 279.195 111.205 278.974C111.205 278.754 113.656 279.801 116.651 281.345C121.715 283.881 135.655 289.008 137.615 289.008C138.051 289.008 138.432 289.173 138.432 289.394C138.432 289.669 139.466 289.89 140.719 289.945C141.971 290.055 143.115 290.276 143.278 290.496C143.441 290.772 144.204 290.937 144.966 290.992C147.307 291.048 156.619 292.426 157.49 292.812C159.069 293.528 184.989 292.977 189.073 292.15C189.835 291.985 192.993 291.433 196.152 290.882C199.31 290.386 203.448 289.504 205.354 288.953C207.26 288.401 209.002 288.071 209.275 288.181C209.492 288.346 209.765 288.291 209.874 288.071C210.037 287.63 221.472 283.44 222.724 283.329C223.051 283.329 223.378 283.109 223.378 282.833C223.378 282.558 223.596 282.447 223.868 282.613C224.14 282.833 224.467 282.723 224.576 282.447C224.739 282.006 234.432 276.879 235.085 276.879C235.249 276.879 235.793 276.493 236.338 275.997C236.828 275.556 239.333 273.737 241.892 272.083C247.337 268.499 250.169 266.184 257.03 259.899C264.109 253.394 264 253.67 259.698 249.535C257.738 247.66 256.267 245.951 256.376 245.786C256.485 245.621 256.431 245.565 256.213 245.731C255.995 245.896 254.688 244.904 253.272 243.471L250.713 240.935L245.322 246.282Z" fill="white"/>
</g>
</g>
<defs>
<clipPath id="clip0_888_1735">
<rect width="244.286" height="244.286" fill="white" transform="translate(48.8569 48.8569)"/>
</clipPath>
</defs>
</svg>
