<svg width="22" height="22" viewBox="0 0 22 22" fill="none" xmlns="http://www.w3.org/2000/svg">
<path d="M12.376 6.58397C12.1462 6.92862 12.2393 7.39427 12.584 7.62404C12.9286 7.8538 13.3943 7.76067 13.624 7.41603L12.376 6.58397ZM9.62404 1.41603C9.8538 1.07138 9.76067 0.605727 9.41603 0.375962C9.07138 0.146198 8.60573 0.239328 8.37596 0.583975L9.62404 1.41603ZM4.37596 6.58397C4.1462 6.92862 4.23933 7.39427 4.58397 7.62404C4.92862 7.8538 5.39427 7.76067 5.62404 7.41603L4.37596 6.58397ZM11.75 11C11.75 10.5858 11.4142 10.25 11 10.25C10.5858 10.25 10.25 10.5858 10.25 11H11.75ZM10.25 17C10.25 17.4142 10.5858 17.75 11 17.75C11.4142 17.75 11.75 17.4142 11.75 17H10.25ZM14 14.75C14.4142 14.75 14.75 14.4142 14.75 14C14.75 13.5858 14.4142 13.25 14 13.25V14.75ZM8 13.25C7.58579 13.25 7.25 13.5858 7.25 14C7.25 14.4142 7.58579 14.75 8 14.75V13.25ZM5 1.75H17V0.25H5V1.75ZM1.75 17V5H0.25V17H1.75ZM20.25 5V17H21.75V5H20.25ZM17 20.25H5V21.75H17V20.25ZM20.25 17C20.25 18.7949 18.7949 20.25 17 20.25V21.75C19.6234 21.75 21.75 19.6234 21.75 17H20.25ZM0.25 17C0.25 19.6234 2.37665 21.75 5 21.75V20.25C3.20507 20.25 1.75 18.7949 1.75 17H0.25ZM17 1.75C18.7949 1.75 20.25 3.20507 20.25 5H21.75C21.75 2.37665 19.6234 0.25 17 0.25V1.75ZM5 0.25C2.37665 0.25 0.25 2.37665 0.25 5H1.75C1.75 3.20507 3.20507 1.75 5 1.75V0.25ZM1 7.75H21V6.25H1V7.75ZM16.376 0.583975L12.376 6.58397L13.624 7.41603L17.624 1.41603L16.376 0.583975ZM8.37596 0.583975L4.37596 6.58397L5.62404 7.41603L9.62404 1.41603L8.37596 0.583975ZM10.25 11V17H11.75V11H10.25ZM14 13.25H8V14.75H14V13.25Z" fill="#93989A"/>
</svg>
