<svg width="32" height="32" viewBox="0 0 32 32" fill="none" xmlns="http://www.w3.org/2000/svg">
<path d="M31.9727 0H-0.0273438V32H31.9727V0Z" fill="#F5F5F5"/>
<path d="M30.5011 0H1.47168C0.643253 0 -0.0283203 0.671573 -0.0283203 1.5V2.46101H32.0011V1.5C32.0011 0.671573 31.3295 0 30.5011 0Z" fill="#FF4B55"/>
<path d="M32.0011 9.84375H-0.0283203V12.3048H32.0011V9.84375Z" fill="#FF4B55"/>
<path d="M32.0011 4.9209H-0.0283203V7.38191H32.0011V4.9209Z" fill="#FF4B55"/>
<path d="M32.0011 14.7666H-0.0283203V17.2276H32.0011V14.7666Z" fill="#FF4B55"/>
<path d="M32.0011 24.6123H-0.0283203V27.0733H32.0011V24.6123Z" fill="#FF4B55"/>
<path d="M32.0011 29.5352H-0.0283203V30.4962C-0.0283203 31.3246 0.643252 31.9962 1.47168 31.9962H30.5011C31.3295 31.9962 32.0011 31.3246 32.0011 30.4962V29.5352Z" fill="#FF4B55"/>
<path d="M32.0011 19.6895H-0.0283203V22.1505H32.0011V19.6895Z" fill="#FF4B55"/>
<path d="M17.2035 0H0.972656C0.420372 0 -0.0273438 0.447714 -0.0273438 0.999999V17.2308H17.2035V0Z" fill="#41479B"/>
<path d="M2.17504 1.28475L2.30779 1.68287L2.72743 1.68612C2.78173 1.68656 2.80431 1.75587 2.76058 1.78815L2.42302 2.03745L2.54958 2.43756C2.56597 2.48936 2.50704 2.53221 2.46275 2.50062L2.12131 2.25658L1.77987 2.50062C1.7357 2.53227 1.67671 2.48936 1.69304 2.43756L1.81959 2.03745L1.48203 1.78815C1.43837 1.75587 1.46083 1.68656 1.51519 1.68612L1.93482 1.68287L2.06757 1.28475C2.08496 1.23321 2.1579 1.23321 2.17504 1.28475Z" fill="#F5F5F5"/>
<path d="M2.17407 4.60609L2.30681 5.00421L2.72645 5.00746C2.78075 5.0079 2.80333 5.07721 2.75961 5.10949L2.42205 5.35878L2.5486 5.7589C2.56499 5.8107 2.50606 5.85355 2.46177 5.82196L2.12033 5.57792L1.77889 5.82196C1.73473 5.85361 1.67574 5.8107 1.69206 5.7589L1.81862 5.35878L1.48106 5.10949C1.43739 5.07721 1.45985 5.0079 1.51421 5.00746L1.93385 5.00421L2.06659 4.60609C2.08399 4.55448 2.15693 4.55448 2.17407 4.60609Z" fill="#F5F5F5"/>
<path d="M2.17407 8.28866L2.30681 8.68678L2.72645 8.69003C2.78075 8.69047 2.80333 8.75978 2.75961 8.79212L2.42205 9.04142L2.5486 9.44153C2.56499 9.49333 2.50606 9.53618 2.46177 9.50459L2.12033 9.26055L1.77889 9.50459C1.73473 9.53624 1.67574 9.49333 1.69206 9.44153L1.81862 9.04142L1.48106 8.79212C1.43739 8.75984 1.45985 8.69047 1.51421 8.69003L1.93385 8.68678L2.06659 8.28866C2.08399 8.23711 2.15693 8.23711 2.17407 8.28866Z" fill="#F5F5F5"/>
<path d="M2.17407 11.6734L2.30681 12.0715L2.72645 12.0748C2.78075 12.0752 2.80333 12.1445 2.75961 12.1768L2.42205 12.4261L2.5486 12.8262C2.56499 12.878 2.50606 12.9209 2.46177 12.8893L2.12033 12.6453L1.77889 12.8893C1.73473 12.9209 1.67574 12.878 1.69206 12.8262L1.81862 12.4261L1.48106 12.1768C1.43739 12.1445 1.45985 12.0752 1.51421 12.0748L1.93385 12.0715L2.06659 11.6734C2.08399 11.6219 2.15693 11.6219 2.17407 11.6734Z" fill="#F5F5F5"/>
<path d="M2.17407 14.7525L2.30681 15.1506L2.72645 15.1539C2.78075 15.1543 2.80333 15.2236 2.75961 15.2559L2.42205 15.5052L2.5486 15.9053C2.56499 15.9571 2.50606 16 2.46177 15.9684L2.12033 15.7244L1.77889 15.9684C1.73473 16 1.67574 15.9571 1.69206 15.9053L1.81862 15.5052L1.48106 15.2559C1.43739 15.2236 1.45985 15.1543 1.51421 15.1539L1.93385 15.1506L2.06659 14.7525C2.08399 14.701 2.15693 14.701 2.17407 14.7525Z" fill="#F5F5F5"/>
<path d="M3.79126 2.858L3.924 3.25611L4.34364 3.25937C4.39794 3.2598 4.42052 3.32912 4.37679 3.3614L4.03923 3.61069L4.16579 4.01081C4.18218 4.0626 4.12325 4.10545 4.07896 4.07386L3.73752 3.82983L3.39608 4.07386C3.35192 4.10552 3.29292 4.0626 3.30925 4.01081L3.4358 3.61069L3.09824 3.3614C3.05458 3.32912 3.07704 3.2598 3.1314 3.25937L3.55104 3.25611L3.68378 2.858C3.70117 2.80645 3.77412 2.80645 3.79126 2.858Z" fill="#F5F5F5"/>
<path d="M3.79126 6.54061L3.924 6.93873L4.34364 6.94198C4.39794 6.94242 4.42052 7.01173 4.37679 7.04401L4.03923 7.2933L4.16579 7.69342C4.18218 7.74522 4.12325 7.78807 4.07896 7.75648L3.73752 7.51244L3.39608 7.75648C3.35192 7.78813 3.29292 7.74522 3.30925 7.69342L3.4358 7.2933L3.09824 7.04401C3.05458 7.01173 3.07704 6.94242 3.1314 6.94198L3.55104 6.93873L3.68378 6.54061C3.70117 6.48907 3.77412 6.48907 3.79126 6.54061Z" fill="#F5F5F5"/>
<path d="M3.79126 10.0396L3.924 10.4377L4.34364 10.441C4.39794 10.4414 4.42052 10.5107 4.37679 10.543L4.03923 10.7923L4.16579 11.1924C4.18218 11.2442 4.12325 11.287 4.07896 11.2555L3.73752 11.0114L3.39608 11.2555C3.35192 11.2871 3.29292 11.2442 3.30925 11.1924L3.4358 10.7923L3.09824 10.543C3.05458 10.5107 3.07704 10.4414 3.1314 10.441L3.55104 10.4377L3.68378 10.0396C3.70117 9.98811 3.77412 9.98811 3.79126 10.0396Z" fill="#F5F5F5"/>
<path d="M3.79126 13.1823L3.924 13.5804L4.34364 13.5836C4.39794 13.5841 4.42052 13.6534 4.37679 13.6857L4.03923 13.935L4.16579 14.3351C4.18218 14.3869 4.12325 14.4297 4.07896 14.3981L3.73752 14.1541L3.39608 14.3981C3.35192 14.4298 3.29292 14.3869 3.30925 14.3351L3.4358 13.935L3.09824 13.6857C3.05458 13.6534 3.07704 13.5841 3.1314 13.5836L3.55104 13.5804L3.68378 13.1823C3.70117 13.1307 3.77412 13.1307 3.79126 13.1823Z" fill="#F5F5F5"/>
<path d="M5.40649 1.28475L5.53924 1.68287L5.95887 1.68612C6.01317 1.68656 6.03576 1.75587 5.99203 1.78815L5.65447 2.03745L5.78102 2.43756C5.79741 2.48936 5.73848 2.53221 5.69419 2.50062L5.35275 2.25658L5.01132 2.50062C4.96715 2.53227 4.90816 2.48936 4.92449 2.43756L5.05104 2.03745L4.71348 1.78815C4.66981 1.75587 4.69227 1.68656 4.74663 1.68612L5.16627 1.68287L5.29902 1.28475C5.31641 1.23321 5.38929 1.23321 5.40649 1.28475Z" fill="#F5F5F5"/>
<path d="M5.40649 4.60609L5.53924 5.00421L5.95887 5.00746C6.01317 5.0079 6.03576 5.07721 5.99203 5.10949L5.65447 5.35878L5.78102 5.7589C5.79741 5.8107 5.73848 5.85355 5.69419 5.82196L5.35275 5.57792L5.01132 5.82196C4.96715 5.85361 4.90816 5.8107 4.92449 5.7589L5.05104 5.35878L4.71348 5.10949C4.66981 5.07721 4.69227 5.0079 4.74663 5.00746L5.16627 5.00421L5.29902 4.60609C5.31641 4.55448 5.38929 4.55448 5.40649 4.60609Z" fill="#F5F5F5"/>
<path d="M5.40649 8.28866L5.53924 8.68678L5.95887 8.69003C6.01317 8.69047 6.03576 8.75978 5.99203 8.79212L5.65447 9.04142L5.78102 9.44153C5.79741 9.49333 5.73848 9.53618 5.69419 9.50459L5.35275 9.26055L5.01132 9.50459C4.96715 9.53624 4.90816 9.49333 4.92449 9.44153L5.05104 9.04142L4.71348 8.79212C4.66981 8.75984 4.69227 8.69047 4.74663 8.69003L5.16627 8.68678L5.29902 8.28866C5.31641 8.23711 5.38929 8.23711 5.40649 8.28866Z" fill="#F5F5F5"/>
<path d="M5.40637 11.6734L5.53911 12.0715L5.95875 12.0748C6.01305 12.0752 6.03563 12.1446 5.9919 12.1768L5.65434 12.4261L5.7809 12.8262C5.79729 12.878 5.73836 12.9209 5.69407 12.8893L5.35275 12.6452L5.01132 12.8892C4.96715 12.9209 4.90816 12.878 4.92449 12.8262L5.05104 12.4261L4.71348 12.1768C4.66981 12.1445 4.69227 12.0752 4.74663 12.0747L5.16627 12.0715L5.29902 11.6734C5.31628 11.6219 5.38916 11.6219 5.40637 11.6734Z" fill="#F5F5F5"/>
<path d="M5.40649 14.7525L5.53924 15.1506L5.95887 15.1539C6.01317 15.1543 6.03576 15.2236 5.99203 15.2559L5.65447 15.5052L5.78102 15.9053C5.79741 15.9571 5.73848 16 5.69419 15.9684L5.35275 15.7244L5.01132 15.9684C4.96715 16 4.90816 15.9571 4.92449 15.9053L5.05104 15.5052L4.71348 15.2559C4.66981 15.2236 4.69227 15.1543 4.74663 15.1539L5.16627 15.1506L5.29902 14.7525C5.31641 14.701 5.38929 14.701 5.40649 14.7525Z" fill="#F5F5F5"/>
<path d="M7.02368 2.858L7.15642 3.25611L7.57606 3.25937C7.63036 3.2598 7.65294 3.32912 7.60922 3.3614L7.27166 3.61069L7.39821 4.01081C7.4146 4.0626 7.35567 4.10545 7.31138 4.07386L6.96994 3.82983L6.6285 4.07386C6.58434 4.10552 6.52535 4.0626 6.54167 4.01081L6.66823 3.61069L6.33067 3.3614C6.287 3.32912 6.30946 3.2598 6.36382 3.25937L6.78365 3.25611L6.91639 2.858C6.9336 2.80645 7.00647 2.80645 7.02368 2.858Z" fill="#F5F5F5"/>
<path d="M7.02368 6.54061L7.15642 6.93873L7.57606 6.94198C7.63036 6.94242 7.65294 7.01173 7.60922 7.04401L7.27166 7.2933L7.39821 7.69342C7.4146 7.74522 7.35567 7.78807 7.31138 7.75648L6.96994 7.51244L6.6285 7.75648C6.58434 7.78813 6.52535 7.74522 6.54167 7.69342L6.66823 7.2933L6.33067 7.04401C6.287 7.01173 6.30946 6.94242 6.36382 6.94198L6.78346 6.93873L6.9162 6.54061C6.93359 6.48907 7.00647 6.48907 7.02368 6.54061Z" fill="#F5F5F5"/>
<path d="M7.02368 10.0396L7.15642 10.4377L7.57606 10.441C7.63036 10.4414 7.65294 10.5107 7.60922 10.543L7.27166 10.7923L7.39821 11.1924C7.4146 11.2442 7.35567 11.287 7.31138 11.2555L6.96994 11.0114L6.6285 11.2555C6.58434 11.2871 6.52535 11.2442 6.54167 11.1924L6.66823 10.7923L6.33067 10.543C6.287 10.5107 6.30946 10.4414 6.36382 10.441L6.78346 10.4377L6.9162 10.0396C6.93359 9.98811 7.00647 9.98811 7.02368 10.0396Z" fill="#F5F5F5"/>
<path d="M7.02368 13.1823L7.15642 13.5804L7.57606 13.5836C7.63036 13.5841 7.65294 13.6534 7.60922 13.6857L7.27166 13.935L7.39821 14.3351C7.4146 14.3869 7.35567 14.4297 7.31138 14.3981L6.96994 14.1541L6.6285 14.3981C6.58434 14.4298 6.52535 14.3869 6.54167 14.3351L6.66823 13.935L6.33067 13.6857C6.287 13.6534 6.30946 13.5841 6.36382 13.5836L6.78346 13.5804L6.9162 13.1823C6.93359 13.1307 7.00647 13.1307 7.02368 13.1823Z" fill="#F5F5F5"/>
<path d="M8.63989 1.28475L8.77264 1.68287L9.19227 1.68612C9.24657 1.68656 9.26916 1.75587 9.22543 1.78815L8.88787 2.03745L9.01442 2.43756C9.03081 2.48936 8.97188 2.53221 8.92759 2.50062L8.58615 2.25658L8.24471 2.50062C8.20055 2.53227 8.14156 2.48936 8.15788 2.43756L8.28444 2.03745L7.94688 1.78815C7.90321 1.75587 7.92567 1.68656 7.98003 1.68612L8.39967 1.68287L8.53242 1.28475C8.54981 1.23321 8.62269 1.23321 8.63989 1.28475Z" fill="#F5F5F5"/>
<path d="M8.63989 4.60609L8.77264 5.00421L9.19227 5.00746C9.24657 5.0079 9.26916 5.07721 9.22543 5.10949L8.88787 5.35878L9.01442 5.7589C9.03081 5.8107 8.97188 5.85355 8.92759 5.82196L8.58615 5.57792L8.24471 5.82196C8.20055 5.85361 8.14156 5.8107 8.15788 5.7589L8.28444 5.35878L7.94688 5.10949C7.90321 5.07721 7.92567 5.0079 7.98003 5.00746L8.39967 5.00421L8.53242 4.60609C8.54981 4.55448 8.62269 4.55448 8.63989 4.60609Z" fill="#F5F5F5"/>
<path d="M8.63989 8.28866L8.77264 8.68678L9.19227 8.69003C9.24657 8.69047 9.26916 8.75978 9.22543 8.79212L8.88787 9.04142L9.01442 9.44153C9.03081 9.49333 8.97188 9.53618 8.92759 9.50459L8.58615 9.26055L8.24471 9.50459C8.20055 9.53624 8.14156 9.49333 8.15788 9.44153L8.28444 9.04142L7.94688 8.79212C7.90321 8.75984 7.92567 8.69047 7.98003 8.69003L8.39967 8.68678L8.53242 8.28866C8.54981 8.23711 8.62269 8.23711 8.63989 8.28866Z" fill="#F5F5F5"/>
<path d="M8.63989 11.6734L8.77264 12.0715L9.19227 12.0748C9.24657 12.0752 9.26916 12.1445 9.22543 12.1768L8.88787 12.4261L9.01442 12.8262C9.03081 12.878 8.97188 12.9209 8.92759 12.8893L8.58615 12.6453L8.24471 12.8893C8.20055 12.9209 8.14156 12.878 8.15788 12.8262L8.28444 12.4261L7.94688 12.1768C7.90321 12.1445 7.92567 12.0752 7.98003 12.0748L8.39967 12.0715L8.53242 11.6734C8.54981 11.6219 8.62269 11.6219 8.63989 11.6734Z" fill="#F5F5F5"/>
<path d="M8.63989 14.7525L8.77264 15.1506L9.19227 15.1539C9.24657 15.1543 9.26916 15.2236 9.22543 15.2559L8.88787 15.5052L9.01442 15.9053C9.03081 15.9571 8.97188 16 8.92759 15.9684L8.58615 15.7244L8.24471 15.9684C8.20055 16 8.14156 15.9571 8.15788 15.9053L8.28444 15.5052L7.94688 15.2559C7.90321 15.2236 7.92567 15.1543 7.98003 15.1539L8.39967 15.1506L8.53242 14.7525C8.54981 14.701 8.62269 14.701 8.63989 14.7525Z" fill="#F5F5F5"/>
<path d="M10.2571 2.858L10.3898 3.25611L10.8095 3.25937C10.8638 3.2598 10.8863 3.32912 10.8426 3.3614L10.5051 3.61069L10.6316 4.01081C10.648 4.0626 10.5891 4.10545 10.5448 4.07386L10.2033 3.82983L9.8619 4.07386C9.81774 4.10552 9.75875 4.0626 9.77507 4.01081L9.90163 3.61069L9.56407 3.3614C9.5204 3.32912 9.54286 3.2598 9.59716 3.25937L10.0168 3.25611L10.1495 2.858C10.167 2.80645 10.2399 2.80645 10.2571 2.858Z" fill="#F5F5F5"/>
<path d="M10.2571 6.54061L10.3898 6.93873L10.8095 6.94198C10.8638 6.94242 10.8863 7.01173 10.8426 7.04401L10.5051 7.2933L10.6316 7.69342C10.648 7.74522 10.5891 7.78807 10.5448 7.75648L10.2033 7.51244L9.8619 7.75648C9.81774 7.78813 9.75875 7.74522 9.77507 7.69342L9.90163 7.2933L9.56407 7.04401C9.5204 7.01173 9.54286 6.94242 9.59716 6.94198L10.0168 6.93873L10.1495 6.54061C10.167 6.48907 10.2399 6.48907 10.2571 6.54061Z" fill="#F5F5F5"/>
<path d="M10.2571 10.0396L10.3898 10.4377L10.8095 10.441C10.8638 10.4414 10.8863 10.5107 10.8426 10.543L10.5051 10.7923L10.6316 11.1924C10.648 11.2442 10.5891 11.287 10.5448 11.2555L10.2033 11.0114L9.8619 11.2555C9.81774 11.2871 9.75875 11.2442 9.77507 11.1924L9.90163 10.7923L9.56407 10.543C9.5204 10.5107 9.54286 10.4414 9.59716 10.441L10.0168 10.4377L10.1495 10.0396C10.167 9.98811 10.2399 9.98811 10.2571 10.0396Z" fill="#F5F5F5"/>
<path d="M10.2571 13.1823L10.3898 13.5804L10.8095 13.5836C10.8638 13.5841 10.8863 13.6534 10.8426 13.6857L10.5051 13.935L10.6316 14.3351C10.648 14.3869 10.5891 14.4297 10.5448 14.3981L10.2033 14.1541L9.8619 14.3981C9.81774 14.4298 9.75875 14.3869 9.77507 14.3351L9.90163 13.935L9.56407 13.6857C9.5204 13.6534 9.54286 13.5841 9.59716 13.5836L10.0168 13.5804L10.1495 13.1823C10.167 13.1307 10.2399 13.1307 10.2571 13.1823Z" fill="#F5F5F5"/>
<path d="M11.8713 1.28475L12.0041 1.68287L12.4237 1.68612C12.478 1.68656 12.5006 1.75587 12.4569 1.78815L12.1193 2.03745L12.2459 2.43756C12.2623 2.48936 12.2033 2.53221 12.159 2.50062L11.8176 2.25658L11.4762 2.50062C11.432 2.53227 11.373 2.48936 11.3893 2.43756L11.5159 2.03745L11.1783 1.78815C11.1347 1.75587 11.1571 1.68656 11.2115 1.68612L11.6311 1.68287L11.7639 1.28475C11.7813 1.23321 11.8541 1.23321 11.8713 1.28475Z" fill="#F5F5F5"/>
<path d="M11.8713 4.60609L12.0041 5.00421L12.4237 5.00746C12.478 5.0079 12.5006 5.07721 12.4569 5.10949L12.1193 5.35878L12.2459 5.7589C12.2623 5.8107 12.2033 5.85355 12.159 5.82196L11.8176 5.57792L11.4762 5.82196C11.432 5.85361 11.373 5.8107 11.3893 5.7589L11.5159 5.35878L11.1783 5.10949C11.1347 5.07721 11.1571 5.0079 11.2115 5.00746L11.6311 5.00421L11.7639 4.60609C11.7813 4.55448 11.8541 4.55448 11.8713 4.60609Z" fill="#F5F5F5"/>
<path d="M11.8713 8.28866L12.0041 8.68678L12.4237 8.69003C12.478 8.69047 12.5006 8.75978 12.4569 8.79212L12.1193 9.04142L12.2459 9.44153C12.2623 9.49333 12.2033 9.53618 12.159 9.50459L11.8176 9.26055L11.4762 9.50459C11.432 9.53624 11.373 9.49333 11.3893 9.44153L11.5159 9.04142L11.1783 8.79212C11.1347 8.75984 11.1571 8.69047 11.2115 8.69003L11.6311 8.68678L11.7639 8.28866C11.7813 8.23711 11.8541 8.23711 11.8713 8.28866Z" fill="#F5F5F5"/>
<path d="M11.8713 11.6734L12.0041 12.0715L12.4237 12.0748C12.478 12.0752 12.5006 12.1445 12.4569 12.1768L12.1193 12.4261L12.2459 12.8262C12.2623 12.878 12.2033 12.9209 12.159 12.8893L11.8176 12.6453L11.4762 12.8893C11.432 12.9209 11.373 12.878 11.3893 12.8262L11.5159 12.4261L11.1783 12.1768C11.1347 12.1445 11.1571 12.0752 11.2115 12.0748L11.6311 12.0715L11.7639 11.6734C11.7813 11.6219 11.8541 11.6219 11.8713 11.6734Z" fill="#F5F5F5"/>
<path d="M11.8713 14.7525L12.0041 15.1506L12.4237 15.1539C12.478 15.1543 12.5006 15.2236 12.4569 15.2559L12.1193 15.5052L12.2459 15.9053C12.2623 15.9571 12.2033 16 12.159 15.9684L11.8176 15.7244L11.4762 15.9684C11.432 16 11.373 15.9571 11.3893 15.9053L11.5159 15.5052L11.1783 15.2559C11.1347 15.2236 11.1571 15.1543 11.2115 15.1539L11.6311 15.1506L11.7639 14.7525C11.7813 14.701 11.8541 14.701 11.8713 14.7525Z" fill="#F5F5F5"/>
<path d="M13.4895 2.858L13.6222 3.25611L14.0419 3.25937C14.0962 3.2598 14.1188 3.32912 14.075 3.3614L13.7375 3.61069L13.864 4.01081C13.8804 4.0626 13.8215 4.10545 13.7772 4.07386L13.4358 3.82983L13.0943 4.07386C13.0502 4.10552 12.9912 4.0626 13.0075 4.01081L13.134 3.61069L12.7965 3.3614C12.7528 3.32912 12.7753 3.2598 12.8296 3.25937L13.2493 3.25611L13.382 2.858C13.3994 2.80645 13.4723 2.80645 13.4895 2.858Z" fill="#F5F5F5"/>
<path d="M13.4895 6.54061L13.6222 6.93873L14.0419 6.94198C14.0962 6.94242 14.1188 7.01173 14.075 7.04401L13.7375 7.2933L13.864 7.69342C13.8804 7.74522 13.8215 7.78807 13.7772 7.75648L13.4358 7.51244L13.0943 7.75648C13.0502 7.78813 12.9912 7.74522 13.0075 7.69342L13.134 7.2933L12.7965 7.04401C12.7528 7.01173 12.7753 6.94242 12.8296 6.94198L13.2493 6.93873L13.382 6.54061C13.3994 6.48907 13.4723 6.48907 13.4895 6.54061Z" fill="#F5F5F5"/>
<path d="M13.4895 10.0396L13.6222 10.4377L14.0419 10.441C14.0962 10.4414 14.1188 10.5107 14.075 10.543L13.7375 10.7923L13.864 11.1924C13.8804 11.2442 13.8215 11.287 13.7772 11.2555L13.4358 11.0114L13.0943 11.2555C13.0502 11.2871 12.9912 11.2442 13.0075 11.1924L13.134 10.7923L12.7965 10.543C12.7528 10.5107 12.7753 10.4414 12.8296 10.441L13.2493 10.4377L13.382 10.0396C13.3994 9.98811 13.4723 9.98811 13.4895 10.0396Z" fill="#F5F5F5"/>
<path d="M13.4895 13.1823L13.6222 13.5804L14.0419 13.5836C14.0962 13.5841 14.1188 13.6534 14.075 13.6857L13.7375 13.935L13.864 14.3351C13.8804 14.3869 13.8215 14.4297 13.7772 14.3981L13.4358 14.1541L13.0943 14.3981C13.0502 14.4298 12.9912 14.3869 13.0075 14.3351L13.134 13.935L12.7965 13.6857C12.7528 13.6534 12.7753 13.5841 12.8296 13.5836L13.2493 13.5804L13.382 13.1823C13.3994 13.1307 13.4723 13.1307 13.4895 13.1823Z" fill="#F5F5F5"/>
<path d="M15.1057 1.28475L15.2385 1.68287L15.6581 1.68612C15.7124 1.68656 15.735 1.75587 15.6912 1.78815L15.3537 2.03745L15.4802 2.43756C15.4966 2.48936 15.4377 2.53221 15.3934 2.50062L15.052 2.25658L14.7105 2.50062C14.6664 2.53227 14.6074 2.48936 14.6237 2.43756L14.7503 2.03745L14.4127 1.78815C14.369 1.75587 14.3915 1.68656 14.4459 1.68612L14.8655 1.68287L14.9982 1.28475C15.0156 1.23321 15.0885 1.23321 15.1057 1.28475Z" fill="#F5F5F5"/>
<path d="M15.1057 4.60609L15.2385 5.00421L15.6581 5.00746C15.7124 5.0079 15.735 5.07721 15.6912 5.10949L15.3537 5.35878L15.4802 5.7589C15.4966 5.8107 15.4377 5.85355 15.3934 5.82196L15.052 5.57792L14.7105 5.82196C14.6664 5.85361 14.6074 5.8107 14.6237 5.7589L14.7503 5.35878L14.4127 5.10949C14.369 5.07721 14.3915 5.0079 14.4459 5.00746L14.8655 5.00421L14.9982 4.60609C15.0156 4.55448 15.0885 4.55448 15.1057 4.60609Z" fill="#F5F5F5"/>
<path d="M15.1057 8.28866L15.2385 8.68678L15.6581 8.69003C15.7124 8.69047 15.735 8.75978 15.6912 8.79212L15.3537 9.04142L15.4802 9.44153C15.4966 9.49333 15.4377 9.53618 15.3934 9.50459L15.052 9.26055L14.7105 9.50459C14.6664 9.53624 14.6074 9.49333 14.6237 9.44153L14.7503 9.04142L14.4127 8.79212C14.369 8.75984 14.3915 8.69047 14.4459 8.69003L14.8655 8.68678L14.9982 8.28866C15.0156 8.23711 15.0885 8.23711 15.1057 8.28866Z" fill="#F5F5F5"/>
<path d="M15.1057 11.6734L15.2385 12.0715L15.6581 12.0748C15.7124 12.0752 15.735 12.1445 15.6912 12.1768L15.3537 12.4261L15.4802 12.8262C15.4966 12.878 15.4377 12.9209 15.3934 12.8893L15.052 12.6453L14.7105 12.8893C14.6664 12.9209 14.6074 12.878 14.6237 12.8262L14.7503 12.4261L14.4127 12.1768C14.369 12.1445 14.3915 12.0752 14.4459 12.0748L14.8655 12.0715L14.9982 11.6734C15.0156 11.6219 15.0885 11.6219 15.1057 11.6734Z" fill="#F5F5F5"/>
<path d="M15.1057 14.7525L15.2385 15.1506L15.6581 15.1539C15.7124 15.1543 15.735 15.2236 15.6912 15.2559L15.3537 15.5052L15.4802 15.9053C15.4966 15.9571 15.4377 16 15.3934 15.9684L15.052 15.7244L14.7105 15.9684C14.6664 16 14.6074 15.9571 14.6237 15.9053L14.7503 15.5052L14.4127 15.2559C14.369 15.2236 14.3915 15.1543 14.4459 15.1539L14.8655 15.1506L14.9982 14.7525C15.0156 14.701 15.0885 14.701 15.1057 14.7525Z" fill="#F5F5F5"/>
</svg>
