<svg width="42" height="42" viewBox="0 0 42 42" fill="none" xmlns="http://www.w3.org/2000/svg">
<circle cx="21" cy="21" r="21" fill="black"/>
<g clip-path="url(#clip0_1234_1878)">
<path fill-rule="evenodd" clip-rule="evenodd" d="M19.9061 10.0104C19.2147 10.0799 18.1554 10.3182 17.4296 10.5714C17.2237 10.6409 17.1844 10.6707 17.258 10.6906C17.3168 10.7104 17.2972 10.7154 17.2139 10.7055C17.0324 10.6806 16.9392 10.7154 16.9392 10.8048C16.9392 10.8445 16.9147 10.8743 16.8853 10.8743C16.8608 10.8743 16.851 10.8494 16.8657 10.8246C16.8804 10.7948 16.8706 10.775 16.8461 10.775C16.7578 10.775 16.7823 10.9041 16.8853 10.9934C16.9392 11.0431 17.0275 11.1771 17.0864 11.2864C17.3463 11.8077 17.4689 11.9864 17.4885 11.8871C17.5048 11.8275 17.5261 11.8275 17.5522 11.8871C17.5768 11.9467 17.5669 11.9914 17.5228 12.0261C17.41 12.1056 17.6994 12.041 18.3123 11.8474C19.2 11.5644 19.9012 11.4651 20.9359 11.4601C21.6225 11.4601 21.9707 11.485 22.5052 11.5743C22.8828 11.6339 23.2506 11.6885 23.3242 11.6885C23.3928 11.6935 23.4419 11.7084 23.432 11.7233C23.4026 11.7729 23.79 11.8722 23.8832 11.8325C23.9421 11.8126 23.9568 11.8176 23.9322 11.8573C23.8979 11.9169 23.9813 11.9417 24.1627 11.9268C24.2118 11.9219 24.2363 11.9417 24.2216 11.9666C24.2069 11.9963 24.2118 12.0162 24.2412 12.0162C24.2657 12.0162 24.3295 12.0311 24.3785 12.046C24.4521 12.0708 24.4521 12.0658 24.3932 12.0212C24.3049 11.9566 24.3785 11.9566 24.5158 12.0162C24.5845 12.046 24.5894 12.0609 24.5403 12.0658C24.4815 12.0658 24.4864 12.0807 24.555 12.1205C24.5992 12.1453 24.6629 12.1552 24.6874 12.1403C24.7169 12.1254 24.7365 12.1354 24.7365 12.1651C24.7365 12.1999 24.7659 12.2148 24.8051 12.1999C24.8395 12.185 24.9032 12.2148 24.9474 12.2694C25.0405 12.3737 25.1533 12.3985 25.1043 12.2992C25.0847 12.2694 25.1141 12.2893 25.1631 12.3439C25.2612 12.463 25.5064 12.607 25.4525 12.5177C25.4279 12.4829 25.4476 12.473 25.4917 12.4928C25.5358 12.5077 25.5603 12.5425 25.5456 12.5623C25.5309 12.5822 25.5554 12.617 25.5996 12.6318C25.6486 12.6517 25.6633 12.6418 25.6437 12.5971C25.6241 12.5673 25.6388 12.5723 25.678 12.617C25.7124 12.6616 25.7712 12.6865 25.8055 12.6716C25.8399 12.6616 25.8595 12.6815 25.8546 12.7212C25.8448 12.756 25.8693 12.7808 25.9036 12.7758C25.933 12.7659 25.9625 12.7808 25.9625 12.8106C25.9625 12.8354 26.0115 12.8801 26.0655 12.9148C26.1488 12.9595 26.1635 12.9546 26.1341 12.9C26.1145 12.8652 26.1488 12.89 26.2077 12.9595C26.2665 13.029 26.3008 13.0489 26.2812 13.0092C26.2616 12.9695 26.291 12.9893 26.345 13.0539C26.3989 13.1234 26.4823 13.183 26.5313 13.1879C26.5804 13.1978 26.6833 13.2773 26.7618 13.3667C26.8403 13.456 26.8844 13.4957 26.8648 13.456C26.8452 13.4163 26.9334 13.5007 27.0609 13.6447C27.1885 13.7837 27.311 13.8929 27.3356 13.878C27.3895 13.8433 27.5366 14.027 27.4974 14.0766C27.4729 14.0965 27.4876 14.1015 27.5219 14.0816C27.5562 14.0617 27.5808 14.0717 27.5808 14.1064C27.5808 14.1412 27.5955 14.1561 27.6102 14.1362C27.6249 14.1213 27.6985 14.1759 27.7671 14.2554C27.8456 14.3547 27.9191 14.3994 27.9829 14.3845C28.0368 14.3696 28.0613 14.3795 28.0417 14.4143C28.027 14.449 28.0712 14.4043 28.1398 14.3249C28.2085 14.2405 28.2673 14.1958 28.2673 14.2256C28.2673 14.2504 28.2918 14.2355 28.3213 14.1859C28.3458 14.1412 28.3997 14.1015 28.434 14.1015C28.4733 14.1015 28.537 14.0518 28.5812 13.9873C28.6253 13.9277 28.6498 13.9128 28.6351 13.9525C28.6155 13.9922 28.64 13.9823 28.6841 13.9277C28.7283 13.8731 28.7773 13.8284 28.8018 13.8284C28.8215 13.8284 28.8999 13.7589 28.9784 13.6794C29.0519 13.595 29.0814 13.5752 29.047 13.6298C28.9833 13.7192 28.9833 13.7241 29.0667 13.6596C29.1451 13.595 29.1451 13.5851 29.0716 13.461C29.0225 13.3915 28.9441 13.3021 28.895 13.2674C28.846 13.2326 28.8166 13.178 28.8362 13.1532C28.8509 13.1283 28.8362 13.1134 28.7969 13.1184C28.7626 13.1283 28.7381 13.1035 28.7479 13.0688C28.7528 13.039 28.7283 13.0141 28.6989 13.0191C28.6645 13.029 28.64 13.0042 28.6498 12.9695C28.6547 12.9297 28.64 12.9148 28.6204 12.9297C28.5959 12.9446 28.5027 12.8702 28.4095 12.7609C28.3213 12.6567 28.233 12.5772 28.2134 12.5921C28.1938 12.6021 28.1447 12.5524 28.1006 12.4879C28.0564 12.4184 27.9976 12.3737 27.978 12.3886C27.9535 12.3985 27.8995 12.3538 27.8505 12.2843C27.8063 12.2148 27.7573 12.1701 27.7426 12.185C27.7279 12.1999 27.6739 12.1602 27.62 12.1006C27.5661 12.041 27.5366 12.0261 27.5562 12.0658C27.5759 12.1056 27.5268 12.0708 27.4582 11.9914C27.3846 11.907 27.3405 11.8772 27.3601 11.9169C27.3797 11.9566 27.3454 11.9368 27.2865 11.8673C27.2277 11.7977 27.1934 11.7779 27.213 11.8176C27.2326 11.8573 27.2032 11.8375 27.1492 11.7729C27.1002 11.7084 27.0315 11.6687 27.0021 11.6885C26.9727 11.7034 26.9334 11.6935 26.9138 11.6637C26.8942 11.624 26.8991 11.619 26.9334 11.6389C26.9678 11.6587 26.9923 11.6637 26.9923 11.6488C26.9923 11.6339 26.9285 11.5892 26.8452 11.5445C26.7667 11.4998 26.6981 11.485 26.6981 11.5048C26.6981 11.5247 26.6637 11.4949 26.6196 11.4403C26.5804 11.3906 26.5558 11.3807 26.5755 11.4204C26.5951 11.4701 26.5853 11.4651 26.5362 11.4105C26.497 11.3608 26.4529 11.336 26.4382 11.3559C26.4185 11.3708 26.4038 11.3559 26.4038 11.3211C26.4038 11.2864 26.3891 11.2665 26.3744 11.2864C26.3548 11.3013 26.3106 11.2814 26.2714 11.2417C26.2322 11.202 26.1831 11.1821 26.1586 11.197C26.1047 11.2317 25.8595 11.1176 25.8889 11.0729C25.9232 11.0183 25.7712 10.9636 25.7075 11.0083C25.678 11.0232 25.6682 11.0133 25.6829 10.9885C25.7026 10.9587 25.6829 10.919 25.6388 10.9041C25.526 10.8594 25.5113 10.8643 25.5456 10.9339C25.5653 10.9686 25.5456 10.9587 25.5064 10.914C25.4279 10.8147 25.0503 10.6409 25.1043 10.7204C25.119 10.7551 25.1043 10.7601 25.0601 10.7452C25.016 10.7303 24.9915 10.6955 25.0062 10.6757C25.0209 10.6558 24.9915 10.626 24.9425 10.6111C24.8983 10.5962 24.7855 10.5615 24.6973 10.5317C24.6041 10.5019 24.5501 10.5019 24.5649 10.5317C24.5845 10.5565 24.5747 10.5764 24.5452 10.5764C24.5207 10.5764 24.4766 10.5466 24.457 10.5069C24.4373 10.4671 24.3 10.4026 24.1529 10.3579C23.8685 10.2735 23.7116 10.2586 23.8783 10.3281C23.9568 10.3629 23.947 10.3679 23.8195 10.3629C23.6576 10.353 23.6037 10.3033 23.7116 10.2686C23.7459 10.2586 23.5056 10.1941 23.1868 10.1345C22.6817 10.0302 22.4365 10.0153 21.3528 10.0054C20.6662 9.99548 20.014 10.0004 19.9061 10.0104ZM22.7504 10.1295C22.7651 10.1544 22.6768 10.1643 22.5199 10.1444C22.1766 10.1047 22.157 10.0799 22.4709 10.0799C22.6082 10.0799 22.7308 10.0997 22.7504 10.1295ZM23.0593 10.2139C23.0103 10.2239 22.9318 10.2239 22.8877 10.2139C22.8387 10.199 22.8779 10.1891 22.9711 10.1891C23.0642 10.1891 23.1035 10.199 23.0593 10.2139ZM24.2216 10.4671C24.2069 10.482 24.1676 10.4671 24.1333 10.4324C24.0892 10.3827 24.0941 10.3778 24.1627 10.4076C24.2118 10.4225 24.2363 10.4523 24.2216 10.4671ZM17.9347 10.5118C17.9004 10.5218 17.8416 10.5218 17.8121 10.5118C17.7778 10.4969 17.8023 10.487 17.871 10.487C17.9396 10.487 17.9642 10.4969 17.9347 10.5118ZM22.0148 11.3708C22.0344 11.4006 21.9609 11.4204 21.8334 11.4154C21.6568 11.4105 21.6421 11.4055 21.7451 11.3708C21.9216 11.3161 21.9805 11.3161 22.0148 11.3708ZM22.3728 11.4552C22.3238 11.4651 22.2453 11.4651 22.2012 11.4552C22.1521 11.4403 22.1913 11.4303 22.2845 11.4303C22.3777 11.4303 22.4169 11.4403 22.3728 11.4552ZM22.6131 11.4998C22.5984 11.5147 22.5542 11.5197 22.5199 11.5048C22.4807 11.4899 22.4954 11.475 22.5493 11.475C22.6033 11.4701 22.6327 11.485 22.6131 11.4998ZM22.8877 11.5545C22.8534 11.5644 22.7945 11.5644 22.7651 11.5545C22.7308 11.5396 22.7553 11.5296 22.824 11.5296C22.8926 11.5296 22.9171 11.5396 22.8877 11.5545ZM23.1329 11.6041C23.0986 11.614 23.0397 11.614 23.0103 11.6041C22.976 11.5892 23.0005 11.5793 23.0692 11.5793C23.1378 11.5793 23.1623 11.5892 23.1329 11.6041ZM27.262 13.7539C27.311 13.8085 27.3405 13.8532 27.3258 13.8532C27.311 13.8532 27.262 13.8085 27.213 13.7539C27.1639 13.6993 27.1345 13.6546 27.1492 13.6546C27.1639 13.6546 27.213 13.6993 27.262 13.7539Z" fill="white"/>
<path fill-rule="evenodd" clip-rule="evenodd" d="M15.3208 11.4649C15.3208 11.5294 14.9481 11.7181 14.899 11.6784C14.8794 11.6585 14.8794 11.6734 14.899 11.7032C14.9284 11.7578 14.9039 11.7777 14.8009 11.7628C14.7862 11.7628 14.7421 11.8025 14.7029 11.8522C14.6685 11.9018 14.6342 11.9217 14.6342 11.8969C14.6342 11.8671 14.5999 11.8919 14.5607 11.9465C14.5214 11.9961 14.4871 12.021 14.4871 11.9961C14.4871 11.9763 14.443 12.0061 14.3841 12.0706C14.3302 12.1352 14.3007 12.155 14.3155 12.1153C14.3351 12.0756 14.2958 12.1054 14.2223 12.1898C14.1536 12.2692 14.0997 12.3189 14.0948 12.294C14.0948 12.2742 14.0506 12.304 13.9918 12.3685C13.9379 12.4331 13.9084 12.4529 13.928 12.4132C13.9477 12.3735 13.879 12.4281 13.7809 12.5373C13.6779 12.6466 13.6142 12.7012 13.6338 12.6614C13.6534 12.6217 13.4573 12.8104 13.1974 13.0835C12.9375 13.3516 12.7217 13.5899 12.7217 13.6048C12.7217 13.6197 12.604 13.7587 12.4569 13.9126C12.3147 14.0715 12.2068 14.2055 12.2117 14.2155C12.2215 14.2254 12.1577 14.3098 12.0744 14.4041C11.9861 14.4985 11.9125 14.5928 11.9125 14.6127C11.9125 14.6325 11.8782 14.6722 11.839 14.6971C11.7997 14.7219 11.785 14.7467 11.8095 14.7467C11.839 14.7467 11.8145 14.7815 11.7605 14.8261C11.7115 14.8659 11.7017 14.8907 11.7409 14.8708C11.7801 14.851 11.7654 14.8808 11.7066 14.9354C11.6477 14.99 11.6134 15.0446 11.6281 15.0645C11.6477 15.0794 11.633 15.0943 11.5987 15.0943C11.5644 15.0943 11.5545 15.1191 11.5693 15.1439C11.584 15.1737 11.5644 15.2084 11.5251 15.2233C11.481 15.2382 11.4565 15.268 11.4712 15.2928C11.481 15.3127 11.4516 15.3723 11.3976 15.4269C11.3486 15.4865 11.3192 15.5461 11.3339 15.561C11.3535 15.5758 11.3388 15.5907 11.3093 15.5907C11.275 15.5907 11.2554 15.6056 11.2603 15.6255C11.275 15.6801 10.9514 16.3553 10.8974 16.3901C10.868 16.405 10.8533 16.4298 10.8631 16.4397C10.8876 16.4795 10.7503 16.832 10.7111 16.832C10.6865 16.832 10.6767 16.8618 10.6915 16.9015C10.7062 16.9362 10.6865 17.0008 10.6522 17.0355C10.6179 17.0753 10.5885 17.1249 10.5836 17.1547C10.5787 17.3036 10.5002 17.5767 10.461 17.5767C10.4364 17.5767 10.4315 17.6115 10.4463 17.6512C10.4659 17.6909 10.4561 17.7257 10.4364 17.7257C10.4119 17.7257 10.3874 17.8101 10.3825 17.9094C10.3776 18.0136 10.3531 18.103 10.3237 18.1129C10.2991 18.1228 10.2893 18.1626 10.304 18.2023C10.3188 18.242 10.3139 18.3115 10.2942 18.3562C10.2746 18.4058 10.2501 18.4902 10.2452 18.5449C10.2256 18.7534 10.1569 19.1407 10.1373 19.1804C10.103 19.235 10.0736 19.7265 10.0785 20.0939C10.0785 20.2677 10.0588 20.4067 10.0392 20.4067C10.0196 20.4067 10 20.6053 10 20.8535C10 21.1018 10.0147 21.3004 10.0392 21.3004C10.0588 21.3004 10.0785 21.4841 10.0785 21.7075C10.0883 22.4274 10.0981 22.5913 10.1373 22.5913C10.1618 22.5913 10.1716 22.631 10.1667 22.6757C10.1618 22.7253 10.1667 22.7998 10.1814 22.8395C10.2452 23.0182 10.3237 23.4899 10.2942 23.5346C10.2795 23.5594 10.2844 23.5842 10.304 23.5842C10.358 23.5842 10.5296 24.2644 10.4904 24.329C10.4757 24.3538 10.4806 24.3786 10.5051 24.3786C10.5296 24.3786 10.564 24.4233 10.5787 24.4779C10.6032 24.5772 10.6081 24.5772 10.8435 24.4581C10.971 24.3935 11.2946 24.2346 11.5545 24.1105L12.0351 23.8772L12.0155 23.6935C12.0057 23.5942 11.9763 23.4502 11.9469 23.3757C11.9174 23.3062 11.8929 23.2019 11.888 23.1523C11.8831 22.9338 11.8635 22.8395 11.8292 22.8395C11.8095 22.8395 11.7899 22.765 11.7899 22.6757C11.7801 22.3232 11.7654 22.1941 11.736 22.1941C11.7066 22.1941 11.6771 21.5139 11.6771 20.9528C11.6771 20.3918 11.7066 19.8606 11.7311 19.8606C11.7507 19.8606 11.7703 19.7811 11.7752 19.6868C11.7899 19.2598 11.7997 19.1655 11.8341 19.1655C11.8537 19.1655 11.8684 19.1258 11.8733 19.0761C11.8782 19.0314 11.8831 18.9172 11.8929 18.8279C11.8978 18.7435 11.9174 18.669 11.9321 18.669C11.9518 18.669 11.9665 18.6293 11.9714 18.5796C12.0057 18.2668 12.094 17.9242 12.1479 17.9242C12.1773 17.9242 12.1822 17.9094 12.1675 17.8895C12.1479 17.8746 12.1577 17.8299 12.1872 17.7902C12.2166 17.7554 12.2264 17.7257 12.2117 17.7257C12.1921 17.7257 12.2068 17.676 12.2411 17.6115C12.2754 17.5519 12.2999 17.4774 12.3048 17.4526C12.3048 17.4228 12.349 17.3136 12.3931 17.2043C12.4422 17.0951 12.5059 16.9462 12.5402 16.8667C12.5697 16.7923 12.6138 16.7327 12.6285 16.7327C12.6481 16.7327 12.6775 16.6781 12.6923 16.6085C12.7119 16.539 12.7462 16.4844 12.7756 16.4844C12.805 16.4844 12.81 16.4596 12.7952 16.4348C12.7805 16.405 12.7903 16.3851 12.8198 16.3851C12.8492 16.3851 12.8639 16.3653 12.8443 16.3355C12.8296 16.3107 12.859 16.2461 12.9178 16.1865C12.9718 16.1319 13.0012 16.0872 12.9816 16.0872C12.9571 16.0872 12.9865 16.0525 13.0355 16.0128C13.0895 15.973 13.114 15.9383 13.0895 15.9383C13.065 15.9383 13.0895 15.9035 13.1434 15.8588C13.1925 15.8191 13.2023 15.7943 13.163 15.8142C13.1238 15.834 13.1434 15.7993 13.2121 15.7397C13.2807 15.6801 13.3003 15.6454 13.2611 15.6652C13.2219 15.6851 13.2366 15.6503 13.3003 15.5957C13.3641 15.5411 13.4082 15.4815 13.4082 15.4666C13.4082 15.4517 13.472 15.3574 13.5603 15.2531C13.6436 15.1538 13.6976 15.0992 13.6779 15.1389C13.6485 15.1836 13.6583 15.1985 13.6976 15.1737C13.727 15.1538 13.7417 15.1191 13.727 15.0992C13.7172 15.0744 13.7613 15.0049 13.8349 14.9403C13.9035 14.8758 13.9477 14.8559 13.928 14.8957C13.9084 14.9354 13.9329 14.9155 13.9918 14.846C14.0457 14.7765 14.1193 14.7219 14.1536 14.7219C14.188 14.7169 14.2125 14.6921 14.2027 14.6573C14.1978 14.6226 14.2125 14.5978 14.237 14.5978C14.2615 14.5978 14.2713 14.558 14.2566 14.5034C14.2419 14.4538 14.2566 14.3942 14.286 14.3793C14.3155 14.3594 14.3253 14.2899 14.3106 14.2204C14.2909 14.1509 14.3007 14.1013 14.3351 14.1013C14.3645 14.1013 14.3743 14.0715 14.3596 14.0318C14.3449 13.997 14.3645 13.9325 14.3988 13.8977C14.4331 13.858 14.4675 13.7934 14.4773 13.7537C14.4871 13.714 14.5508 13.6246 14.6244 13.5601C14.698 13.4956 14.7225 13.4608 14.6833 13.4807C14.644 13.5005 14.7078 13.4161 14.8304 13.287C15.051 13.0537 15.1099 13.009 15.0461 13.1182C15.0265 13.153 15.0707 13.1182 15.1393 13.0437C15.2129 12.9643 15.2962 12.9196 15.3306 12.9395C15.36 12.9593 15.3698 12.9544 15.3551 12.9246C15.3208 12.8749 15.5611 12.7359 15.6003 12.7806C15.615 12.7955 15.6591 12.7707 15.6984 12.731C15.7425 12.6912 15.8062 12.6664 15.8406 12.6813C15.8798 12.6962 15.9092 12.6863 15.9092 12.6565C15.9092 12.6267 15.9485 12.6118 15.9975 12.6217C16.0416 12.6317 16.1054 12.6068 16.1348 12.5671C16.1789 12.5075 16.1642 12.4629 16.0514 12.3487C15.973 12.2692 15.919 12.1898 15.9338 12.165C15.9485 12.1451 15.9239 12.1103 15.8798 12.0954C15.8406 12.0806 15.8161 12.0458 15.8308 12.021C15.8455 11.9961 15.8259 11.9614 15.7817 11.9465C15.7425 11.9316 15.718 11.8969 15.7327 11.872C15.7474 11.8472 15.7278 11.8124 15.6837 11.7976C15.6444 11.7827 15.6199 11.7479 15.6346 11.7231C15.6493 11.6983 15.6297 11.6635 15.5856 11.6486C15.5463 11.6337 15.5218 11.6039 15.5316 11.5841C15.5611 11.5394 15.4679 11.45 15.3796 11.4302C15.3453 11.4252 15.3208 11.4401 15.3208 11.4649Z" fill="white"/>
<path fill-rule="evenodd" clip-rule="evenodd" d="M20.3478 12.9445C20.2693 12.9545 20.1663 12.9793 20.1271 12.9942C20.0879 13.0091 20.0143 13.019 19.9653 13.014C19.9162 13.0041 19.6171 13.0637 19.3032 13.1382C18.857 13.2474 18.7589 13.2821 18.8521 13.3119L18.9747 13.3467L18.8423 13.3516C18.7638 13.3566 18.705 13.3814 18.705 13.4112C18.705 13.436 18.6804 13.446 18.6461 13.4261C18.6167 13.4063 18.6461 13.4658 18.7148 13.5602C18.7785 13.6545 18.8864 13.8531 18.9502 14.002C19.009 14.151 19.0924 14.295 19.1267 14.3148C19.1659 14.3347 19.1954 14.4141 19.1904 14.4886L19.1855 14.6227L19.1414 14.4985L19.1022 14.3744L19.112 14.4936C19.1267 14.6475 19.2248 14.6624 19.7103 14.573C20.6469 14.4042 21.0932 14.3843 21.7699 14.4737C22.123 14.5234 22.481 14.5631 22.5693 14.5631C22.6673 14.5631 22.7066 14.578 22.6673 14.6078C22.6183 14.6376 22.6232 14.6475 22.6869 14.6475C22.7311 14.6475 22.8095 14.6624 22.8586 14.6773C22.9321 14.7021 22.9321 14.6971 22.8733 14.6525C22.8194 14.6127 22.8194 14.5978 22.8635 14.5978C22.8978 14.5978 22.937 14.6326 22.9567 14.6773C22.9714 14.722 23.0204 14.7468 23.0744 14.7319C23.1283 14.717 23.1577 14.7269 23.1381 14.7517C23.1234 14.7766 23.143 14.8014 23.1773 14.8014C23.2117 14.8064 23.2754 14.8163 23.3147 14.8213C23.3539 14.8262 23.4176 14.8362 23.452 14.8411C23.4863 14.8411 23.501 14.8709 23.4814 14.9057C23.4569 14.9404 23.4716 14.9503 23.5255 14.9305C23.5697 14.9156 23.6138 14.9305 23.6285 14.9752C23.6481 15.0248 23.6923 15.0397 23.756 15.0199C23.8198 15 23.8639 15.0149 23.8835 15.0645C23.8982 15.1092 23.9325 15.1291 23.9571 15.1142C23.9816 15.0993 24.0012 15.1142 24.0012 15.144C24.0012 15.1738 24.0257 15.1837 24.0502 15.1688C24.0797 15.1539 24.0993 15.1638 24.0993 15.1936C24.0993 15.2234 24.1189 15.2383 24.1434 15.2185C24.1728 15.2036 24.2121 15.2333 24.2415 15.278C24.2709 15.3277 24.2954 15.3475 24.2954 15.3227C24.2954 15.2929 24.3298 15.3177 24.3739 15.3724C24.4131 15.422 24.4377 15.4319 24.418 15.3922C24.3984 15.3525 24.4327 15.3724 24.4916 15.4419C24.5504 15.5114 24.5848 15.5312 24.5652 15.4915C24.5455 15.4518 24.5799 15.4717 24.6387 15.5412C24.6976 15.6107 24.7319 15.6305 24.7123 15.5908C24.6927 15.5511 24.7466 15.5958 24.83 15.6901C24.9182 15.7844 24.9722 15.8291 24.9575 15.7894C24.9379 15.7398 24.9477 15.7447 24.9967 15.7993C25.0359 15.849 25.085 15.8689 25.1046 15.849C25.1291 15.8291 25.1291 15.8391 25.1144 15.8689C25.0948 15.8986 25.1291 15.9682 25.1929 16.0178C25.2615 16.0807 25.273 16.079 25.2272 16.0128C25.188 15.9582 25.2272 15.9781 25.3155 16.0575C25.3988 16.137 25.4577 16.2263 25.4381 16.2512C25.4233 16.2809 25.4331 16.2859 25.4577 16.271C25.4871 16.2512 25.5459 16.2809 25.595 16.3356C25.644 16.3902 25.6636 16.4349 25.6391 16.4349C25.6146 16.4398 25.7274 16.5639 25.8892 16.7129C26.051 16.8668 26.1491 16.976 26.1099 16.9562C26.0707 16.9413 26.0854 16.9661 26.1491 17.0108C26.208 17.0555 26.257 17.12 26.257 17.1548C26.257 17.1846 26.3011 17.2541 26.3551 17.3037C26.409 17.3534 26.4532 17.4179 26.4532 17.4527C26.4532 17.4874 26.4973 17.552 26.5512 17.6016C26.6052 17.6513 26.6346 17.7108 26.6199 17.7307C26.6052 17.7555 26.615 17.7754 26.6444 17.7754C26.6935 17.7754 26.7768 17.964 26.7572 18.0336C26.7523 18.0584 26.7719 18.0733 26.8013 18.0733C26.8259 18.0733 26.8406 18.0931 26.8259 18.118C26.8062 18.1428 26.821 18.1726 26.8455 18.1825C26.8749 18.1924 26.9043 18.2321 26.9092 18.2719C26.919 18.3116 26.9387 18.3761 26.9583 18.4059C26.9828 18.4407 26.9828 18.4903 26.9681 18.5201C26.9534 18.5449 26.9632 18.5698 26.9926 18.5698C27.022 18.5698 27.0318 18.5896 27.0171 18.6194C27.0024 18.6442 27.0122 18.6691 27.0416 18.6691C27.076 18.6691 27.0907 18.7038 27.0711 18.7435C27.0563 18.7833 27.0662 18.818 27.0956 18.818C27.125 18.818 27.1348 18.8379 27.1201 18.8627C27.1005 18.8875 27.1103 18.9173 27.1397 18.9272C27.1642 18.9322 27.1937 19.0067 27.2084 19.0911C27.2182 19.1705 27.2427 19.2797 27.2623 19.3244C27.2819 19.3691 27.2819 19.4287 27.2672 19.4585C27.2476 19.4833 27.2623 19.523 27.2917 19.5379C27.3163 19.5578 27.331 19.6025 27.3163 19.6422C27.3015 19.6769 27.3163 19.7216 27.3408 19.7415C27.3702 19.7564 27.3849 19.8358 27.3653 19.9103C27.3506 19.9848 27.3555 20.0642 27.3751 20.0841C27.4241 20.1287 27.4389 20.3472 27.4438 20.938C27.4487 21.5785 27.434 21.792 27.3849 21.8218C27.3604 21.8367 27.3555 21.926 27.3702 22.0204C27.3898 22.1395 27.38 22.1941 27.3408 22.1941C27.3015 22.1941 27.2917 22.2339 27.3114 22.2885C27.3261 22.3431 27.3163 22.3977 27.2917 22.4126C27.2623 22.4325 27.2525 22.4771 27.2672 22.5169C27.2819 22.5566 27.277 22.6162 27.2574 22.6509C27.2329 22.6857 27.2084 22.7701 27.1986 22.8396C27.1888 22.9041 27.1642 22.9885 27.1348 23.0183C27.1103 23.0481 27.1054 23.0878 27.125 23.1027C27.1397 23.1226 27.1299 23.1375 27.1005 23.1375C27.0711 23.1375 27.0563 23.1673 27.0711 23.207C27.0858 23.2467 27.0711 23.2914 27.0465 23.3112C27.0171 23.3261 27.0024 23.3659 27.0171 23.3907C27.0367 23.4155 27.0269 23.4354 27.0024 23.4354C26.9779 23.4354 26.9583 23.4652 26.9534 23.4949C26.9436 23.6141 26.9141 23.7084 26.87 23.7829C26.8455 23.8226 26.821 23.8921 26.8112 23.9319C26.8062 23.9716 26.7768 24.0113 26.7474 24.0212C26.7229 24.0312 26.7082 24.0609 26.7278 24.0858C26.7425 24.1106 26.7278 24.1305 26.6984 24.1305C26.6689 24.1305 26.6591 24.1503 26.6738 24.1801C26.6886 24.2049 26.6787 24.2298 26.6493 24.2298C26.6199 24.2298 26.6052 24.2496 26.6199 24.2695C26.6346 24.2943 26.6003 24.3588 26.5512 24.4184C26.4973 24.478 26.4532 24.5475 26.4532 24.5773C26.4532 24.6021 26.4335 24.6269 26.4041 24.6269C26.3796 24.6269 26.3551 24.6617 26.3551 24.7014C26.3551 24.7411 26.3355 24.7759 26.306 24.7759C26.2815 24.7759 26.257 24.8106 26.257 24.8504C26.257 24.8951 26.2227 24.9397 26.1834 24.9546C26.1442 24.9745 26.1197 25.0043 26.1344 25.0241C26.1491 25.044 26.1001 25.0986 26.0363 25.1433C25.9677 25.188 25.9235 25.2476 25.9383 25.2724C25.953 25.2972 25.9137 25.3518 25.8549 25.3965C25.7911 25.4362 25.7421 25.5008 25.7421 25.5355C25.7372 25.5653 25.7127 25.5901 25.6783 25.5802C25.644 25.5752 25.6244 25.5951 25.6293 25.6249C25.6391 25.6547 25.5999 25.7043 25.5459 25.7341C25.492 25.7689 25.3645 25.8831 25.2566 25.9923C25.1536 26.1015 25.0457 26.1859 25.0261 26.181C25.0016 26.171 24.9624 26.2108 24.9329 26.2654C24.9035 26.32 24.8496 26.3647 24.8153 26.3647C24.776 26.3647 24.7319 26.3994 24.7172 26.4441C24.7025 26.4838 24.6681 26.5086 24.6436 26.4938C24.6191 26.4789 24.5848 26.4987 24.5701 26.5434C24.5504 26.5881 24.5259 26.6129 24.5112 26.598C24.4965 26.5831 24.4426 26.6129 24.3886 26.6675C24.3347 26.7221 24.2709 26.7519 24.2464 26.737C24.217 26.7172 24.1974 26.7321 24.1974 26.7619C24.1974 26.7916 24.1777 26.8016 24.1483 26.7867C24.1238 26.7718 24.0993 26.7817 24.0993 26.8115C24.0993 26.8413 24.0797 26.8512 24.0502 26.8363C24.0257 26.8214 24.0012 26.8314 24.0012 26.8612C24.0012 26.8909 23.9816 26.9009 23.9522 26.886C23.9276 26.8711 23.9031 26.881 23.9031 26.9058C23.9031 26.9605 23.5893 27.1094 23.452 27.1243C23.4029 27.1293 23.3637 27.1541 23.3637 27.1789C23.3637 27.2037 23.349 27.2087 23.3294 27.1938C23.3147 27.1739 23.2705 27.1839 23.2362 27.2087C23.1724 27.2633 23.0057 27.313 22.8635 27.3229C22.8144 27.3279 22.7752 27.3477 22.7752 27.3725C22.7752 27.3924 22.7507 27.3974 22.7262 27.3825C22.6968 27.3626 22.6428 27.3775 22.6036 27.4073C22.5643 27.442 22.4957 27.4569 22.4565 27.4371C22.4172 27.4222 22.3829 27.4321 22.3829 27.4569C22.3829 27.5016 22.2701 27.5116 21.7846 27.5165C21.6522 27.5215 21.5492 27.5413 21.5492 27.5612C21.5492 27.586 21.3188 27.6009 21.0343 27.6009C20.7499 27.6009 20.5292 27.5811 20.5439 27.5562C20.5586 27.5314 20.4655 27.5165 20.338 27.5165C20.0241 27.5215 19.7348 27.4917 19.7348 27.4619C19.7348 27.4371 19.6269 27.4172 19.3817 27.4073C19.3327 27.4023 19.2934 27.3775 19.2934 27.3527C19.2934 27.3229 19.2738 27.3179 19.2444 27.3328C19.2199 27.3477 19.1169 27.3428 19.0237 27.313C18.9207 27.2881 18.8619 27.2832 18.8766 27.313C18.8962 27.3378 18.8815 27.3576 18.8521 27.3576C18.8177 27.3576 18.8079 27.3974 18.8276 27.4619C18.8521 27.5314 18.8472 27.5562 18.8079 27.5364C18.7736 27.5116 18.7638 27.5314 18.7834 27.5761C18.7981 27.6208 18.7883 27.6555 18.754 27.6555C18.7246 27.6555 18.7148 27.6754 18.7295 27.7052C18.7442 27.73 18.7344 27.7548 18.705 27.7548C18.6706 27.7548 18.6559 27.7896 18.6706 27.8293C18.6902 27.869 18.6804 27.9137 18.651 27.9286C18.6265 27.9485 18.6167 27.9832 18.6314 28.008C18.651 28.0329 18.6363 28.0527 18.6069 28.0527C18.5775 28.0527 18.5627 28.0726 18.5824 28.0974C18.5971 28.1222 18.5873 28.157 18.5578 28.1769C18.5284 28.1967 18.5186 28.2265 18.5333 28.2513C18.548 28.2762 18.5186 28.3407 18.4598 28.4003C18.3421 28.5194 18.3372 28.5492 18.4352 28.5492C18.4745 28.5492 18.5088 28.5691 18.5088 28.5989C18.5088 28.6237 18.5382 28.6336 18.5775 28.6187C18.6167 28.6038 18.6608 28.6138 18.6755 28.6436C18.6952 28.6733 18.7393 28.6833 18.7785 28.6634C18.8177 28.6485 18.8521 28.6585 18.8521 28.6833C18.8521 28.723 18.9305 28.7429 19.161 28.7528C19.2052 28.7528 19.2444 28.7726 19.2444 28.7975C19.2444 28.8223 19.2787 28.8322 19.3179 28.8173C19.3572 28.7975 19.4307 28.8024 19.4749 28.8223C19.5239 28.8471 19.6024 28.857 19.6514 28.8521C19.6956 28.8471 19.7348 28.862 19.7348 28.8868C19.7348 28.9117 19.7985 28.9216 19.877 28.9067C19.9555 28.8968 20.0339 28.9117 20.0486 28.9415C20.0683 28.9712 20.1663 28.9812 20.2987 28.9613C20.4213 28.9464 20.5194 28.9514 20.5194 28.9762C20.5194 29.001 20.7744 29.0209 21.0834 29.0209C21.3923 29.0209 21.6473 29.006 21.6473 28.9812C21.6473 28.9613 21.7748 28.9464 21.9317 28.9464C22.3976 28.9415 22.481 28.9365 22.481 28.8819C22.481 28.857 22.5349 28.8521 22.5987 28.867C22.6673 28.8819 22.736 28.8719 22.7556 28.8422C22.7703 28.8124 22.8292 28.7975 22.8782 28.8124C22.9321 28.8273 22.9714 28.8173 22.9714 28.7875C22.9714 28.7578 23.0155 28.7478 23.0695 28.7627C23.1234 28.7776 23.1675 28.7677 23.1675 28.7379C23.1675 28.7081 23.2117 28.6982 23.2656 28.7131C23.3196 28.728 23.3637 28.718 23.3637 28.6882C23.3637 28.6585 23.398 28.6485 23.4372 28.6634C23.4765 28.6833 23.5206 28.6733 23.5402 28.6436C23.5549 28.6138 23.5991 28.6038 23.6334 28.6187C23.6726 28.6336 23.707 28.6237 23.7168 28.5989C23.7266 28.574 23.7854 28.5443 23.8541 28.5393C23.9227 28.5294 23.9914 28.5045 24.0061 28.4847C24.0208 28.4599 24.065 28.44 24.1042 28.435C24.1434 28.4251 24.2023 28.4052 24.2366 28.3854C24.266 28.3606 24.2954 28.3606 24.2954 28.3755C24.2954 28.3953 24.3298 28.3705 24.3739 28.3308C24.4131 28.2861 24.472 28.2613 24.4965 28.2762C24.521 28.296 24.5406 28.2811 24.5406 28.2513C24.5406 28.2215 24.5652 28.2116 24.5897 28.2265C24.6191 28.2414 24.6387 28.2315 24.6387 28.2017C24.6387 28.1719 24.6632 28.162 24.6878 28.1769C24.7172 28.1918 24.7368 28.1818 24.7368 28.152C24.7368 28.1222 24.7613 28.1123 24.7858 28.1272C24.8153 28.1421 24.8349 28.1322 24.8349 28.1024C24.8349 28.0726 24.8594 28.0627 24.8839 28.0776C24.9133 28.0925 24.9329 28.0825 24.9329 28.0527C24.9329 28.0229 24.9575 28.013 24.982 28.0279C25.0114 28.0428 25.031 28.0329 25.031 28.0031C25.031 27.9733 25.0555 27.9634 25.0801 27.9783C25.1095 27.9932 25.1291 27.9832 25.1291 27.9584C25.1291 27.9286 25.1487 27.9038 25.1781 27.9038C25.2027 27.9038 25.2664 27.869 25.3106 27.8293C25.3596 27.7896 25.4184 27.7499 25.4479 27.7399C25.4724 27.735 25.5459 27.6804 25.6146 27.6158C25.6783 27.5562 25.7519 27.5066 25.7813 27.5066C25.8058 27.5066 25.8696 27.452 25.9235 27.3825C25.9726 27.3179 26.0363 27.2633 26.0559 27.2732C26.0756 27.2782 26.154 27.2087 26.2276 27.1193C26.3011 27.0349 26.3796 26.9704 26.3992 26.9803C26.4434 27.0101 26.9436 26.4987 26.9436 26.4242C26.9436 26.3945 27.0171 26.3101 27.1054 26.2405C27.1888 26.1661 27.228 26.1214 27.1888 26.1412C27.1495 26.1561 27.1937 26.1015 27.2868 26.0122C27.38 25.9278 27.4241 25.8731 27.3849 25.888C27.3457 25.9079 27.3702 25.8682 27.4438 25.8036C27.5173 25.7341 27.5615 25.6646 27.5467 25.6497C27.532 25.6348 27.5565 25.61 27.6007 25.5901C27.6448 25.5752 27.6644 25.5405 27.6497 25.5157C27.635 25.4908 27.6595 25.4561 27.6988 25.4412C27.7429 25.4263 27.7625 25.3915 27.7478 25.3667C27.7331 25.3419 27.7576 25.3071 27.7968 25.2922C27.841 25.2774 27.8606 25.2426 27.8459 25.2178C27.8312 25.1929 27.8459 25.1731 27.8753 25.1731C27.9047 25.1731 27.9194 25.1532 27.8998 25.1234C27.8851 25.0986 27.9096 25.0341 27.9587 24.9844C28.0077 24.9348 28.0518 24.8603 28.0617 24.8206C28.0715 24.7809 28.1009 24.7411 28.1254 24.7362C28.1499 24.7262 28.1597 24.7014 28.145 24.6766C28.1303 24.6518 28.1548 24.5972 28.199 24.5574C28.2382 24.5128 28.2578 24.478 28.2382 24.478C28.2235 24.478 28.2333 24.4482 28.2627 24.4135C28.2921 24.3737 28.3019 24.3291 28.2823 24.3142C28.2676 24.2943 28.2725 24.2794 28.297 24.2794C28.3216 24.2794 28.3461 24.2298 28.351 24.1702C28.3559 24.1156 28.3804 24.051 28.4 24.0361C28.4196 24.0212 28.4491 23.9616 28.454 23.907C28.4638 23.8524 28.4932 23.8028 28.5128 23.7928C28.5373 23.7829 28.5471 23.7482 28.5324 23.7084C28.5177 23.6737 28.5324 23.629 28.5569 23.6091C28.5864 23.5942 28.6011 23.5545 28.5864 23.5297C28.5668 23.5049 28.5766 23.485 28.606 23.485C28.6354 23.485 28.6452 23.4552 28.6305 23.4155C28.6158 23.3758 28.6256 23.3311 28.655 23.3162C28.6845 23.2964 28.6943 23.2517 28.6746 23.2119C28.6599 23.1722 28.6697 23.1375 28.6943 23.1375C28.7335 23.1375 28.758 23.0332 28.758 22.7999C28.758 22.7353 28.7776 22.6956 28.8021 22.7105C28.8414 22.7353 28.8512 22.6211 28.8512 22.2289C28.8512 22.1246 28.8708 22.0502 28.8904 22.0601C28.91 22.075 28.9395 21.9459 28.9493 21.7771C28.9983 21.1267 28.964 19.7613 28.9002 19.7613C28.8806 19.7613 28.8659 19.7117 28.861 19.6471C28.8414 19.3145 28.8267 19.2152 28.7972 19.2152C28.7776 19.2152 28.7629 19.1755 28.7629 19.1258C28.7531 18.9024 28.7335 18.818 28.6943 18.818C28.6746 18.818 28.6599 18.7882 28.6697 18.7535C28.6746 18.7237 28.6501 18.6393 28.6158 18.5747C28.5619 18.4804 28.5619 18.4655 28.6207 18.5003C28.6599 18.5251 28.6501 18.4903 28.5962 18.4059C28.5471 18.3314 28.5226 18.247 28.5373 18.2222C28.552 18.1924 28.5422 18.1726 28.5177 18.1726C28.4883 18.1726 28.4687 18.1577 28.4736 18.1329C28.4736 18.113 28.4442 18.0137 28.3951 17.9094C28.351 17.8052 28.3265 17.6959 28.3461 17.6661C28.3657 17.6364 28.3608 17.6264 28.3314 17.6413C28.2725 17.6761 28.2039 17.542 28.2431 17.4775C28.2578 17.4576 28.2333 17.4229 28.1892 17.408C28.1499 17.3931 28.1303 17.3583 28.145 17.3285C28.1597 17.3037 28.1499 17.2789 28.1156 17.2789C28.0813 17.2789 28.0666 17.264 28.0862 17.2491C28.1009 17.2342 28.0764 17.1796 28.0322 17.125C27.9881 17.0704 27.9587 17.0207 27.9734 17.0108C27.9881 17.0009 27.9538 16.9462 27.9047 16.8867C27.8508 16.8271 27.8263 16.7824 27.841 16.7824C27.8557 16.7824 27.8165 16.7228 27.7527 16.6533C27.6841 16.5788 27.6448 16.5044 27.6546 16.4845C27.6693 16.4646 27.6448 16.4299 27.6007 16.415C27.5565 16.3951 27.532 16.3703 27.5467 16.3554C27.5615 16.3405 27.5173 16.271 27.4438 16.2015C27.3702 16.132 27.3555 16.1072 27.4094 16.1419C27.4634 16.1816 27.3898 16.0923 27.2476 15.9483C27.1054 15.8043 27.0024 15.6653 27.0122 15.6454C27.0269 15.6256 26.8896 15.4667 26.7082 15.288C26.5316 15.1142 26.4139 15.0149 26.4532 15.0745C26.4924 15.1291 26.409 15.0546 26.2619 14.9007C26.1197 14.7468 26.0167 14.6574 26.0363 14.6971C26.0559 14.7418 26.0412 14.7418 25.9971 14.6822C25.9579 14.6376 25.9039 14.5978 25.8745 14.5978C25.8451 14.5978 25.8058 14.573 25.7862 14.5383C25.7617 14.5035 25.7715 14.4985 25.8157 14.5234C25.8598 14.5482 25.8696 14.5432 25.8451 14.5035C25.8255 14.4737 25.7862 14.4588 25.7617 14.4737C25.7372 14.4936 25.6636 14.4439 25.595 14.3695C25.5263 14.295 25.4724 14.2553 25.4724 14.2751C25.4724 14.2999 25.4381 14.2751 25.3939 14.2205C25.3547 14.1709 25.3302 14.1609 25.3498 14.2006C25.3694 14.2404 25.34 14.2255 25.2909 14.1659C25.2419 14.1063 25.1683 14.0517 25.1291 14.0418C25.0899 14.0318 25.0261 13.9921 24.9918 13.9524C24.9329 13.8879 24.928 13.8879 24.9575 13.9524C24.9771 14.002 24.9673 13.9971 24.9182 13.9425C24.879 13.8928 24.8349 13.868 24.8202 13.8879C24.8005 13.9027 24.7858 13.8928 24.7858 13.863C24.7858 13.8332 24.7515 13.8183 24.7025 13.8382C24.6534 13.8581 24.6338 13.8481 24.6534 13.8183C24.6927 13.7588 24.369 13.5999 24.2758 13.6346C24.2366 13.6495 24.1925 13.6346 24.1679 13.5999C24.1434 13.5602 24.1532 13.5502 24.1974 13.58C24.2415 13.6098 24.2513 13.5999 24.2219 13.5602C24.2023 13.5254 24.1434 13.5056 24.0944 13.5205C24.0404 13.5353 24.0012 13.5254 24.0012 13.4956C24.0012 13.4658 23.9669 13.4609 23.9227 13.4758C23.8786 13.4956 23.859 13.4857 23.8835 13.4509C23.9031 13.4112 23.8786 13.4063 23.805 13.4311C23.7364 13.4509 23.707 13.446 23.7266 13.4162C23.7658 13.3516 23.6334 13.302 23.5255 13.3417C23.4765 13.3616 23.4569 13.3516 23.4765 13.3219C23.5157 13.2573 23.0989 13.1332 23.0155 13.1828C22.9763 13.2126 22.9665 13.2027 22.9959 13.158C23.0253 13.1084 23.0008 13.0984 22.9076 13.1183C22.8341 13.1332 22.7703 13.1183 22.7605 13.0885C22.7507 13.0538 22.5889 13.0389 22.329 13.0389C22.0838 13.0389 21.9857 13.0289 22.0887 13.0091C22.2407 12.9842 22.226 12.9793 21.9465 12.9445C21.6277 12.9098 20.6175 12.9098 20.3478 12.9445ZM21.3923 12.9942C21.2893 13.0041 21.1128 13.0041 21 12.9942C20.8823 12.9842 20.9657 12.9743 21.1814 12.9743C21.3972 12.9743 21.4904 12.9842 21.3923 12.9942ZM19.7201 13.1382C19.7054 13.153 19.6612 13.158 19.6269 13.1431C19.5877 13.1282 19.6024 13.1133 19.6563 13.1133C19.7103 13.1084 19.7397 13.1233 19.7201 13.1382ZM20.6322 14.3843C20.5979 14.3943 20.539 14.3943 20.5096 14.3843C20.4753 14.3695 20.4998 14.3595 20.5685 14.3595C20.6371 14.3595 20.6616 14.3695 20.6322 14.3843ZM21.7111 14.3843C21.6767 14.3943 21.6081 14.3943 21.5639 14.3843C21.5149 14.3695 21.5443 14.3595 21.6228 14.3595C21.7062 14.3595 21.7405 14.3695 21.7111 14.3843ZM22.1524 14.434C22.1181 14.4439 22.0592 14.4439 22.0298 14.434C21.9955 14.4191 22.02 14.4092 22.0887 14.4092C22.1573 14.4092 22.1818 14.4191 22.1524 14.434ZM22.3682 14.4787C22.3535 14.4936 22.3093 14.4985 22.275 14.4836C22.2358 14.4687 22.2505 14.4539 22.3044 14.4539C22.3584 14.4489 22.3878 14.4638 22.3682 14.4787ZM26.8945 15.5163C26.9583 15.5859 26.9975 15.6405 26.9828 15.6405C26.973 15.6405 26.9092 15.5859 26.8455 15.5163C26.7817 15.4468 26.7425 15.3922 26.7572 15.3922C26.767 15.3922 26.8308 15.4468 26.8945 15.5163ZM25.7911 16.5342C25.8402 16.5888 25.8696 16.6334 25.8549 16.6334C25.8402 16.6334 25.7911 16.5888 25.7421 16.5342C25.6931 16.4795 25.6636 16.4349 25.6783 16.4349C25.6931 16.4349 25.7421 16.4795 25.7911 16.5342Z" fill="white"/>
<path fill-rule="evenodd" clip-rule="evenodd" d="M16.2132 13.6298C15.9582 13.744 15.7572 13.9028 15.7915 13.9624C15.8111 13.9922 15.8013 14.0021 15.7768 13.9873C15.7081 13.9426 15.5512 14.1858 15.5953 14.2603C15.6149 14.2951 15.61 14.3 15.5757 14.2802C15.5218 14.2504 15.5071 14.2802 15.5218 14.3795C15.5218 14.3993 15.4973 14.4291 15.458 14.454C15.4139 14.4837 15.3943 14.6079 15.3992 14.8809C15.3992 15.2881 15.4874 15.5363 15.6493 15.6356C15.6983 15.6654 15.7179 15.6902 15.6983 15.6902C15.6738 15.6902 15.6885 15.725 15.7326 15.7647C15.7719 15.8044 15.8356 15.8292 15.8749 15.8143C15.9092 15.7994 15.9729 15.8243 16.0122 15.8739C16.0759 15.9534 16.071 15.9583 15.9925 15.8938C15.9484 15.8541 15.8945 15.8392 15.8798 15.8541C15.8454 15.8888 15.9876 15.9633 16.277 16.0675C16.5173 16.147 16.9684 16.1271 16.9145 16.0378C16.8998 16.0179 16.9292 16.008 16.9782 16.0229C17.0322 16.0328 17.1057 16.0129 17.145 15.9683C17.1891 15.9285 17.2283 15.9037 17.2381 15.9136C17.2529 15.9236 17.3117 15.8888 17.3804 15.8292C17.449 15.7746 17.4686 15.7498 17.4294 15.7697C17.3902 15.7895 17.3706 15.7895 17.3902 15.7647C17.4098 15.7448 17.4784 15.7001 17.5373 15.6704C17.6795 15.6008 17.8708 15.2384 17.7874 15.2086C17.7531 15.1987 17.7433 15.154 17.758 15.1143C17.7825 15.0497 17.7923 15.0497 17.8266 15.1044C17.8511 15.1441 17.8708 15.0646 17.8708 14.8958C17.8708 14.6923 17.856 14.6426 17.8168 14.6972C17.7776 14.7568 17.7727 14.7469 17.7972 14.6625C17.8658 14.4142 17.5128 13.8731 17.1695 13.6943C16.9047 13.5603 16.429 13.5255 16.2132 13.6298ZM17.0028 13.6894C16.9684 13.6993 16.9096 13.6993 16.8802 13.6894C16.8458 13.6745 16.8704 13.6645 16.939 13.6645C17.0077 13.6645 17.0322 13.6745 17.0028 13.6894Z" fill="white"/>
<path fill-rule="evenodd" clip-rule="evenodd" d="M30.028 14.7767C29.9986 14.8164 29.9545 14.8362 29.9348 14.8213C29.9103 14.8064 29.8613 14.8412 29.8221 14.8958C29.7877 14.9504 29.7436 14.9802 29.724 14.9653C29.7093 14.9504 29.6749 14.9852 29.6406 15.0398C29.6112 15.0994 29.5671 15.1341 29.5425 15.1192C29.518 15.1043 29.4739 15.1391 29.4445 15.1937C29.415 15.2483 29.3709 15.2831 29.3464 15.2682C29.3219 15.2533 29.2875 15.2731 29.263 15.3129C29.2434 15.3526 29.2042 15.3923 29.1747 15.4022C29.1012 15.4271 28.905 15.6405 28.9541 15.6405C28.9835 15.6405 28.9982 15.6604 28.9933 15.6852C28.9835 15.7101 29.0227 15.7696 29.0767 15.8143C29.1306 15.859 29.1404 15.8838 29.1012 15.864C29.0619 15.8441 29.0718 15.8689 29.1208 15.9087C29.1747 15.9533 29.1993 15.9881 29.1747 15.9881C29.1502 15.9881 29.1747 16.0228 29.2287 16.0626C29.2777 16.1023 29.3022 16.137 29.2777 16.137C29.2483 16.137 29.2728 16.1718 29.3268 16.2115C29.3758 16.2512 29.4003 16.286 29.3807 16.286C29.3562 16.286 29.3758 16.3207 29.415 16.3654C29.4592 16.4051 29.4837 16.4647 29.469 16.4895C29.4494 16.5144 29.4641 16.5342 29.4935 16.5342C29.5229 16.5342 29.5327 16.5541 29.518 16.5839C29.5033 16.6087 29.5131 16.6335 29.5474 16.6335C29.5818 16.6335 29.5965 16.6484 29.5769 16.6633C29.5621 16.6832 29.5818 16.7279 29.621 16.7676C29.6602 16.8073 29.6798 16.8619 29.6651 16.8867C29.6455 16.9116 29.6602 16.9314 29.6897 16.9314C29.7191 16.9314 29.7289 16.9513 29.7142 16.9811C29.6995 17.0059 29.7093 17.0307 29.7387 17.0307C29.7681 17.0307 29.7828 17.0506 29.7632 17.0754C29.7485 17.1002 29.7583 17.135 29.7877 17.1548C29.8172 17.1747 29.827 17.2095 29.8122 17.2343C29.7926 17.2591 29.8073 17.279 29.8368 17.279C29.8662 17.279 29.8809 17.2988 29.8613 17.3236C29.8466 17.3485 29.8564 17.3832 29.8858 17.4031C29.9152 17.4229 29.925 17.4577 29.9103 17.4825C29.8907 17.5074 29.9005 17.5272 29.9299 17.5272C29.9594 17.5272 29.9692 17.562 29.9545 17.6017C29.9348 17.6414 29.9496 17.6762 29.9839 17.6762C30.0182 17.6762 30.0329 17.7109 30.0133 17.7506C29.9986 17.7904 30.0084 17.8251 30.0329 17.8251C30.0574 17.8251 30.0673 17.8599 30.0525 17.8996C30.0329 17.9393 30.0476 17.9741 30.082 17.9741C30.1163 17.9741 30.1261 18.0138 30.1065 18.0733C30.0869 18.128 30.0967 18.1726 30.1261 18.1726C30.1555 18.1726 30.1653 18.2024 30.1506 18.2422C30.1359 18.2819 30.1506 18.3266 30.18 18.3464C30.2095 18.3663 30.2193 18.4209 30.2046 18.4755C30.1849 18.5301 30.1948 18.5698 30.2291 18.5698C30.2683 18.5698 30.2781 18.6145 30.2585 18.689C30.2438 18.7585 30.2536 18.828 30.283 18.8429C30.3124 18.8628 30.3223 18.9323 30.3075 18.9968C30.2879 19.0614 30.2977 19.116 30.3223 19.116C30.3468 19.116 30.3713 19.1905 30.3713 19.2749C30.386 19.7118 30.3958 19.8061 30.44 19.7763C30.4645 19.7614 30.4694 19.8111 30.4498 19.9004C30.4056 20.109 30.4988 20.2132 30.6704 20.1487C30.7391 20.1239 31.0578 20.109 31.3815 20.1139L31.97 20.1239V19.7962C31.97 19.6125 31.9553 19.4635 31.9356 19.4635C31.916 19.4635 31.9013 19.3692 31.8964 19.25C31.8915 18.8379 31.8817 18.7684 31.8474 18.7684C31.8229 18.7684 31.8081 18.7188 31.8032 18.6542C31.7885 18.3861 31.7738 18.2719 31.7395 18.2719C31.7052 18.2719 31.7003 18.2223 31.6954 17.9592C31.6905 17.8847 31.6708 17.8251 31.6414 17.8251C31.6169 17.8251 31.6071 17.8052 31.6267 17.7804C31.6414 17.7556 31.6316 17.7208 31.6071 17.701C31.5777 17.6861 31.5679 17.6414 31.5875 17.6017C31.6022 17.562 31.5875 17.5272 31.5531 17.5272C31.5188 17.5272 31.5041 17.4925 31.5237 17.4527C31.5384 17.413 31.5286 17.3783 31.4992 17.3783C31.4698 17.3783 31.4551 17.3435 31.4698 17.3038C31.4894 17.2641 31.4796 17.2194 31.4502 17.2045C31.4256 17.1846 31.4158 17.1499 31.4305 17.1251C31.4502 17.1002 31.4354 17.0804 31.406 17.0804C31.3717 17.0804 31.357 17.0456 31.3766 17.0059C31.3913 16.9662 31.3815 16.9314 31.3521 16.9314C31.3227 16.9314 31.3178 16.9066 31.3325 16.8818C31.3472 16.852 31.3374 16.8321 31.3079 16.8321C31.2736 16.8321 31.2589 16.7974 31.2785 16.7576C31.2932 16.7179 31.2834 16.6832 31.254 16.6832C31.2246 16.6832 31.2197 16.6584 31.2344 16.6335C31.2491 16.6037 31.2393 16.5839 31.2099 16.5839C31.1755 16.5839 31.1608 16.5491 31.1804 16.5094C31.1952 16.4697 31.1853 16.4349 31.1559 16.4349C31.1265 16.4349 31.1216 16.4101 31.1363 16.3853C31.151 16.3555 31.1412 16.3356 31.1118 16.3356C31.0824 16.3356 31.0677 16.3158 31.0873 16.2909C31.102 16.2661 31.0775 16.2065 31.0333 16.1668C30.9941 16.1221 30.9745 16.0874 30.9941 16.0874C31.0137 16.0874 30.9892 16.0377 30.9352 15.9782C30.8715 15.9087 30.8666 15.8838 30.9156 15.9087C30.9549 15.9285 30.9352 15.8987 30.8666 15.8391C30.7979 15.7796 30.7783 15.7448 30.8176 15.7647C30.8568 15.7845 30.847 15.7547 30.7881 15.7051C30.6901 15.6207 30.6361 15.5264 30.6312 15.4271C30.6312 15.4022 30.5871 15.3526 30.538 15.3079C30.4841 15.2632 30.4792 15.2483 30.5233 15.2682C30.5625 15.288 30.5527 15.2632 30.4988 15.2185C30.4449 15.1738 30.4056 15.1143 30.4154 15.0894C30.4203 15.0646 30.4007 15.0448 30.3713 15.0448C30.3468 15.0448 30.3272 15.0299 30.337 15.005C30.3468 14.9852 30.2977 14.9107 30.2193 14.8412C30.1065 14.727 30.0771 14.7171 30.028 14.7767Z" fill="white"/>
<path fill-rule="evenodd" clip-rule="evenodd" d="M20.3714 15.8788C20.3714 15.8987 20.2831 15.9185 20.1752 15.9185C20.0674 15.9235 19.9448 15.9632 19.9055 16.0079C19.8614 16.0526 19.7878 16.0874 19.7437 16.0874C19.6701 16.0874 19.6701 16.0774 19.7339 16.0327C19.7878 15.993 19.778 15.9881 19.6848 16.0178C19.6211 16.0377 19.5377 16.0824 19.4985 16.1171C19.42 16.1966 19.371 16.2065 19.4151 16.137C19.474 16.0427 19.3465 16.0874 19.2386 16.1966C19.1797 16.2611 19.1503 16.281 19.1699 16.2413C19.1994 16.1866 19.1895 16.1767 19.1258 16.2015C19.0768 16.2214 19.0277 16.2363 19.0179 16.2363C19.0032 16.2363 19.0081 16.2562 19.0228 16.2859C19.0424 16.3157 19.0179 16.3207 18.9689 16.3008C18.9051 16.276 18.8953 16.2859 18.9247 16.3356C18.9542 16.3803 18.9444 16.3902 18.9051 16.3654C18.8708 16.3406 18.8119 16.3654 18.7727 16.415C18.7286 16.4696 18.7139 16.4796 18.7286 16.4448C18.7531 16.3952 18.7237 16.4001 18.6109 16.4597C18.5226 16.5044 18.4638 16.5541 18.4785 16.5739C18.4883 16.5938 18.4196 16.6633 18.3216 16.7229L18.1401 16.8371L18.2872 16.708C18.4196 16.5888 18.4196 16.5838 18.3117 16.6385C18.1352 16.7278 17.7478 17.0307 17.8115 17.0307C17.841 17.0307 17.8802 17.0108 17.8949 16.981C17.9096 16.9562 17.9734 16.9066 18.0322 16.8768C18.0911 16.847 18.0616 16.8867 17.9685 16.9711C17.8753 17.0505 17.7674 17.1052 17.7282 17.0903C17.684 17.0754 17.6693 17.0853 17.6938 17.1201C17.7135 17.1548 17.6988 17.1796 17.6644 17.1796C17.5713 17.1796 17.2721 17.4974 17.3162 17.547C17.3408 17.5669 17.331 17.5818 17.3064 17.5768C17.2035 17.552 17.1642 17.5818 17.2329 17.6265C17.2966 17.6662 17.2966 17.6761 17.228 17.6761C17.1838 17.6761 17.1103 17.7258 17.0563 17.7853C16.9942 17.8615 16.9975 17.8747 17.0661 17.8251C17.1201 17.7853 17.0907 17.8201 16.9975 17.9045C16.8994 17.9939 16.8406 18.0832 16.8602 18.118C16.8847 18.1528 16.87 18.1676 16.8308 18.1627C16.7964 18.1528 16.7719 18.1875 16.7719 18.2322C16.7768 18.2818 16.7621 18.3116 16.7425 18.2967C16.7229 18.2818 16.6885 18.3067 16.6738 18.3513C16.6542 18.401 16.664 18.4159 16.7082 18.396C16.7376 18.3762 16.7131 18.406 16.6493 18.4606C16.5856 18.5102 16.5463 18.5797 16.5659 18.6095C16.5807 18.6343 16.561 18.6691 16.5218 18.689C16.4826 18.7039 16.4483 18.7436 16.4483 18.7783C16.4483 18.823 16.463 18.823 16.5022 18.7684C16.5463 18.7088 16.5512 18.7088 16.5267 18.7833C16.512 18.8329 16.4973 18.8876 16.4973 18.8975C16.4973 18.9124 16.4777 18.9124 16.4532 18.8925C16.3943 18.8578 16.3306 19.0464 16.3747 19.1159C16.3894 19.1408 16.3796 19.1656 16.3502 19.1656C16.3158 19.1656 16.306 19.2003 16.3207 19.245C16.3404 19.2947 16.3306 19.3096 16.2913 19.2848C16.2521 19.2599 16.2472 19.2748 16.2668 19.3344C16.2864 19.384 16.2717 19.4536 16.2276 19.4933C16.1883 19.538 16.154 19.5975 16.154 19.6273C16.154 19.6621 16.1736 19.6571 16.2031 19.6124C16.2864 19.4784 16.2521 19.6075 16.154 19.7961C16.051 19.9947 16.0118 20.2082 16.105 20.0593C16.1736 19.95 16.1638 20.0394 16.0805 20.243C15.9726 20.4962 15.9775 21.5537 16.0854 21.7225C16.1344 21.802 16.154 21.8913 16.1295 21.9906C16.1099 22.075 16.1197 22.1495 16.154 22.1694C16.1834 22.1892 16.1932 22.2488 16.1736 22.3034C16.154 22.3779 16.1589 22.3928 16.2031 22.368C16.2472 22.3431 16.2521 22.358 16.2325 22.4325C16.2129 22.4871 16.2227 22.5467 16.2521 22.5666C16.2815 22.5864 16.2913 22.641 16.2766 22.6857C16.2619 22.7354 16.2815 22.8049 16.3207 22.8347C16.36 22.8694 16.3796 22.934 16.3649 22.9737C16.3453 23.0283 16.3551 23.0432 16.3894 23.0184C16.4286 22.9985 16.4384 23.0084 16.4188 23.0531C16.4041 23.0928 16.4286 23.1375 16.4728 23.1574C16.5218 23.1723 16.5463 23.2219 16.5316 23.2567C16.5169 23.2964 16.5365 23.3411 16.5758 23.356C16.6199 23.3709 16.6444 23.4156 16.6297 23.4503C16.6199 23.4801 16.6444 23.5397 16.6885 23.5744C16.7523 23.629 16.7523 23.634 16.6934 23.6092C16.6542 23.5893 16.664 23.6142 16.7131 23.6539C16.767 23.6986 16.7915 23.7333 16.767 23.7333C16.7425 23.7333 16.767 23.7681 16.821 23.8078C16.87 23.8475 16.8945 23.8823 16.87 23.8823C16.8406 23.8823 16.8651 23.917 16.919 23.9617C16.9681 24.0014 16.9779 24.0262 16.9386 24.0064C16.8994 23.9865 16.9092 24.0113 16.9632 24.056C17.0171 24.1007 17.0612 24.1553 17.0612 24.1752C17.0612 24.2 17.1397 24.2894 17.2329 24.3787C17.3261 24.4681 17.3702 24.5178 17.331 24.4979C17.2917 24.4731 17.3555 24.5624 17.4781 24.6915C17.6988 24.9249 17.7723 24.9845 17.6938 24.8603C17.6693 24.8256 17.6988 24.8554 17.7576 24.9249C17.8214 24.9944 17.8949 25.049 17.9243 25.049C17.9538 25.049 18.0077 25.0937 18.0469 25.1433C18.0862 25.198 18.1156 25.2228 18.1156 25.193C18.1205 25.1682 18.1597 25.198 18.2088 25.2575C18.2578 25.3171 18.3117 25.3519 18.3314 25.337C18.3461 25.3171 18.3608 25.332 18.3608 25.3668C18.3608 25.4015 18.3804 25.4164 18.4049 25.3966C18.4343 25.3817 18.4736 25.4114 18.503 25.4561C18.5324 25.5058 18.5569 25.5256 18.5569 25.5058C18.5569 25.4512 18.8512 25.6299 18.8512 25.6845C18.8512 25.7044 18.8757 25.7093 18.9002 25.6944C18.9296 25.6796 18.9493 25.6895 18.9493 25.7193C18.9493 25.7491 18.9689 25.764 18.9934 25.7441C19.0179 25.7292 19.0522 25.7391 19.0719 25.7689C19.0915 25.7987 19.1258 25.8086 19.1503 25.7937C19.1748 25.7739 19.1945 25.7888 19.1945 25.8186C19.1945 25.8484 19.2141 25.8633 19.2386 25.8434C19.2631 25.8285 19.2974 25.8384 19.317 25.8682C19.3367 25.898 19.371 25.9079 19.3955 25.893C19.42 25.8732 19.4396 25.8831 19.4396 25.9079C19.4396 25.9377 19.4838 25.9477 19.5377 25.9328C19.5917 25.9179 19.6358 25.9278 19.6358 25.9576C19.6358 25.9874 19.6848 25.9973 19.7437 25.9774C19.8222 25.9576 19.8369 25.9675 19.8074 26.0172C19.778 26.0668 19.7878 26.0767 19.8516 26.0519C19.9006 26.0321 19.9644 26.0321 19.9938 26.0519C20.0281 26.0718 20.1115 26.0817 20.185 26.0718C20.2635 26.0668 20.3224 26.0767 20.3224 26.1016C20.3224 26.1463 20.5332 26.1661 21.0481 26.176C21.4797 26.181 21.8426 26.1512 21.8426 26.1065C21.8426 26.0867 21.9014 26.0718 21.9799 26.0668C22.333 26.0618 22.382 26.0519 22.3526 26.0072C22.333 25.9774 22.3477 25.9675 22.3869 25.9774C22.4261 25.9923 22.5193 25.9725 22.5929 25.9328C22.6664 25.893 22.7498 25.8781 22.7743 25.893C22.7988 25.9079 22.8283 25.898 22.8479 25.8682C22.8675 25.8384 22.9018 25.8285 22.9263 25.8434C22.9509 25.8633 22.9705 25.8484 22.9705 25.8136C22.9705 25.7789 22.9852 25.764 22.9999 25.7838C23.0195 25.7987 23.0637 25.7789 23.1029 25.7391C23.147 25.6994 23.2108 25.6746 23.2451 25.6895C23.2843 25.7044 23.3138 25.6944 23.3138 25.6647C23.3138 25.6349 23.3383 25.6299 23.3628 25.6448C23.3922 25.6597 23.4118 25.6498 23.4118 25.62C23.4118 25.5902 23.4363 25.5803 23.4609 25.5951C23.4903 25.61 23.5099 25.6001 23.5099 25.5654C23.5099 25.5306 23.5246 25.5157 23.5393 25.5356C23.554 25.5505 23.6129 25.5207 23.6717 25.471C23.7257 25.4164 23.7845 25.3866 23.8041 25.3966C23.8287 25.4114 23.8581 25.3866 23.8728 25.3419C23.8875 25.3022 23.9218 25.2824 23.9513 25.2973C23.9758 25.3121 24.0003 25.3022 24.0003 25.2724C24.0003 25.2426 24.0542 25.198 24.1229 25.1632C24.2798 25.0937 24.2406 25.0242 23.8189 24.6071C23.6374 24.4284 23.5099 24.2794 23.5344 24.2794C23.5589 24.2794 23.5295 24.2447 23.4707 24.2C23.4118 24.1603 23.3775 24.1007 23.3922 24.0709C23.4118 24.0411 23.402 24.0312 23.3726 24.0511C23.3481 24.066 23.3137 24.056 23.3039 24.0262C23.2892 23.9865 23.2451 23.9915 23.1519 24.056C23.0784 24.1007 23.0195 24.1206 23.0195 24.1007C23.0195 24.0759 22.9999 24.0858 22.9754 24.1206C22.9558 24.1553 22.9067 24.1901 22.8675 24.195C22.8283 24.205 22.7694 24.2248 22.74 24.2447C22.7057 24.2695 22.6762 24.2695 22.6762 24.2546C22.6762 24.2348 22.6419 24.2596 22.5978 24.2993C22.5291 24.3688 22.4261 24.4036 22.3232 24.3837C22.2986 24.3837 22.2839 24.4036 22.2839 24.4334C22.2839 24.4632 22.2398 24.478 22.1858 24.4632C22.1319 24.4483 22.0878 24.4582 22.0878 24.488C22.0878 24.5178 22.0534 24.5277 22.0142 24.5128C21.975 24.4929 21.9308 24.5029 21.9112 24.5327C21.8965 24.5624 21.8475 24.5724 21.8082 24.5575C21.769 24.5426 21.7102 24.5426 21.6807 24.5624C21.5974 24.6171 20.5185 24.622 20.5185 24.5724C20.5185 24.5476 20.4548 24.5426 20.3714 24.5624C20.2733 24.5823 20.2243 24.5724 20.2243 24.5277C20.2243 24.4929 20.1899 24.478 20.1507 24.4979C20.1115 24.5128 20.0772 24.5029 20.0772 24.4731C20.0772 24.4433 20.033 24.4334 19.9742 24.4532C19.9055 24.478 19.881 24.4731 19.9006 24.4334C19.9251 24.3986 19.9055 24.3887 19.8614 24.4085C19.8173 24.4234 19.7829 24.4135 19.7829 24.3837C19.7829 24.3539 19.7535 24.344 19.7143 24.3589C19.6799 24.3738 19.6358 24.349 19.6211 24.3092C19.6015 24.2646 19.5573 24.2447 19.523 24.2596C19.4838 24.2745 19.4396 24.2497 19.4249 24.2099C19.4053 24.1653 19.3612 24.1454 19.317 24.1603C19.2778 24.1802 19.2337 24.1553 19.2141 24.1106C19.1994 24.066 19.165 24.0411 19.1454 24.056C19.1258 24.0709 19.0915 24.0461 19.0768 24.0014C19.062 23.9617 19.0277 23.9369 19.0032 23.9567C18.9738 23.9716 18.9345 23.9418 18.9051 23.8972C18.8757 23.8475 18.8512 23.8227 18.8512 23.8425C18.8512 23.8872 18.145 23.1772 18.1401 23.1276C18.1401 23.1077 18.096 23.0581 18.042 23.0134C17.9881 22.9687 17.9783 22.9439 18.0175 22.9637C18.0665 22.9836 18.0616 22.9737 18.0077 22.924C17.9587 22.8843 17.9341 22.8396 17.9538 22.8247C17.9685 22.8049 17.944 22.78 17.8998 22.7602C17.8557 22.7453 17.8312 22.7105 17.8459 22.6907C17.8851 22.6311 17.8164 22.4871 17.7674 22.5219C17.7429 22.5368 17.738 22.5169 17.7527 22.4772C17.7674 22.4375 17.7429 22.3928 17.6988 22.3729C17.6448 22.3531 17.6301 22.3133 17.6497 22.2438C17.6693 22.1843 17.6595 22.1445 17.6252 22.1445C17.5909 22.1445 17.5811 22.1098 17.5958 22.0651C17.6154 22.0155 17.6056 22.0006 17.5663 22.0254C17.5271 22.0502 17.5222 22.0353 17.5467 21.9708C17.5663 21.9162 17.5565 21.8615 17.5173 21.8417C17.4339 21.7871 17.3996 21.2012 17.4388 20.4714C17.4487 20.2926 17.4683 20.1933 17.4928 20.2231C17.5173 20.2579 17.5271 20.238 17.5124 20.1685C17.4977 20.1089 17.5075 20.0593 17.5369 20.0593C17.5663 20.0593 17.5762 20.0096 17.5565 19.9401C17.5369 19.8656 17.5565 19.8011 17.6056 19.7614C17.6448 19.7266 17.6693 19.667 17.6546 19.6273C17.6399 19.5876 17.6448 19.5678 17.6693 19.5826C17.7233 19.6174 17.7821 19.4734 17.7429 19.4039C17.7233 19.3741 17.7478 19.3195 17.7968 19.2798C17.8508 19.245 17.8753 19.2152 17.8557 19.2152C17.8361 19.2152 17.8655 19.1706 17.9194 19.1159C17.9783 19.0564 18.0077 18.9869 17.9881 18.9521C17.9685 18.9173 17.9685 18.9074 17.993 18.9273C18.0469 18.9769 18.1793 18.7833 18.1401 18.7188C18.1205 18.689 18.1254 18.6741 18.1499 18.679C18.199 18.6939 18.7776 18.113 18.7629 18.0584C18.758 18.0386 18.7678 18.0286 18.7874 18.0286C18.8953 18.0485 18.964 18.0088 19.0817 17.8846C19.1552 17.8102 19.1945 17.7804 19.1748 17.8151C19.1454 17.8648 19.1748 17.8598 19.2876 17.8052C19.371 17.7605 19.4396 17.7009 19.4396 17.6761C19.4396 17.6513 19.474 17.6463 19.523 17.6612C19.5819 17.6861 19.5917 17.6761 19.5622 17.6265C19.5377 17.5818 19.5426 17.5719 19.5819 17.5967C19.6113 17.6165 19.675 17.6066 19.7143 17.5719C19.7535 17.5421 19.8565 17.5073 19.9448 17.4974C20.0281 17.4924 20.1703 17.4577 20.2488 17.4229C20.3322 17.3931 20.5626 17.3584 20.7637 17.3484C20.9648 17.3385 21.2296 17.3186 21.3522 17.3038C21.514 17.2889 21.5532 17.2938 21.4993 17.3286C21.4454 17.3683 21.4748 17.3733 21.6121 17.3484C21.7249 17.3286 21.7935 17.3385 21.7935 17.3683C21.7935 17.3981 21.8867 17.4328 21.9946 17.4527C22.1074 17.4726 22.2741 17.5222 22.3673 17.557C22.4605 17.5967 22.5536 17.6165 22.5782 17.6016C22.6076 17.5818 22.6272 17.5967 22.6272 17.6265C22.6272 17.6563 22.6517 17.6662 22.6762 17.6513C22.7057 17.6364 22.7253 17.6463 22.7253 17.6761C22.7253 17.7109 22.7596 17.7258 22.7988 17.7059C22.8381 17.691 22.892 17.7158 22.9116 17.7605C22.9411 17.8102 22.9901 17.83 23.0391 17.8102C23.0882 17.7903 23.1078 17.7506 23.0882 17.7208C23.0686 17.6861 23.0735 17.6761 23.1029 17.691C23.1715 17.7357 23.9169 16.9562 23.9267 16.8321C23.9316 16.7775 23.9022 16.703 23.8581 16.6682C23.7894 16.6136 23.7845 16.6186 23.8483 16.708C23.8826 16.7626 23.8581 16.7427 23.7845 16.6682C23.7159 16.5938 23.657 16.5441 23.657 16.564C23.657 16.5838 23.6276 16.564 23.5933 16.5094C23.554 16.4597 23.5001 16.4349 23.4658 16.4548C23.4363 16.4746 23.3971 16.4548 23.3824 16.4101C23.3628 16.3654 23.3187 16.3406 23.2794 16.3555C23.2402 16.3704 23.2206 16.3654 23.2353 16.3406C23.2696 16.2859 23.1274 16.2264 23.0636 16.2661C23.0391 16.281 23.0195 16.2661 23.0195 16.2363C23.0195 16.2065 22.9999 16.1966 22.9705 16.2115C22.946 16.2264 22.9214 16.2164 22.9214 16.1817C22.9214 16.1519 22.8822 16.137 22.8234 16.1519C22.7694 16.1668 22.7351 16.1618 22.7498 16.142C22.7596 16.1171 22.7155 16.0774 22.6468 16.0427C22.4997 15.9781 22.4261 15.9732 22.5291 16.0377C22.5782 16.0725 22.5831 16.0874 22.5389 16.0874C22.5046 16.0874 22.4654 16.0526 22.4458 16.0079C22.4212 15.9434 22.3722 15.9334 22.1908 15.9583C22.024 15.9781 21.9897 15.9732 22.0632 15.9384C22.1466 15.8937 22.1466 15.8888 22.0289 15.9037C21.9505 15.9185 21.8916 15.9086 21.8916 15.8937C21.8916 15.8739 21.5483 15.859 21.1315 15.854C20.7147 15.849 20.3714 15.8639 20.3714 15.8788ZM23.9022 16.8966C23.9022 16.9016 23.7747 17.0307 23.6227 17.1796L23.3383 17.4527L23.608 17.1647C23.8532 16.9016 23.9022 16.8569 23.9022 16.8966ZM23.3138 17.4974C23.3138 17.5073 23.2745 17.547 23.2304 17.5818C23.1519 17.6463 23.147 17.6414 23.2108 17.5619C23.2745 17.4825 23.3138 17.4577 23.3138 17.4974ZM19.0473 17.8946C19.0473 17.9045 19.013 17.9293 18.9689 17.9442C18.9296 17.9591 18.91 17.9542 18.9247 17.9244C18.9542 17.8747 19.0473 17.8549 19.0473 17.8946ZM18.4589 23.5099C18.552 23.6042 18.6158 23.6837 18.6011 23.6837C18.5864 23.6837 18.503 23.6042 18.4098 23.5099C18.3166 23.4156 18.2529 23.3361 18.2676 23.3361C18.2823 23.3361 18.3657 23.4156 18.4589 23.5099Z" fill="white"/>
<path fill-rule="evenodd" clip-rule="evenodd" d="M14.7614 16.4597C14.8497 16.5292 14.8448 16.5342 14.7271 16.4895C14.6143 16.4498 14.575 16.4647 14.4623 16.5839C14.3887 16.6633 14.3446 16.7477 14.3642 16.7775C14.3789 16.8122 14.3691 16.8271 14.3348 16.8222C14.3053 16.8122 14.2661 16.8371 14.2514 16.8768C14.2367 16.9215 14.2514 16.9314 14.2955 16.9066C14.3348 16.8817 14.3495 16.8867 14.3249 16.9115C14.3004 16.9364 14.2563 16.9562 14.2318 16.9562C14.2023 16.9562 14.168 16.986 14.1533 17.0257C14.1386 17.0704 14.1533 17.0803 14.1974 17.0605C14.2367 17.0406 14.2122 17.0704 14.1435 17.13C14.0748 17.1896 14.0503 17.2243 14.0847 17.2045C14.1141 17.1896 14.1435 17.1995 14.1435 17.2243C14.1435 17.2541 14.1141 17.2789 14.0748 17.2789C14.0356 17.2789 13.9915 17.3137 13.9768 17.3584C13.9571 17.408 13.967 17.4229 14.0111 17.3981C14.0405 17.3782 14.016 17.413 13.9571 17.4775C13.864 17.5669 13.8542 17.5967 13.9081 17.6314C13.9571 17.6662 13.9571 17.6761 13.8983 17.6761C13.7953 17.6761 13.6335 18.0783 13.712 18.1329C13.761 18.1627 13.7561 18.1726 13.6972 18.1726C13.609 18.1726 13.5305 18.3911 13.5845 18.4804C13.6041 18.5152 13.5992 18.5202 13.5648 18.5003C13.5305 18.4804 13.506 18.4854 13.506 18.5152C13.506 18.54 13.4913 18.6046 13.4766 18.6542C13.452 18.7287 13.4569 18.7337 13.506 18.6691C13.555 18.6046 13.5599 18.6095 13.5354 18.684C13.5207 18.7337 13.506 18.7883 13.506 18.7982C13.506 18.8131 13.4815 18.8081 13.452 18.7883C13.4128 18.7634 13.403 18.8081 13.4177 18.9323C13.4275 19.0315 13.4226 19.1011 13.403 19.0862C13.3442 19.0514 13.3 19.3543 13.3294 19.5777C13.3491 19.7068 13.3442 19.7515 13.3196 19.6869C13.251 19.533 13.2068 19.9302 13.2363 20.387C13.2559 20.67 13.251 20.7494 13.2118 20.6799C13.1774 20.6104 13.1725 20.7395 13.1921 21.1019C13.2068 21.3899 13.2216 21.7871 13.2216 21.9857C13.2265 22.219 13.2412 22.3233 13.2706 22.2836C13.3 22.2438 13.3049 22.2786 13.2853 22.3779C13.2657 22.4673 13.2755 22.5467 13.3098 22.5666C13.3442 22.5864 13.354 22.6609 13.3344 22.7453C13.3147 22.8347 13.3245 22.8893 13.354 22.8893C13.3834 22.8893 13.3932 22.924 13.3785 22.9638C13.3589 23.0035 13.3687 23.0382 13.3932 23.0382C13.4177 23.0382 13.4275 23.1077 13.4177 23.1921C13.403 23.2964 13.4128 23.3411 13.4471 23.3163C13.5158 23.2765 13.5697 23.4454 13.5256 23.5595C13.5011 23.6191 13.506 23.639 13.5403 23.6191C13.5697 23.5993 13.609 23.6191 13.6237 23.6638C13.6678 23.783 13.658 23.8177 13.5992 23.7333C13.555 23.6737 13.5501 23.6737 13.5746 23.7482C13.5894 23.7979 13.6041 23.8624 13.6041 23.8872C13.6041 23.917 13.6237 23.9269 13.6482 23.9121C13.7021 23.8773 13.761 24.0213 13.7218 24.0908C13.707 24.1156 13.7316 24.1702 13.7806 24.2099C13.8346 24.2546 13.8444 24.2745 13.8149 24.2546C13.7169 24.205 13.7414 24.2646 13.864 24.3837C13.9228 24.4433 13.9424 24.4781 13.913 24.4582C13.8689 24.4334 13.8591 24.4483 13.8787 24.4979C13.8934 24.5376 13.9375 24.5823 13.9817 24.5972C14.0209 24.6171 14.0454 24.6618 14.0307 24.6965C14.016 24.7362 14.0356 24.7809 14.0797 24.7958C14.119 24.8157 14.1435 24.8604 14.1288 24.8951C14.1141 24.9348 14.1337 24.9795 14.1778 24.9944C14.222 25.0143 14.2416 25.0391 14.2269 25.0589C14.2072 25.0738 14.2318 25.1185 14.2808 25.1582C14.3348 25.2079 14.3397 25.2178 14.2906 25.198C14.2465 25.1781 14.2514 25.193 14.3053 25.2377C14.3544 25.2774 14.3838 25.337 14.3789 25.3717C14.3691 25.4065 14.4034 25.4412 14.4524 25.4462C14.4966 25.4561 14.526 25.4412 14.5064 25.4164C14.4917 25.3916 14.5113 25.3717 14.5505 25.3717C14.6437 25.3717 14.8889 25.1036 14.8448 25.049C14.8202 25.0292 14.835 25.0242 14.8693 25.0441C14.9036 25.0639 14.9428 25.049 14.9576 25.0043C14.9723 24.9596 15.0066 24.9348 15.0262 24.9497C15.0458 24.9646 15.0801 24.9398 15.0949 24.8951C15.1145 24.8504 15.139 24.8256 15.1586 24.8405C15.1733 24.8604 15.2175 24.8355 15.2567 24.7859C15.3057 24.7313 15.3155 24.7263 15.2959 24.7759C15.2763 24.8256 15.2861 24.8206 15.3352 24.766C15.3744 24.7164 15.4185 24.6915 15.4332 24.7114C15.4528 24.7263 15.4676 24.7164 15.4676 24.6816C15.4676 24.6469 15.4921 24.6369 15.5166 24.6518C15.5951 24.7015 15.6343 24.5376 15.5656 24.4532C15.5313 24.4135 15.5215 24.3788 15.546 24.3788C15.5656 24.3788 15.5411 24.344 15.4872 24.2993C15.4381 24.2596 15.4283 24.2348 15.4676 24.2546C15.5117 24.2745 15.5019 24.2546 15.4479 24.2099C15.3989 24.1702 15.3744 24.1106 15.394 24.0858C15.4087 24.056 15.3891 24.0163 15.345 24.0014C15.3008 23.9816 15.2763 23.9369 15.291 23.8972C15.3057 23.8624 15.2861 23.8177 15.242 23.7979C15.2027 23.783 15.1782 23.7383 15.1929 23.7035C15.2077 23.6638 15.1978 23.634 15.1684 23.634C15.139 23.634 15.1341 23.6092 15.1488 23.5844C15.1635 23.5595 15.1586 23.5347 15.1292 23.5347C15.0998 23.5347 15.0949 23.5 15.1096 23.4503C15.1292 23.3957 15.1243 23.3808 15.0851 23.4056C15.0458 23.4305 15.036 23.4156 15.0556 23.3659C15.0703 23.3212 15.0605 23.2865 15.0311 23.2865C15.0017 23.2865 14.9919 23.2517 15.0115 23.2021C15.036 23.1425 15.0262 23.1326 14.9772 23.1624C14.9281 23.1921 14.9183 23.1822 14.9428 23.1226C14.9576 23.073 14.9526 23.0382 14.9232 23.0382C14.8987 23.0382 14.8889 22.9836 14.9085 22.9091C14.933 22.8198 14.9232 22.785 14.8889 22.8098C14.8595 22.8297 14.8497 22.7999 14.8693 22.7304C14.884 22.6708 14.8742 22.6361 14.8448 22.6559C14.8202 22.6758 14.8055 22.6261 14.8202 22.5368C14.83 22.4573 14.8202 22.3928 14.7957 22.3928C14.7663 22.3928 14.7565 22.3332 14.7712 22.2637C14.7859 22.1694 14.7761 22.1396 14.7418 22.1644C14.6976 22.1892 14.6927 22.1297 14.7124 21.9608C14.732 21.8069 14.7222 21.7474 14.6927 21.7871C14.6633 21.8268 14.6535 21.7225 14.6535 21.4892C14.6584 21.2906 14.6437 20.9828 14.6241 20.804C14.5996 20.5756 14.6045 20.531 14.6339 20.6551C14.6682 20.7891 14.6731 20.7544 14.6584 20.4813C14.6437 20.2281 14.6486 20.1536 14.6878 20.2082C14.7271 20.2628 14.732 20.2281 14.7124 20.0692C14.6878 19.9103 14.6976 19.8607 14.7369 19.8905C14.781 19.9153 14.7859 19.8855 14.7614 19.7912C14.7369 19.6919 14.7418 19.6621 14.7859 19.6919C14.83 19.7167 14.835 19.6869 14.8153 19.5678C14.7908 19.4536 14.8006 19.4188 14.8399 19.4436C14.8791 19.4685 14.884 19.4536 14.8644 19.399C14.8497 19.3493 14.8546 19.3145 14.884 19.3145C14.9085 19.3145 14.9183 19.2599 14.8987 19.1954C14.884 19.1259 14.8938 19.0315 14.9281 18.9819C14.9723 18.9025 14.9772 18.9074 14.9526 19.0167C14.9281 19.1209 14.933 19.1259 14.9772 19.0514C15.0066 19.0018 15.0262 18.9372 15.0115 18.9025C15.0017 18.8727 15.0262 18.8131 15.0605 18.7734C15.1047 18.7337 15.1194 18.6592 15.1047 18.5847C15.0851 18.5102 15.0949 18.4755 15.1292 18.4804C15.1586 18.4904 15.1978 18.4656 15.2126 18.4258C15.2273 18.3861 15.2126 18.3712 15.1782 18.3911C15.1439 18.4109 15.1341 18.396 15.1537 18.3514C15.1684 18.3067 15.2077 18.2818 15.2371 18.2868C15.2714 18.2918 15.2959 18.2471 15.291 18.1875C15.291 18.1279 15.3057 18.0882 15.3253 18.0981C15.345 18.113 15.3744 18.0882 15.3891 18.0435C15.4087 17.9939 15.3989 17.979 15.3548 17.9988C15.3253 18.0187 15.3352 17.9988 15.3891 17.9542C15.4381 17.9144 15.4627 17.8598 15.4479 17.83C15.4283 17.8052 15.443 17.7655 15.4725 17.7456C15.5117 17.7208 15.5215 17.7357 15.497 17.7804C15.4774 17.8201 15.4921 17.8102 15.5264 17.7556C15.5607 17.7059 15.6392 17.6017 15.7029 17.5222C15.8157 17.3832 15.8942 17.1548 15.8059 17.2045C15.7814 17.2243 15.7618 17.2094 15.7618 17.1796C15.7618 17.1498 15.7422 17.1399 15.7128 17.1548C15.6882 17.1697 15.6637 17.1598 15.6637 17.13C15.6637 17.0952 15.6294 17.0803 15.5902 17.0952C15.5509 17.1151 15.5068 17.1002 15.4872 17.0704C15.4627 17.0357 15.4774 17.0307 15.5166 17.0555C15.5607 17.0803 15.5705 17.0754 15.546 17.0357C15.5264 17.0059 15.4676 16.991 15.4234 17.0059C15.3646 17.0257 15.291 16.9711 15.1782 16.8321C15.0949 16.7229 14.987 16.6335 14.9428 16.6335C14.8987 16.6335 14.8791 16.6186 14.8938 16.5987C14.933 16.559 14.7859 16.3853 14.7173 16.3853C14.6878 16.3853 14.7075 16.42 14.7614 16.4597ZM14.6339 16.4994C14.6339 16.5094 14.5849 16.559 14.526 16.6136L14.4132 16.708L14.5064 16.5938C14.5947 16.4895 14.6339 16.4597 14.6339 16.4994ZM15.0998 16.7824C15.1488 16.8371 15.1782 16.8817 15.1635 16.8817C15.1488 16.8817 15.0998 16.8371 15.0507 16.7824C15.0017 16.7278 14.9723 16.6831 14.987 16.6831C15.0017 16.6831 15.0507 16.7278 15.0998 16.7824ZM13.2951 20.0196C13.2804 20.0543 13.2706 20.0295 13.2706 19.96C13.2706 19.8905 13.2804 19.8657 13.2951 19.8954C13.3049 19.9302 13.3049 19.9898 13.2951 20.0196ZM14.6192 21.3601C14.6045 21.3998 14.5898 21.3849 14.5898 21.3303C14.5849 21.2757 14.5996 21.2459 14.6143 21.2658C14.629 21.2807 14.6339 21.3253 14.6192 21.3601Z" fill="white"/>
<path fill-rule="evenodd" clip-rule="evenodd" d="M24.9328 18.3219C24.8151 18.4559 24.6925 18.5503 24.668 18.5354C24.6435 18.5155 24.6386 18.5304 24.6533 18.5552C24.6729 18.585 24.6386 18.6496 24.5748 18.6992C24.5062 18.7621 24.4931 18.7605 24.5356 18.6943C24.5699 18.6396 24.5111 18.6943 24.4032 18.8184C24.1972 19.0468 24.1678 19.1908 24.2953 19.3049C24.3345 19.3447 24.3395 19.3596 24.31 19.3397C24.2659 19.3198 24.2561 19.3347 24.2757 19.3844C24.2904 19.4291 24.3247 19.4638 24.3542 19.4638C24.3787 19.4638 24.3836 19.4837 24.3689 19.5135C24.3542 19.5383 24.364 19.5631 24.3934 19.5631C24.4277 19.5631 24.4424 19.5979 24.4277 19.6376C24.4081 19.6773 24.4179 19.722 24.4473 19.7419C24.4768 19.7568 24.4866 19.8064 24.4719 19.8461C24.4522 19.8858 24.4621 19.9007 24.4964 19.8809C24.5307 19.861 24.5405 19.8809 24.5209 19.9504C24.5013 20.005 24.5111 20.0646 24.5405 20.0844C24.5748 20.1043 24.5846 20.1738 24.565 20.2433C24.5503 20.3128 24.5552 20.3525 24.5748 20.3426C24.5945 20.3277 24.6141 20.5909 24.6141 20.9285C24.6141 21.2661 24.5994 21.5143 24.5797 21.4845C24.5601 21.4498 24.5405 21.4895 24.5405 21.5739C24.5356 21.9264 24.5258 21.9959 24.4817 21.9959C24.4571 21.9959 24.4473 22.0158 24.467 22.0406C24.4817 22.0654 24.4719 22.1002 24.4473 22.12C24.4179 22.1349 24.4081 22.1796 24.4228 22.2144C24.4375 22.2491 24.413 22.3137 24.3738 22.3584C24.3345 22.3981 24.3149 22.4428 24.3296 22.4626C24.3493 22.4775 24.3345 22.4924 24.3002 22.4924C24.2659 22.4924 24.2561 22.5123 24.2708 22.5421C24.2855 22.5669 24.2806 22.5917 24.261 22.5917C24.1825 22.5917 24.1972 22.8697 24.2757 22.969C24.3149 23.0187 24.3395 23.0286 24.3198 22.9889C24.3051 22.9492 24.4719 23.1031 24.6925 23.3364C24.9132 23.5698 25.075 23.7237 25.0554 23.684C25.0162 23.6194 25.026 23.6195 25.0947 23.679C25.1388 23.7138 25.1633 23.7684 25.1437 23.7982C25.129 23.828 25.1388 23.8329 25.1682 23.8131C25.2025 23.7932 25.2271 23.8032 25.2271 23.828C25.2271 23.8578 25.2663 23.8429 25.3153 23.7932C25.3693 23.7485 25.3987 23.6939 25.3889 23.6691C25.3791 23.6492 25.3889 23.6343 25.4183 23.6343C25.4477 23.6343 25.4575 23.6046 25.4428 23.5698C25.4281 23.5301 25.4526 23.4705 25.4919 23.4357C25.536 23.401 25.5556 23.3563 25.5409 23.3315C25.5262 23.3067 25.536 23.2868 25.5556 23.2868C25.5801 23.2868 25.6047 23.2372 25.6047 23.1776C25.6096 23.113 25.639 23.0584 25.6635 23.0485C25.688 23.0386 25.6978 22.9988 25.6831 22.9591C25.6684 22.9194 25.6831 22.8896 25.7126 22.8896C25.742 22.8896 25.7518 22.8549 25.7371 22.8151C25.7175 22.7754 25.7322 22.7407 25.7616 22.7407C25.791 22.7407 25.8008 22.7059 25.7861 22.6662C25.7665 22.6265 25.7812 22.5917 25.8155 22.5917C25.8499 22.5917 25.8597 22.552 25.8401 22.4924C25.8204 22.4378 25.8302 22.3931 25.8597 22.3931C25.8891 22.3931 25.8989 22.3584 25.8842 22.3186C25.8646 22.2789 25.8793 22.2144 25.9087 22.1747C25.9381 22.1399 25.9479 22.0952 25.9332 22.0803C25.9185 22.0654 25.9234 22.0207 25.943 21.986C25.997 21.9016 26.0166 21.7675 26.0117 21.4796C26.0117 21.3455 26.0362 21.2065 26.0656 21.1718C26.1 21.1271 26.1098 21.0228 26.0853 20.8937C26.0558 20.6852 26.0117 20.1986 26.0068 19.9702C26.0019 19.9107 25.9823 19.861 25.9627 19.861C25.9381 19.861 25.9185 19.8213 25.9185 19.7716C25.9136 19.583 25.894 19.5135 25.8548 19.5135C25.8302 19.5135 25.8204 19.4688 25.8401 19.4191C25.8548 19.3645 25.845 19.3099 25.8155 19.2901C25.7861 19.2752 25.7763 19.2354 25.791 19.2106C25.8106 19.1858 25.7959 19.1659 25.7665 19.1659C25.7371 19.1659 25.7224 19.1461 25.742 19.1212C25.7567 19.0964 25.7469 19.0617 25.7175 19.0418C25.688 19.0219 25.6782 18.9872 25.6929 18.9624C25.7126 18.9375 25.6978 18.9177 25.6635 18.9177C25.6292 18.9177 25.6194 18.9028 25.6341 18.8829C25.6537 18.868 25.6341 18.8085 25.585 18.7588C25.5409 18.7092 25.5262 18.6694 25.5507 18.6694C25.5752 18.6694 25.5703 18.6496 25.536 18.6297C25.5066 18.6099 25.4723 18.5602 25.4625 18.5205C25.4526 18.4808 25.4134 18.4162 25.3742 18.3815C25.3104 18.3219 25.3104 18.3169 25.3742 18.3517C25.4134 18.3765 25.3938 18.3219 25.3251 18.2375C25.2565 18.1481 25.1927 18.0786 25.178 18.0786C25.1633 18.0836 25.0554 18.1928 24.9328 18.3219Z" fill="white"/>
<path fill-rule="evenodd" clip-rule="evenodd" d="M20.7643 18.7387C20.7643 18.7635 20.7006 18.7684 20.6172 18.7486C20.5387 18.7337 20.4701 18.7436 20.4701 18.7684C20.4701 18.7933 20.4357 18.8032 20.3965 18.7883C20.3573 18.7684 20.323 18.7833 20.323 18.8181C20.323 18.8529 20.2935 18.8677 20.2543 18.8529C20.2151 18.838 20.1709 18.8578 20.1562 18.8975C20.1415 18.9422 20.0974 18.967 20.063 18.9522C20.0336 18.9422 19.9748 18.967 19.9404 19.0117C19.9012 19.0564 19.8865 19.0614 19.9061 19.0266C19.9208 18.9968 19.9257 18.967 19.911 18.967C19.8571 18.967 19.2196 19.6323 19.2343 19.6721C19.2392 19.6919 19.2196 19.7118 19.1901 19.7118C19.1656 19.7118 19.1509 19.7316 19.1656 19.7565C19.1852 19.7813 19.1754 19.8111 19.1509 19.821C19.1264 19.826 19.097 19.8707 19.0872 19.9104C19.0774 19.9501 19.0479 20.0097 19.0136 20.0494C18.9793 20.0842 18.9695 20.1487 18.9842 20.1934C19.0087 20.253 18.9989 20.2629 18.9499 20.2331C18.9057 20.2083 18.8959 20.2132 18.9204 20.253C18.94 20.2827 18.9302 20.3423 18.9008 20.382C18.8665 20.4267 18.8567 20.5111 18.8714 20.5856C18.8959 20.67 18.8861 20.6998 18.8518 20.6799C18.8224 20.6601 18.8027 20.7395 18.8027 20.8984C18.8027 21.0473 18.8224 21.1516 18.8567 21.1516C18.891 21.1516 18.8959 21.2062 18.8763 21.3055C18.8518 21.4147 18.8665 21.4843 18.9253 21.5488C18.9695 21.5984 18.9989 21.6729 18.9842 21.7077C18.9744 21.7424 18.9989 21.8169 19.043 21.8666C19.1068 21.946 19.1068 21.9559 19.0479 21.9261C19.0038 21.9013 19.0087 21.9162 19.0577 21.9609C19.1068 22.0006 19.1313 22.0453 19.1117 22.0602C19.097 22.08 19.1068 22.0949 19.1411 22.0949C19.1754 22.0949 19.1901 22.1148 19.1754 22.1396C19.1607 22.1644 19.1803 22.1992 19.2245 22.2141C19.2686 22.234 19.2931 22.2588 19.2784 22.2786C19.2588 22.2935 19.3275 22.3829 19.4304 22.4822C19.5285 22.5765 19.5677 22.6262 19.5138 22.5865C19.4484 22.5434 19.4468 22.5567 19.5089 22.6262C19.5579 22.6858 19.6168 22.7304 19.6364 22.7255C19.6609 22.7205 19.7149 22.7602 19.759 22.8148C19.8031 22.8695 19.8277 22.8794 19.808 22.8397C19.7884 22.8 19.8129 22.8099 19.8571 22.8645C19.9012 22.9191 19.9404 22.9539 19.9453 22.9439C19.9503 22.934 20.0042 22.939 20.0679 22.9588C20.1268 22.9787 20.1611 23.0184 20.1464 23.0482C20.1268 23.078 20.1366 23.0879 20.166 23.0681C20.1954 23.0532 20.2298 23.0581 20.2494 23.083C20.2641 23.1127 20.3082 23.1227 20.3475 23.1028C20.3867 23.0879 20.421 23.1028 20.421 23.1326C20.421 23.1624 20.4554 23.1723 20.4946 23.1574C20.5338 23.1376 20.5681 23.1475 20.5681 23.1674C20.5681 23.1922 20.7692 23.212 21.0095 23.212C21.2498 23.212 21.4509 23.1922 21.4509 23.1723C21.4509 23.1475 21.4999 23.1475 21.5538 23.1624C21.6323 23.1872 21.647 23.1823 21.6225 23.1326C21.5931 23.0879 21.6078 23.078 21.6666 23.1028C21.7157 23.1227 21.7843 23.1078 21.8285 23.0581C21.8726 23.0184 21.9363 22.9936 21.9707 23.0085C22.0099 23.0234 22.0393 23.0134 22.0393 22.9837C22.0393 22.9539 22.0638 22.9489 22.0884 22.9638C22.1178 22.9787 22.1374 22.9688 22.1374 22.934C22.1374 22.8993 22.1521 22.8893 22.1717 22.9042C22.1864 22.9241 22.2306 22.8993 22.2698 22.8496C22.3189 22.795 22.3287 22.79 22.309 22.8397C22.2894 22.8794 22.3139 22.8695 22.3581 22.8148C22.4022 22.7602 22.4562 22.7205 22.4758 22.7255C22.4954 22.7304 22.6033 22.646 22.7063 22.5318C22.8092 22.4177 22.8632 22.3432 22.824 22.363C22.7847 22.3829 22.8043 22.3531 22.873 22.2935C22.9367 22.234 22.9956 22.1496 23.0005 22.1098C23.0103 22.0651 23.0446 22.0105 23.079 21.9907C23.1133 21.9658 23.1231 21.946 23.0986 21.946C23.0741 21.946 23.0839 21.9162 23.1133 21.8814C23.1427 21.8417 23.1525 21.797 23.1329 21.7821C23.1182 21.7623 23.128 21.7474 23.1623 21.7474C23.1967 21.7474 23.2114 21.7275 23.1917 21.7027C23.177 21.6779 23.1868 21.6431 23.2114 21.6282C23.2359 21.6133 23.2457 21.5538 23.231 21.4991C23.2163 21.4445 23.2261 21.3999 23.2457 21.3999C23.2702 21.3999 23.2898 21.1963 23.2898 20.953C23.2898 20.7097 23.2702 20.5062 23.2506 20.5062C23.2261 20.5062 23.2261 20.4615 23.2408 20.4069C23.2604 20.3473 23.2506 20.3076 23.2163 20.3076C23.1819 20.3076 23.1672 20.2728 23.1868 20.2331C23.2016 20.1934 23.1917 20.1586 23.1672 20.1586C23.1427 20.1586 23.1329 20.1239 23.1476 20.0841C23.1672 20.0444 23.1525 20.0097 23.1182 20.0097C23.0888 20.0097 23.079 19.9849 23.0937 19.96C23.1084 19.9302 23.0986 19.9104 23.0692 19.9104C23.0397 19.9104 23.0299 19.8856 23.0446 19.8607C23.0593 19.8309 23.0495 19.8111 23.0201 19.8111C22.9907 19.8111 22.976 19.7912 22.9907 19.7664C23.0054 19.7416 22.9858 19.7068 22.9416 19.6919C22.8975 19.6721 22.873 19.6472 22.8877 19.6323C22.9024 19.6174 22.8583 19.5479 22.7847 19.4784C22.7112 19.4089 22.6965 19.3841 22.7504 19.4189C22.8092 19.4586 22.7896 19.4189 22.7063 19.3295C22.6278 19.2401 22.5493 19.1706 22.5346 19.1756C22.4365 19.1855 22.3826 19.1557 22.3973 19.1011C22.4022 19.0713 22.3777 19.0465 22.3483 19.0514C22.3139 19.0614 22.2845 19.0415 22.2845 19.0117C22.2845 18.9869 22.2649 18.977 22.2355 18.9919C22.211 19.0068 22.1864 18.9968 22.1864 18.967C22.1864 18.9373 22.1668 18.9273 22.1374 18.9422C22.1129 18.9571 22.0884 18.9522 22.0884 18.9224C22.0884 18.8926 22.054 18.8876 22.005 18.9025C21.9462 18.9273 21.9363 18.9174 21.9658 18.8677C21.9952 18.8181 21.9854 18.8082 21.9265 18.833C21.8775 18.8529 21.8432 18.8429 21.8432 18.8131C21.8432 18.7833 21.8088 18.7684 21.7696 18.7883C21.7304 18.8032 21.6961 18.7933 21.6961 18.7635C21.6961 18.7387 21.6421 18.7287 21.5735 18.7486C21.4999 18.7684 21.4509 18.7585 21.4509 18.7238C21.4509 18.694 21.3234 18.6791 21.1076 18.684C20.9212 18.689 20.7643 18.7138 20.7643 18.7387ZM21.3528 20.0643C21.3528 20.0941 21.3724 20.099 21.4018 20.0841C21.4263 20.0693 21.544 20.1487 21.6568 20.2629C21.7745 20.3771 21.8334 20.4516 21.7941 20.4267C21.75 20.4019 21.7696 20.4267 21.8285 20.4863C21.902 20.5509 21.9314 20.6154 21.9118 20.67C21.8971 20.7197 21.9069 20.7544 21.9363 20.7544C21.9658 20.7544 21.9903 20.8487 21.9903 20.9828C21.9903 21.1417 21.9756 21.1963 21.9314 21.1715C21.8922 21.1466 21.8873 21.1615 21.9069 21.2161C21.9265 21.2658 21.9118 21.3006 21.8824 21.3006C21.853 21.3006 21.8432 21.3154 21.8628 21.3353C21.902 21.38 21.5931 21.7027 21.5391 21.668C21.5195 21.6531 21.4999 21.668 21.4999 21.6977C21.4999 21.7275 21.4803 21.7375 21.4509 21.7226C21.4263 21.7077 21.4018 21.7176 21.4018 21.7474C21.4018 21.7821 21.3626 21.7921 21.3037 21.7722C21.2498 21.7573 21.2057 21.7573 21.2057 21.7821C21.2057 21.807 21.1174 21.8219 21.0095 21.8219C20.9016 21.8219 20.8133 21.802 20.8133 21.7821C20.8133 21.7573 20.779 21.7474 20.7398 21.7673C20.7006 21.7821 20.6662 21.7722 20.6662 21.7474C20.6662 21.7226 20.6368 21.7126 20.5976 21.7275C20.5583 21.7424 20.5142 21.7275 20.4897 21.6928C20.4652 21.6531 20.475 21.6431 20.524 21.668C20.5632 21.6878 20.5191 21.6382 20.4308 21.5538C20.3426 21.4694 20.2886 21.3999 20.3082 21.3999C20.3279 21.3999 20.3033 21.3701 20.2494 21.3353C20.2004 21.2956 20.1758 21.241 20.1954 21.2062C20.2151 21.1764 20.2053 21.1119 20.1709 21.0722C20.1219 21.0126 20.1219 20.9729 20.166 20.9034C20.1954 20.8487 20.2102 20.7693 20.1905 20.7246C20.166 20.6601 20.1758 20.6501 20.2249 20.6799C20.269 20.7097 20.2788 20.6998 20.2543 20.6601C20.2298 20.6253 20.2543 20.5657 20.3033 20.526C20.3573 20.4813 20.3622 20.4664 20.323 20.4863C20.2837 20.5062 20.3033 20.4664 20.372 20.4019C20.4406 20.3374 20.524 20.253 20.5583 20.2083C20.5976 20.1652 20.6074 20.1652 20.5878 20.2083C20.5681 20.248 20.6025 20.2331 20.6613 20.1735C20.7202 20.1139 20.7986 20.0742 20.8379 20.0891C20.8771 20.109 20.9114 20.099 20.9114 20.0742C20.9114 20.0494 21.0095 20.0246 21.1321 20.0196C21.2596 20.0146 21.3528 20.0345 21.3528 20.0643Z" fill="white"/>
<path fill-rule="evenodd" clip-rule="evenodd" d="M19.4594 19.3246L19.3662 19.4388L19.479 19.3444C19.582 19.2551 19.6114 19.2153 19.5722 19.2153C19.5624 19.2153 19.5133 19.265 19.4594 19.3246Z" fill="white"/>
<path fill-rule="evenodd" clip-rule="evenodd" d="M30.4985 21.6482C30.4691 21.6929 30.4789 21.7028 30.528 21.6731C30.5868 21.6333 30.5868 21.6433 30.528 21.7177C30.4887 21.7624 30.4593 21.8766 30.4642 21.9709C30.4691 22.0653 30.4544 22.1447 30.4348 22.1447C30.4005 22.1447 30.3808 22.3135 30.3759 22.6065C30.371 22.6809 30.3563 22.7306 30.3318 22.7206C30.3122 22.7058 30.2877 22.7653 30.2877 22.8547C30.2877 22.9441 30.2828 23.0632 30.2779 23.1228C30.2779 23.1873 30.2582 23.237 30.2337 23.237C30.2092 23.237 30.1994 23.2767 30.2141 23.3313C30.2288 23.381 30.2141 23.4406 30.1847 23.4555C30.1602 23.4753 30.1455 23.52 30.1651 23.5597C30.1798 23.5994 30.1651 23.6342 30.1356 23.6342C30.1062 23.6342 30.0964 23.6689 30.1111 23.7087C30.1307 23.7484 30.116 23.8129 30.0866 23.8526C30.0572 23.8874 30.0474 23.9271 30.0621 23.947C30.0768 23.9619 30.0621 24.0264 30.0278 24.091C29.9934 24.1505 29.9591 24.2498 29.9493 24.2995C29.9395 24.3541 29.9101 24.4236 29.8806 24.4633C29.8512 24.4981 29.8414 24.5279 29.8561 24.5279C29.8757 24.5279 29.861 24.5775 29.8267 24.6371C29.7924 24.7016 29.7728 24.7662 29.7777 24.786C29.7826 24.8109 29.7679 24.8258 29.7482 24.8258C29.7286 24.8258 29.709 24.8754 29.7041 24.93C29.6992 24.9896 29.66 25.074 29.6207 25.1187C29.5815 25.1634 29.5521 25.2081 29.557 25.223C29.5668 25.2726 29.3265 25.7194 29.2382 25.8187C29.1892 25.8734 29.1647 25.918 29.1843 25.918C29.2039 25.918 29.1892 25.9478 29.1451 25.9826C29.0715 26.0372 29.0715 26.062 29.1303 26.1663C29.1647 26.2358 29.1941 26.2706 29.199 26.2408C29.199 26.2159 29.2677 26.2706 29.351 26.3649C29.4344 26.4592 29.4834 26.5039 29.4687 26.4642C29.4491 26.4245 29.5276 26.489 29.6403 26.6131C29.758 26.7373 29.8218 26.7919 29.7875 26.7373C29.7531 26.6826 29.8071 26.7224 29.9052 26.8217C30.0032 26.9259 30.1209 27.0103 30.17 27.0103C30.2533 27.0103 30.4397 26.911 30.3563 26.911C30.3269 26.911 30.3563 26.8663 30.4152 26.8068C30.474 26.7522 30.5132 26.6876 30.4985 26.6578C30.4789 26.633 30.5034 26.5982 30.5427 26.5833C30.5868 26.5684 30.6113 26.5387 30.5966 26.5138C30.5868 26.494 30.6162 26.4344 30.6702 26.3798C30.7192 26.3202 30.7486 26.2606 30.7339 26.2457C30.7143 26.2308 30.729 26.2159 30.7633 26.2159C30.7977 26.2159 30.8124 26.1961 30.7928 26.1713C30.7781 26.1464 30.8026 26.0869 30.8467 26.0471C30.8859 26.0024 30.9056 25.9677 30.8859 25.9677C30.8663 25.9677 30.8909 25.923 30.9399 25.8684C30.9889 25.8138 31.0134 25.7691 30.9938 25.7691C30.9742 25.7691 30.9938 25.7343 31.0331 25.6897C31.0772 25.6499 31.1017 25.5904 31.087 25.5655C31.0674 25.5407 31.0772 25.5209 31.0968 25.5209C31.1213 25.5209 31.1459 25.4712 31.1459 25.4116C31.1508 25.3471 31.1802 25.2925 31.2096 25.2825C31.2341 25.2726 31.2488 25.2428 31.2292 25.218C31.2145 25.1932 31.2243 25.1733 31.2537 25.1733C31.2832 25.1733 31.293 25.1386 31.2783 25.0988C31.2586 25.0591 31.2734 25.0244 31.3077 25.0244C31.3371 25.0244 31.3469 24.9995 31.3322 24.9747C31.3175 24.9449 31.3273 24.9251 31.3567 24.9251C31.3861 24.9251 31.4009 24.9052 31.3861 24.8853C31.3518 24.8307 31.5087 24.3293 31.5627 24.3293C31.5823 24.3293 31.5872 24.2995 31.5725 24.2598C31.5578 24.22 31.5725 24.1754 31.597 24.1555C31.6264 24.1406 31.6412 24.1009 31.6264 24.0761C31.6068 24.0512 31.6215 24.0314 31.651 24.0314C31.6853 24.0314 31.6951 23.9917 31.6755 23.937C31.6608 23.8824 31.6706 23.8278 31.6951 23.8129C31.7245 23.7931 31.7343 23.7484 31.7147 23.7087C31.7 23.6689 31.7147 23.6342 31.749 23.6342C31.7834 23.6342 31.7932 23.5945 31.7736 23.5399C31.7588 23.4852 31.7687 23.4306 31.7981 23.4108C31.8275 23.3909 31.8373 23.3363 31.8226 23.2817C31.803 23.232 31.8079 23.1873 31.8324 23.1873C31.8667 23.1873 31.8863 23.0533 31.8962 22.7504C31.8962 22.6909 31.9158 22.6412 31.9354 22.6412C31.9942 22.6412 32.0286 21.7177 31.9697 21.6582C31.955 21.6383 31.6215 21.6184 31.239 21.6085C30.7094 21.5936 30.528 21.6035 30.4985 21.6482Z" fill="white"/>
<path fill-rule="evenodd" clip-rule="evenodd" d="M16.0615 21.8764C16.0615 21.931 16.0762 21.9459 16.0909 21.9062C16.1056 21.8714 16.1007 21.8267 16.086 21.8118C16.0713 21.792 16.0566 21.8218 16.0615 21.8764Z" fill="white"/>
<path fill-rule="evenodd" clip-rule="evenodd" d="M12.5355 25.233C12.5012 25.2678 12.4767 25.2728 12.4767 25.2479C12.4767 25.2281 12.4374 25.2479 12.3835 25.2926C12.3345 25.3373 12.2462 25.382 12.1873 25.387C12.1334 25.3919 12.0844 25.4118 12.0844 25.4366C12.0844 25.4565 12.0647 25.4614 12.0353 25.4465C12.0108 25.4316 11.9863 25.4416 11.9863 25.4714C11.9863 25.5012 11.9667 25.5111 11.9372 25.4962C11.9127 25.4813 11.8882 25.4912 11.8882 25.521C11.8882 25.5508 11.8686 25.5607 11.8392 25.5458C11.8146 25.5309 11.7901 25.5359 11.7901 25.5558C11.7901 25.5806 11.7018 25.6402 11.5891 25.6898C11.4812 25.7395 11.3782 25.809 11.3635 25.8487C11.339 25.9132 11.7068 26.6332 11.795 26.6878C11.8195 26.7076 11.8293 26.7374 11.8146 26.7622C11.7999 26.7871 11.8343 26.8317 11.8882 26.8615C11.9421 26.8913 11.9765 26.936 11.9667 26.9559C11.9519 26.9757 11.9961 27.0254 12.0598 27.0601C12.1579 27.1147 12.1922 27.1147 12.2658 27.0552C12.3345 26.9956 12.3443 26.9956 12.305 27.0552C12.2854 27.0949 12.359 27.0303 12.4767 26.9162C12.5895 26.8069 12.7022 26.7225 12.7219 26.7374C12.7415 26.7523 12.7758 26.7275 12.7905 26.6828C12.8101 26.6381 12.8347 26.6133 12.8494 26.6282C12.8641 26.6381 12.9229 26.6034 12.9818 26.5438C13.0406 26.4892 13.1436 26.4048 13.2074 26.3601L13.325 26.2856L13.1387 26.0324C13.0357 25.8934 12.9523 25.7593 12.9523 25.7395C12.9523 25.7146 12.918 25.67 12.8739 25.6352C12.8297 25.6005 12.8199 25.5707 12.8445 25.5707C12.8739 25.5707 12.869 25.5558 12.8396 25.5309C12.8101 25.5111 12.7415 25.4217 12.6875 25.3373C12.614 25.2132 12.5796 25.1884 12.5355 25.233Z" fill="white"/>
<path fill-rule="evenodd" clip-rule="evenodd" d="M16.3797 25.6249C16.4043 25.6646 16.3601 25.6746 16.2326 25.6597C16.1346 25.6498 16.0561 25.6597 16.0561 25.6795C16.0561 25.6994 16.012 25.7193 15.9629 25.7193C15.909 25.7193 15.8501 25.7441 15.8354 25.7689C15.8158 25.7987 15.7815 25.8086 15.7569 25.7937C15.7324 25.7739 15.7128 25.7838 15.7128 25.8037C15.7128 25.8285 15.6245 25.9129 15.5216 25.9973C15.4137 26.0767 15.3401 26.1562 15.3548 26.181C15.3646 26.2009 15.3401 26.2306 15.3009 26.2455C15.2567 26.2604 15.2371 26.2952 15.2518 26.32C15.2666 26.3448 15.2518 26.3647 15.2175 26.3647C15.1832 26.3647 15.1734 26.3796 15.1881 26.3945C15.2028 26.4143 15.193 26.4739 15.1685 26.5285C15.0949 26.6626 15.1096 27.2584 15.1832 27.2584C15.2028 27.2584 15.2175 27.2733 15.2126 27.2931C15.2077 27.318 15.2273 27.3825 15.2617 27.4421C15.296 27.5066 15.3058 27.5563 15.2862 27.5563C15.2666 27.5563 15.3009 27.591 15.3597 27.6357C15.4186 27.6754 15.4578 27.73 15.4431 27.7549C15.4284 27.7747 15.4578 27.8244 15.5019 27.8591C15.5706 27.9187 15.5804 27.9187 15.5461 27.8542C15.5265 27.8145 15.5657 27.8393 15.6294 27.9137C15.6981 27.9882 15.7668 28.0329 15.7815 28.018C15.7962 27.9982 15.8109 28.013 15.8109 28.0478C15.8109 28.0826 15.8305 28.0975 15.855 28.0776C15.8795 28.0627 15.9139 28.0726 15.9335 28.1024C15.9531 28.1322 15.9874 28.1421 16.012 28.1272C16.0365 28.1074 16.0561 28.1123 16.0561 28.1372C16.0561 28.157 16.1885 28.1769 16.3503 28.1769C16.5122 28.1769 16.6446 28.157 16.6446 28.1322C16.6446 28.1123 16.6887 28.1024 16.7426 28.1173C16.7966 28.1322 16.8407 28.1173 16.8407 28.0875C16.8407 28.0577 16.8554 28.0478 16.8701 28.0677C16.8849 28.0826 16.9388 28.0577 16.9927 28.013C17.0467 27.9684 17.1055 27.9286 17.1251 27.9286C17.1889 27.9286 17.5175 27.5612 17.5518 27.457C17.5714 27.4024 17.6008 27.3577 17.6253 27.3577C17.6499 27.3577 17.6597 27.3229 17.645 27.2832C17.6253 27.2435 17.6352 27.1789 17.6597 27.1442C17.694 27.0945 17.7087 26.6179 17.6744 26.5732C17.6646 26.5683 17.6597 26.5484 17.6548 26.5236C17.6548 26.5037 17.6008 26.4143 17.5371 26.325C17.4733 26.2406 17.4341 26.1661 17.4488 26.1661C17.4635 26.1661 17.4145 26.1065 17.3409 26.032C17.2674 25.9576 17.1889 25.898 17.1693 25.9079C17.1497 25.9129 17.1202 25.8831 17.1055 25.8434C17.0908 25.8037 17.0565 25.7838 17.032 25.7987C17.0075 25.8136 16.9878 25.7987 16.9878 25.7689C16.9878 25.7391 16.9682 25.7292 16.9388 25.7441C16.9143 25.759 16.8898 25.754 16.8898 25.7292C16.8898 25.6994 16.8603 25.6795 16.8309 25.6845C16.6053 25.6895 16.4484 25.6646 16.4729 25.62C16.4876 25.5902 16.468 25.5703 16.4239 25.5703C16.3797 25.5703 16.3601 25.5951 16.3797 25.6249Z" fill="white"/>
<path fill-rule="evenodd" clip-rule="evenodd" d="M27.6935 27.7799C27.1443 28.3211 26.6392 28.7183 26.0458 29.0708C25.6437 29.3191 24.6678 29.7808 24.5059 29.8056C24.4569 29.8106 24.3883 29.8354 24.3588 29.8553C24.3245 29.8801 24.2755 29.8851 24.2509 29.8702C24.2264 29.8503 24.197 29.8602 24.1872 29.89C24.1725 29.9397 23.0985 30.2326 22.7994 30.2674C22.6915 30.2773 22.5051 30.3071 22.3825 30.3319C21.9363 30.4262 20.2739 30.4113 19.5677 30.312C19.0626 30.2376 18.0622 30.0042 18.0181 29.9446C18.0033 29.9297 17.9494 29.9049 17.8955 29.9C17.7581 29.8751 17.1942 29.6219 17.0912 29.5375C16.9735 29.4382 16.9049 29.4233 16.5714 29.4134C16.4096 29.4084 16.2575 29.4035 16.2281 29.3935C16.2036 29.3886 16.1006 29.3737 16.0074 29.3687C15.9143 29.3588 15.7917 29.3439 15.7377 29.3389C15.571 29.324 15.0463 29.0658 14.9237 28.9417C14.8599 28.8772 14.7864 28.8226 14.7569 28.8226C14.7324 28.8226 14.6834 28.768 14.6491 28.6984C14.6147 28.6289 14.5853 28.5942 14.5853 28.624C14.5853 28.6488 14.5461 28.614 14.5019 28.5495C14.4529 28.48 14.4284 28.4254 14.4382 28.4204C14.4529 28.4204 14.4235 28.3807 14.3744 28.331C14.3303 28.2814 14.3009 28.2218 14.3156 28.197C14.3352 28.1722 14.3254 28.1523 14.3009 28.1523C14.2616 28.1523 14.2077 28.0083 14.1194 27.6707C14.0851 27.5367 14.0066 27.5416 13.8889 27.6806C13.8448 27.7353 13.8056 27.765 13.8007 27.7501C13.8007 27.7353 13.7075 27.8048 13.5996 27.909C13.4868 28.0133 13.374 28.0878 13.3544 28.0729C13.3299 28.058 13.3103 28.0679 13.3103 28.0878C13.3103 28.1126 13.222 28.197 13.1141 28.2814C13.0062 28.3608 12.918 28.4502 12.918 28.48C12.918 28.5495 13.7173 29.334 14.1979 29.7262C14.4039 29.895 14.7864 30.173 15.0561 30.3418C15.3209 30.5106 15.5563 30.6745 15.5759 30.7043C15.5955 30.7341 15.6151 30.744 15.6151 30.7241C15.6151 30.7043 15.8358 30.7986 16.1055 30.9376C16.5616 31.166 17.817 31.6277 17.9935 31.6277C18.0328 31.6277 18.0671 31.6426 18.0671 31.6625C18.0671 31.6873 18.1603 31.7072 18.2731 31.7121C18.3858 31.7221 18.4888 31.7419 18.5035 31.7618C18.5183 31.7866 18.5869 31.8015 18.6556 31.8065C18.8664 31.8114 19.705 31.9356 19.7835 31.9703C19.9257 32.0349 22.26 31.9852 22.6277 31.9107C22.6964 31.8958 22.9808 31.8462 23.2653 31.7965C23.5497 31.7519 23.9224 31.6724 24.094 31.6228C24.2657 31.5731 24.4226 31.5433 24.4471 31.5533C24.4667 31.5682 24.4912 31.5632 24.501 31.5433C24.5158 31.5036 25.5456 31.1263 25.6584 31.1164C25.6878 31.1164 25.7172 31.0965 25.7172 31.0717C25.7172 31.0468 25.7368 31.0369 25.7614 31.0518C25.7859 31.0717 25.8153 31.0617 25.8251 31.0369C25.8398 30.9972 26.7127 30.5355 26.7716 30.5355C26.7863 30.5355 26.8353 30.5007 26.8844 30.456C26.9285 30.4163 27.1541 30.2525 27.3846 30.1035C27.8749 29.7808 28.13 29.5723 28.7478 29.0063C29.3854 28.4204 29.3756 28.4452 28.9881 28.0729C28.8116 27.9041 28.6792 27.7501 28.689 27.7353C28.6988 27.7204 28.6939 27.7154 28.6743 27.7303C28.6547 27.7452 28.537 27.6558 28.4095 27.5267L28.179 27.2983L27.6935 27.7799Z" fill="white"/>
</g>
<defs>
<clipPath id="clip0_1234_1878">
<rect width="22" height="22" fill="white" transform="translate(10 10)"/>
</clipPath>
</defs>
</svg>
