<svg width="43" height="42" viewBox="0 0 43 42" fill="none" xmlns="http://www.w3.org/2000/svg">
<circle cx="21.5" cy="21" r="21" fill="black"/>
<g clip-path="url(#clip0_1159_3716)">
<path fill-rule="evenodd" clip-rule="evenodd" d="M20.0083 6.01415C19.0654 6.10894 17.6209 6.43391 16.6312 6.7792C16.3504 6.87398 16.2969 6.9146 16.3972 6.94169C16.4774 6.96877 16.4507 6.97554 16.337 6.962C16.0896 6.92815 15.9625 6.97554 15.9625 7.0974C15.9625 7.15157 15.9291 7.19219 15.889 7.19219C15.8555 7.19219 15.8421 7.15834 15.8622 7.12449C15.8823 7.08386 15.8689 7.05678 15.8355 7.05678C15.7151 7.05678 15.7485 7.23281 15.889 7.35468C15.9625 7.42238 16.0829 7.60518 16.1631 7.75413C16.5176 8.46501 16.6847 8.70874 16.7115 8.57334C16.7338 8.49209 16.7627 8.49209 16.7984 8.57334C16.8318 8.65458 16.8185 8.71551 16.7583 8.7629C16.6045 8.87123 16.999 8.78322 17.8349 8.51917C19.0453 8.13326 20.0016 7.99786 21.4126 7.99109C22.3488 7.99109 22.8236 8.02494 23.5525 8.1468C24.0674 8.22805 24.5689 8.30252 24.6692 8.30252C24.7628 8.30929 24.8297 8.3296 24.8163 8.34991C24.7762 8.41762 25.3045 8.55302 25.4316 8.49886C25.5118 8.47178 25.5319 8.47855 25.4984 8.53271C25.4516 8.61396 25.5653 8.64781 25.8127 8.6275C25.8796 8.62073 25.913 8.64781 25.893 8.68166C25.8729 8.72228 25.8796 8.74936 25.9197 8.74936C25.9532 8.74936 26.0401 8.76967 26.107 8.78999C26.2073 8.82384 26.2073 8.81707 26.127 8.75613C26.0067 8.66812 26.107 8.66812 26.2942 8.74936C26.3878 8.78999 26.3945 8.8103 26.3276 8.81707C26.2474 8.81707 26.2541 8.83738 26.3477 8.89154C26.4079 8.92539 26.4948 8.93893 26.5283 8.91862C26.5684 8.89831 26.5951 8.91185 26.5951 8.95247C26.5951 8.99987 26.6352 9.02018 26.6887 8.99987C26.7356 8.97955 26.8225 9.02018 26.8827 9.09465C27.0097 9.23683 27.1635 9.27068 27.0967 9.13527C27.0699 9.09465 27.11 9.12173 27.1769 9.19621C27.3107 9.35869 27.645 9.55503 27.5715 9.43317C27.538 9.38577 27.5648 9.37223 27.6249 9.39932C27.6851 9.41963 27.7186 9.46702 27.6985 9.4941C27.6784 9.52118 27.7119 9.56857 27.7721 9.58888C27.8389 9.61597 27.859 9.60243 27.8322 9.54149C27.8055 9.50087 27.8256 9.50764 27.8791 9.56857C27.9259 9.62951 28.0061 9.66336 28.0529 9.64305C28.0997 9.62951 28.1265 9.65659 28.1198 9.71075C28.1064 9.75814 28.1399 9.79199 28.1867 9.78522C28.2268 9.77168 28.2669 9.79199 28.2669 9.83262C28.2669 9.86647 28.3338 9.9274 28.4073 9.97479C28.521 10.0357 28.5411 10.029 28.501 9.95448C28.4742 9.90709 28.521 9.94094 28.6013 10.0357C28.6815 10.1305 28.7283 10.1576 28.7016 10.1034C28.6748 10.0493 28.715 10.0763 28.7885 10.1644C28.8621 10.2591 28.9758 10.3404 29.0426 10.3472C29.1095 10.3607 29.2499 10.469 29.3569 10.5909C29.4639 10.7128 29.5241 10.7669 29.4974 10.7128C29.4706 10.6586 29.591 10.7737 29.7648 10.97C29.9387 11.1596 30.1059 11.3085 30.1393 11.2882C30.2129 11.2408 30.4135 11.4913 30.36 11.5591C30.3266 11.5861 30.3466 11.5929 30.3934 11.5658C30.4402 11.5387 30.4737 11.5523 30.4737 11.5997C30.4737 11.6471 30.4937 11.6674 30.5138 11.6403C30.5339 11.62 30.6342 11.6945 30.7278 11.8028C30.8348 11.9382 30.9351 11.9991 31.022 11.9788C31.0956 11.9585 31.129 11.972 31.1023 12.0194C31.0822 12.0668 31.1424 12.0059 31.236 11.8976C31.3296 11.7825 31.4099 11.7215 31.4099 11.7622C31.4099 11.796 31.4433 11.7757 31.4834 11.708C31.5169 11.6471 31.5904 11.5929 31.6372 11.5929C31.6907 11.5929 31.7777 11.5252 31.8379 11.4372C31.8981 11.3559 31.9315 11.3356 31.9114 11.3898C31.8847 11.444 31.9181 11.4304 31.9783 11.3559C32.0385 11.2815 32.1054 11.2205 32.1388 11.2205C32.1655 11.2205 32.2725 11.1257 32.3795 11.0174C32.4798 10.9023 32.52 10.8752 32.4731 10.9497C32.3862 11.0716 32.3862 11.0784 32.4999 10.9903C32.6069 10.9023 32.6069 10.8888 32.5066 10.7195C32.4397 10.6247 32.3327 10.5029 32.2658 10.4555C32.199 10.4081 32.1588 10.3336 32.1856 10.2998C32.2057 10.2659 32.1856 10.2456 32.1321 10.2524C32.0853 10.2659 32.0519 10.2321 32.0652 10.1847C32.0719 10.1441 32.0385 10.1102 31.9984 10.117C31.9515 10.1305 31.9181 10.0967 31.9315 10.0493C31.9382 9.9951 31.9181 9.97479 31.8914 9.9951C31.8579 10.0154 31.7309 9.91386 31.6038 9.76491C31.4834 9.62274 31.3631 9.51441 31.3363 9.53472C31.3096 9.54826 31.2427 9.48056 31.1825 9.39254C31.1223 9.29776 31.0421 9.23683 31.0153 9.25714C30.9819 9.27068 30.9083 9.20975 30.8415 9.11496C30.7813 9.02018 30.7144 8.95924 30.6944 8.97955C30.6743 8.99987 30.6007 8.9457 30.5272 8.86446C30.4536 8.78322 30.4135 8.7629 30.4402 8.81707C30.467 8.87123 30.4001 8.82384 30.3065 8.71551C30.2062 8.60042 30.146 8.55979 30.1728 8.61396C30.1995 8.66812 30.1527 8.64104 30.0725 8.54625C29.9922 8.45147 29.9454 8.42439 29.9721 8.47855C29.9989 8.53271 29.9588 8.50563 29.8852 8.41762C29.8183 8.3296 29.7247 8.27544 29.6846 8.30252C29.6445 8.32283 29.591 8.30929 29.5642 8.26867C29.5375 8.21451 29.5442 8.20774 29.591 8.23482C29.6378 8.2619 29.6712 8.26867 29.6712 8.24836C29.6712 8.22805 29.5843 8.16712 29.4706 8.10618C29.3636 8.04525 29.27 8.02494 29.27 8.05202C29.27 8.0791 29.2232 8.03848 29.163 7.96401C29.1095 7.8963 29.0761 7.88276 29.1028 7.93692C29.1296 8.00463 29.1162 7.99786 29.0493 7.92338C28.9958 7.85568 28.9356 7.82183 28.9156 7.84891C28.8888 7.86922 28.8688 7.84891 28.8688 7.80152C28.8688 7.75413 28.8487 7.72704 28.8286 7.75413C28.8019 7.77444 28.7417 7.74736 28.6882 7.69319C28.6347 7.63903 28.5678 7.61195 28.5344 7.63226C28.4608 7.67965 28.1265 7.52393 28.1666 7.463C28.2134 7.38853 28.0061 7.31405 27.9192 7.37499C27.8791 7.3953 27.8657 7.38176 27.8857 7.34791C27.9125 7.30728 27.8857 7.25312 27.8256 7.23281C27.6718 7.17188 27.6517 7.17865 27.6985 7.27343C27.7253 7.32082 27.6985 7.30728 27.645 7.24635C27.538 7.11094 27.0231 6.87398 27.0967 6.98231C27.1167 7.0297 27.0967 7.03647 27.0365 7.01616C26.9763 6.99585 26.9429 6.94846 26.9629 6.92138C26.983 6.89429 26.9429 6.85367 26.876 6.83336C26.8158 6.81305 26.662 6.76566 26.5416 6.72504C26.4146 6.68441 26.341 6.68441 26.3611 6.72504C26.3878 6.75889 26.3744 6.78597 26.3343 6.78597C26.3009 6.78597 26.2407 6.74535 26.214 6.69118C26.1872 6.63702 26 6.54901 25.7993 6.48807C25.4115 6.37298 25.1975 6.35267 25.4249 6.44745C25.5319 6.49484 25.5185 6.50161 25.3446 6.49484C25.1239 6.4813 25.0504 6.4136 25.1975 6.36621C25.2443 6.35267 24.9166 6.26465 24.482 6.18341C23.7932 6.04123 23.4588 6.02092 21.981 6.00738C21.0448 5.99384 20.1554 6.00061 20.0083 6.01415ZM23.8868 6.17664C23.9069 6.21049 23.7865 6.22403 23.5725 6.19695C23.1044 6.14279 23.0777 6.10894 23.5056 6.10894C23.6929 6.10894 23.8601 6.13602 23.8868 6.17664ZM24.3081 6.29173C24.2412 6.30528 24.1342 6.30528 24.0741 6.29173C24.0072 6.27142 24.0607 6.25788 24.1877 6.25788C24.3148 6.25788 24.3683 6.27142 24.3081 6.29173ZM25.893 6.63702C25.8729 6.65733 25.8194 6.63702 25.7726 6.58963C25.7124 6.52193 25.7191 6.51516 25.8127 6.55578C25.8796 6.57609 25.913 6.61671 25.893 6.63702ZM17.32 6.69795C17.2732 6.71149 17.193 6.71149 17.1528 6.69795C17.106 6.67764 17.1395 6.6641 17.2331 6.6641C17.3267 6.6641 17.3601 6.67764 17.32 6.69795ZM22.8837 7.86922C22.9105 7.90984 22.8102 7.93692 22.6363 7.93015C22.3956 7.92338 22.3755 7.91661 22.5159 7.86922C22.7567 7.79475 22.8369 7.79475 22.8837 7.86922ZM23.3719 7.98432C23.305 7.99786 23.198 7.99786 23.1379 7.98432C23.071 7.96401 23.1245 7.95047 23.2515 7.95047C23.3786 7.95047 23.4321 7.96401 23.3719 7.98432ZM23.6996 8.04525C23.6795 8.06556 23.6193 8.07233 23.5725 8.05202C23.519 8.03171 23.5391 8.0114 23.6126 8.0114C23.6862 8.00463 23.7263 8.02494 23.6996 8.04525ZM24.0741 8.11972C24.0272 8.13326 23.947 8.13326 23.9069 8.11972C23.8601 8.09941 23.8935 8.08587 23.9871 8.08587C24.0807 8.08587 24.1142 8.09941 24.0741 8.11972ZM24.4084 8.18743C24.3616 8.20097 24.2814 8.20097 24.2412 8.18743C24.1944 8.16712 24.2279 8.15357 24.3215 8.15357C24.4151 8.15357 24.4485 8.16712 24.4084 8.18743ZM30.039 11.119C30.1059 11.1935 30.146 11.2544 30.1259 11.2544C30.1059 11.2544 30.039 11.1935 29.9721 11.119C29.9053 11.0445 29.8652 10.9836 29.8852 10.9836C29.9053 10.9836 29.9721 11.0445 30.039 11.119Z" fill="white"/>
<path fill-rule="evenodd" clip-rule="evenodd" d="M13.7556 7.99791C13.7556 8.08592 13.2474 8.3432 13.1805 8.28903C13.1537 8.26195 13.1537 8.28226 13.1805 8.32288C13.2206 8.39736 13.1872 8.42444 13.0467 8.40413C13.0267 8.40413 12.9665 8.45829 12.913 8.52599C12.8662 8.5937 12.8194 8.62078 12.8194 8.58693C12.8194 8.5463 12.7726 8.58016 12.7191 8.65463C12.6656 8.72233 12.6188 8.75618 12.6188 8.72233C12.6188 8.69525 12.5586 8.73587 12.4783 8.82389C12.4048 8.9119 12.3647 8.93898 12.3847 8.88482C12.4115 8.83066 12.358 8.87128 12.2577 8.98638C12.164 9.0947 12.0905 9.1624 12.0838 9.12855C12.0838 9.10147 12.0236 9.14209 11.9434 9.23011C11.8698 9.31812 11.8297 9.3452 11.8564 9.29104C11.8832 9.23688 11.7896 9.31135 11.6558 9.4603C11.5154 9.60925 11.4284 9.68372 11.4552 9.62956C11.4819 9.57539 11.2145 9.83267 10.86 10.205C10.5056 10.5706 10.2114 10.8956 10.2114 10.9159C10.2114 10.9362 10.0509 11.1258 9.85027 11.3357C9.65635 11.5523 9.50923 11.7351 9.51591 11.7487C9.52929 11.7622 9.44236 11.8773 9.32867 12.0059C9.20831 12.1346 9.108 12.2632 9.108 12.2903C9.108 12.3174 9.06119 12.3715 9.00769 12.4054C8.95419 12.4392 8.93413 12.4731 8.96757 12.4731C9.00769 12.4731 8.97425 12.5205 8.9007 12.5814C8.83382 12.6356 8.82045 12.6694 8.87395 12.6424C8.92744 12.6153 8.90738 12.6559 8.82714 12.7304C8.74689 12.8048 8.70008 12.8793 8.72014 12.9064C8.74689 12.9267 8.72683 12.947 8.68002 12.947C8.63321 12.947 8.61983 12.9809 8.6399 13.0147C8.65996 13.0553 8.63321 13.1027 8.57971 13.123C8.51953 13.1434 8.48609 13.184 8.50615 13.2178C8.51953 13.2449 8.4794 13.3262 8.40584 13.4006C8.33897 13.4819 8.29885 13.5631 8.31891 13.5834C8.34566 13.6037 8.3256 13.6241 8.28548 13.6241C8.23867 13.6241 8.21192 13.6444 8.2186 13.6714C8.23867 13.7459 7.79731 14.6667 7.72375 14.7141C7.68363 14.7344 7.66357 14.7682 7.67694 14.7818C7.71038 14.8359 7.52314 15.3166 7.46964 15.3166C7.4362 15.3166 7.42283 15.3573 7.44289 15.4114C7.46295 15.4588 7.4362 15.5468 7.38939 15.5942C7.34258 15.6484 7.30246 15.7161 7.29577 15.7567C7.28909 15.9598 7.18209 16.3322 7.12859 16.3322C7.09516 16.3322 7.08847 16.3796 7.10853 16.4337C7.13528 16.4879 7.12191 16.5353 7.09516 16.5353C7.06172 16.5353 7.02829 16.6504 7.0216 16.7858C7.01491 16.928 6.98148 17.0498 6.94135 17.0634C6.90792 17.0769 6.89454 17.1311 6.9146 17.1852C6.93467 17.2394 6.92798 17.3342 6.90123 17.3951C6.87448 17.4628 6.84105 17.5779 6.83436 17.6524C6.80761 17.9367 6.71399 18.4648 6.68724 18.519C6.64043 18.5935 6.60031 19.2637 6.60699 19.7647C6.60699 20.0017 6.58025 20.1913 6.5535 20.1913C6.52675 20.1913 6.5 20.4621 6.5 20.8006C6.5 21.1391 6.52006 21.4099 6.5535 21.4099C6.58025 21.4099 6.60699 21.6604 6.60699 21.9651C6.62037 22.9468 6.63374 23.1702 6.68724 23.1702C6.72068 23.1702 6.73405 23.2244 6.72736 23.2853C6.72068 23.353 6.72736 23.4546 6.74743 23.5087C6.83436 23.7525 6.94135 24.3956 6.90123 24.4566C6.88117 24.4904 6.88786 24.5243 6.9146 24.5243C6.98816 24.5243 7.22221 25.4518 7.16872 25.5398C7.14866 25.5737 7.15534 25.6075 7.18878 25.6075C7.22221 25.6075 7.26902 25.6685 7.28909 25.7429C7.32252 25.8783 7.32921 25.8783 7.65019 25.7159C7.82406 25.6278 8.26541 25.4112 8.61983 25.2419L9.27518 24.9237L9.24843 24.6732C9.23505 24.5378 9.19493 24.3415 9.15481 24.2399C9.11468 24.1451 9.08125 24.003 9.07456 23.9353C9.06787 23.6374 9.04113 23.5087 8.99432 23.5087C8.96757 23.5087 8.94082 23.4072 8.94082 23.2853C8.92744 22.8046 8.90738 22.6286 8.86726 22.6286C8.82714 22.6286 8.78701 21.7011 8.78701 20.936C8.78701 20.171 8.82714 19.4465 8.86057 19.4465C8.88732 19.4465 8.91407 19.3382 8.92076 19.2096C8.94082 18.6273 8.95419 18.4987 9.001 18.4987C9.02775 18.4987 9.04781 18.4445 9.0545 18.3768C9.06119 18.3159 9.06787 18.1602 9.08125 18.0383C9.08794 17.9232 9.11468 17.8217 9.13475 17.8217C9.16149 17.8217 9.18156 17.7675 9.18824 17.6998C9.23505 17.2733 9.35542 16.8061 9.42898 16.8061C9.4691 16.8061 9.47579 16.7858 9.45573 16.7587C9.42898 16.7384 9.44236 16.6775 9.48248 16.6233C9.5226 16.5759 9.53598 16.5353 9.51591 16.5353C9.48917 16.5353 9.50923 16.4676 9.55604 16.3796C9.60285 16.2983 9.63628 16.1968 9.64297 16.1629C9.64297 16.1223 9.70316 15.9734 9.76334 15.8244C9.83021 15.6755 9.91715 15.4723 9.96396 15.364C10.0041 15.2625 10.0643 15.1812 10.0843 15.1812C10.1111 15.1812 10.1512 15.1068 10.1713 15.012C10.198 14.9172 10.2448 14.8427 10.2849 14.8427C10.3251 14.8427 10.3318 14.8089 10.3117 14.775C10.2916 14.7344 10.305 14.7073 10.3451 14.7073C10.3852 14.7073 10.4053 14.6802 10.3786 14.6396C10.3585 14.6057 10.3986 14.5177 10.4789 14.4365C10.5524 14.362 10.5925 14.3011 10.5658 14.3011C10.5324 14.3011 10.5725 14.2537 10.6394 14.1995C10.7129 14.1454 10.7464 14.098 10.7129 14.098C10.6795 14.098 10.7129 14.0506 10.7865 13.9896C10.8533 13.9355 10.8667 13.9016 10.8132 13.9287C10.7597 13.9558 10.7865 13.9084 10.8801 13.8272C10.9737 13.7459 11.0005 13.6985 10.947 13.7256C10.8935 13.7527 10.9135 13.7053 11.0005 13.6308C11.0874 13.5563 11.1476 13.4751 11.1476 13.4548C11.1476 13.4345 11.2345 13.3058 11.3549 13.1637C11.4686 13.0283 11.5421 12.9538 11.5154 13.008C11.4753 13.0689 11.4886 13.0892 11.5421 13.0553C11.5823 13.0283 11.6023 12.9809 11.5823 12.9538C11.5689 12.9199 11.6291 12.8252 11.7294 12.7371C11.823 12.6491 11.8832 12.622 11.8564 12.6762C11.8297 12.7304 11.8631 12.7033 11.9434 12.6085C12.0169 12.5137 12.1172 12.4392 12.164 12.4392C12.2108 12.4325 12.2443 12.3986 12.2309 12.3512C12.2242 12.3038 12.2443 12.27 12.2777 12.27C12.3112 12.27 12.3245 12.2158 12.3045 12.1413C12.2844 12.0736 12.3045 11.9924 12.3446 11.9721C12.3847 11.945 12.3981 11.8502 12.378 11.7554C12.3513 11.6607 12.3647 11.593 12.4115 11.593C12.4516 11.593 12.465 11.5523 12.4449 11.4982C12.4248 11.4508 12.4516 11.3628 12.4984 11.3154C12.5452 11.2612 12.592 11.1732 12.6054 11.119C12.6188 11.0649 12.7057 10.943 12.806 10.855C12.9063 10.767 12.9397 10.7196 12.8863 10.7467C12.8328 10.7737 12.9197 10.6586 13.0869 10.4826C13.3878 10.1644 13.468 10.1035 13.3811 10.2524C13.3544 10.2998 13.4145 10.2524 13.5082 10.1509C13.6085 10.0425 13.7221 9.98161 13.769 10.0087C13.8091 10.0358 13.8225 10.029 13.8024 9.98838C13.7556 9.92068 14.0833 9.73111 14.1368 9.79204C14.1568 9.81236 14.217 9.7785 14.2705 9.72434C14.3307 9.67018 14.4176 9.63633 14.4644 9.65664C14.5179 9.67695 14.558 9.66341 14.558 9.62279C14.558 9.58216 14.6115 9.56185 14.6784 9.57539C14.7386 9.58894 14.8255 9.55508 14.8657 9.50092C14.9258 9.41968 14.9058 9.35874 14.752 9.20303C14.645 9.0947 14.5714 8.98638 14.5915 8.95252C14.6115 8.92544 14.5781 8.87805 14.5179 8.85774C14.4644 8.83743 14.431 8.79004 14.451 8.75618C14.4711 8.72233 14.4444 8.67494 14.3842 8.65463C14.3307 8.63432 14.2972 8.58693 14.3173 8.55308C14.3374 8.51922 14.3106 8.47183 14.2504 8.45152C14.1969 8.43121 14.1635 8.38382 14.1836 8.34997C14.2036 8.31611 14.1769 8.26872 14.1167 8.24841C14.0632 8.2281 14.0298 8.18748 14.0431 8.1604C14.0833 8.09946 13.9562 7.9776 13.8358 7.95052C13.789 7.94375 13.7556 7.96406 13.7556 7.99791Z" fill="white"/>
<path fill-rule="evenodd" clip-rule="evenodd" d="M20.6103 10.0155C20.5033 10.0291 20.3629 10.0629 20.3094 10.0832C20.2559 10.1035 20.1556 10.1171 20.0887 10.1103C20.0219 10.0968 19.6139 10.178 19.186 10.2796C18.5774 10.4285 18.4437 10.4759 18.5707 10.5165L18.7379 10.5639L18.5574 10.5707C18.4504 10.5775 18.3701 10.6113 18.3701 10.6519C18.3701 10.6858 18.3367 10.6993 18.2899 10.6722C18.2498 10.6452 18.2899 10.7264 18.3835 10.855C18.4704 10.9837 18.6176 11.2545 18.7045 11.4576C18.7847 11.6607 18.8984 11.8571 18.9452 11.8841C18.9987 11.9112 19.0388 12.0195 19.0322 12.1211L19.0255 12.3039L18.9653 12.1346L18.9118 11.9654L18.9252 12.1279C18.9452 12.3377 19.079 12.3581 19.741 12.2362C21.0183 12.006 21.6268 11.9789 22.5496 12.1008C23.0311 12.1685 23.5193 12.2227 23.6396 12.2227C23.7734 12.2227 23.8269 12.243 23.7734 12.2836C23.7065 12.3242 23.7132 12.3377 23.8001 12.3377C23.8603 12.3377 23.9673 12.3581 24.0342 12.3784C24.1345 12.4122 24.1345 12.4055 24.0542 12.3445C23.9807 12.2904 23.9807 12.27 24.0409 12.27C24.0877 12.27 24.1412 12.3174 24.1679 12.3784C24.188 12.4393 24.2548 12.4732 24.3284 12.4528C24.402 12.4325 24.4421 12.4461 24.4153 12.4799C24.3953 12.5138 24.422 12.5476 24.4688 12.5476C24.5156 12.5544 24.6026 12.5679 24.6561 12.5747C24.7096 12.5815 24.7965 12.595 24.8433 12.6018C24.8901 12.6018 24.9102 12.6424 24.8834 12.6898C24.85 12.7372 24.8701 12.7507 24.9436 12.7237C25.0038 12.7033 25.064 12.7237 25.0841 12.7846C25.1108 12.8523 25.171 12.8726 25.2579 12.8455C25.3449 12.8184 25.405 12.8388 25.4318 12.9065C25.4518 12.9674 25.4987 12.9945 25.5321 12.9742C25.5655 12.9538 25.5923 12.9742 25.5923 13.0148C25.5923 13.0554 25.6257 13.0689 25.6592 13.0486C25.6993 13.0283 25.726 13.0419 25.726 13.0825C25.726 13.1231 25.7528 13.1434 25.7862 13.1163C25.8263 13.096 25.8798 13.1366 25.92 13.1976C25.9601 13.2653 25.9935 13.2924 25.9935 13.2585C25.9935 13.2179 26.0403 13.2517 26.1005 13.3262C26.154 13.3939 26.1874 13.4075 26.1607 13.3533C26.1339 13.2991 26.1808 13.3262 26.261 13.421C26.3412 13.5158 26.3881 13.5429 26.3613 13.4887C26.3346 13.4345 26.3814 13.4616 26.4616 13.5564C26.5419 13.6512 26.5887 13.6783 26.5619 13.6241C26.5352 13.5699 26.6087 13.6309 26.7224 13.7595C26.8428 13.8882 26.9163 13.9491 26.8963 13.8949C26.8695 13.8272 26.8829 13.834 26.9498 13.9085C27.0033 13.9762 27.0701 14.0032 27.0969 13.9762C27.1303 13.9491 27.1303 13.9626 27.1103 14.0032C27.0835 14.0439 27.1303 14.1387 27.2173 14.2064C27.3109 14.2921 27.3265 14.2899 27.2641 14.1996C27.2106 14.1251 27.2641 14.1522 27.3844 14.2605C27.4981 14.3688 27.5784 14.4907 27.5516 14.5246C27.5316 14.5652 27.5449 14.572 27.5784 14.5516C27.6185 14.5246 27.6987 14.5652 27.7656 14.6397C27.8325 14.7141 27.8592 14.7751 27.8258 14.7751C27.7924 14.7818 27.9462 14.9511 28.1668 15.1542C28.3875 15.3641 28.5213 15.513 28.4678 15.4859C28.4143 15.4656 28.4343 15.4995 28.5213 15.5604C28.6015 15.6214 28.6684 15.7094 28.6684 15.7568C28.6684 15.7974 28.7286 15.8922 28.8021 15.9599C28.8757 16.0276 28.9359 16.1156 28.9359 16.163C28.9359 16.2104 28.9961 16.2984 29.0696 16.3661C29.1432 16.4338 29.1833 16.515 29.1632 16.5421C29.1432 16.576 29.1565 16.6031 29.1967 16.6031C29.2635 16.6031 29.3772 16.8603 29.3505 16.9551C29.3438 16.989 29.3705 17.0093 29.4107 17.0093C29.4441 17.0093 29.4642 17.0364 29.4441 17.0702C29.4173 17.1041 29.4374 17.1447 29.4708 17.1582C29.511 17.1718 29.5511 17.2259 29.5578 17.2801C29.5711 17.3342 29.5979 17.4223 29.6246 17.4629C29.6581 17.5103 29.6581 17.578 29.638 17.6186C29.618 17.6525 29.6313 17.6863 29.6715 17.6863C29.7116 17.6863 29.725 17.7134 29.7049 17.754C29.6848 17.7879 29.6982 17.8217 29.7383 17.8217C29.7851 17.8217 29.8052 17.8691 29.7785 17.9233C29.7584 17.9774 29.7718 18.0248 29.8119 18.0248C29.852 18.0248 29.8654 18.0519 29.8453 18.0858C29.8186 18.1196 29.8319 18.1602 29.8721 18.1738C29.9055 18.1805 29.9456 18.2821 29.9657 18.3972C29.9791 18.5055 30.0125 18.6545 30.0393 18.7154C30.066 18.7763 30.066 18.8576 30.0459 18.8982C30.0192 18.932 30.0393 18.9862 30.0794 19.0065C30.1128 19.0336 30.1329 19.0945 30.1128 19.1487C30.0927 19.1961 30.1128 19.257 30.1462 19.2841C30.1864 19.3044 30.2064 19.4127 30.1797 19.5143C30.1596 19.6158 30.1663 19.7242 30.1931 19.7513C30.2599 19.8122 30.28 20.1101 30.2867 20.9158C30.2934 21.7891 30.2733 22.0802 30.2064 22.1209C30.173 22.1412 30.1663 22.263 30.1864 22.3917C30.2131 22.5542 30.1997 22.6286 30.1462 22.6286C30.0927 22.6286 30.0794 22.6828 30.1061 22.7573C30.1262 22.8318 30.1128 22.9062 30.0794 22.9265C30.0393 22.9536 30.0259 23.0146 30.0459 23.0687C30.066 23.1229 30.0593 23.2041 30.0326 23.2515C29.9991 23.2989 29.9657 23.414 29.9523 23.5088C29.9389 23.5968 29.9055 23.7119 29.8654 23.7525C29.8319 23.7931 29.8253 23.8473 29.852 23.8676C29.8721 23.8947 29.8587 23.915 29.8186 23.915C29.7785 23.915 29.7584 23.9556 29.7785 24.0098C29.7985 24.064 29.7785 24.1249 29.745 24.152C29.7049 24.1723 29.6848 24.2264 29.7049 24.2603C29.7316 24.2941 29.7183 24.3212 29.6848 24.3212C29.6514 24.3212 29.6246 24.3618 29.618 24.4025C29.6046 24.565 29.5645 24.6936 29.5043 24.7951C29.4708 24.8493 29.4374 24.9441 29.424 24.9983C29.4173 25.0524 29.3772 25.1066 29.3371 25.1201C29.3037 25.1337 29.2836 25.1743 29.3103 25.2081C29.3304 25.242 29.3103 25.2691 29.2702 25.2691C29.2301 25.2691 29.2167 25.2962 29.2368 25.3368C29.2569 25.3706 29.2435 25.4045 29.2034 25.4045C29.1632 25.4045 29.1432 25.4316 29.1632 25.4586C29.1833 25.4925 29.1365 25.5805 29.0696 25.6618C28.9961 25.743 28.9359 25.8378 28.9359 25.8784C28.9359 25.9123 28.9091 25.9461 28.869 25.9461C28.8356 25.9461 28.8021 25.9935 28.8021 26.0477C28.8021 26.1018 28.7754 26.1492 28.7353 26.1492C28.7018 26.1492 28.6684 26.1966 28.6684 26.2508C28.6684 26.3117 28.6216 26.3726 28.5681 26.3929C28.5146 26.42 28.4811 26.4606 28.5012 26.4877C28.5213 26.5148 28.4544 26.5893 28.3675 26.6502C28.2738 26.7112 28.2137 26.7924 28.2337 26.8262C28.2538 26.8601 28.2003 26.9346 28.12 26.9955C28.0331 27.0497 27.9662 27.1377 27.9662 27.1851C27.9595 27.2257 27.9261 27.2595 27.8793 27.246C27.8325 27.2392 27.8057 27.2663 27.8124 27.3069C27.8258 27.3476 27.7723 27.4153 27.6987 27.4559C27.6252 27.5033 27.4513 27.659 27.3042 27.8079C27.1638 27.9569 27.0166 28.072 26.9899 28.0652C26.9565 28.0517 26.903 28.1058 26.8628 28.1803C26.8227 28.2548 26.7492 28.3157 26.7024 28.3157C26.6489 28.3157 26.5887 28.3631 26.5686 28.424C26.5485 28.4782 26.5017 28.5121 26.4683 28.4917C26.4349 28.4714 26.3881 28.4985 26.368 28.5595C26.3412 28.6204 26.3078 28.6542 26.2877 28.6339C26.2677 28.6136 26.1941 28.6542 26.1206 28.7287C26.047 28.8032 25.9601 28.8438 25.9266 28.8235C25.8865 28.7964 25.8598 28.8167 25.8598 28.8573C25.8598 28.898 25.833 28.9115 25.7929 28.8912C25.7595 28.8709 25.726 28.8844 25.726 28.925C25.726 28.9657 25.6993 28.9792 25.6592 28.9589C25.6257 28.9386 25.5923 28.9521 25.5923 28.9928C25.5923 29.0334 25.5655 29.0469 25.5254 29.0266C25.492 29.0063 25.4585 29.0198 25.4585 29.0537C25.4585 29.1282 25.0306 29.3313 24.8433 29.3516C24.7764 29.3584 24.7229 29.3922 24.7229 29.4261C24.7229 29.4599 24.7029 29.4667 24.6761 29.4464C24.6561 29.4193 24.5959 29.4328 24.5491 29.4667C24.4621 29.5411 24.2348 29.6089 24.0409 29.6224C23.974 29.6292 23.9205 29.6562 23.9205 29.6901C23.9205 29.7172 23.8871 29.7239 23.8536 29.7036C23.8135 29.6766 23.7399 29.6969 23.6864 29.7375C23.6329 29.7849 23.5393 29.8052 23.4858 29.7781C23.4323 29.7578 23.3855 29.7713 23.3855 29.8052C23.3855 29.8661 23.2317 29.8797 22.5697 29.8864C22.3891 29.8932 22.2487 29.9203 22.2487 29.9474C22.2487 29.9812 21.9344 30.0015 21.5465 30.0015C21.1587 30.0015 20.8578 29.9744 20.8778 29.9406C20.8979 29.9067 20.7708 29.8864 20.597 29.8864C20.169 29.8932 19.7744 29.8526 19.7744 29.812C19.7744 29.7781 19.6273 29.751 19.293 29.7375C19.2261 29.7307 19.1726 29.6969 19.1726 29.663C19.1726 29.6224 19.1458 29.6156 19.1057 29.6359C19.0723 29.6562 18.9319 29.6495 18.8048 29.6089C18.6644 29.575 18.5841 29.5682 18.6042 29.6089C18.6309 29.6427 18.6109 29.6698 18.5707 29.6698C18.5239 29.6698 18.5106 29.7239 18.5373 29.812C18.5707 29.9067 18.5641 29.9406 18.5106 29.9135C18.4638 29.8797 18.4504 29.9067 18.4771 29.9677C18.4972 30.0286 18.4838 30.076 18.437 30.076C18.3969 30.076 18.3835 30.1031 18.4036 30.1437C18.4236 30.1776 18.4103 30.2114 18.3701 30.2114C18.3233 30.2114 18.3033 30.2588 18.3233 30.313C18.3501 30.3671 18.3367 30.4281 18.2966 30.4484C18.2631 30.4755 18.2498 30.5228 18.2698 30.5567C18.2966 30.5905 18.2765 30.6176 18.2364 30.6176C18.1963 30.6176 18.1762 30.6447 18.203 30.6786C18.223 30.7124 18.2096 30.7598 18.1695 30.7869C18.1294 30.814 18.116 30.8546 18.1361 30.8884C18.1561 30.9223 18.116 31.0103 18.0358 31.0916C17.8753 31.254 17.8686 31.2947 18.0023 31.2947C18.0558 31.2947 18.1026 31.3217 18.1026 31.3624C18.1026 31.3962 18.1428 31.4098 18.1963 31.3895C18.2498 31.3691 18.3099 31.3827 18.33 31.4233C18.3568 31.4639 18.4169 31.4775 18.4704 31.4504C18.5239 31.4301 18.5707 31.4436 18.5707 31.4775C18.5707 31.5316 18.6777 31.5587 18.992 31.5722C19.0522 31.5722 19.1057 31.5993 19.1057 31.6332C19.1057 31.667 19.1525 31.6806 19.206 31.6603C19.2595 31.6332 19.3598 31.6399 19.42 31.667C19.4869 31.7009 19.5939 31.7144 19.6608 31.7077C19.7209 31.7009 19.7744 31.7212 19.7744 31.755C19.7744 31.7889 19.8614 31.8024 19.9684 31.7821C20.0754 31.7686 20.1824 31.7889 20.2024 31.8295C20.2292 31.8701 20.3629 31.8837 20.5435 31.8566C20.7106 31.8363 20.8444 31.8431 20.8444 31.8769C20.8444 31.9108 21.1921 31.9378 21.6134 31.9378C22.0347 31.9378 22.3824 31.9175 22.3824 31.8837C22.3824 31.8566 22.5563 31.8363 22.7703 31.8363C23.4056 31.8295 23.5193 31.8228 23.5193 31.7483C23.5193 31.7144 23.5928 31.7077 23.6797 31.728C23.7734 31.7483 23.867 31.7347 23.8937 31.6941C23.9138 31.6535 23.994 31.6332 24.0609 31.6535C24.1345 31.6738 24.188 31.6603 24.188 31.6196C24.188 31.579 24.2482 31.5655 24.3217 31.5858C24.3953 31.6061 24.4555 31.5926 24.4555 31.5519C24.4555 31.5113 24.5156 31.4978 24.5892 31.5181C24.6628 31.5384 24.7229 31.5249 24.7229 31.4842C24.7229 31.4436 24.7698 31.4301 24.8233 31.4504C24.8768 31.4775 24.9369 31.4639 24.9637 31.4233C24.9837 31.3827 25.0439 31.3691 25.0907 31.3895C25.1442 31.4098 25.191 31.3962 25.2044 31.3624C25.2178 31.3285 25.298 31.2879 25.3917 31.2811C25.4853 31.2676 25.5789 31.2337 25.599 31.2066C25.619 31.1728 25.6792 31.1457 25.7327 31.1389C25.7862 31.1254 25.8665 31.0983 25.9133 31.0712C25.9534 31.0374 25.9935 31.0374 25.9935 31.0577C25.9935 31.0848 26.0403 31.0509 26.1005 30.9968C26.154 30.9358 26.2342 30.902 26.2677 30.9223C26.3011 30.9494 26.3279 30.9291 26.3279 30.8884C26.3279 30.8478 26.3613 30.8343 26.3947 30.8546C26.4349 30.8749 26.4616 30.8614 26.4616 30.8207C26.4616 30.7801 26.495 30.7666 26.5285 30.7869C26.5686 30.8072 26.5954 30.7937 26.5954 30.753C26.5954 30.7124 26.6288 30.6989 26.6622 30.7192C26.7024 30.7395 26.7291 30.726 26.7291 30.6853C26.7291 30.6447 26.7625 30.6312 26.796 30.6515C26.8361 30.6718 26.8628 30.6583 26.8628 30.6176C26.8628 30.577 26.8963 30.5635 26.9297 30.5838C26.9698 30.6041 26.9966 30.5905 26.9966 30.5499C26.9966 30.5093 27.03 30.4958 27.0635 30.5161C27.1036 30.5364 27.1303 30.5228 27.1303 30.489C27.1303 30.4484 27.1571 30.4145 27.1972 30.4145C27.2306 30.4145 27.3176 30.3671 27.3778 30.313C27.4446 30.2588 27.5249 30.2046 27.565 30.1911C27.5984 30.1843 27.6987 30.1099 27.7924 30.0218C27.8793 29.9406 27.9796 29.8729 28.0197 29.8729C28.0532 29.8729 28.1401 29.7984 28.2137 29.7036C28.2805 29.6156 28.3675 29.5411 28.3942 29.5547C28.421 29.5615 28.5279 29.4667 28.6283 29.3448C28.7286 29.2297 28.8356 29.1417 28.8623 29.1552C28.9225 29.1959 29.6046 28.4985 29.6046 28.397C29.6046 28.3563 29.7049 28.2412 29.8253 28.1465C29.9389 28.0449 29.9924 27.984 29.9389 28.0111C29.8854 28.0314 29.9456 27.9569 30.0727 27.835C30.1997 27.7199 30.2599 27.6455 30.2064 27.6658C30.1529 27.6929 30.1864 27.6387 30.2867 27.5507C30.387 27.4559 30.4472 27.3611 30.4271 27.3408C30.407 27.3205 30.4405 27.2866 30.5007 27.2596C30.5609 27.2392 30.5876 27.1918 30.5675 27.158C30.5475 27.1241 30.5809 27.0768 30.6344 27.0564C30.6946 27.0361 30.7213 26.9887 30.7013 26.9549C30.6812 26.921 30.7147 26.8736 30.7682 26.8533C30.8283 26.833 30.8551 26.7856 30.835 26.7518C30.815 26.7179 30.835 26.6908 30.8751 26.6908C30.9153 26.6908 30.9353 26.6638 30.9086 26.6231C30.8885 26.5893 30.922 26.5013 30.9888 26.4336C31.0557 26.3659 31.1159 26.2643 31.1293 26.2101C31.1426 26.156 31.1828 26.1018 31.2162 26.0951C31.2496 26.0815 31.263 26.0477 31.2429 26.0138C31.2229 25.98 31.2563 25.9055 31.3165 25.8513C31.37 25.7904 31.3967 25.743 31.37 25.743C31.3499 25.743 31.3633 25.7024 31.4034 25.655C31.4436 25.6008 31.4569 25.5399 31.4302 25.5196C31.4101 25.4925 31.4168 25.4722 31.4502 25.4722C31.4837 25.4722 31.5171 25.4045 31.5238 25.3232C31.5305 25.2488 31.5639 25.1607 31.5907 25.1404C31.6174 25.1201 31.6575 25.0389 31.6642 24.9644C31.6776 24.8899 31.7177 24.8222 31.7445 24.8087C31.7779 24.7951 31.7913 24.7478 31.7712 24.6936C31.7512 24.6462 31.7712 24.5853 31.8047 24.5582C31.8448 24.5379 31.8648 24.4837 31.8448 24.4499C31.818 24.416 31.8314 24.3889 31.8715 24.3889C31.9117 24.3889 31.925 24.3483 31.905 24.2941C31.8849 24.24 31.8983 24.179 31.9384 24.1587C31.9785 24.1317 31.9919 24.0707 31.9652 24.0166C31.9451 23.9624 31.9585 23.915 31.9919 23.915C32.0454 23.915 32.0788 23.7728 32.0788 23.4546C32.0788 23.3666 32.1056 23.3124 32.139 23.3328C32.1925 23.3666 32.2059 23.2109 32.2059 22.676C32.2059 22.5339 32.2326 22.4323 32.2594 22.4458C32.2861 22.4662 32.3263 22.2901 32.3396 22.0599C32.4065 21.173 32.3597 19.3112 32.2728 19.3112C32.246 19.3112 32.226 19.2435 32.2193 19.1555C32.1925 18.7019 32.1725 18.5664 32.1323 18.5664C32.1056 18.5664 32.0855 18.5123 32.0855 18.4446C32.0722 18.1399 32.0454 18.0248 31.9919 18.0248C31.9652 18.0248 31.9451 17.9842 31.9585 17.9368C31.9652 17.8962 31.9317 17.7811 31.8849 17.6931C31.8114 17.5644 31.8114 17.5441 31.8916 17.5915C31.9451 17.6254 31.9317 17.578 31.8582 17.4629C31.7913 17.3613 31.7579 17.2462 31.7779 17.2124C31.798 17.1718 31.7846 17.1447 31.7512 17.1447C31.711 17.1447 31.6843 17.1244 31.691 17.0905C31.691 17.0634 31.6509 16.928 31.584 16.7859C31.5238 16.6437 31.4904 16.4947 31.5171 16.4541C31.5439 16.4135 31.5372 16.3999 31.4971 16.4203C31.4168 16.4676 31.3232 16.2848 31.3767 16.1968C31.3967 16.1698 31.3633 16.1224 31.3031 16.102C31.2496 16.0817 31.2229 16.0343 31.2429 15.9937C31.263 15.9599 31.2496 15.926 31.2028 15.926C31.156 15.926 31.1359 15.9057 31.1627 15.8854C31.1828 15.8651 31.1493 15.7906 31.0891 15.7161C31.029 15.6417 30.9888 15.574 31.0089 15.5604C31.029 15.5469 30.9821 15.4724 30.9153 15.3912C30.8417 15.3099 30.8083 15.249 30.8283 15.249C30.8484 15.249 30.7949 15.1677 30.708 15.073C30.6143 14.9714 30.5609 14.8698 30.5742 14.8428C30.5943 14.8157 30.5609 14.7683 30.5007 14.748C30.4405 14.7209 30.407 14.6871 30.4271 14.6667C30.4472 14.6464 30.387 14.5516 30.2867 14.4569C30.1864 14.3621 30.1663 14.3282 30.2399 14.3756C30.3134 14.4298 30.2131 14.3079 30.0192 14.1116C29.8253 13.9152 29.6848 13.7257 29.6982 13.6986C29.7183 13.6715 29.531 13.4549 29.2836 13.2111C29.0429 12.9742 28.8824 12.8388 28.9359 12.92C28.9894 12.9945 28.8757 12.8929 28.6751 12.683C28.4811 12.4732 28.3407 12.3513 28.3675 12.4055C28.3942 12.4664 28.3741 12.4664 28.314 12.3851C28.2605 12.3242 28.1869 12.27 28.1468 12.27C28.1067 12.27 28.0532 12.2362 28.0264 12.1888C27.993 12.1414 28.0063 12.1346 28.0665 12.1685C28.1267 12.2023 28.1401 12.1956 28.1067 12.1414C28.0799 12.1008 28.0264 12.0805 27.993 12.1008C27.9595 12.1279 27.8592 12.0602 27.7656 11.9586C27.672 11.8571 27.5984 11.8029 27.5984 11.83C27.5984 11.8638 27.5516 11.83 27.4914 11.7555C27.4379 11.6878 27.4045 11.6743 27.4313 11.7284C27.458 11.7826 27.4179 11.7623 27.351 11.681C27.2841 11.5998 27.1838 11.5253 27.1303 11.5118C27.0768 11.4982 26.9899 11.4441 26.9431 11.3899C26.8628 11.3019 26.8562 11.3019 26.8963 11.3899C26.923 11.4576 26.9097 11.4508 26.8428 11.3764C26.7893 11.3087 26.7291 11.2748 26.709 11.3019C26.6823 11.3222 26.6622 11.3087 26.6622 11.268C26.6622 11.2274 26.6154 11.2071 26.5485 11.2342C26.4817 11.2613 26.4549 11.2477 26.4817 11.2071C26.5352 11.1259 26.0938 10.9092 25.9668 10.9566C25.9133 10.9769 25.8531 10.9566 25.8196 10.9092C25.7862 10.855 25.7996 10.8415 25.8598 10.8821C25.92 10.9227 25.9333 10.9092 25.8932 10.855C25.8665 10.8077 25.7862 10.7806 25.7193 10.8009C25.6458 10.8212 25.5923 10.8077 25.5923 10.767C25.5923 10.7264 25.5455 10.7196 25.4853 10.7399C25.4251 10.767 25.3984 10.7535 25.4318 10.7061C25.4585 10.6519 25.4251 10.6452 25.3248 10.679C25.2312 10.7061 25.191 10.6993 25.2178 10.6587C25.2713 10.5707 25.0907 10.503 24.9436 10.5572C24.8768 10.5842 24.85 10.5707 24.8768 10.5301C24.9302 10.4421 24.3618 10.2728 24.2482 10.3405C24.1947 10.3811 24.1813 10.3676 24.2214 10.3066C24.2615 10.2389 24.2281 10.2254 24.101 10.2525C24.0007 10.2728 23.9138 10.2525 23.9004 10.2119C23.8871 10.1645 23.6664 10.1442 23.312 10.1442C22.9776 10.1442 22.8439 10.1306 22.9843 10.1035C23.1916 10.0697 23.1715 10.0629 22.7904 10.0155C22.3557 9.96813 20.9781 9.96813 20.6103 10.0155ZM22.0347 10.0832C21.8943 10.0968 21.6535 10.0968 21.4997 10.0832C21.3392 10.0697 21.4529 10.0561 21.7472 10.0561C22.0414 10.0561 22.1684 10.0697 22.0347 10.0832ZM19.7544 10.2796C19.7343 10.2999 19.6741 10.3066 19.6273 10.2863C19.5738 10.266 19.5939 10.2457 19.6674 10.2457C19.741 10.2389 19.7811 10.2593 19.7544 10.2796ZM20.9982 11.9789C20.9514 11.9925 20.8711 11.9925 20.831 11.9789C20.7842 11.9586 20.8176 11.9451 20.9113 11.9451C21.0049 11.9451 21.0383 11.9586 20.9982 11.9789ZM22.4694 11.9789C22.4226 11.9925 22.3289 11.9925 22.2688 11.9789C22.2019 11.9586 22.242 11.9451 22.349 11.9451C22.4627 11.9451 22.5095 11.9586 22.4694 11.9789ZM23.0712 12.0466C23.0244 12.0602 22.9442 12.0602 22.904 12.0466C22.8572 12.0263 22.8907 12.0128 22.9843 12.0128C23.0779 12.0128 23.1113 12.0263 23.0712 12.0466ZM23.3655 12.1076C23.3454 12.1279 23.2852 12.1346 23.2384 12.1143C23.1849 12.094 23.205 12.0737 23.2785 12.0737C23.3521 12.0669 23.3922 12.0872 23.3655 12.1076ZM29.5377 13.5226C29.6246 13.6173 29.6781 13.6918 29.6581 13.6918C29.6447 13.6918 29.5578 13.6173 29.4708 13.5226C29.3839 13.4278 29.3304 13.3533 29.3505 13.3533C29.3638 13.3533 29.4508 13.4278 29.5377 13.5226ZM28.0331 14.9105C28.1 14.9849 28.1401 15.0459 28.12 15.0459C28.1 15.0459 28.0331 14.9849 27.9662 14.9105C27.8994 14.836 27.8592 14.7751 27.8793 14.7751C27.8994 14.7751 27.9662 14.836 28.0331 14.9105Z" fill="white"/>
<path fill-rule="evenodd" clip-rule="evenodd" d="M14.9724 10.9498C14.6247 11.1055 14.3505 11.3222 14.3973 11.4034C14.4241 11.444 14.4107 11.4576 14.3772 11.4373C14.2836 11.3763 14.0696 11.7081 14.1298 11.8096C14.1566 11.857 14.1499 11.8638 14.1031 11.8367C14.0295 11.7961 14.0094 11.8367 14.0295 11.9721C14.0295 11.9992 13.9961 12.0398 13.9426 12.0737C13.8824 12.1143 13.8556 12.2835 13.8623 12.6559C13.8623 13.2111 13.9827 13.5496 14.2034 13.685C14.2702 13.7256 14.297 13.7595 14.2702 13.7595C14.2368 13.7595 14.2569 13.8069 14.3171 13.861C14.3706 13.9152 14.4575 13.949 14.511 13.9287C14.5578 13.9084 14.6447 13.9423 14.6982 14.01C14.7852 14.1183 14.7785 14.1251 14.6715 14.0371C14.6113 13.9829 14.5377 13.9626 14.5177 13.9829C14.4709 14.0303 14.6648 14.1318 15.0593 14.274C15.387 14.3823 16.0022 14.3553 15.9287 14.2334C15.9086 14.2063 15.9487 14.1928 16.0156 14.2131C16.0892 14.2266 16.1895 14.1995 16.243 14.1386C16.3031 14.0844 16.3566 14.0506 16.37 14.0641C16.3901 14.0777 16.4703 14.0303 16.5639 13.949C16.6576 13.8746 16.6843 13.8407 16.6308 13.8678C16.5773 13.8949 16.5506 13.8949 16.5773 13.861C16.6041 13.8339 16.6977 13.773 16.7779 13.7324C16.9719 13.6376 17.2327 13.1434 17.119 13.1028C17.0722 13.0892 17.0588 13.0283 17.0789 12.9741C17.1123 12.8861 17.1257 12.8861 17.1725 12.9606C17.2059 13.0147 17.2327 12.9064 17.2327 12.6762C17.2327 12.3986 17.2126 12.3309 17.1591 12.4054C17.1056 12.4867 17.0989 12.4731 17.1324 12.358C17.226 12.0195 16.7445 11.2815 16.2764 11.0378C15.9153 10.855 15.2666 10.8076 14.9724 10.9498ZM16.049 11.031C16.0022 11.0446 15.922 11.0446 15.8819 11.031C15.835 11.0107 15.8685 10.9972 15.9621 10.9972C16.0557 10.9972 16.0892 11.0107 16.049 11.031Z" fill="white"/>
<path fill-rule="evenodd" clip-rule="evenodd" d="M33.8101 12.5138C33.7699 12.568 33.7097 12.5951 33.683 12.5748C33.6496 12.5545 33.5827 12.6019 33.5292 12.6763C33.4824 12.7508 33.4222 12.7914 33.3954 12.7711C33.3754 12.7508 33.3286 12.7982 33.2818 12.8727C33.2416 12.9539 33.1815 13.0013 33.148 12.981C33.1146 12.9607 33.0544 13.0081 33.0143 13.0825C32.9742 13.157 32.914 13.2044 32.8805 13.1841C32.8471 13.1638 32.8003 13.1909 32.7669 13.245C32.7401 13.2992 32.6866 13.3534 32.6465 13.3669C32.5462 13.4008 32.2787 13.6919 32.3456 13.6919C32.3857 13.6919 32.4057 13.719 32.3991 13.7528C32.3857 13.7867 32.4392 13.8679 32.5127 13.9288C32.5863 13.9898 32.5997 14.0236 32.5462 13.9965C32.4927 13.9695 32.5061 14.0033 32.5729 14.0575C32.6465 14.1184 32.6799 14.1658 32.6465 14.1658C32.613 14.1658 32.6465 14.2132 32.72 14.2674C32.7869 14.3215 32.8203 14.3689 32.7869 14.3689C32.7468 14.3689 32.7802 14.4163 32.8538 14.4705C32.9207 14.5246 32.9541 14.572 32.9273 14.572C32.8939 14.572 32.9207 14.6194 32.9742 14.6803C33.0343 14.7345 33.0678 14.8157 33.0477 14.8496C33.021 14.8835 33.041 14.9105 33.0811 14.9105C33.1213 14.9105 33.1346 14.9376 33.1146 14.9782C33.0945 15.0121 33.1079 15.0459 33.1547 15.0459C33.2015 15.0459 33.2216 15.0663 33.1948 15.0866C33.1748 15.1136 33.2015 15.1746 33.255 15.2287C33.3085 15.2829 33.3353 15.3574 33.3152 15.3912C33.2885 15.4251 33.3085 15.4522 33.3486 15.4522C33.3888 15.4522 33.4021 15.4792 33.3821 15.5199C33.362 15.5537 33.3754 15.5876 33.4155 15.5876C33.4556 15.5876 33.4757 15.6146 33.4489 15.6485C33.4289 15.6824 33.4423 15.7297 33.4824 15.7568C33.5225 15.7839 33.5359 15.8313 33.5158 15.8652C33.4891 15.899 33.5091 15.9261 33.5493 15.9261C33.5894 15.9261 33.6094 15.9532 33.5827 15.987C33.5626 16.0209 33.576 16.0683 33.6161 16.0953C33.6562 16.1224 33.6696 16.1698 33.6496 16.2037C33.6228 16.2375 33.6362 16.2646 33.6763 16.2646C33.7164 16.2646 33.7298 16.312 33.7097 16.3662C33.683 16.4203 33.7031 16.4677 33.7499 16.4677C33.7967 16.4677 33.8167 16.5151 33.79 16.5693C33.7699 16.6234 33.7833 16.6708 33.8167 16.6708C33.8502 16.6708 33.8635 16.7182 33.8435 16.7724C33.8167 16.8265 33.8368 16.8739 33.8836 16.8739C33.9304 16.8739 33.9438 16.9281 33.917 17.0093C33.8903 17.0838 33.9037 17.1447 33.9438 17.1447C33.9839 17.1447 33.9973 17.1854 33.9772 17.2395C33.9572 17.2937 33.9772 17.3546 34.0174 17.3817C34.0575 17.4088 34.0709 17.4833 34.0508 17.5577C34.024 17.6322 34.0374 17.6864 34.0842 17.6864C34.1377 17.6864 34.1511 17.7473 34.1243 17.8489C34.1043 17.9436 34.1177 18.0384 34.1578 18.0587C34.1979 18.0858 34.2113 18.1806 34.1912 18.2686C34.1645 18.3566 34.1778 18.4311 34.2113 18.4311C34.2447 18.4311 34.2782 18.5327 34.2782 18.6478C34.2982 19.2435 34.3116 19.3722 34.3718 19.3316C34.4052 19.3112 34.4119 19.379 34.3851 19.5008C34.325 19.7852 34.452 19.9273 34.6861 19.8393C34.7797 19.8055 35.2144 19.7852 35.6557 19.7919L36.4582 19.8055V19.3586C36.4582 19.1081 36.4381 18.905 36.4114 18.905C36.3846 18.905 36.3646 18.7764 36.3579 18.6139C36.3512 18.052 36.3378 17.9572 36.291 17.9572C36.2576 17.9572 36.2375 17.8895 36.2308 17.8015C36.2107 17.4359 36.1907 17.2801 36.1439 17.2801C36.0971 17.2801 36.0904 17.2124 36.0837 16.8536C36.077 16.7521 36.0503 16.6708 36.0101 16.6708C35.9767 16.6708 35.9633 16.6437 35.9901 16.6099C36.0101 16.576 35.9968 16.5286 35.9633 16.5016C35.9232 16.4813 35.9098 16.4203 35.9366 16.3662C35.9566 16.312 35.9366 16.2646 35.8898 16.2646C35.843 16.2646 35.8229 16.2172 35.8496 16.163C35.8697 16.1089 35.8563 16.0615 35.8162 16.0615C35.7761 16.0615 35.756 16.0141 35.7761 15.9599C35.8028 15.9058 35.7895 15.8448 35.7493 15.8245C35.7159 15.7974 35.7025 15.7501 35.7226 15.7162C35.7493 15.6824 35.7293 15.6553 35.6891 15.6553C35.6423 15.6553 35.6223 15.6079 35.649 15.5537C35.6691 15.4996 35.6557 15.4522 35.6156 15.4522C35.5755 15.4522 35.5688 15.4183 35.5888 15.3845C35.6089 15.3438 35.5955 15.3168 35.5554 15.3168C35.5086 15.3168 35.4885 15.2694 35.5153 15.2152C35.5353 15.161 35.522 15.1136 35.4818 15.1136C35.4417 15.1136 35.435 15.0798 35.4551 15.0459C35.4752 15.0053 35.4618 14.9782 35.4217 14.9782C35.3748 14.9782 35.3548 14.9308 35.3815 14.8767C35.4016 14.8225 35.3882 14.7751 35.3481 14.7751C35.308 14.7751 35.3013 14.7413 35.3214 14.7074C35.3414 14.6668 35.328 14.6397 35.2879 14.6397C35.2478 14.6397 35.2277 14.6126 35.2545 14.5788C35.2745 14.5449 35.2411 14.4637 35.1809 14.4095C35.1274 14.3486 35.1007 14.3012 35.1274 14.3012C35.1542 14.3012 35.1207 14.2335 35.0472 14.1523C34.9602 14.0575 34.9536 14.0236 35.0204 14.0575C35.0739 14.0846 35.0472 14.0439 34.9536 13.9627C34.8599 13.8814 34.8332 13.8341 34.8867 13.8611C34.9402 13.8882 34.9268 13.8476 34.8466 13.7799C34.7128 13.6648 34.6393 13.5362 34.6326 13.4008C34.6326 13.3669 34.5724 13.2992 34.5055 13.2383C34.432 13.1773 34.4253 13.157 34.4855 13.1841C34.539 13.2112 34.5256 13.1773 34.452 13.1164C34.3785 13.0555 34.325 12.9742 34.3383 12.9404C34.345 12.9065 34.3183 12.8794 34.2782 12.8794C34.2447 12.8794 34.218 12.8591 34.2313 12.8253C34.2447 12.7982 34.1778 12.6966 34.0708 12.6019C33.917 12.4461 33.8769 12.4326 33.8101 12.5138Z" fill="white"/>
<path fill-rule="evenodd" clip-rule="evenodd" d="M20.6429 14.0166C20.6429 14.0437 20.5225 14.0708 20.3754 14.0708C20.2283 14.0776 20.0611 14.1317 20.0076 14.1927C19.9474 14.2536 19.8471 14.301 19.7869 14.301C19.6866 14.301 19.6866 14.2874 19.7736 14.2265C19.8471 14.1723 19.8338 14.1656 19.7067 14.2062C19.6198 14.2333 19.5061 14.2942 19.4526 14.3416C19.3456 14.4499 19.2787 14.4635 19.3389 14.3687C19.4191 14.24 19.2453 14.301 19.0982 14.4499C19.0179 14.5379 18.9778 14.565 19.0045 14.5109C19.0447 14.4364 19.0313 14.4228 18.9444 14.4567C18.8775 14.4838 18.8106 14.5041 18.7972 14.5041C18.7772 14.5041 18.7839 14.5312 18.8039 14.5718C18.8307 14.6124 18.7972 14.6192 18.7304 14.5921C18.6434 14.5583 18.6301 14.5718 18.6702 14.6395C18.7103 14.7004 18.6969 14.714 18.6434 14.6801C18.5966 14.6463 18.5164 14.6801 18.4629 14.7478C18.4027 14.8223 18.3826 14.8358 18.4027 14.7884C18.4361 14.7207 18.396 14.7275 18.2422 14.8088C18.1218 14.8697 18.0416 14.9374 18.0616 14.9645C18.075 14.9916 17.9814 15.0863 17.8477 15.1676L17.6002 15.3233L17.8009 15.1473C17.9814 14.9848 17.9814 14.978 17.8343 15.0525C17.5935 15.1744 17.0653 15.5873 17.1522 15.5873C17.1923 15.5873 17.2458 15.5603 17.2659 15.5196C17.2859 15.4858 17.3729 15.4181 17.4531 15.3775C17.5334 15.3368 17.4932 15.391 17.3662 15.5061C17.2391 15.6144 17.092 15.6889 17.0385 15.6686C16.9783 15.6483 16.9583 15.6618 16.9917 15.7092C17.0185 15.7566 16.9984 15.7905 16.9516 15.7905C16.8245 15.7905 16.4166 16.2238 16.4768 16.2915C16.5102 16.3185 16.4969 16.3388 16.4634 16.3321C16.323 16.2982 16.2695 16.3388 16.3631 16.3998C16.45 16.4539 16.45 16.4675 16.3564 16.4675C16.2962 16.4675 16.1959 16.5352 16.1224 16.6164C16.0377 16.7202 16.0421 16.7383 16.1357 16.6706C16.2093 16.6164 16.1692 16.6638 16.0421 16.7789C15.9084 16.9008 15.8281 17.0226 15.8549 17.07C15.8883 17.1174 15.8683 17.1377 15.8148 17.131C15.7679 17.1174 15.7345 17.1648 15.7345 17.2258C15.7412 17.2935 15.7211 17.3341 15.6944 17.3138C15.6676 17.2935 15.6208 17.3273 15.6008 17.3882C15.574 17.456 15.5874 17.4763 15.6476 17.4492C15.6877 17.4221 15.6543 17.4627 15.5673 17.5372C15.4804 17.6049 15.4269 17.6997 15.4537 17.7403C15.4737 17.7742 15.447 17.8215 15.3935 17.8486C15.34 17.8689 15.2932 17.9231 15.2932 17.9705C15.2932 18.0314 15.3132 18.0314 15.3667 17.957C15.4269 17.8757 15.4336 17.8757 15.4002 17.9773C15.3801 18.045 15.36 18.1194 15.36 18.133C15.36 18.1533 15.3333 18.1533 15.2998 18.1262C15.2196 18.0788 15.1327 18.3361 15.1929 18.4309C15.2129 18.4647 15.1995 18.4986 15.1594 18.4986C15.1126 18.4986 15.0992 18.546 15.1193 18.6069C15.146 18.6746 15.1327 18.6949 15.0792 18.6611C15.0257 18.6272 15.019 18.6475 15.0457 18.7288C15.0725 18.7965 15.0524 18.8913 14.9922 18.9454C14.9387 19.0064 14.8919 19.0876 14.8919 19.1282C14.8919 19.1756 14.9187 19.1688 14.9588 19.1079C15.0725 18.9251 15.0257 19.1011 14.8919 19.3584C14.7515 19.6292 14.698 19.9204 14.8251 19.7172C14.9187 19.5683 14.9053 19.6902 14.7916 19.9677C14.6445 20.313 14.6512 21.7551 14.7983 21.9853C14.8652 22.0936 14.8919 22.2155 14.8585 22.3509C14.8317 22.466 14.8451 22.5675 14.8919 22.5946C14.9321 22.6217 14.9454 22.703 14.9187 22.7774C14.8919 22.879 14.8986 22.8993 14.9588 22.8654C15.019 22.8316 15.0257 22.8519 14.9989 22.9535C14.9722 23.0279 14.9856 23.1092 15.0257 23.1363C15.0658 23.1633 15.0792 23.2378 15.0591 23.2987C15.039 23.3664 15.0658 23.4612 15.1193 23.5019C15.1728 23.5492 15.1995 23.6373 15.1795 23.6914C15.1527 23.7659 15.1661 23.7862 15.2129 23.7524C15.2664 23.7253 15.2798 23.7388 15.253 23.7997C15.233 23.8539 15.2664 23.9148 15.3266 23.9419C15.3935 23.9622 15.4269 24.0299 15.4068 24.0773C15.3868 24.1315 15.4135 24.1924 15.467 24.2127C15.5272 24.2331 15.5606 24.294 15.5406 24.3414C15.5272 24.382 15.5606 24.4632 15.6208 24.5106C15.7078 24.5851 15.7078 24.5919 15.6275 24.558C15.574 24.5309 15.5874 24.5648 15.6543 24.619C15.7278 24.6799 15.7613 24.7273 15.7278 24.7273C15.6944 24.7273 15.7278 24.7747 15.8014 24.8288C15.8683 24.883 15.9017 24.9304 15.8683 24.9304C15.8281 24.9304 15.8616 24.9778 15.9351 25.0387C16.002 25.0929 16.0154 25.1267 15.9619 25.0997C15.9084 25.0726 15.9218 25.1064 15.9953 25.1674C16.0689 25.2283 16.1291 25.3028 16.1291 25.3298C16.1291 25.3637 16.2361 25.4856 16.3631 25.6074C16.4902 25.7293 16.5503 25.797 16.4969 25.7699C16.4434 25.7361 16.5303 25.8579 16.6975 26.034C16.9984 26.3522 17.0987 26.4334 16.9917 26.2641C16.9583 26.2168 16.9984 26.2574 17.0786 26.3522C17.1656 26.4469 17.2659 26.5214 17.306 26.5214C17.3461 26.5214 17.4197 26.5824 17.4732 26.6501C17.5267 26.7245 17.5668 26.7584 17.5668 26.7178C17.5735 26.6839 17.627 26.7245 17.6939 26.8058C17.7607 26.887 17.8343 26.9344 17.861 26.9141C17.8811 26.887 17.9012 26.9073 17.9012 26.9547C17.9012 27.0021 17.9279 27.0224 17.9613 26.9953C18.0015 26.975 18.055 27.0157 18.0951 27.0766C18.1352 27.1443 18.1686 27.1714 18.1686 27.1443C18.1686 27.0698 18.5699 27.3135 18.5699 27.388C18.5699 27.4151 18.6033 27.4219 18.6367 27.4016C18.6769 27.3813 18.7036 27.3948 18.7036 27.4354C18.7036 27.476 18.7304 27.4963 18.7638 27.4693C18.7972 27.449 18.844 27.4625 18.8708 27.5031C18.8975 27.5437 18.9444 27.5573 18.9778 27.537C19.0112 27.5099 19.038 27.5302 19.038 27.5708C19.038 27.6114 19.0647 27.6318 19.0982 27.6047C19.1316 27.5844 19.1784 27.5979 19.2052 27.6385C19.2319 27.6791 19.2787 27.6927 19.3122 27.6724C19.3456 27.6453 19.3723 27.6588 19.3723 27.6927C19.3723 27.7333 19.4325 27.7469 19.5061 27.7265C19.5796 27.7062 19.6398 27.7198 19.6398 27.7604C19.6398 27.801 19.7067 27.8146 19.7869 27.7875C19.8939 27.7604 19.914 27.7739 19.8739 27.8416C19.8338 27.9093 19.8471 27.9229 19.9341 27.889C20.0009 27.8619 20.0879 27.8619 20.128 27.889C20.1748 27.9161 20.2885 27.9296 20.3888 27.9161C20.4958 27.9093 20.576 27.9229 20.576 27.9567C20.576 28.0177 20.8636 28.0447 21.5657 28.0583C22.1542 28.0651 22.6491 28.0244 22.6491 27.9635C22.6491 27.9364 22.7293 27.9161 22.8363 27.9093C23.3178 27.9026 23.3846 27.889 23.3445 27.8281C23.3178 27.7875 23.3378 27.7739 23.3913 27.7875C23.4448 27.8078 23.5719 27.7807 23.6722 27.7265C23.7725 27.6724 23.8862 27.6521 23.9196 27.6724C23.953 27.6927 23.9932 27.6791 24.0199 27.6385C24.0467 27.5979 24.0935 27.5844 24.1269 27.6047C24.1604 27.6318 24.1871 27.6114 24.1871 27.5641C24.1871 27.5167 24.2072 27.4963 24.2272 27.5234C24.254 27.5437 24.3142 27.5167 24.3677 27.4625C24.4278 27.4083 24.5148 27.3745 24.5616 27.3948C24.6151 27.4151 24.6552 27.4016 24.6552 27.3609C24.6552 27.3203 24.6886 27.3135 24.7221 27.3339C24.7622 27.3542 24.7889 27.3406 24.7889 27.3C24.7889 27.2594 24.8224 27.2458 24.8558 27.2662C24.8959 27.2865 24.9227 27.2729 24.9227 27.2255C24.9227 27.1781 24.9428 27.1578 24.9628 27.1849C24.9829 27.2052 25.0631 27.1646 25.1434 27.0969C25.2169 27.0224 25.2972 26.9818 25.3239 26.9953C25.3574 27.0157 25.3975 26.9818 25.4175 26.9209C25.4376 26.8667 25.4844 26.8396 25.5245 26.8599C25.558 26.8802 25.5914 26.8667 25.5914 26.8261C25.5914 26.7855 25.665 26.7245 25.7586 26.6771C25.9726 26.5824 25.9191 26.4876 25.344 25.9189C25.0966 25.6751 24.9227 25.472 24.9561 25.472C24.9896 25.472 24.9494 25.4246 24.8692 25.3637C24.7889 25.3095 24.7421 25.2283 24.7622 25.1877C24.7889 25.147 24.7756 25.1335 24.7354 25.1606C24.702 25.1809 24.6552 25.1674 24.6418 25.1267C24.6218 25.0726 24.5616 25.0793 24.4345 25.1674C24.3342 25.2283 24.254 25.2554 24.254 25.2283C24.254 25.1944 24.2272 25.208 24.1938 25.2554C24.167 25.3028 24.1002 25.3502 24.0467 25.3569C23.9932 25.3705 23.9129 25.3975 23.8728 25.4246C23.826 25.4585 23.7859 25.4585 23.7859 25.4382C23.7859 25.4111 23.7391 25.4449 23.6789 25.4991C23.5853 25.5939 23.4448 25.6413 23.3044 25.6142C23.271 25.6142 23.2509 25.6413 23.2509 25.6819C23.2509 25.7225 23.1907 25.7428 23.1172 25.7225C23.0436 25.7022 22.9834 25.7158 22.9834 25.7564C22.9834 25.797 22.9366 25.8105 22.8831 25.7902C22.8296 25.7631 22.7694 25.7767 22.7427 25.8173C22.7226 25.8579 22.6557 25.8715 22.6022 25.8512C22.5487 25.8308 22.4685 25.8308 22.4284 25.8579C22.3147 25.9324 20.8435 25.9392 20.8435 25.8715C20.8435 25.8376 20.7566 25.8308 20.6429 25.8579C20.5092 25.885 20.4423 25.8715 20.4423 25.8105C20.4423 25.7631 20.3955 25.7428 20.342 25.7699C20.2885 25.7902 20.2417 25.7767 20.2417 25.7361C20.2417 25.6954 20.1815 25.6819 20.1012 25.709C20.0076 25.7428 19.9742 25.7361 20.0009 25.6819C20.0344 25.6345 20.0076 25.621 19.9474 25.648C19.8872 25.6684 19.8404 25.6548 19.8404 25.6142C19.8404 25.5736 19.8003 25.56 19.7468 25.5803C19.7 25.6007 19.6398 25.5668 19.6198 25.5126C19.593 25.4517 19.5328 25.4246 19.486 25.4449C19.4325 25.4652 19.3723 25.4314 19.3523 25.3772C19.3255 25.3163 19.2653 25.2892 19.2052 25.3095C19.1517 25.3366 19.0915 25.3028 19.0647 25.2418C19.0447 25.1809 18.9979 25.147 18.9711 25.1674C18.9444 25.1877 18.8975 25.1538 18.8775 25.0929C18.8574 25.0387 18.8106 25.0049 18.7772 25.0319C18.7371 25.0523 18.6836 25.0116 18.6434 24.9507C18.6033 24.883 18.5699 24.8491 18.5699 24.8762C18.5699 24.9372 17.6069 23.969 17.6002 23.9013C17.6002 23.8742 17.5401 23.8065 17.4665 23.7456C17.3929 23.6847 17.3796 23.6508 17.4331 23.6779C17.4999 23.705 17.4932 23.6914 17.4197 23.6237C17.3528 23.5696 17.3194 23.5086 17.3461 23.4883C17.3662 23.4612 17.3327 23.4274 17.2726 23.4003C17.2124 23.38 17.1789 23.3326 17.199 23.3055C17.2525 23.2243 17.1589 23.0279 17.092 23.0753C17.0586 23.0956 17.0519 23.0686 17.0719 23.0144C17.092 22.9602 17.0586 22.8993 16.9984 22.8722C16.9248 22.8451 16.9048 22.791 16.9315 22.6962C16.9583 22.6149 16.9449 22.5608 16.8981 22.5608C16.8513 22.5608 16.8379 22.5134 16.858 22.4525C16.8847 22.3847 16.8713 22.3644 16.8178 22.3983C16.7643 22.4321 16.7577 22.4118 16.7911 22.3238C16.8178 22.2493 16.8045 22.1749 16.751 22.1478C16.6373 22.0733 16.5905 21.2744 16.644 20.2792C16.6573 20.0354 16.6841 19.9 16.7175 19.9407C16.751 19.9881 16.7643 19.961 16.7443 19.8662C16.7242 19.7849 16.7376 19.7172 16.7777 19.7172C16.8178 19.7172 16.8312 19.6495 16.8045 19.5548C16.7777 19.4532 16.8045 19.3652 16.8713 19.311C16.9248 19.2636 16.9583 19.1824 16.9382 19.1282C16.9181 19.0741 16.9248 19.047 16.9583 19.0673C17.0318 19.1147 17.1121 18.9183 17.0586 18.8236C17.0318 18.7829 17.0653 18.7085 17.1321 18.6543C17.2057 18.6069 17.2391 18.5663 17.2124 18.5663C17.1856 18.5663 17.2258 18.5054 17.2993 18.4309C17.3796 18.3496 17.4197 18.2548 17.3929 18.2075C17.3662 18.1601 17.3662 18.1465 17.3996 18.1736C17.4732 18.2413 17.6537 17.9773 17.6002 17.8893C17.5735 17.8486 17.5802 17.8283 17.6136 17.8351C17.6805 17.8554 18.4696 17.0633 18.4495 16.9888C18.4428 16.9617 18.4562 16.9482 18.4829 16.9482C18.6301 16.9753 18.7237 16.9211 18.8842 16.7518C18.9845 16.6503 19.038 16.6097 19.0112 16.6571C18.9711 16.7248 19.0112 16.718 19.165 16.6435C19.2787 16.5826 19.3723 16.5013 19.3723 16.4675C19.3723 16.4336 19.4191 16.4269 19.486 16.4472C19.5663 16.481 19.5796 16.4675 19.5395 16.3998C19.5061 16.3388 19.5128 16.3253 19.5663 16.3592C19.6064 16.3862 19.6933 16.3727 19.7468 16.3253C19.8003 16.2847 19.9407 16.2373 20.0611 16.2238C20.1748 16.217 20.3687 16.1696 20.4757 16.1222C20.5894 16.0816 20.9037 16.0342 21.1779 16.0206C21.452 16.0071 21.8132 15.98 21.9803 15.9597C22.201 15.9394 22.2545 15.9462 22.1809 15.9936C22.1074 16.0477 22.1475 16.0545 22.3348 16.0206C22.4886 15.9936 22.5822 16.0071 22.5822 16.0477C22.5822 16.0883 22.7092 16.1357 22.8564 16.1628C23.0102 16.1899 23.2375 16.2576 23.3646 16.305C23.4916 16.3592 23.6187 16.3862 23.6521 16.3659C23.6923 16.3388 23.719 16.3592 23.719 16.3998C23.719 16.4404 23.7524 16.4539 23.7859 16.4336C23.826 16.4133 23.8527 16.4269 23.8527 16.4675C23.8527 16.5149 23.8996 16.5352 23.953 16.5081C24.0065 16.4878 24.0801 16.5216 24.1069 16.5826C24.147 16.6503 24.2138 16.6774 24.2807 16.6503C24.3476 16.6232 24.3743 16.569 24.3476 16.5284C24.3208 16.481 24.3275 16.4675 24.3677 16.4878C24.4613 16.5487 25.4777 15.4858 25.4911 15.3165C25.4978 15.2421 25.4577 15.1405 25.3975 15.0931C25.3039 15.0186 25.2972 15.0254 25.3841 15.1473C25.4309 15.2217 25.3975 15.1947 25.2972 15.0931C25.2036 14.9916 25.1233 14.9238 25.1233 14.9509C25.1233 14.978 25.0832 14.9509 25.0364 14.8765C24.9829 14.8088 24.9093 14.7749 24.8625 14.802C24.8224 14.8291 24.7689 14.802 24.7488 14.741C24.7221 14.6801 24.6619 14.6463 24.6084 14.6666C24.5549 14.6869 24.5281 14.6801 24.5482 14.6463C24.595 14.5718 24.4011 14.4905 24.3142 14.5447C24.2807 14.565 24.254 14.5447 24.254 14.5041C24.254 14.4635 24.2272 14.4499 24.1871 14.4702C24.1537 14.4905 24.1202 14.477 24.1202 14.4296C24.1202 14.389 24.0667 14.3687 23.9865 14.389C23.9129 14.4093 23.8661 14.4025 23.8862 14.3755C23.8996 14.3416 23.8394 14.2874 23.7457 14.24C23.5451 14.152 23.4448 14.1453 23.5853 14.2333C23.6521 14.2807 23.6588 14.301 23.5986 14.301C23.5518 14.301 23.4983 14.2536 23.4716 14.1927C23.4381 14.1046 23.3713 14.0911 23.1238 14.125C22.8965 14.152 22.8497 14.1453 22.95 14.0979C23.0637 14.0369 23.0637 14.0302 22.9032 14.0505C22.7962 14.0708 22.7159 14.0572 22.7159 14.0369C22.7159 14.0099 22.2478 13.9895 21.6794 13.9828C21.111 13.976 20.6429 13.9963 20.6429 14.0166ZM25.4577 15.4045C25.4577 15.4113 25.2838 15.5873 25.0765 15.7905L24.6886 16.1628L25.0564 15.7701C25.3908 15.4113 25.4577 15.3504 25.4577 15.4045ZM24.6552 16.2238C24.6552 16.2373 24.6017 16.2915 24.5415 16.3388C24.4345 16.4269 24.4278 16.4201 24.5148 16.3118C24.6017 16.2034 24.6552 16.1696 24.6552 16.2238ZM18.8374 16.7654C18.8374 16.7789 18.7906 16.8128 18.7304 16.8331C18.6769 16.8534 18.6501 16.8466 18.6702 16.806C18.7103 16.7383 18.8374 16.7112 18.8374 16.7654ZM18.0349 24.4226C18.162 24.5513 18.2489 24.6596 18.2288 24.6596C18.2088 24.6596 18.0951 24.5513 17.968 24.4226C17.841 24.294 17.754 24.1857 17.7741 24.1857C17.7942 24.1857 17.9078 24.294 18.0349 24.4226Z" fill="white"/>
<path fill-rule="evenodd" clip-rule="evenodd" d="M12.9934 14.8091C13.1138 14.9039 13.1071 14.9106 12.9466 14.8497C12.7928 14.7955 12.7393 14.8158 12.5855 14.9783C12.4852 15.0867 12.425 15.2018 12.4518 15.2424C12.4718 15.2898 12.4585 15.3101 12.4116 15.3033C12.3715 15.2898 12.318 15.3236 12.298 15.3778C12.2779 15.4387 12.298 15.4523 12.3581 15.4184C12.4116 15.3846 12.4317 15.3913 12.3983 15.4252C12.3648 15.459 12.3047 15.4861 12.2712 15.4861C12.2311 15.4861 12.1843 15.5267 12.1642 15.5809C12.1442 15.6418 12.1642 15.6554 12.2244 15.6283C12.2779 15.6012 12.2445 15.6418 12.1508 15.7231C12.0572 15.8043 12.0238 15.8517 12.0706 15.8246C12.1107 15.8043 12.1508 15.8179 12.1508 15.8517C12.1508 15.8923 12.1107 15.9262 12.0572 15.9262C12.0037 15.9262 11.9435 15.9736 11.9235 16.0345C11.8967 16.1022 11.9101 16.1225 11.9703 16.0887C12.0104 16.0616 11.977 16.109 11.8967 16.197C11.7697 16.3189 11.7563 16.3595 11.8299 16.4069C11.8967 16.4543 11.8967 16.4678 11.8165 16.4678C11.6761 16.4678 11.4554 17.0162 11.5624 17.0907C11.6292 17.1313 11.6226 17.1448 11.5423 17.1448C11.4219 17.1448 11.315 17.4427 11.3885 17.5646C11.4153 17.612 11.4086 17.6188 11.3618 17.5917C11.315 17.5646 11.2815 17.5714 11.2815 17.612C11.2815 17.6458 11.2615 17.7339 11.2414 17.8016C11.208 17.9031 11.2146 17.9099 11.2815 17.8219C11.3484 17.7339 11.3551 17.7406 11.3216 17.8422C11.3016 17.9099 11.2815 17.9844 11.2815 17.9979C11.2815 18.0182 11.2481 18.0114 11.208 17.9844C11.1545 17.9505 11.1411 18.0114 11.1611 18.1807C11.1745 18.3161 11.1678 18.4109 11.1411 18.3906C11.0608 18.3432 11.0007 18.7562 11.0408 19.0608C11.0675 19.2369 11.0608 19.2978 11.0274 19.2098C10.9338 18.9999 10.8736 19.5415 10.9137 20.1644C10.9405 20.5503 10.9338 20.6586 10.8803 20.5639C10.8335 20.4691 10.8268 20.6451 10.8535 21.1393C10.8736 21.532 10.8937 22.0736 10.8937 22.3444C10.9003 22.6627 10.9204 22.8048 10.9605 22.7507C11.0007 22.6965 11.0073 22.7439 10.9806 22.8793C10.9538 23.0012 10.9672 23.1095 11.014 23.1366C11.0608 23.1637 11.0742 23.2652 11.0475 23.3803C11.0207 23.5022 11.0341 23.5766 11.0742 23.5766C11.1143 23.5766 11.1277 23.624 11.1076 23.6782C11.0809 23.7324 11.0943 23.7798 11.1277 23.7798C11.1611 23.7798 11.1745 23.8745 11.1611 23.9896C11.1411 24.1318 11.1545 24.1927 11.2013 24.1589C11.2949 24.1047 11.3684 24.3349 11.3083 24.4906C11.2748 24.5719 11.2815 24.599 11.3283 24.5719C11.3684 24.5448 11.4219 24.5719 11.442 24.6328C11.5022 24.7953 11.4888 24.8427 11.4086 24.7276C11.3484 24.6464 11.3417 24.6464 11.3751 24.7479C11.3952 24.8156 11.4153 24.9036 11.4153 24.9375C11.4153 24.9781 11.442 24.9916 11.4754 24.9713C11.549 24.9239 11.6292 25.1203 11.5758 25.2151C11.5557 25.2489 11.5891 25.3234 11.656 25.3776C11.7296 25.4385 11.7429 25.4656 11.7028 25.4385C11.5691 25.3708 11.6025 25.452 11.7697 25.6145C11.8499 25.6958 11.8767 25.7432 11.8366 25.7161C11.7764 25.6822 11.763 25.7025 11.7897 25.7702C11.8098 25.8244 11.87 25.8853 11.9302 25.9056C11.9837 25.9327 12.0171 25.9937 11.997 26.041C11.977 26.0952 12.0037 26.1561 12.0639 26.1765C12.1174 26.2035 12.1508 26.2645 12.1308 26.3119C12.1107 26.366 12.1375 26.427 12.1977 26.4473C12.2578 26.4743 12.2846 26.5082 12.2645 26.5353C12.2378 26.5556 12.2712 26.6165 12.3381 26.6707C12.4116 26.7384 12.4183 26.7519 12.3515 26.7248C12.2913 26.6978 12.298 26.7181 12.3715 26.779C12.4384 26.8332 12.4785 26.9144 12.4718 26.9618C12.4585 27.0092 12.5053 27.0566 12.5721 27.0634C12.6323 27.0769 12.6724 27.0566 12.6457 27.0227C12.6256 26.9889 12.6524 26.9618 12.7059 26.9618C12.8329 26.9618 13.1673 26.5962 13.1071 26.5217C13.0737 26.4947 13.0937 26.4879 13.1405 26.515C13.1874 26.5421 13.2409 26.5217 13.2609 26.4608C13.281 26.3999 13.3278 26.366 13.3545 26.3863C13.3813 26.4066 13.4281 26.3728 13.4482 26.3119C13.4749 26.2509 13.5083 26.2171 13.5351 26.2374C13.5552 26.2645 13.6153 26.2306 13.6688 26.1629C13.7357 26.0884 13.7491 26.0817 13.7223 26.1494C13.6956 26.2171 13.709 26.2103 13.7758 26.1358C13.8293 26.0681 13.8895 26.0343 13.9096 26.0614C13.9363 26.0817 13.9564 26.0681 13.9564 26.0207C13.9564 25.9733 13.9898 25.9598 14.0233 25.9801C14.1303 26.0478 14.1837 25.8244 14.0901 25.7093C14.0433 25.6551 14.0299 25.6077 14.0634 25.6077C14.0901 25.6077 14.0567 25.5604 13.9831 25.4994C13.9163 25.4453 13.9029 25.4114 13.9564 25.4385C14.0166 25.4656 14.0032 25.4385 13.9296 25.3776C13.8628 25.3234 13.8293 25.2421 13.8561 25.2083C13.8761 25.1677 13.8494 25.1135 13.7892 25.0932C13.729 25.0661 13.6956 25.0052 13.7156 24.951C13.7357 24.9036 13.709 24.8427 13.6488 24.8156C13.5953 24.7953 13.5618 24.7344 13.5819 24.687C13.602 24.6328 13.5886 24.5922 13.5485 24.5922C13.5083 24.5922 13.5017 24.5583 13.5217 24.5245C13.5418 24.4906 13.5351 24.4568 13.495 24.4568C13.4548 24.4568 13.4482 24.4094 13.4682 24.3417C13.495 24.2672 13.4883 24.2469 13.4348 24.2808C13.3813 24.3146 13.3679 24.2943 13.3947 24.2266C13.4147 24.1657 13.4013 24.1183 13.3612 24.1183C13.3211 24.1183 13.3077 24.0709 13.3345 24.0032C13.3679 23.9219 13.3545 23.9084 13.2877 23.949C13.2208 23.9896 13.2074 23.9761 13.2409 23.8949C13.2609 23.8272 13.2542 23.7798 13.2141 23.7798C13.1807 23.7798 13.1673 23.7053 13.194 23.6037C13.2275 23.4819 13.2141 23.4345 13.1673 23.4683C13.1272 23.4954 13.1138 23.4548 13.1405 23.36C13.1606 23.2788 13.1472 23.2314 13.1071 23.2584C13.0737 23.2855 13.0536 23.2178 13.0737 23.096C13.0871 22.9876 13.0737 22.8996 13.0402 22.8996C13.0001 22.8996 12.9867 22.8184 13.0068 22.7236C13.0269 22.595 13.0135 22.5543 12.9667 22.5882C12.9065 22.622 12.8998 22.5408 12.9266 22.3106C12.9533 22.1007 12.9399 22.0195 12.8998 22.0736C12.8597 22.1278 12.8463 21.9856 12.8463 21.6674C12.853 21.3966 12.8329 20.9768 12.8062 20.7331C12.7728 20.4217 12.7794 20.3607 12.8196 20.53C12.8664 20.7128 12.8731 20.6654 12.853 20.293C12.8329 19.9478 12.8396 19.8462 12.8931 19.9207C12.9466 19.9951 12.9533 19.9478 12.9266 19.7311C12.8931 19.5145 12.9065 19.4467 12.96 19.4874C13.0202 19.5212 13.0269 19.4806 12.9934 19.352C12.96 19.2166 12.9667 19.1759 13.0269 19.2166C13.0871 19.2504 13.0937 19.2098 13.067 19.0473C13.0336 18.8916 13.0469 18.8442 13.1004 18.878C13.1539 18.9119 13.1606 18.8916 13.1339 18.8171C13.1138 18.7494 13.1205 18.702 13.1606 18.702C13.194 18.702 13.2074 18.6275 13.1807 18.5395C13.1606 18.4447 13.174 18.3161 13.2208 18.2484C13.281 18.1401 13.2877 18.1468 13.2542 18.2958C13.2208 18.438 13.2275 18.4447 13.2877 18.3432C13.3278 18.2755 13.3545 18.1875 13.3345 18.1401C13.3211 18.0995 13.3545 18.0182 13.4013 17.964C13.4615 17.9099 13.4816 17.8083 13.4615 17.7068C13.4348 17.6052 13.4482 17.5578 13.495 17.5646C13.5351 17.5781 13.5886 17.5443 13.6087 17.4901C13.6287 17.436 13.6087 17.4157 13.5618 17.4427C13.515 17.4698 13.5017 17.4495 13.5284 17.3886C13.5485 17.3276 13.602 17.2938 13.6421 17.3006C13.6889 17.3073 13.7223 17.2464 13.7156 17.1651C13.7156 17.0839 13.7357 17.0297 13.7625 17.0433C13.7892 17.0636 13.8293 17.0297 13.8494 16.9688C13.8761 16.9011 13.8628 16.8808 13.8026 16.9079C13.7625 16.935 13.7758 16.9079 13.8494 16.8469C13.9163 16.7928 13.9497 16.7183 13.9296 16.6777C13.9029 16.6438 13.9229 16.5897 13.9631 16.5626C14.0166 16.5287 14.0299 16.549 13.9965 16.61C13.9698 16.6641 13.9898 16.6506 14.0366 16.5761C14.0834 16.5084 14.1904 16.3662 14.2774 16.2579C14.4312 16.0684 14.5382 15.7569 14.4178 15.8246C14.3844 15.8517 14.3576 15.8314 14.3576 15.7908C14.3576 15.7501 14.3309 15.7366 14.2907 15.7569C14.2573 15.7772 14.2239 15.7637 14.2239 15.7231C14.2239 15.6757 14.1771 15.6554 14.1236 15.6757C14.0701 15.7028 14.0099 15.6824 13.9831 15.6418C13.9497 15.5944 13.9698 15.5877 14.0233 15.6215C14.0834 15.6554 14.0968 15.6486 14.0634 15.5944C14.0366 15.5538 13.9564 15.5335 13.8962 15.5538C13.816 15.5809 13.7156 15.5064 13.5618 15.3168C13.4482 15.1679 13.301 15.046 13.2409 15.046C13.1807 15.046 13.1539 15.0257 13.174 14.9986C13.2275 14.9445 13.0269 14.7075 12.9332 14.7075C12.8931 14.7075 12.9199 14.7549 12.9934 14.8091ZM12.8196 14.8632C12.8196 14.8768 12.7527 14.9445 12.6724 15.019L12.5186 15.1476L12.6457 14.9919C12.7661 14.8497 12.8196 14.8091 12.8196 14.8632ZM13.4548 15.2491C13.5217 15.3236 13.5618 15.3846 13.5418 15.3846C13.5217 15.3846 13.4548 15.3236 13.388 15.2491C13.3211 15.1747 13.281 15.1137 13.301 15.1137C13.3211 15.1137 13.388 15.1747 13.4548 15.2491ZM10.994 19.6634C10.9739 19.7108 10.9605 19.6769 10.9605 19.5822C10.9605 19.4874 10.9739 19.4535 10.994 19.4941C11.0073 19.5415 11.0073 19.6228 10.994 19.6634ZM12.7995 21.4914C12.7794 21.5456 12.7594 21.5252 12.7594 21.4508C12.7527 21.3763 12.7728 21.3357 12.7928 21.3628C12.8129 21.3831 12.8196 21.444 12.7995 21.4914Z" fill="white"/>
<path fill-rule="evenodd" clip-rule="evenodd" d="M26.8621 17.3479C26.7016 17.5307 26.5344 17.6593 26.501 17.639C26.4675 17.6119 26.4608 17.6322 26.4809 17.6661C26.5076 17.7067 26.4608 17.7947 26.3739 17.8624C26.2803 17.9482 26.2624 17.9459 26.3204 17.8556C26.3672 17.7812 26.287 17.8556 26.1398 18.0249C25.859 18.3363 25.8189 18.5327 25.9927 18.6884C26.0462 18.7425 26.0529 18.7629 26.0128 18.7358C25.9526 18.7087 25.9392 18.729 25.966 18.7967C25.986 18.8576 26.0329 18.905 26.073 18.905C26.1064 18.905 26.1131 18.9321 26.093 18.9727C26.073 19.0066 26.0863 19.0404 26.1265 19.0404C26.1733 19.0404 26.1933 19.0878 26.1733 19.142C26.1465 19.1962 26.1599 19.2571 26.2 19.2842C26.2402 19.3045 26.2535 19.3722 26.2335 19.4263C26.2067 19.4805 26.2201 19.5008 26.2669 19.4737C26.3137 19.4467 26.3271 19.4737 26.3003 19.5685C26.2736 19.643 26.287 19.7242 26.3271 19.7513C26.3739 19.7784 26.3873 19.8732 26.3605 19.968C26.3405 20.0628 26.3471 20.1169 26.3739 20.1034C26.4006 20.0831 26.4274 20.4419 26.4274 20.9023C26.4274 21.3627 26.4073 21.7012 26.3806 21.6606C26.3538 21.6132 26.3271 21.6673 26.3271 21.7824C26.3204 22.2631 26.307 22.3579 26.2468 22.3579C26.2134 22.3579 26.2 22.385 26.2268 22.4188C26.2468 22.4527 26.2335 22.5001 26.2 22.5272C26.1599 22.5475 26.1465 22.6084 26.1666 22.6558C26.1867 22.7032 26.1532 22.7912 26.0997 22.8521C26.0462 22.9063 26.0195 22.9672 26.0395 22.9943C26.0663 23.0146 26.0462 23.0349 25.9994 23.0349C25.9526 23.0349 25.9392 23.062 25.9593 23.1026C25.9794 23.1365 25.9727 23.1703 25.9459 23.1703C25.8389 23.1703 25.859 23.5495 25.966 23.6849C26.0195 23.7526 26.0529 23.7661 26.0262 23.712C26.0061 23.6578 26.2335 23.8677 26.5344 24.1859C26.8353 24.5041 27.056 24.714 27.0292 24.6598C26.9757 24.5718 26.9891 24.5718 27.0827 24.653C27.1429 24.7004 27.1764 24.7749 27.1496 24.8155C27.1295 24.8562 27.1429 24.8629 27.183 24.8358C27.2299 24.8088 27.2633 24.8223 27.2633 24.8562C27.2633 24.8968 27.3168 24.8765 27.3837 24.8088C27.4572 24.7478 27.4973 24.6734 27.484 24.6395C27.4706 24.6124 27.484 24.5921 27.5241 24.5921C27.5642 24.5921 27.5776 24.5515 27.5575 24.5041C27.5375 24.4499 27.5709 24.3687 27.6244 24.3213C27.6846 24.2739 27.7113 24.213 27.6913 24.1791C27.6712 24.1453 27.6846 24.1182 27.7113 24.1182C27.7448 24.1182 27.7782 24.0505 27.7782 23.9692C27.7849 23.8812 27.825 23.8068 27.8584 23.7932C27.8919 23.7797 27.9053 23.7255 27.8852 23.6713C27.8651 23.6172 27.8852 23.5766 27.9253 23.5766C27.9654 23.5766 27.9788 23.5292 27.9588 23.475C27.932 23.4208 27.9521 23.3735 27.9922 23.3735C28.0323 23.3735 28.0457 23.3261 28.0256 23.2719C27.9989 23.2177 28.0189 23.1703 28.0658 23.1703C28.1126 23.1703 28.1259 23.1162 28.0992 23.0349C28.0724 22.9605 28.0858 22.8995 28.1259 22.8995C28.1661 22.8995 28.1794 22.8521 28.1594 22.798C28.1326 22.7438 28.1527 22.6558 28.1928 22.6016C28.2329 22.5542 28.2463 22.4933 28.2262 22.473C28.2062 22.4527 28.2129 22.3918 28.2396 22.3444C28.3132 22.2293 28.3399 22.0465 28.3332 21.6538C28.3332 21.471 28.3667 21.2814 28.4068 21.234C28.4536 21.1731 28.467 21.0309 28.4335 20.8549C28.3934 20.5705 28.3332 19.907 28.3266 19.5956C28.3199 19.5144 28.2931 19.4467 28.2664 19.4467C28.2329 19.4467 28.2062 19.3925 28.2062 19.3248C28.1995 19.0675 28.1727 18.9727 28.1192 18.9727C28.0858 18.9727 28.0724 18.9118 28.0992 18.8441C28.1192 18.7696 28.1059 18.6952 28.0658 18.6681C28.0256 18.6478 28.0123 18.5936 28.0323 18.5597C28.0591 18.5259 28.039 18.4988 27.9989 18.4988C27.9588 18.4988 27.9387 18.4717 27.9654 18.4379C27.9855 18.404 27.9721 18.3566 27.932 18.3296C27.8919 18.3025 27.8785 18.2551 27.8986 18.2212C27.9253 18.1874 27.9053 18.1603 27.8584 18.1603C27.8116 18.1603 27.7983 18.14 27.8183 18.1129C27.8451 18.0926 27.8183 18.0114 27.7515 17.9436C27.6913 17.8759 27.6712 17.8218 27.7046 17.8218C27.7381 17.8218 27.7314 17.7947 27.6846 17.7676C27.6445 17.7405 27.5976 17.6728 27.5843 17.6187C27.5709 17.5645 27.5174 17.4765 27.4639 17.4291C27.377 17.3479 27.377 17.3411 27.4639 17.3885C27.5174 17.4223 27.4907 17.3479 27.397 17.2328C27.3034 17.1109 27.2165 17.0161 27.1964 17.0161C27.1764 17.0229 27.0292 17.1718 26.8621 17.3479Z" fill="white"/>
<path fill-rule="evenodd" clip-rule="evenodd" d="M21.1788 17.9166C21.1788 17.9504 21.0918 17.9572 20.9782 17.9301C20.8712 17.9098 20.7775 17.9233 20.7775 17.9572C20.7775 17.9911 20.7307 18.0046 20.6772 17.9843C20.6237 17.9572 20.5769 17.9775 20.5769 18.0249C20.5769 18.0723 20.5368 18.0926 20.4833 18.0723C20.4298 18.052 20.3696 18.0791 20.3496 18.1332C20.3295 18.1942 20.2693 18.228 20.2225 18.2077C20.1824 18.1942 20.1021 18.228 20.0553 18.2889C20.0018 18.3499 19.9818 18.3566 20.0085 18.3093C20.0286 18.2686 20.0353 18.228 20.0152 18.228C19.9416 18.228 19.0723 19.1352 19.0924 19.1894C19.0991 19.2165 19.0723 19.2436 19.0322 19.2436C18.9988 19.2436 18.9787 19.2706 18.9988 19.3045C19.0255 19.3383 19.0121 19.379 18.9787 19.3925C18.9453 19.3993 18.9051 19.4602 18.8918 19.5144C18.8784 19.5685 18.8383 19.6498 18.7915 19.7039C18.7446 19.7513 18.7313 19.8393 18.7513 19.9003C18.7848 19.9815 18.7714 19.9951 18.7045 19.9544C18.6443 19.9206 18.631 19.9274 18.6644 19.9815C18.6911 20.0221 18.6778 20.1034 18.6376 20.1576C18.5908 20.2185 18.5775 20.3336 18.5975 20.4351C18.631 20.5502 18.6176 20.5909 18.5708 20.5638C18.5307 20.5367 18.5039 20.645 18.5039 20.8617C18.5039 21.0648 18.5307 21.207 18.5775 21.207C18.6243 21.207 18.631 21.2814 18.6042 21.4168C18.5708 21.5658 18.5908 21.6606 18.6711 21.7486C18.7313 21.8163 18.7714 21.9178 18.7513 21.9652C18.738 22.0126 18.7714 22.1142 18.8316 22.1819C18.9185 22.2902 18.9185 22.3038 18.8383 22.2631C18.7781 22.2293 18.7848 22.2496 18.8516 22.3105C18.9185 22.3647 18.9519 22.4256 18.9252 22.4459C18.9051 22.473 18.9185 22.4933 18.9653 22.4933C19.0121 22.4933 19.0322 22.5204 19.0121 22.5543C18.9921 22.5881 19.0188 22.6355 19.079 22.6558C19.1392 22.6829 19.1726 22.7167 19.1526 22.7438C19.1258 22.7641 19.2194 22.886 19.3599 23.0214C19.4936 23.15 19.5471 23.2177 19.4735 23.1636C19.3844 23.1049 19.3822 23.123 19.4669 23.2177C19.5337 23.299 19.614 23.3599 19.6407 23.3532C19.6742 23.3464 19.7477 23.4005 19.8079 23.475C19.8681 23.5495 19.9015 23.563 19.8748 23.5089C19.848 23.4547 19.8815 23.4682 19.9416 23.5427C20.0018 23.6172 20.0553 23.6646 20.062 23.651C20.0687 23.6375 20.1423 23.6443 20.2292 23.6714C20.3094 23.6984 20.3563 23.7526 20.3362 23.7932C20.3094 23.8338 20.3228 23.8474 20.3629 23.8203C20.4031 23.8 20.4499 23.8068 20.4766 23.8406C20.4967 23.8812 20.5569 23.8948 20.6104 23.8677C20.6639 23.8474 20.7107 23.8677 20.7107 23.9083C20.7107 23.9489 20.7575 23.9625 20.811 23.9422C20.8645 23.9151 20.9113 23.9286 20.9113 23.9557C20.9113 23.9896 21.1855 24.0166 21.5131 24.0166C21.8408 24.0166 22.115 23.9896 22.115 23.9625C22.115 23.9286 22.1819 23.9286 22.2554 23.9489C22.3624 23.9828 22.3825 23.976 22.349 23.9083C22.3089 23.8474 22.329 23.8338 22.4092 23.8677C22.4761 23.8948 22.5697 23.8745 22.6299 23.8068C22.6901 23.7526 22.777 23.7187 22.8238 23.7391C22.8773 23.7594 22.9174 23.7458 22.9174 23.7052C22.9174 23.6646 22.9509 23.6578 22.9843 23.6781C23.0244 23.6984 23.0512 23.6849 23.0512 23.6375C23.0512 23.5901 23.0712 23.5766 23.098 23.5969C23.1181 23.624 23.1782 23.5901 23.2317 23.5224C23.2986 23.4479 23.312 23.4412 23.2852 23.5089C23.2585 23.563 23.2919 23.5495 23.3521 23.475C23.4123 23.4005 23.4859 23.3464 23.5126 23.3532C23.5393 23.3599 23.6865 23.2448 23.8269 23.0891C23.9673 22.9334 24.0409 22.8318 23.9874 22.8589C23.9339 22.886 23.9606 22.8454 24.0543 22.7641C24.1412 22.6829 24.2214 22.5678 24.2281 22.5136C24.2415 22.4527 24.2883 22.3782 24.3351 22.3511C24.3819 22.3173 24.3953 22.2902 24.3619 22.2902C24.3284 22.2902 24.3418 22.2496 24.3819 22.2022C24.4221 22.148 24.4354 22.0871 24.4087 22.0668C24.3886 22.0397 24.402 22.0194 24.4488 22.0194C24.4956 22.0194 24.5157 21.9923 24.4889 21.9585C24.4689 21.9246 24.4822 21.8772 24.5157 21.8569C24.5491 21.8366 24.5625 21.7554 24.5424 21.6809C24.5224 21.6064 24.5357 21.5455 24.5625 21.5455C24.5959 21.5455 24.6227 21.2679 24.6227 20.9361C24.6227 20.6044 24.5959 20.3268 24.5692 20.3268C24.5357 20.3268 24.5357 20.2659 24.5558 20.1914C24.5825 20.1102 24.5692 20.056 24.5224 20.056C24.4756 20.056 24.4555 20.0086 24.4822 19.9544C24.5023 19.9003 24.4889 19.8529 24.4555 19.8529C24.4221 19.8529 24.4087 19.8055 24.4287 19.7513C24.4555 19.6972 24.4354 19.6498 24.3886 19.6498C24.3485 19.6498 24.3351 19.6159 24.3552 19.5821C24.3752 19.5415 24.3619 19.5144 24.3217 19.5144C24.2816 19.5144 24.2683 19.4805 24.2883 19.4467C24.3084 19.406 24.295 19.379 24.2549 19.379C24.2148 19.379 24.1947 19.3519 24.2148 19.318C24.2348 19.2842 24.2081 19.2368 24.1479 19.2165C24.0877 19.1894 24.0543 19.1555 24.0743 19.1352C24.0944 19.1149 24.0342 19.0201 23.9339 18.9254C23.8336 18.8306 23.8135 18.7967 23.8871 18.8441C23.9673 18.8983 23.9406 18.8441 23.8269 18.7222C23.7199 18.6004 23.6129 18.5056 23.5928 18.5124C23.4591 18.5259 23.3855 18.4853 23.4056 18.4108C23.4123 18.3702 23.3789 18.3363 23.3387 18.3431C23.2919 18.3566 23.2518 18.3296 23.2518 18.2889C23.2518 18.2551 23.2251 18.2416 23.1849 18.2619C23.1515 18.2822 23.1181 18.2686 23.1181 18.228C23.1181 18.1874 23.0913 18.1738 23.0512 18.1942C23.0177 18.2145 22.9843 18.2077 22.9843 18.1671C22.9843 18.1265 22.9375 18.1197 22.8706 18.14C22.7904 18.1738 22.777 18.1603 22.8171 18.0926C22.8573 18.0249 22.8439 18.0114 22.7636 18.0452C22.6968 18.0723 22.65 18.0588 22.65 18.0181C22.65 17.9775 22.6031 17.9572 22.5496 17.9843C22.4961 18.0046 22.4493 17.991 22.4493 17.9504C22.4493 17.9166 22.3758 17.903 22.2822 17.9301C22.1819 17.9572 22.115 17.9437 22.115 17.8963C22.115 17.8556 21.9411 17.8353 21.6469 17.8421C21.3928 17.8489 21.1788 17.8827 21.1788 17.9166ZM21.9812 19.7243C21.9812 19.7649 22.008 19.7716 22.0481 19.7513C22.0815 19.731 22.242 19.8394 22.3958 19.9951C22.5563 20.1508 22.6366 20.2523 22.5831 20.2185C22.5229 20.1846 22.5496 20.2185 22.6299 20.2997C22.7302 20.3877 22.7703 20.4758 22.7436 20.5502C22.7235 20.6179 22.7369 20.6653 22.777 20.6653C22.8171 20.6653 22.8506 20.794 22.8506 20.9768C22.8506 21.1934 22.8305 21.2679 22.7703 21.234C22.7168 21.2002 22.7101 21.2205 22.7369 21.295C22.7636 21.3627 22.7436 21.4101 22.7035 21.4101C22.6633 21.4101 22.65 21.4304 22.6767 21.4575C22.7302 21.5184 22.3089 21.9585 22.2353 21.9111C22.2086 21.8908 22.1819 21.9111 22.1819 21.9517C22.1819 21.9923 22.1551 22.0059 22.115 21.9855C22.0815 21.9652 22.0481 21.9788 22.0481 22.0194C22.0481 22.0668 21.9946 22.0803 21.9144 22.0532C21.8408 22.0329 21.7806 22.0329 21.7806 22.0668C21.7806 22.1006 21.6603 22.121 21.5131 22.121C21.366 22.121 21.2456 22.0939 21.2456 22.0668C21.2456 22.0329 21.1988 22.0194 21.1453 22.0465C21.0918 22.0668 21.045 22.0532 21.045 22.0194C21.045 21.9855 21.0049 21.972 20.9514 21.9923C20.8979 22.0126 20.8377 21.9923 20.8043 21.9449C20.7709 21.8908 20.7842 21.8772 20.8511 21.9111C20.9046 21.9382 20.8444 21.8704 20.724 21.7554C20.6037 21.6403 20.5301 21.5455 20.5569 21.5455C20.5836 21.5455 20.5502 21.5049 20.4766 21.4575C20.4098 21.4033 20.3763 21.3288 20.4031 21.2814C20.4298 21.2408 20.4164 21.1528 20.3696 21.0986C20.3028 21.0174 20.3028 20.9632 20.3629 20.8684C20.4031 20.794 20.4231 20.6856 20.3964 20.6247C20.3629 20.5367 20.3763 20.5232 20.4432 20.5638C20.5034 20.6044 20.5167 20.5909 20.4833 20.5367C20.4499 20.4893 20.4833 20.4081 20.5502 20.3539C20.6237 20.293 20.6304 20.2727 20.5769 20.2997C20.5234 20.3268 20.5502 20.2727 20.6438 20.1846C20.7374 20.0966 20.8511 19.9815 20.8979 19.9206C20.9514 19.8619 20.9648 19.8619 20.938 19.9206C20.9113 19.9748 20.9581 19.9544 21.0383 19.8732C21.1186 19.792 21.2256 19.7378 21.2791 19.7581C21.3326 19.7852 21.3794 19.7716 21.3794 19.7378C21.3794 19.7039 21.5131 19.6701 21.6803 19.6633C21.8542 19.6566 21.9812 19.6836 21.9812 19.7243Z" fill="white"/>
<path fill-rule="evenodd" clip-rule="evenodd" d="M19.3995 18.7154L19.2725 18.8711L19.4263 18.7424C19.5667 18.6206 19.6068 18.5664 19.5533 18.5664C19.5399 18.5664 19.4731 18.6341 19.3995 18.7154Z" fill="white"/>
<path fill-rule="evenodd" clip-rule="evenodd" d="M34.4519 21.8838C34.4118 21.9447 34.4252 21.9582 34.4921 21.9176C34.5723 21.8635 34.5723 21.877 34.4921 21.9786C34.4386 22.0395 34.3984 22.1952 34.4051 22.3238C34.4118 22.4525 34.3917 22.5608 34.365 22.5608C34.3182 22.5608 34.2914 22.791 34.2847 23.1904C34.2781 23.292 34.258 23.3597 34.2246 23.3462C34.1978 23.3258 34.1644 23.4071 34.1644 23.529C34.1644 23.6508 34.1577 23.8133 34.151 23.8946C34.151 23.9826 34.1243 24.0503 34.0908 24.0503C34.0574 24.0503 34.044 24.1044 34.0641 24.1789C34.0841 24.2466 34.0641 24.3279 34.0239 24.3482C33.9905 24.3752 33.9705 24.4362 33.9972 24.4903C34.0173 24.5445 33.9972 24.5919 33.9571 24.5919C33.917 24.5919 33.9036 24.6393 33.9236 24.6935C33.9504 24.7476 33.9303 24.8356 33.8902 24.8898C33.8501 24.9372 33.8367 24.9913 33.8568 25.0184C33.8768 25.0387 33.8568 25.1268 33.81 25.2148C33.7631 25.296 33.7163 25.4314 33.703 25.4991C33.6896 25.5736 33.6495 25.6684 33.6093 25.7225C33.5692 25.7699 33.5558 25.8106 33.5759 25.8106C33.6027 25.8106 33.5826 25.8783 33.5358 25.9595C33.489 26.0475 33.4622 26.1355 33.4689 26.1626C33.4756 26.1965 33.4555 26.2168 33.4288 26.2168C33.402 26.2168 33.3753 26.2845 33.3686 26.359C33.3619 26.4402 33.3084 26.5553 33.2549 26.6162C33.2014 26.6772 33.1613 26.7381 33.168 26.7584C33.1814 26.8261 32.8537 27.4354 32.7333 27.5708C32.6665 27.6453 32.633 27.7062 32.6598 27.7062C32.6865 27.7062 32.6665 27.7469 32.6063 27.7943C32.506 27.8687 32.506 27.9026 32.5862 28.0448C32.633 28.1395 32.6731 28.1869 32.6798 28.1463C32.6798 28.1125 32.7734 28.1869 32.8871 28.3156C33.0008 28.4442 33.0677 28.5051 33.0476 28.451C33.0209 28.3968 33.1279 28.4848 33.2817 28.6541C33.4422 28.8234 33.5291 28.8978 33.4823 28.8234C33.4355 28.7489 33.509 28.803 33.6428 28.9384C33.7765 29.0806 33.937 29.1957 34.0039 29.1957C34.1176 29.1957 34.3717 29.0603 34.258 29.0603C34.2179 29.0603 34.258 28.9994 34.3382 28.9181C34.4185 28.8437 34.472 28.7557 34.4519 28.715C34.4252 28.6812 34.4586 28.6338 34.5121 28.6135C34.5723 28.5932 34.6057 28.5525 34.5857 28.5187C34.5723 28.4916 34.6124 28.4104 34.686 28.3359C34.7529 28.2546 34.793 28.1734 34.7729 28.1531C34.7462 28.1328 34.7662 28.1125 34.813 28.1125C34.8598 28.1125 34.8799 28.0854 34.8532 28.0515C34.8331 28.0177 34.8665 27.9364 34.9267 27.8823C34.9802 27.8213 35.007 27.774 34.9802 27.774C34.9535 27.774 34.9869 27.713 35.0538 27.6385C35.1206 27.5641 35.1541 27.5031 35.1273 27.5031C35.1006 27.5031 35.1273 27.4557 35.1808 27.3948C35.241 27.3407 35.2745 27.2594 35.2544 27.2256C35.2276 27.1917 35.241 27.1646 35.2678 27.1646C35.3012 27.1646 35.3346 27.0969 35.3346 27.0157C35.3413 26.9277 35.3814 26.8532 35.4216 26.8396C35.455 26.8261 35.4751 26.7855 35.4483 26.7516C35.4283 26.7178 35.4416 26.6907 35.4818 26.6907C35.5219 26.6907 35.5352 26.6433 35.5152 26.5891C35.4884 26.535 35.5085 26.4876 35.5553 26.4876C35.5954 26.4876 35.6088 26.4537 35.5887 26.4199C35.5687 26.3793 35.5821 26.3522 35.6222 26.3522C35.6623 26.3522 35.6824 26.3251 35.6623 26.298C35.6155 26.2235 35.8295 25.5397 35.903 25.5397C35.9298 25.5397 35.9365 25.4991 35.9164 25.445C35.8964 25.3908 35.9164 25.3299 35.9499 25.3028C35.99 25.2825 36.01 25.2283 35.99 25.1945C35.9632 25.1606 35.9833 25.1335 36.0234 25.1335C36.0702 25.1335 36.0836 25.0794 36.0568 25.0049C36.0368 24.9304 36.0502 24.8559 36.0836 24.8356C36.1237 24.8085 36.1371 24.7476 36.1103 24.6935C36.0903 24.6393 36.1103 24.5919 36.1572 24.5919C36.204 24.5919 36.2173 24.5377 36.1906 24.4633C36.1705 24.3888 36.1839 24.3143 36.224 24.2872C36.2642 24.2602 36.2775 24.1857 36.2575 24.1112C36.2307 24.0435 36.2374 23.9826 36.2708 23.9826C36.3177 23.9826 36.3444 23.7998 36.3578 23.3868C36.3578 23.3055 36.3845 23.2378 36.4113 23.2378C36.4915 23.2378 36.5383 21.9786 36.4581 21.8973C36.438 21.8702 35.9833 21.8431 35.4617 21.8296C34.7395 21.8093 34.4921 21.8228 34.4519 21.8838Z" fill="white"/>
<path fill-rule="evenodd" clip-rule="evenodd" d="M14.765 22.1951C14.765 22.2695 14.785 22.2898 14.8051 22.2357C14.8252 22.1883 14.8185 22.1274 14.7984 22.1071C14.7784 22.08 14.7583 22.1206 14.765 22.1951Z" fill="white"/>
<path fill-rule="evenodd" clip-rule="evenodd" d="M9.95725 26.7718C9.91044 26.8192 9.87701 26.826 9.87701 26.7921C9.87701 26.765 9.82351 26.7921 9.74995 26.853C9.68308 26.914 9.56271 26.9749 9.48246 26.9817C9.4089 26.9885 9.34203 27.0155 9.34203 27.0494C9.34203 27.0765 9.31528 27.0832 9.27516 27.0629C9.24173 27.0426 9.20829 27.0562 9.20829 27.0968C9.20829 27.1374 9.18154 27.1509 9.14142 27.1306C9.10798 27.1103 9.07455 27.1239 9.07455 27.1645C9.07455 27.2051 9.0478 27.2186 9.00767 27.1983C8.97424 27.178 8.9408 27.1848 8.9408 27.2119C8.9408 27.2457 8.82043 27.327 8.66663 27.3947C8.51951 27.4624 8.37908 27.5572 8.35902 27.6113C8.32558 27.6993 8.82712 28.681 8.94749 28.7555C8.98093 28.7826 8.9943 28.8232 8.97424 28.8571C8.95418 28.8909 9.00099 28.9518 9.07455 28.9925C9.1481 29.0331 9.19491 29.094 9.18154 29.1211C9.16148 29.1482 9.22166 29.2159 9.3086 29.2633C9.44234 29.3378 9.48915 29.3378 9.58946 29.2565C9.68308 29.1753 9.69645 29.1753 9.64296 29.2565C9.61621 29.3107 9.71651 29.2227 9.87701 29.0669C10.0308 28.918 10.1846 28.8029 10.2114 28.8232C10.2381 28.8435 10.2849 28.8097 10.305 28.7487C10.3317 28.6878 10.3652 28.654 10.3852 28.6743C10.4053 28.6878 10.4855 28.6404 10.5658 28.5592C10.646 28.4847 10.7865 28.3696 10.8734 28.3087L11.0339 28.2071L10.7798 27.8618C10.6393 27.6723 10.5257 27.4895 10.5257 27.4624C10.5257 27.4285 10.4789 27.3676 10.4187 27.3202C10.3585 27.2728 10.3451 27.2322 10.3785 27.2322C10.4187 27.2322 10.412 27.2119 10.3719 27.178C10.3317 27.1509 10.2381 27.0291 10.1646 26.914C10.0642 26.7447 10.0174 26.7109 9.95725 26.7718Z" fill="white"/>
<path fill-rule="evenodd" clip-rule="evenodd" d="M15.2001 27.3069C15.2335 27.3611 15.1734 27.3746 14.9995 27.3543C14.8657 27.3407 14.7587 27.3543 14.7587 27.3814C14.7587 27.4085 14.6986 27.4355 14.6317 27.4355C14.5581 27.4355 14.4779 27.4694 14.4578 27.5032C14.4311 27.5439 14.3843 27.5574 14.3508 27.5371C14.3174 27.51 14.2906 27.5235 14.2906 27.5506C14.2906 27.5845 14.1703 27.6996 14.0298 27.8147C13.8827 27.923 13.7824 28.0313 13.8025 28.0652C13.8159 28.0923 13.7824 28.1329 13.7289 28.1532C13.6687 28.1735 13.642 28.2209 13.6621 28.2547C13.6821 28.2886 13.6621 28.3157 13.6152 28.3157C13.5684 28.3157 13.5551 28.336 13.5751 28.3563C13.5952 28.3834 13.5818 28.4646 13.5484 28.5391C13.4481 28.7219 13.4681 29.5343 13.5684 29.5343C13.5952 29.5343 13.6152 29.5546 13.6086 29.5817C13.6019 29.6156 13.6286 29.7036 13.6754 29.7848C13.7222 29.8729 13.7356 29.9406 13.7089 29.9406C13.6821 29.9406 13.7289 29.9879 13.8092 30.0489C13.8894 30.103 13.9429 30.1775 13.9229 30.2114C13.9028 30.2384 13.9429 30.3062 14.0031 30.3535C14.0967 30.4348 14.1101 30.4348 14.0633 30.3468C14.0365 30.2926 14.09 30.3265 14.177 30.428C14.2706 30.5296 14.3642 30.5905 14.3843 30.5702C14.4043 30.5431 14.4244 30.5634 14.4244 30.6108C14.4244 30.6582 14.4511 30.6785 14.4846 30.6514C14.518 30.6311 14.5648 30.6447 14.5916 30.6853C14.6183 30.7259 14.6651 30.7395 14.6986 30.7191C14.732 30.6921 14.7587 30.6988 14.7587 30.7327C14.7587 30.7598 14.9393 30.7868 15.16 30.7868C15.3807 30.7868 15.5612 30.7598 15.5612 30.7259C15.5612 30.6988 15.6214 30.6853 15.695 30.7056C15.7685 30.7259 15.8287 30.7056 15.8287 30.665C15.8287 30.6244 15.8488 30.6108 15.8688 30.6379C15.8889 30.6582 15.9624 30.6244 16.036 30.5634C16.1096 30.5025 16.1898 30.4483 16.2166 30.4483C16.3035 30.4483 16.7515 29.9473 16.7983 29.8051C16.8251 29.7307 16.8652 29.6697 16.8986 29.6697C16.9321 29.6697 16.9455 29.6223 16.9254 29.5682C16.8986 29.514 16.912 29.426 16.9455 29.3786C16.9923 29.3109 17.0123 28.661 16.9655 28.6C16.9521 28.5933 16.9455 28.5662 16.9388 28.5323C16.9388 28.5052 16.8652 28.3834 16.7783 28.2615C16.6913 28.1464 16.6378 28.0449 16.6579 28.0449C16.678 28.0449 16.6111 27.9636 16.5108 27.8621C16.4105 27.7605 16.3035 27.6793 16.2767 27.6928C16.25 27.6996 16.2099 27.659 16.1898 27.6048C16.1697 27.5506 16.1229 27.5235 16.0895 27.5439C16.0561 27.5642 16.0293 27.5439 16.0293 27.5032C16.0293 27.4626 16.0026 27.4491 15.9624 27.4694C15.929 27.4897 15.8956 27.4829 15.8956 27.4491C15.8956 27.4085 15.8554 27.3814 15.8153 27.3881C15.5077 27.3949 15.2937 27.3611 15.3272 27.3001C15.3472 27.2595 15.3205 27.2324 15.2603 27.2324C15.2001 27.2324 15.1734 27.2663 15.2001 27.3069Z" fill="white"/>
<path fill-rule="evenodd" clip-rule="evenodd" d="M30.627 30.2451C29.878 30.9831 29.1892 31.5247 28.3801 32.0054C27.8317 32.3439 26.501 32.9735 26.2803 33.0074C26.2134 33.0142 26.1198 33.048 26.0797 33.0751C26.0329 33.1089 25.966 33.1157 25.9326 33.0954C25.8991 33.0683 25.859 33.0819 25.8456 33.1225C25.8256 33.1902 24.3611 33.5896 23.9532 33.637C23.8061 33.6506 23.5519 33.6912 23.3848 33.725C22.7762 33.8537 20.5093 33.8334 19.5463 33.698C18.8575 33.5964 17.4934 33.2782 17.4332 33.197C17.4131 33.1767 17.3396 33.1428 17.266 33.136C17.0788 33.1022 16.3097 32.7569 16.1693 32.6418C16.0088 32.5064 15.9152 32.4861 15.4605 32.4725C15.2398 32.4658 15.0325 32.459 14.9924 32.4455C14.9589 32.4387 14.8185 32.4184 14.6914 32.4116C14.5644 32.3981 14.3972 32.3778 14.3236 32.371C14.0963 32.3507 13.3807 31.9986 13.2136 31.8294C13.1266 31.7413 13.0263 31.6669 12.9862 31.6669C12.9528 31.6669 12.8859 31.5924 12.8391 31.4976C12.7923 31.4028 12.7522 31.3554 12.7522 31.3961C12.7522 31.4299 12.6987 31.3825 12.6385 31.2945C12.5716 31.1997 12.5382 31.1252 12.5515 31.1185C12.5716 31.1185 12.5315 31.0643 12.4646 30.9966C12.4044 30.9289 12.3643 30.8477 12.3844 30.8138C12.4111 30.78 12.3977 30.7529 12.3643 30.7529C12.3108 30.7529 12.2372 30.5565 12.1169 30.0962C12.0701 29.9134 11.9631 29.9201 11.8026 30.1097C11.7424 30.1842 11.6889 30.2248 11.6822 30.2045C11.6822 30.1842 11.5552 30.279 11.408 30.4211C11.2542 30.5633 11.1004 30.6649 11.0737 30.6446C11.0402 30.6242 11.0135 30.6378 11.0135 30.6649C11.0135 30.6987 10.8931 30.8138 10.746 30.9289C10.5989 31.0372 10.4785 31.1591 10.4785 31.1997C10.4785 31.2945 11.5685 32.3642 12.2239 32.8991C12.5047 33.1293 13.0263 33.5084 13.3941 33.7386C13.7552 33.9688 14.0762 34.1922 14.103 34.2328C14.1297 34.2734 14.1565 34.287 14.1565 34.2599C14.1565 34.2328 14.4574 34.3615 14.8252 34.551C15.4471 34.8625 17.159 35.4921 17.3997 35.4921C17.4532 35.4921 17.5 35.5124 17.5 35.5395C17.5 35.5733 17.6271 35.6004 17.7809 35.6072C17.9347 35.6207 18.0751 35.6478 18.0952 35.6749C18.1153 35.7088 18.2089 35.7291 18.3025 35.7358C18.5901 35.7426 19.7336 35.9119 19.8406 35.9593C20.0345 36.0473 23.2176 35.9796 23.7191 35.878C23.8127 35.8577 24.2006 35.79 24.5885 35.7223C24.9763 35.6614 25.4845 35.553 25.7186 35.4853C25.9526 35.4176 26.1666 35.377 26.2001 35.3905C26.2268 35.4109 26.2602 35.4041 26.2736 35.377C26.2937 35.3228 27.698 34.8083 27.8518 34.7948C27.8919 34.7948 27.932 34.7677 27.932 34.7338C27.932 34.7 27.9588 34.6864 27.9922 34.7067C28.0257 34.7338 28.0658 34.7203 28.0792 34.6864C28.0992 34.6323 29.2895 34.0026 29.3698 34.0026C29.3898 34.0026 29.4567 33.9552 29.5236 33.8943C29.5838 33.8401 29.8914 33.6167 30.2057 33.4136C30.8744 32.9735 31.2221 32.6892 32.0647 31.9174C32.934 31.1185 32.9207 31.1523 32.3924 30.6446C32.1516 30.4144 31.9711 30.2045 31.9845 30.1842C31.9978 30.1639 31.9912 30.1571 31.9644 30.1774C31.9377 30.1977 31.7772 30.0758 31.6033 29.8998L31.289 29.5884L30.627 30.2451Z" fill="white"/>
</g>
<defs>
<clipPath id="clip0_1159_3716">
<rect width="30" height="30" fill="white" transform="translate(6.5 6)"/>
</clipPath>
</defs>
</svg>
