<svg width="80" height="80" viewBox="0 0 80 80" fill="none" xmlns="http://www.w3.org/2000/svg">
<circle cx="40" cy="40" r="40" fill="white"/>
<g clip-path="url(#clip0_888_3383)">
<path fill-rule="evenodd" clip-rule="evenodd" d="M37.158 11.4557C35.362 11.6362 32.6107 12.2552 30.7256 12.9129C30.1906 13.0934 30.0887 13.1708 30.2797 13.2224C30.4326 13.274 30.3816 13.2869 30.1651 13.2611C29.6938 13.1966 29.4518 13.2869 29.4518 13.519C29.4518 13.6222 29.3881 13.6995 29.3117 13.6995C29.248 13.6995 29.2225 13.6351 29.2607 13.5706C29.299 13.4932 29.2735 13.4416 29.2098 13.4416C28.9805 13.4416 29.0442 13.7769 29.3117 14.009C29.4518 14.138 29.6811 14.4862 29.8339 14.7699C30.509 16.124 30.8275 16.5882 30.8784 16.3303C30.9209 16.1756 30.9761 16.1756 31.044 16.3303C31.1077 16.4851 31.0822 16.6011 30.9676 16.6914C30.6746 16.8977 31.4261 16.7301 33.0183 16.2271C35.3238 15.4921 37.1452 15.2342 39.8328 15.2213C41.6161 15.2213 42.5205 15.2857 43.9088 15.5179C44.8896 15.6726 45.8449 15.8145 46.036 15.8145C46.2143 15.8274 46.3417 15.8661 46.3162 15.9047C46.2398 16.0337 47.2461 16.2916 47.4881 16.1884C47.6409 16.1369 47.6791 16.1498 47.6154 16.2529C47.5263 16.4077 47.7428 16.4722 48.2141 16.4335C48.3415 16.4206 48.4052 16.4722 48.367 16.5366C48.3287 16.614 48.3415 16.6656 48.4179 16.6656C48.4816 16.6656 48.6472 16.7043 48.7746 16.743C48.9656 16.8074 48.9656 16.7946 48.8128 16.6785C48.5835 16.5108 48.7746 16.5108 49.1312 16.6656C49.3095 16.743 49.3223 16.7817 49.1949 16.7946C49.042 16.7946 49.0548 16.8332 49.2331 16.9364C49.3477 17.0009 49.5133 17.0267 49.577 16.988C49.6534 16.9493 49.7044 16.9751 49.7044 17.0525C49.7044 17.1427 49.7808 17.1814 49.8827 17.1427C49.9719 17.1041 50.1375 17.1814 50.2521 17.3233C50.4941 17.5941 50.7871 17.6586 50.6597 17.4007C50.6087 17.3233 50.6852 17.3749 50.8126 17.5167C51.0673 17.8262 51.7042 18.2002 51.5641 17.9681C51.5004 17.8778 51.5513 17.852 51.666 17.9036C51.7806 17.9423 51.8443 18.0326 51.8061 18.0841C51.7679 18.1357 51.8315 18.226 51.9462 18.2647C52.0736 18.3163 52.1118 18.2905 52.0608 18.1744C52.0099 18.097 52.0481 18.1099 52.15 18.226C52.2391 18.3421 52.392 18.4065 52.4812 18.3678C52.5703 18.3421 52.6213 18.3936 52.6085 18.4968C52.5831 18.5871 52.6467 18.6516 52.7359 18.6387C52.8123 18.6129 52.8888 18.6516 52.8888 18.7289C52.8888 18.7934 53.0161 18.9095 53.1562 18.9997C53.3728 19.1158 53.411 19.1029 53.3346 18.9611C53.2836 18.8708 53.3728 18.9353 53.5256 19.1158C53.6785 19.2964 53.7676 19.3479 53.7167 19.2448C53.6657 19.1416 53.7422 19.1932 53.8823 19.3608C54.0224 19.5414 54.2389 19.6961 54.3663 19.709C54.4937 19.7348 54.7612 19.9411 54.965 20.1733C55.1688 20.4054 55.2834 20.5086 55.2325 20.4054C55.1815 20.3022 55.4108 20.5215 55.742 20.8954C56.0731 21.2565 56.3916 21.5402 56.4552 21.5015C56.5954 21.4113 56.9775 21.8884 56.8756 22.0174C56.8119 22.069 56.8501 22.0819 56.9393 22.0303C57.0284 21.9787 57.0921 22.0045 57.0921 22.0948C57.0921 22.185 57.1303 22.2237 57.1685 22.1721C57.2068 22.1334 57.3978 22.2753 57.5761 22.4816C57.7799 22.7395 57.971 22.8556 58.1366 22.8169C58.2767 22.7782 58.3404 22.804 58.2894 22.8943C58.2512 22.9846 58.3659 22.8685 58.5442 22.6622C58.7225 22.4429 58.8754 22.3269 58.8754 22.4043C58.8754 22.4687 58.9391 22.43 59.0155 22.3011C59.0792 22.185 59.2193 22.0819 59.3084 22.0819C59.4103 22.0819 59.5759 21.9529 59.6906 21.7853C59.8052 21.6305 59.8689 21.5918 59.8307 21.695C59.7797 21.7981 59.8434 21.7724 59.9581 21.6305C60.0727 21.4886 60.2001 21.3726 60.2638 21.3726C60.3147 21.3726 60.5185 21.192 60.7223 20.9857C60.9134 20.7665 60.9898 20.7149 60.9006 20.8567C60.735 21.0889 60.735 21.1018 60.9516 20.9341C61.1554 20.7665 61.1554 20.7407 60.9643 20.4183C60.8369 20.2377 60.6331 20.0056 60.5058 19.9154C60.3784 19.8251 60.302 19.6832 60.3529 19.6187C60.3911 19.5543 60.3529 19.5156 60.251 19.5285C60.1619 19.5543 60.0982 19.4898 60.1236 19.3995C60.1364 19.3221 60.0727 19.2577 59.9963 19.2706C59.9071 19.2964 59.8434 19.2319 59.8689 19.1416C59.8816 19.0384 59.8434 18.9997 59.7925 19.0384C59.7288 19.0771 59.4868 18.8837 59.2448 18.6C59.0155 18.3292 58.7862 18.1228 58.7353 18.1615C58.6843 18.1873 58.5569 18.0583 58.4423 17.8907C58.3277 17.7102 58.1748 17.5941 58.1239 17.6328C58.0602 17.6586 57.9201 17.5425 57.7927 17.362C57.678 17.1814 57.5507 17.0654 57.5125 17.1041C57.4742 17.1427 57.3341 17.0396 57.194 16.8848C57.0539 16.7301 56.9775 16.6914 57.0284 16.7946C57.0794 16.8977 56.952 16.8074 56.7737 16.6011C56.5826 16.3819 56.468 16.3045 56.5189 16.4077C56.5699 16.5108 56.4807 16.4593 56.3279 16.2787C56.175 16.0982 56.0859 16.0466 56.1368 16.1498C56.1878 16.2529 56.1113 16.2013 55.9712 16.0337C55.8439 15.8661 55.6655 15.7629 55.5891 15.8145C55.5127 15.8532 55.4108 15.8274 55.3598 15.75C55.3089 15.6468 55.3216 15.6339 55.4108 15.6855C55.4999 15.7371 55.5636 15.75 55.5636 15.7113C55.5636 15.6726 55.398 15.5566 55.1815 15.4405C54.9777 15.3244 54.7994 15.2857 54.7994 15.3373C54.7994 15.3889 54.7102 15.3115 54.5956 15.1697C54.4937 15.0407 54.43 15.0149 54.4809 15.1181C54.5319 15.247 54.5064 15.2342 54.379 15.0923C54.2771 14.9633 54.1625 14.8989 54.1243 14.9504C54.0733 14.9891 54.0351 14.9504 54.0351 14.8602C54.0351 14.7699 53.9969 14.7183 53.9587 14.7699C53.9078 14.8086 53.7931 14.757 53.6912 14.6538C53.5893 14.5507 53.4619 14.4991 53.3983 14.5378C53.2581 14.628 52.6213 14.3314 52.6977 14.2154C52.7869 14.0735 52.392 13.9317 52.2264 14.0477C52.15 14.0864 52.1245 14.0606 52.1627 13.9962C52.2137 13.9188 52.1627 13.8156 52.0481 13.7769C51.7551 13.6609 51.7169 13.6738 51.8061 13.8543C51.857 13.9446 51.8061 13.9188 51.7042 13.8027C51.5004 13.5448 50.5196 13.0934 50.6597 13.2998C50.6979 13.39 50.6597 13.4029 50.5451 13.3643C50.4304 13.3256 50.3667 13.2353 50.4049 13.1837C50.4432 13.1321 50.3667 13.0548 50.2394 13.0161C50.1247 12.9774 49.8318 12.8871 49.6025 12.8097C49.3605 12.7324 49.2204 12.7324 49.2586 12.8097C49.3095 12.8742 49.2841 12.9258 49.2076 12.9258C49.1439 12.9258 49.0293 12.8484 48.9784 12.7453C48.9274 12.6421 48.5708 12.4744 48.1886 12.3584C47.4499 12.1391 47.0423 12.1005 47.4753 12.281C47.6791 12.3713 47.6537 12.3842 47.3225 12.3713C46.9021 12.3455 46.762 12.2165 47.0423 12.1263C47.1314 12.1005 46.5073 11.9328 45.6793 11.7781C44.3674 11.5072 43.7305 11.4686 40.9155 11.4428C39.1323 11.417 37.4382 11.4299 37.158 11.4557ZM44.5457 11.7652C44.5839 11.8296 44.3547 11.8554 43.9471 11.8039C43.0554 11.7007 43.0045 11.6362 43.8197 11.6362C44.1763 11.6362 44.4948 11.6878 44.5457 11.7652ZM45.3482 11.9844C45.2208 12.0102 45.017 12.0102 44.9024 11.9844C44.775 11.9457 44.8769 11.9199 45.1189 11.9199C45.3609 11.9199 45.4628 11.9457 45.3482 11.9844ZM48.367 12.6421C48.3287 12.6808 48.2268 12.6421 48.1377 12.5518C48.023 12.4229 48.0358 12.41 48.2141 12.4873C48.3415 12.526 48.4052 12.6034 48.367 12.6421ZM32.0375 12.7581C31.9484 12.7839 31.7955 12.7839 31.7191 12.7581C31.6299 12.7195 31.6936 12.6937 31.8719 12.6937C32.0503 12.6937 32.1139 12.7195 32.0375 12.7581ZM42.6351 14.9891C42.686 15.0665 42.495 15.1181 42.1638 15.1052C41.7053 15.0923 41.667 15.0794 41.9345 14.9891C42.3931 14.8473 42.5459 14.8473 42.6351 14.9891ZM43.5649 15.2084C43.4376 15.2342 43.2338 15.2342 43.1191 15.2084C42.9917 15.1697 43.0936 15.1439 43.3357 15.1439C43.5777 15.1439 43.6796 15.1697 43.5649 15.2084ZM44.1891 15.3244C44.1509 15.3631 44.0362 15.376 43.9471 15.3373C43.8452 15.2986 43.8834 15.2599 44.0235 15.2599C44.1636 15.247 44.24 15.2857 44.1891 15.3244ZM44.9024 15.4663C44.8132 15.4921 44.6603 15.4921 44.5839 15.4663C44.4948 15.4276 44.5584 15.4018 44.7368 15.4018C44.9151 15.4018 44.9788 15.4276 44.9024 15.4663ZM45.5392 15.5952C45.4501 15.621 45.2972 15.621 45.2208 15.5952C45.1316 15.5566 45.1953 15.5308 45.3736 15.5308C45.552 15.5308 45.6157 15.5566 45.5392 15.5952ZM56.2642 21.1791C56.3916 21.321 56.468 21.4371 56.4298 21.4371C56.3916 21.4371 56.2642 21.321 56.1368 21.1791C56.0094 21.0373 55.933 20.9212 55.9712 20.9212C56.0094 20.9212 56.1368 21.0373 56.2642 21.1791Z" fill="black"/>
<path fill-rule="evenodd" clip-rule="evenodd" d="M25.2489 15.2343C25.2489 15.402 24.2808 15.892 24.1534 15.7889C24.1025 15.7373 24.1025 15.776 24.1534 15.8533C24.2299 15.9952 24.1662 16.0468 23.8987 16.0081C23.8605 16.0081 23.7458 16.1113 23.6439 16.2402C23.5548 16.3692 23.4656 16.4208 23.4656 16.3563C23.4656 16.2789 23.3765 16.3434 23.2746 16.4852C23.1727 16.6142 23.0835 16.6787 23.0835 16.6142C23.0835 16.5626 22.9689 16.64 22.816 16.8076C22.6759 16.9753 22.5995 17.0269 22.6377 16.9237C22.6886 16.8205 22.5867 16.8979 22.3957 17.1171C22.2174 17.3235 22.0772 17.4524 22.0645 17.388C22.0645 17.3364 21.9499 17.4137 21.797 17.5814C21.6569 17.749 21.5805 17.8006 21.6314 17.6975C21.6824 17.5943 21.5041 17.7361 21.2493 18.0198C20.9818 18.3036 20.8162 18.4454 20.8672 18.3422C20.9181 18.2391 20.4086 18.7291 19.7335 19.4384C19.0585 20.1348 18.498 20.7538 18.498 20.7925C18.498 20.8311 18.1923 21.1922 17.8102 21.592C17.4408 22.0047 17.1606 22.3529 17.1733 22.3787C17.1988 22.4044 17.0332 22.6237 16.8167 22.8687C16.5874 23.1137 16.3963 23.3587 16.3963 23.4103C16.3963 23.4619 16.3072 23.5651 16.2053 23.6295C16.1034 23.694 16.0652 23.7585 16.1288 23.7585C16.2053 23.7585 16.1416 23.8488 16.0015 23.9648C15.8741 24.068 15.8486 24.1325 15.9505 24.0809C16.0524 24.0293 16.0142 24.1067 15.8614 24.2486C15.7085 24.3904 15.6193 24.5323 15.6576 24.5838C15.7085 24.6225 15.6703 24.6612 15.5811 24.6612C15.492 24.6612 15.4665 24.7257 15.5047 24.7902C15.5429 24.8676 15.492 24.9578 15.3901 24.9965C15.2754 25.0352 15.2117 25.1126 15.25 25.1771C15.2754 25.2286 15.199 25.3834 15.0589 25.5252C14.9315 25.68 14.8551 25.8347 14.8933 25.8734C14.9443 25.9121 14.906 25.9508 14.8296 25.9508C14.7405 25.9508 14.6895 25.9895 14.7022 26.0411C14.7405 26.1829 13.8998 27.9368 13.7597 28.027C13.6832 28.0657 13.645 28.1302 13.6705 28.156C13.7342 28.2592 13.3775 29.1748 13.2756 29.1748C13.212 29.1748 13.1865 29.2521 13.2247 29.3553C13.2629 29.4456 13.212 29.6132 13.1228 29.7035C13.0336 29.8067 12.9572 29.9356 12.9445 30.013C12.9317 30.3999 12.7279 31.1091 12.626 31.1091C12.5623 31.1091 12.5496 31.1994 12.5878 31.3026C12.6388 31.4058 12.6133 31.496 12.5623 31.496C12.4987 31.496 12.435 31.7153 12.4222 31.9732C12.4095 32.244 12.3458 32.4761 12.2694 32.5019C12.2057 32.5277 12.1802 32.6309 12.2184 32.734C12.2566 32.8372 12.2439 33.0177 12.193 33.1338C12.142 33.2628 12.0783 33.482 12.0656 33.6238C12.0146 34.1655 11.8363 35.1713 11.7854 35.2745C11.6962 35.4164 11.6198 36.6931 11.6325 37.6474C11.6325 38.0987 11.5816 38.4598 11.5306 38.4598C11.4797 38.4598 11.4287 38.9756 11.4287 39.6204C11.4287 40.2652 11.4669 40.781 11.5306 40.781C11.5816 40.781 11.6325 41.2582 11.6325 41.8385C11.658 43.7084 11.6835 44.134 11.7854 44.134C11.849 44.134 11.8745 44.2371 11.8618 44.3532C11.849 44.4822 11.8618 44.6756 11.9 44.7788C12.0656 45.243 12.2694 46.4681 12.193 46.5842C12.1547 46.6487 12.1675 46.7131 12.2184 46.7131C12.3585 46.7131 12.8044 48.4799 12.7025 48.6475C12.6642 48.712 12.677 48.7765 12.7407 48.7765C12.8044 48.7765 12.8935 48.8925 12.9317 49.0344C12.9954 49.2923 13.0082 49.2923 13.6196 48.9828C13.9507 48.8152 14.7914 48.4025 15.4665 48.0801L16.7148 47.474L16.6638 46.9969C16.6383 46.7389 16.5619 46.365 16.4855 46.1715C16.4091 45.991 16.3454 45.7202 16.3326 45.5912C16.3199 45.0238 16.269 44.7788 16.1798 44.7788C16.1288 44.7788 16.0779 44.5853 16.0779 44.3532C16.0524 43.4376 16.0142 43.1023 15.9378 43.1023C15.8614 43.1023 15.7849 41.3356 15.7849 39.8783C15.7849 38.4211 15.8614 37.0412 15.925 37.0412C15.976 37.0412 16.0269 36.8349 16.0397 36.5899C16.0779 35.4808 16.1034 35.2358 16.1925 35.2358C16.2435 35.2358 16.2817 35.1327 16.2944 35.0037C16.3072 34.8876 16.3199 34.591 16.3454 34.3589C16.3581 34.1397 16.4091 33.9462 16.4473 33.9462C16.4982 33.9462 16.5364 33.8431 16.5492 33.7141C16.6383 32.9017 16.8676 32.0119 17.0077 32.0119C17.0841 32.0119 17.0969 31.9732 17.0587 31.9216C17.0077 31.8829 17.0332 31.7668 17.1096 31.6637C17.186 31.5734 17.2115 31.496 17.1733 31.496C17.1224 31.496 17.1606 31.3671 17.2497 31.1994C17.3389 31.0447 17.4026 30.8512 17.4153 30.7868C17.4153 30.7094 17.53 30.4257 17.6446 30.142C17.772 29.8583 17.9376 29.4714 18.0267 29.265C18.1031 29.0716 18.2178 28.9169 18.256 28.9169C18.3069 28.9169 18.3834 28.775 18.4216 28.5945C18.4725 28.4139 18.5617 28.2721 18.6381 28.2721C18.7145 28.2721 18.7273 28.2076 18.6891 28.1431C18.6509 28.0657 18.6763 28.0141 18.7528 28.0141C18.8292 28.0141 18.8674 27.9626 18.8164 27.8852C18.7782 27.8207 18.8547 27.6531 19.0075 27.4983C19.1476 27.3565 19.224 27.2404 19.1731 27.2404C19.1094 27.2404 19.1858 27.1501 19.3132 27.047C19.4533 26.9438 19.517 26.8535 19.4533 26.8535C19.3896 26.8535 19.4533 26.7632 19.5934 26.6472C19.7208 26.544 19.7463 26.4795 19.6444 26.5311C19.5425 26.5827 19.5934 26.4924 19.7718 26.3377C19.9501 26.1829 20.001 26.0927 19.8991 26.1442C19.7972 26.1958 19.8354 26.1056 20.001 25.9637C20.1666 25.8218 20.2813 25.6671 20.2813 25.6284C20.2813 25.5897 20.4468 25.3447 20.6761 25.0739C20.8927 24.816 21.0328 24.6741 20.9818 24.7773C20.9054 24.8933 20.9309 24.932 21.0328 24.8676C21.1092 24.816 21.1474 24.7257 21.1092 24.6741C21.0837 24.6096 21.1984 24.4291 21.3894 24.2614C21.5677 24.0938 21.6824 24.0422 21.6314 24.1454C21.5805 24.2486 21.6442 24.197 21.797 24.0164C21.9371 23.8359 22.1282 23.694 22.2174 23.694C22.3065 23.6811 22.3702 23.6167 22.3447 23.5264C22.332 23.4361 22.3702 23.3716 22.4339 23.3716C22.4976 23.3716 22.523 23.2685 22.4848 23.1266C22.4466 22.9977 22.4848 22.8429 22.5613 22.8042C22.6377 22.7526 22.6632 22.5721 22.6249 22.3915C22.574 22.211 22.5995 22.082 22.6886 22.082C22.7651 22.082 22.7905 22.0047 22.7523 21.9015C22.7141 21.8112 22.7651 21.6436 22.8542 21.5533C22.9434 21.4501 23.0325 21.2825 23.058 21.1793C23.0835 21.0762 23.2491 20.844 23.4401 20.6764C23.6312 20.5088 23.6949 20.4185 23.593 20.4701C23.4911 20.5216 23.6567 20.3024 23.9751 19.9671C24.5483 19.361 24.7012 19.245 24.5356 19.5287C24.4846 19.6189 24.5993 19.5287 24.7776 19.3352C24.9686 19.1289 25.1852 19.0128 25.2743 19.0644C25.3508 19.116 25.3762 19.1031 25.338 19.0257C25.2489 18.8968 25.873 18.5357 25.9749 18.6517C26.0131 18.6904 26.1278 18.626 26.2297 18.5228C26.3443 18.4196 26.5099 18.3551 26.599 18.3938C26.7009 18.4325 26.7774 18.4067 26.7774 18.3293C26.7774 18.252 26.8793 18.2133 27.0066 18.2391C27.1213 18.2649 27.2869 18.2004 27.3633 18.0972C27.4779 17.9425 27.4397 17.8264 27.1468 17.5298C26.943 17.3235 26.8028 17.1171 26.8411 17.0527C26.8793 17.0011 26.8156 16.9108 26.7009 16.8721C26.599 16.8334 26.5354 16.7432 26.5736 16.6787C26.6118 16.6142 26.5608 16.5239 26.4462 16.4852C26.3443 16.4466 26.2806 16.3563 26.3188 16.2918C26.357 16.2273 26.3061 16.1371 26.1914 16.0984C26.0895 16.0597 26.0259 15.9694 26.0641 15.9049C26.1023 15.8404 26.0513 15.7502 25.9367 15.7115C25.8348 15.6728 25.7711 15.5954 25.7966 15.5438C25.873 15.4278 25.631 15.1957 25.4017 15.1441C25.3126 15.1312 25.2489 15.1699 25.2489 15.2343Z" fill="black"/>
<path fill-rule="evenodd" clip-rule="evenodd" d="M38.3051 19.0775C38.1013 19.1033 37.8338 19.1677 37.7319 19.2064C37.63 19.2451 37.439 19.2709 37.3116 19.258C37.1842 19.2322 36.4072 19.387 35.592 19.5804C34.4329 19.8641 34.1782 19.9544 34.4202 20.0318L34.7386 20.122L34.3947 20.1349C34.1909 20.1478 34.0381 20.2123 34.0381 20.2897C34.0381 20.3542 33.9744 20.38 33.8852 20.3284C33.8088 20.2768 33.8852 20.4315 34.0635 20.6766C34.2291 20.9216 34.5094 21.4374 34.6749 21.8243C34.8278 22.2112 35.0443 22.5851 35.1335 22.6367C35.2354 22.6883 35.3118 22.8946 35.2991 23.0881L35.2863 23.4363L35.1717 23.1139L35.0698 22.7915L35.0953 23.101C35.1335 23.5007 35.3882 23.5394 36.6492 23.3073C39.0821 22.8689 40.2412 22.8173 41.999 23.0494C42.9161 23.1784 43.8459 23.2815 44.0752 23.2815C44.3299 23.2815 44.4318 23.3202 44.3299 23.3976C44.2026 23.475 44.2153 23.5007 44.3809 23.5007C44.4955 23.5007 44.6993 23.5394 44.8267 23.5781C45.0178 23.6426 45.0178 23.6297 44.8649 23.5136C44.7248 23.4105 44.7248 23.3718 44.8394 23.3718C44.9286 23.3718 45.0305 23.4621 45.0815 23.5781C45.1197 23.6942 45.247 23.7587 45.3872 23.72C45.5273 23.6813 45.6037 23.7071 45.5527 23.7716C45.5145 23.836 45.5655 23.9005 45.6546 23.9005C45.7438 23.9134 45.9094 23.9392 46.0113 23.9521C46.1132 23.965 46.2788 23.9908 46.3679 24.0037C46.4571 24.0037 46.4953 24.0811 46.4444 24.1713C46.3807 24.2616 46.4189 24.2874 46.559 24.2358C46.6736 24.1971 46.7883 24.2358 46.8265 24.3519C46.8774 24.4808 46.9921 24.5195 47.1577 24.4679C47.3232 24.4164 47.4379 24.455 47.4888 24.584C47.5271 24.7001 47.6162 24.7516 47.6799 24.713C47.7436 24.6743 47.7945 24.713 47.7945 24.7903C47.7945 24.8677 47.8582 24.8935 47.9219 24.8548C47.9983 24.8161 48.0493 24.8419 48.0493 24.9193C48.0493 24.9967 48.1002 25.0354 48.1639 24.9838C48.2403 24.9451 48.3422 25.0225 48.4187 25.1385C48.4951 25.2675 48.5588 25.3191 48.5588 25.2546C48.5588 25.1772 48.6479 25.2417 48.7626 25.3835C48.8645 25.5125 48.9282 25.5383 48.8772 25.4351C48.8263 25.332 48.9154 25.3835 49.0683 25.5641C49.2211 25.7446 49.3103 25.7962 49.2593 25.693C49.2084 25.5899 49.2976 25.6415 49.4504 25.822C49.6033 26.0025 49.6924 26.0541 49.6415 25.951C49.5905 25.8478 49.7306 25.9639 49.9472 26.2089C50.1764 26.4539 50.3166 26.57 50.2783 26.4668C50.2274 26.3378 50.2529 26.3507 50.3802 26.4926C50.4821 26.6215 50.6095 26.6731 50.6605 26.6215C50.7242 26.57 50.7242 26.5958 50.6859 26.6731C50.635 26.7505 50.7242 26.931 50.8897 27.06C51.0681 27.2234 51.0978 27.2191 50.9789 27.0471C50.877 26.9053 50.9789 26.9568 51.2082 27.1632C51.4247 27.3695 51.5776 27.6016 51.5266 27.6661C51.4884 27.7435 51.5139 27.7564 51.5776 27.7177C51.654 27.6661 51.8068 27.7435 51.9342 27.8853C52.0616 28.0272 52.1125 28.1433 52.0489 28.1433C51.9852 28.1562 52.2781 28.4786 52.6985 28.8654C53.1188 29.2652 53.3736 29.5489 53.2717 29.4973C53.1698 29.4586 53.208 29.5231 53.3735 29.6392C53.5264 29.7552 53.6538 29.9229 53.6538 30.0132C53.6538 30.0905 53.7684 30.2711 53.9085 30.4C54.0486 30.529 54.1633 30.6966 54.1633 30.7869C54.1633 30.8772 54.2779 31.0448 54.418 31.1738C54.5581 31.3027 54.6346 31.4575 54.5963 31.5091C54.5581 31.5736 54.5836 31.6251 54.66 31.6251C54.7874 31.6251 55.0039 32.1152 54.953 32.2957C54.9403 32.3602 54.9912 32.3989 55.0676 32.3989C55.1313 32.3989 55.1695 32.4505 55.1313 32.515C55.0804 32.5794 55.1186 32.6568 55.1823 32.6826C55.2587 32.7084 55.3351 32.8116 55.3479 32.9147C55.3733 33.0179 55.4243 33.1855 55.4752 33.2629C55.5389 33.3532 55.5389 33.4821 55.5007 33.5595C55.4625 33.624 55.488 33.6885 55.5644 33.6885C55.6408 33.6885 55.6663 33.7401 55.6281 33.8174C55.5899 33.8819 55.6153 33.9464 55.6918 33.9464C55.7809 33.9464 55.8191 34.0367 55.7682 34.1398C55.73 34.243 55.7555 34.3333 55.8319 34.3333C55.9083 34.3333 55.9338 34.3849 55.8956 34.4493C55.8446 34.5138 55.8701 34.5912 55.9465 34.617C56.0102 34.6299 56.0866 34.8233 56.1248 35.0425C56.1503 35.2489 56.214 35.5326 56.265 35.6486C56.3159 35.7647 56.3159 35.9195 56.2777 35.9968C56.2267 36.0613 56.265 36.1645 56.3414 36.2032C56.4051 36.2548 56.4433 36.3708 56.4051 36.474C56.3669 36.5643 56.4051 36.6803 56.4688 36.7319C56.5452 36.7706 56.5834 36.9769 56.5324 37.1704C56.4942 37.3638 56.507 37.5701 56.5579 37.6217C56.6853 37.7378 56.7235 38.3052 56.7362 39.8398C56.749 41.5034 56.7108 42.0579 56.5834 42.1353C56.5197 42.174 56.507 42.4061 56.5452 42.6511C56.5961 42.9606 56.5707 43.1025 56.4688 43.1025C56.3669 43.1025 56.3414 43.2056 56.3923 43.3475C56.4305 43.4893 56.4051 43.6312 56.3414 43.6699C56.265 43.7215 56.2395 43.8375 56.2777 43.9407C56.3159 44.0439 56.3032 44.1986 56.2522 44.2889C56.1885 44.3791 56.1248 44.5984 56.0994 44.7789C56.0739 44.9466 56.0102 45.1658 55.9338 45.2432C55.8701 45.3205 55.8574 45.4237 55.9083 45.4624C55.9465 45.514 55.921 45.5527 55.8446 45.5527C55.7682 45.5527 55.73 45.63 55.7682 45.7332C55.8064 45.8364 55.7682 45.9524 55.7045 46.004C55.6281 46.0427 55.5899 46.1459 55.6281 46.2104C55.679 46.2748 55.6536 46.3264 55.5899 46.3264C55.5262 46.3264 55.4752 46.4038 55.4625 46.4812C55.437 46.7907 55.3606 47.0357 55.246 47.2291C55.1823 47.3323 55.1186 47.5128 55.0931 47.616C55.0804 47.7192 55.0039 47.8223 54.9275 47.8481C54.8638 47.8739 54.8256 47.9513 54.8766 48.0158C54.9148 48.0803 54.8766 48.1318 54.8001 48.1318C54.7237 48.1318 54.6982 48.1834 54.7365 48.2608C54.7747 48.3253 54.7492 48.3898 54.6728 48.3898C54.5963 48.3898 54.5581 48.4413 54.5963 48.4929C54.6346 48.5574 54.5454 48.725 54.418 48.8798C54.2779 49.0346 54.1633 49.2151 54.1633 49.2925C54.1633 49.3569 54.1123 49.4214 54.0359 49.4214C53.9722 49.4214 53.9085 49.5117 53.9085 49.6149C53.9085 49.718 53.8576 49.8083 53.7811 49.8083C53.7175 49.8083 53.6538 49.8986 53.6538 50.0017C53.6538 50.1178 53.5646 50.2339 53.4627 50.2726C53.3608 50.3241 53.2971 50.4015 53.3353 50.4531C53.3736 50.5047 53.2462 50.6465 53.0806 50.7626C52.9023 50.8787 52.7876 51.0334 52.8258 51.0979C52.8641 51.1624 52.7621 51.3042 52.6093 51.4203C52.4437 51.5234 52.3163 51.6911 52.3163 51.7814C52.3036 51.8587 52.2399 51.9232 52.1508 51.8974C52.0616 51.8845 52.0106 51.9361 52.0234 52.0135C52.0489 52.0909 51.947 52.2198 51.8068 52.2972C51.6667 52.3875 51.3356 52.6841 51.0553 52.9678C50.7878 53.2515 50.5076 53.4707 50.4567 53.4578C50.393 53.432 50.2911 53.5352 50.2147 53.6771C50.1382 53.8189 49.9981 53.935 49.909 53.935C49.8071 53.935 49.6924 54.0252 49.6542 54.1413C49.616 54.2445 49.5268 54.309 49.4631 54.2703C49.3995 54.2316 49.3103 54.2832 49.2721 54.3992C49.2211 54.5153 49.1574 54.5798 49.1192 54.5411C49.081 54.5024 48.9409 54.5798 48.8008 54.7216C48.6607 54.8635 48.4951 54.9409 48.4314 54.9022C48.355 54.8506 48.304 54.8893 48.304 54.9666C48.304 55.044 48.2531 55.0698 48.1767 55.0311C48.113 54.9924 48.0493 55.0182 48.0493 55.0956C48.0493 55.173 47.9983 55.1988 47.9219 55.1601C47.8582 55.1214 47.7945 55.1472 47.7945 55.2246C47.7945 55.3019 47.7436 55.3277 47.6672 55.289C47.6035 55.2504 47.5398 55.2761 47.5398 55.3406C47.5398 55.4825 46.7246 55.8694 46.3679 55.908C46.2406 55.9209 46.1387 55.9854 46.1387 56.0499C46.1387 56.1144 46.1005 56.1273 46.0495 56.0886C46.0113 56.037 45.8967 56.0628 45.8075 56.1273C45.6419 56.2691 45.2088 56.3981 44.8394 56.4239C44.7121 56.4368 44.6102 56.4884 44.6102 56.5528C44.6102 56.6044 44.5465 56.6173 44.4828 56.5786C44.4064 56.527 44.2663 56.5657 44.1644 56.6431C44.0625 56.7334 43.8841 56.7721 43.7822 56.7205C43.6803 56.6818 43.5912 56.7076 43.5912 56.7721C43.5912 56.8881 43.2982 56.9139 42.0372 56.9268C41.6933 56.9397 41.4258 56.9913 41.4258 57.0429C41.4258 57.1074 40.8271 57.146 40.0884 57.146C39.3496 57.146 38.7764 57.0945 38.8146 57.03C38.8528 56.9655 38.6108 56.9268 38.2796 56.9268C37.4644 56.9397 36.7129 56.8623 36.7129 56.785C36.7129 56.7205 36.4327 56.6689 35.7958 56.6431C35.6685 56.6302 35.5666 56.5657 35.5666 56.5013C35.5666 56.4239 35.5156 56.411 35.4392 56.4497C35.3755 56.4884 35.108 56.4755 34.866 56.3981C34.5985 56.3336 34.4457 56.3207 34.4839 56.3981C34.5348 56.4626 34.4966 56.5141 34.4202 56.5141C34.331 56.5141 34.3056 56.6173 34.3565 56.785C34.4202 56.9655 34.4075 57.03 34.3056 56.9784C34.2164 56.9139 34.1909 56.9655 34.2419 57.0816C34.2801 57.1976 34.2546 57.2879 34.1654 57.2879C34.089 57.2879 34.0635 57.3395 34.1018 57.4169C34.14 57.4813 34.1145 57.5458 34.0381 57.5458C33.9489 57.5458 33.9107 57.6361 33.9489 57.7393C33.9999 57.8424 33.9744 57.9585 33.898 57.9972C33.8343 58.0488 33.8088 58.139 33.847 58.2035C33.898 58.268 33.8597 58.3196 33.7833 58.3196C33.7069 58.3196 33.6687 58.3712 33.7196 58.4356C33.7578 58.5001 33.7324 58.5904 33.6559 58.642C33.5795 58.6935 33.554 58.7709 33.5923 58.8354C33.6305 58.8999 33.554 59.0675 33.4012 59.2223C33.0955 59.5318 33.0828 59.6092 33.3375 59.6092C33.4394 59.6092 33.5286 59.6607 33.5286 59.7381C33.5286 59.8026 33.605 59.8284 33.7069 59.7897C33.8088 59.751 33.9234 59.7768 33.9616 59.8542C34.0126 59.9316 34.1272 59.9573 34.2291 59.9058C34.331 59.8671 34.4202 59.8929 34.4202 59.9573C34.4202 60.0605 34.624 60.1121 35.2227 60.1379C35.3373 60.1379 35.4392 60.1895 35.4392 60.2539C35.4392 60.3184 35.5284 60.3442 35.6303 60.3055C35.7322 60.2539 35.9232 60.2668 36.0378 60.3184C36.1652 60.3829 36.369 60.4087 36.4964 60.3958C36.611 60.3829 36.7129 60.4216 36.7129 60.4861C36.7129 60.5506 36.8785 60.5763 37.0823 60.5377C37.2861 60.5119 37.4899 60.5506 37.5281 60.6279C37.5791 60.7053 37.8338 60.7311 38.1777 60.6795C38.4962 60.6408 38.7509 60.6537 38.7509 60.7182C38.7509 60.7827 39.4133 60.8343 40.2157 60.8343C41.0182 60.8343 41.6805 60.7956 41.6805 60.7311C41.6805 60.6795 42.0117 60.6408 42.4193 60.6408C43.6294 60.6279 43.8459 60.615 43.8459 60.4732C43.8459 60.4087 43.986 60.3958 44.1516 60.4345C44.3299 60.4732 44.5083 60.4474 44.5592 60.37C44.5974 60.2926 44.7503 60.2539 44.8777 60.2926C45.0178 60.3313 45.1197 60.3055 45.1197 60.2282C45.1197 60.1508 45.2343 60.125 45.3744 60.1637C45.5145 60.2024 45.6292 60.1766 45.6292 60.0992C45.6292 60.0218 45.7438 59.996 45.8839 60.0347C46.024 60.0734 46.1387 60.0476 46.1387 59.9702C46.1387 59.8929 46.2278 59.8671 46.3297 59.9058C46.4316 59.9573 46.5463 59.9316 46.5972 59.8542C46.6354 59.7768 46.7501 59.751 46.8392 59.7897C46.9411 59.8284 47.0303 59.8026 47.0558 59.7381C47.0812 59.6736 47.2341 59.5963 47.4124 59.5834C47.5907 59.5576 47.7691 59.4931 47.8073 59.4415C47.8455 59.377 47.9601 59.3254 48.062 59.3125C48.1639 59.2868 48.3168 59.2352 48.4059 59.1836C48.4824 59.1191 48.5588 59.1191 48.5588 59.1578C48.5588 59.2094 48.6479 59.1449 48.7626 59.0417C48.8645 58.9257 49.0173 58.8612 49.081 58.8999C49.1447 58.9515 49.1957 58.9128 49.1957 58.8354C49.1957 58.758 49.2593 58.7322 49.323 58.7709C49.3995 58.8096 49.4504 58.7838 49.4504 58.7064C49.4504 58.6291 49.5141 58.6033 49.5778 58.642C49.6542 58.6807 49.7052 58.6549 49.7052 58.5775C49.7052 58.5001 49.7688 58.4743 49.8325 58.513C49.909 58.5517 49.9599 58.5259 49.9599 58.4485C49.9599 58.3712 50.0236 58.3454 50.0873 58.384C50.1637 58.4227 50.2147 58.3969 50.2147 58.3196C50.2147 58.2422 50.2783 58.2164 50.342 58.2551C50.4185 58.2938 50.4694 58.268 50.4694 58.1906C50.4694 58.1132 50.5331 58.0874 50.5968 58.1261C50.6732 58.1648 50.7242 58.139 50.7242 58.0745C50.7242 57.9972 50.7751 57.9327 50.8515 57.9327C50.9152 57.9327 51.0808 57.8424 51.1954 57.7393C51.3228 57.6361 51.4757 57.5329 51.5521 57.5071C51.6158 57.4942 51.8068 57.3524 51.9852 57.1847C52.1508 57.03 52.3418 56.901 52.4182 56.901C52.4819 56.901 52.6475 56.7592 52.7876 56.5786C52.915 56.411 53.0806 56.2691 53.1315 56.2949C53.1825 56.3078 53.3863 56.1273 53.5773 55.8951C53.7684 55.6759 53.9722 55.5083 54.0232 55.5341C54.1378 55.6114 55.437 54.2832 55.437 54.0897C55.437 54.0124 55.6281 53.7931 55.8574 53.6126C56.0739 53.4191 56.1758 53.3031 56.0739 53.3547C55.972 53.3933 56.0866 53.2515 56.3286 53.0194C56.5707 52.8001 56.6853 52.6583 56.5834 52.697C56.4815 52.7486 56.5452 52.6454 56.7362 52.4777C56.9273 52.2972 57.0419 52.1167 57.0037 52.078C56.9655 52.0393 57.0292 51.9748 57.1438 51.9232C57.2585 51.8845 57.3094 51.7943 57.2712 51.7298C57.233 51.6653 57.2967 51.575 57.3986 51.5364C57.5132 51.4977 57.5642 51.4074 57.526 51.3429C57.4878 51.2784 57.5514 51.1882 57.6533 51.1495C57.768 51.1108 57.8189 51.0205 57.7807 50.956C57.7425 50.8916 57.7807 50.84 57.8571 50.84C57.9336 50.84 57.9718 50.7884 57.9208 50.711C57.8826 50.6465 57.9463 50.4789 58.0737 50.3499C58.2011 50.221 58.3157 50.0275 58.3412 49.9244C58.3666 49.8212 58.4431 49.718 58.5068 49.7051C58.5704 49.6793 58.5959 49.6149 58.5577 49.5504C58.5195 49.4859 58.5832 49.344 58.6978 49.2409C58.7997 49.1248 58.8507 49.0345 58.7997 49.0345C58.7615 49.0345 58.787 48.9572 58.8634 48.8669C58.9398 48.7637 58.9653 48.6477 58.9143 48.609C58.8761 48.5574 58.8889 48.5187 58.9526 48.5187C59.0163 48.5187 59.0799 48.3898 59.0927 48.235C59.1054 48.0932 59.1691 47.9255 59.2201 47.8868C59.271 47.8481 59.3474 47.6934 59.3602 47.5515C59.3856 47.4097 59.4621 47.2807 59.513 47.2549C59.5767 47.2291 59.6022 47.1389 59.564 47.0357C59.5257 46.9454 59.564 46.8294 59.6276 46.7778C59.7041 46.7391 59.7423 46.6359 59.7041 46.5714C59.6531 46.507 59.6786 46.4554 59.755 46.4554C59.8314 46.4554 59.8569 46.378 59.8187 46.2748C59.7805 46.1717 59.806 46.0556 59.8824 46.0169C59.9588 45.9653 59.9843 45.8493 59.9333 45.7461C59.8951 45.6429 59.9206 45.5527 59.9843 45.5527C60.0862 45.5527 60.1499 45.2819 60.1499 44.6757C60.1499 44.5081 60.2008 44.4049 60.2645 44.4436C60.3664 44.5081 60.3919 44.2115 60.3919 43.1927C60.3919 42.9219 60.4429 42.7285 60.4938 42.7543C60.5447 42.793 60.6212 42.4577 60.6466 42.0192C60.774 40.3298 60.6849 36.7835 60.5193 36.7835C60.4683 36.7835 60.4301 36.6545 60.4174 36.4869C60.3664 35.6229 60.3282 35.3649 60.2518 35.3649C60.2008 35.3649 60.1626 35.2618 60.1626 35.1328C60.1371 34.5525 60.0862 34.3333 59.9843 34.3333C59.9333 34.3333 59.8951 34.2559 59.9206 34.1656C59.9333 34.0882 59.8697 33.869 59.7805 33.7014C59.6404 33.4564 59.6404 33.4177 59.7932 33.5079C59.8951 33.5724 59.8697 33.4821 59.7296 33.2629C59.6022 33.0695 59.5385 32.8502 59.5767 32.7858C59.6149 32.7084 59.5894 32.6568 59.5258 32.6568C59.4493 32.6568 59.3984 32.6181 59.4111 32.5536C59.4111 32.5021 59.3347 32.2441 59.2073 31.9733C59.0927 31.7025 59.029 31.4188 59.0799 31.3414C59.1309 31.2641 59.1181 31.2383 59.0417 31.277C58.8889 31.3672 58.7106 31.019 58.8125 30.8514C58.8507 30.7998 58.787 30.7095 58.6723 30.6708C58.5704 30.6322 58.5195 30.5419 58.5577 30.4645C58.5959 30.4 58.5704 30.3356 58.4813 30.3356C58.3921 30.3356 58.3539 30.2969 58.4049 30.2582C58.4431 30.2195 58.3794 30.0776 58.2647 29.9358C58.1501 29.7939 58.0737 29.665 58.1119 29.6392C58.1501 29.6134 58.0609 29.4715 57.9336 29.3168C57.7935 29.162 57.7298 29.046 57.768 29.046C57.8062 29.046 57.7043 28.8912 57.5387 28.7107C57.3604 28.5172 57.2585 28.3238 57.284 28.2722C57.3222 28.2206 57.2585 28.1304 57.1438 28.0917C57.0292 28.0401 56.9655 27.9756 57.0037 27.9369C57.0419 27.8982 56.9273 27.7177 56.7362 27.5372C56.5452 27.3566 56.507 27.2921 56.6471 27.3824C56.7872 27.4856 56.5961 27.2534 56.2267 26.8795C55.8574 26.5055 55.5899 26.1444 55.6153 26.0928C55.6536 26.0412 55.2969 25.6286 54.8256 25.1643C54.3671 24.713 54.0614 24.455 54.1633 24.6098C54.2652 24.7516 54.0486 24.5582 53.6665 24.1584C53.2971 23.7587 53.0296 23.5265 53.0806 23.6297C53.1315 23.7458 53.0933 23.7458 52.9787 23.591C52.8768 23.475 52.7367 23.3718 52.6603 23.3718C52.5838 23.3718 52.4819 23.3073 52.431 23.217C52.3673 23.1268 52.3928 23.1139 52.5074 23.1784C52.622 23.2428 52.6475 23.2299 52.5838 23.1268C52.5329 23.0494 52.431 23.0107 52.3673 23.0494C52.3036 23.101 52.1125 22.972 51.9342 22.7786C51.7559 22.5851 51.6158 22.482 51.6158 22.5336C51.6158 22.598 51.5266 22.5336 51.412 22.3917C51.3101 22.2627 51.2464 22.237 51.2973 22.3401C51.3483 22.4433 51.2719 22.4046 51.1445 22.2499C51.0171 22.0951 50.8261 21.9532 50.7242 21.9275C50.6223 21.9017 50.4567 21.7985 50.3675 21.6953C50.2147 21.5277 50.2019 21.5277 50.2783 21.6953C50.3293 21.8243 50.3038 21.8114 50.1764 21.6695C50.0745 21.5406 49.9599 21.4761 49.9217 21.5277C49.8707 21.5664 49.8325 21.5406 49.8325 21.4632C49.8325 21.3858 49.7434 21.3471 49.616 21.3987C49.4886 21.4503 49.4377 21.4245 49.4886 21.3471C49.5905 21.1924 48.7498 20.7797 48.5078 20.87C48.4059 20.9087 48.2913 20.87 48.2276 20.7797C48.1639 20.6766 48.1894 20.6508 48.304 20.7281C48.4187 20.8055 48.4441 20.7797 48.3677 20.6766C48.3168 20.5863 48.1639 20.5347 48.0365 20.5734C47.8964 20.6121 47.7945 20.5863 47.7945 20.5089C47.7945 20.4315 47.7054 20.4186 47.5907 20.4573C47.4761 20.5089 47.4252 20.4831 47.4888 20.3928C47.5398 20.2897 47.4761 20.2768 47.285 20.3413C47.1067 20.3928 47.0303 20.38 47.0812 20.3026C47.1831 20.1349 46.8392 20.006 46.559 20.1091C46.4316 20.1607 46.3807 20.1349 46.4316 20.0576C46.5335 19.8899 45.4508 19.5675 45.2343 19.6965C45.1324 19.7738 45.1069 19.7481 45.1834 19.632C45.2598 19.503 45.1961 19.4772 44.9541 19.5288C44.763 19.5675 44.5974 19.5288 44.572 19.4514C44.5465 19.3612 44.1261 19.3225 43.4511 19.3225C42.8142 19.3225 42.5594 19.2967 42.8269 19.2451C43.2218 19.1806 43.1836 19.1677 42.4575 19.0775C41.6296 18.9872 39.0057 18.9872 38.3051 19.0775ZM41.0182 19.2064C40.7507 19.2322 40.2922 19.2322 39.9992 19.2064C39.6935 19.1806 39.91 19.1548 40.4705 19.1548C41.0309 19.1548 41.273 19.1806 41.0182 19.2064ZM36.6747 19.5804C36.6365 19.6191 36.5219 19.632 36.4327 19.5933C36.3308 19.5546 36.369 19.5159 36.5091 19.5159C36.6492 19.503 36.7257 19.5417 36.6747 19.5804ZM39.0439 22.8173C38.9547 22.8431 38.8019 22.8431 38.7255 22.8173C38.6363 22.7786 38.7 22.7528 38.8783 22.7528C39.0566 22.7528 39.1203 22.7786 39.0439 22.8173ZM41.8461 22.8173C41.757 22.8431 41.5787 22.8431 41.464 22.8173C41.3366 22.7786 41.4131 22.7528 41.6169 22.7528C41.8334 22.7528 41.9226 22.7786 41.8461 22.8173ZM42.9925 22.9462C42.9033 22.972 42.7505 22.972 42.6741 22.9462C42.5849 22.9075 42.6486 22.8817 42.8269 22.8817C43.0052 22.8817 43.0689 22.9075 42.9925 22.9462ZM43.553 23.0623C43.5147 23.101 43.4001 23.1139 43.3109 23.0752C43.209 23.0365 43.2473 22.9978 43.3874 22.9978C43.5275 22.9849 43.6039 23.0236 43.553 23.0623ZM55.3096 25.7575C55.4752 25.9381 55.5771 26.0799 55.5389 26.0799C55.5134 26.0799 55.3479 25.9381 55.1823 25.7575C55.0167 25.577 54.9148 25.4351 54.953 25.4351C54.9785 25.4351 55.1441 25.577 55.3096 25.7575ZM52.4437 28.4012C52.5711 28.543 52.6475 28.6591 52.6093 28.6591C52.5711 28.6591 52.4437 28.543 52.3163 28.4012C52.189 28.2593 52.1125 28.1433 52.1508 28.1433C52.189 28.1433 52.3163 28.2593 52.4437 28.4012Z" fill="black"/>
<path fill-rule="evenodd" clip-rule="evenodd" d="M27.5675 20.8565C26.9052 21.1531 26.3829 21.5658 26.4721 21.7205C26.523 21.7979 26.4976 21.8237 26.4339 21.785C26.2555 21.6689 25.8479 22.3008 25.9626 22.4943C26.0135 22.5846 26.0008 22.5974 25.9116 22.5459C25.7715 22.4685 25.7333 22.5459 25.7715 22.8038C25.7715 22.8554 25.7078 22.9327 25.6059 22.9972C25.4913 23.0746 25.4403 23.397 25.4531 24.1063C25.4531 25.1637 25.6824 25.8085 26.1027 26.0664C26.2301 26.1438 26.281 26.2083 26.2301 26.2083C26.1664 26.2083 26.2046 26.2986 26.3192 26.4017C26.4211 26.5049 26.5867 26.5694 26.6886 26.5307C26.7778 26.492 26.9434 26.5565 27.0453 26.6854C27.2109 26.8918 27.1981 26.9047 26.9943 26.737C26.8797 26.6339 26.7396 26.5952 26.7014 26.6339C26.6122 26.7241 26.9816 26.9176 27.7331 27.1884C28.3572 27.3947 29.5291 27.3431 29.389 27.111C29.3507 27.0594 29.4272 27.0336 29.5545 27.0723C29.6947 27.0981 29.8857 27.0465 29.9876 26.9305C30.1023 26.8273 30.2042 26.7628 30.2296 26.7886C30.2678 26.8144 30.4207 26.7241 30.599 26.5694C30.7773 26.4275 30.8283 26.363 30.7264 26.4146C30.6245 26.4662 30.5735 26.4662 30.6245 26.4017C30.6754 26.3501 30.8538 26.2341 31.0066 26.1567C31.376 25.9762 31.8728 25.0348 31.6562 24.9574C31.5671 24.9316 31.5416 24.8155 31.5798 24.7124C31.6435 24.5447 31.669 24.5447 31.7581 24.6866C31.8218 24.7897 31.8728 24.5834 31.8728 24.145C31.8728 23.6162 31.8346 23.4873 31.7327 23.6291C31.6308 23.7839 31.618 23.7581 31.6817 23.5388C31.86 22.8941 30.9429 21.4884 30.0513 21.0242C29.3635 20.676 28.128 20.5857 27.5675 20.8565ZM29.6182 21.0113C29.5291 21.037 29.3762 21.037 29.2998 21.0113C29.2106 20.9726 29.2743 20.9468 29.4526 20.9468C29.631 20.9468 29.6947 20.9726 29.6182 21.0113Z" fill="black"/>
<path fill-rule="evenodd" clip-rule="evenodd" d="M63.4484 23.8355C63.3719 23.9387 63.2573 23.9903 63.2064 23.9516C63.1427 23.9129 63.0153 24.0032 62.9134 24.145C62.8242 24.2869 62.7096 24.3642 62.6586 24.3256C62.6204 24.2869 62.5313 24.3771 62.4421 24.519C62.3657 24.6737 62.251 24.764 62.1874 24.7253C62.1237 24.6866 62.009 24.7769 61.9326 24.9188C61.8562 25.0606 61.7415 25.1509 61.6779 25.1122C61.6142 25.0735 61.525 25.1251 61.4613 25.2283C61.4104 25.3314 61.3085 25.4346 61.232 25.4604C61.041 25.5249 60.5315 26.0794 60.6589 26.0794C60.7353 26.0794 60.7735 26.131 60.7608 26.1955C60.7353 26.2599 60.8372 26.4147 60.9773 26.5307C61.1174 26.6468 61.1429 26.7113 61.041 26.6597C60.9391 26.6081 60.9646 26.6726 61.0919 26.7758C61.232 26.8918 61.2957 26.9821 61.232 26.9821C61.1684 26.9821 61.232 27.0724 61.3722 27.1755C61.4995 27.2787 61.5632 27.369 61.4995 27.369C61.4231 27.369 61.4868 27.4592 61.6269 27.5624C61.7543 27.6656 61.818 27.7559 61.767 27.7559C61.7033 27.7559 61.7543 27.8461 61.8562 27.9622C61.9708 28.0654 62.0345 28.2201 61.9963 28.2846C61.9453 28.3491 61.9836 28.4006 62.06 28.4006C62.1364 28.4006 62.1619 28.4522 62.1237 28.5296C62.0855 28.5941 62.1109 28.6586 62.2001 28.6586C62.2893 28.6586 62.3275 28.6972 62.2765 28.7359C62.2383 28.7875 62.2893 28.9036 62.3912 29.0067C62.4931 29.1099 62.544 29.2518 62.5058 29.3163C62.4548 29.3807 62.4931 29.4323 62.5695 29.4323C62.6459 29.4323 62.6714 29.4839 62.6332 29.5613C62.595 29.6258 62.6204 29.6902 62.6969 29.6902C62.7733 29.6902 62.8115 29.7418 62.7605 29.8063C62.7223 29.8708 62.7478 29.961 62.8242 30.0126C62.9007 30.0642 62.9261 30.1545 62.8879 30.219C62.837 30.2834 62.8752 30.335 62.9516 30.335C63.028 30.335 63.0662 30.3866 63.0153 30.4511C62.9771 30.5156 63.0026 30.6058 63.079 30.6574C63.1554 30.709 63.1809 30.7993 63.1427 30.8638C63.0917 30.9282 63.1172 30.9798 63.1936 30.9798C63.27 30.9798 63.2955 31.0701 63.2573 31.1733C63.2064 31.2764 63.2446 31.3667 63.3337 31.3667C63.4229 31.3667 63.4611 31.457 63.4102 31.5601C63.3719 31.6633 63.3974 31.7536 63.4611 31.7536C63.5248 31.7536 63.5503 31.8438 63.5121 31.947C63.4611 32.0502 63.4993 32.1404 63.5885 32.1404C63.6776 32.1404 63.7031 32.2436 63.6522 32.3984C63.6012 32.5402 63.6267 32.6563 63.7031 32.6563C63.7795 32.6563 63.805 32.7337 63.7668 32.8368C63.7286 32.94 63.7668 33.0561 63.8432 33.1076C63.9197 33.1592 63.9451 33.3011 63.9069 33.4429C63.856 33.5848 63.8814 33.6879 63.9706 33.6879C64.0725 33.6879 64.098 33.804 64.047 33.9974C64.0088 34.178 64.0343 34.3585 64.1107 34.3972C64.1871 34.4488 64.2126 34.6293 64.1744 34.797C64.1235 34.9646 64.1489 35.1065 64.2126 35.1065C64.2763 35.1065 64.34 35.2999 64.34 35.5192C64.3782 36.654 64.4037 36.899 64.5183 36.8216C64.582 36.783 64.5947 36.9119 64.5438 37.144C64.4292 37.6857 64.6712 37.9565 65.117 37.7888C65.2953 37.7244 66.1232 37.6857 66.9639 37.6986L68.4924 37.7244V36.8732C68.4924 36.3961 68.4542 36.0092 68.4032 36.0092C68.3523 36.0092 68.3141 35.7642 68.3013 35.4547C68.2886 34.3843 68.2631 34.2038 68.174 34.2038C68.1103 34.2038 68.0721 34.0748 68.0593 33.9072C68.0211 33.2108 67.9829 32.9142 67.8937 32.9142C67.8046 32.9142 67.7918 32.7852 67.7791 32.1018C67.7664 31.9083 67.7154 31.7536 67.639 31.7536C67.5753 31.7536 67.5498 31.702 67.6008 31.6375C67.639 31.573 67.6135 31.4828 67.5498 31.4312C67.4734 31.3925 67.4479 31.2764 67.4989 31.1733C67.5371 31.0701 67.4989 30.9798 67.4097 30.9798C67.3206 30.9798 67.2823 30.8895 67.3333 30.7864C67.3715 30.6832 67.346 30.5929 67.2696 30.5929C67.1932 30.5929 67.155 30.5027 67.1932 30.3995C67.2441 30.2963 67.2187 30.1803 67.1422 30.1416C67.0785 30.09 67.0531 29.9997 67.0913 29.9353C67.1422 29.8708 67.104 29.8192 67.0276 29.8192C66.9384 29.8192 66.9002 29.7289 66.9512 29.6258C66.9894 29.5226 66.9639 29.4323 66.8875 29.4323C66.8111 29.4323 66.7983 29.3678 66.8365 29.3034C66.8747 29.226 66.8493 29.1744 66.7728 29.1744C66.6837 29.1744 66.6455 29.0841 66.6964 28.981C66.7346 28.8778 66.7092 28.7875 66.6327 28.7875C66.5563 28.7875 66.5436 28.723 66.5818 28.6586C66.62 28.5812 66.5945 28.5296 66.5181 28.5296C66.4289 28.5296 66.3907 28.4393 66.4417 28.3362C66.4799 28.233 66.4544 28.1427 66.378 28.1427C66.3016 28.1427 66.2888 28.0782 66.327 28.0138C66.3652 27.9364 66.3398 27.8848 66.2633 27.8848C66.1869 27.8848 66.1487 27.8332 66.1997 27.7687C66.2379 27.7043 66.1742 27.5495 66.0595 27.4464C65.9576 27.3303 65.9067 27.24 65.9576 27.24C66.0086 27.24 65.9449 27.1111 65.8048 26.9563C65.6392 26.7758 65.6265 26.7113 65.7538 26.7758C65.8557 26.8273 65.8048 26.75 65.6265 26.5952C65.4481 26.4405 65.3972 26.3502 65.4991 26.4018C65.601 26.4534 65.5755 26.376 65.4227 26.247C65.1679 26.0278 65.0278 25.7828 65.0151 25.5249C65.0151 25.4604 64.9004 25.3314 64.7731 25.2154C64.6329 25.0993 64.6202 25.0606 64.7349 25.1122C64.8368 25.1638 64.8113 25.0993 64.6712 24.9832C64.5311 24.8672 64.4292 24.7124 64.4546 24.6479C64.4674 24.5835 64.4164 24.5319 64.34 24.5319C64.2763 24.5319 64.2254 24.4932 64.2508 24.4287C64.2763 24.3771 64.1489 24.1837 63.9451 24.0032C63.6522 23.7066 63.5757 23.6808 63.4484 23.8355Z" fill="black"/>
<path fill-rule="evenodd" clip-rule="evenodd" d="M38.3687 26.6988C38.3687 26.7504 38.1395 26.802 37.8592 26.802C37.579 26.8149 37.2606 26.9181 37.1587 27.0341C37.044 27.1502 36.853 27.2405 36.7383 27.2405C36.5473 27.2405 36.5473 27.2147 36.7129 27.0986C36.853 26.9954 36.8275 26.9826 36.5855 27.0599C36.4199 27.1115 36.2034 27.2276 36.1015 27.3178C35.8977 27.5242 35.7703 27.55 35.8849 27.3694C36.0378 27.1244 35.7066 27.2405 35.4264 27.5242C35.2735 27.6918 35.1971 27.7434 35.248 27.6402C35.3245 27.4984 35.299 27.4726 35.1334 27.5371C35.006 27.5887 34.8787 27.6273 34.8532 27.6273C34.815 27.6273 34.8277 27.6789 34.8659 27.7563C34.9169 27.8337 34.8532 27.8466 34.7258 27.795C34.5602 27.7305 34.5347 27.7563 34.6112 27.8853C34.6876 28.0013 34.6621 28.0271 34.5602 27.9626C34.4711 27.8982 34.3182 27.9626 34.2163 28.0916C34.1017 28.2335 34.0635 28.2592 34.1017 28.169C34.1654 28.04 34.0889 28.0529 33.796 28.2077C33.5667 28.3237 33.4139 28.4527 33.4521 28.5043C33.4775 28.5558 33.2992 28.7364 33.0445 28.8911L32.5732 29.1877L32.9553 28.8525C33.2992 28.543 33.2992 28.5301 33.019 28.6719C32.5604 28.904 31.5542 29.6907 31.7198 29.6907C31.7962 29.6907 31.8981 29.6391 31.9363 29.5617C31.9745 29.4972 32.1401 29.3683 32.293 29.2909C32.4458 29.2135 32.3694 29.3167 32.1274 29.5359C31.8854 29.7423 31.6051 29.8841 31.5032 29.8454C31.3886 29.8067 31.3504 29.8325 31.4141 29.9228C31.465 30.0131 31.4268 30.0776 31.3376 30.0776C31.0956 30.0776 30.3186 30.9029 30.4333 31.0319C30.497 31.0834 30.4715 31.1221 30.4078 31.1092C30.1403 31.0447 30.0384 31.1221 30.2167 31.2382C30.3823 31.3414 30.3823 31.3671 30.204 31.3671C30.0894 31.3671 29.8983 31.4961 29.7582 31.6509C29.5969 31.8486 29.6053 31.883 29.7837 31.754C29.9238 31.6509 29.8474 31.7411 29.6053 31.9604C29.3506 32.1925 29.1977 32.4246 29.2487 32.5149C29.3124 32.6051 29.2742 32.6438 29.1723 32.6309C29.0831 32.6051 29.0194 32.6954 29.0194 32.8115C29.0322 32.9404 28.9939 33.0178 28.943 32.9791C28.892 32.9404 28.8029 33.0049 28.7647 33.121C28.7137 33.2499 28.7392 33.2886 28.8538 33.237C28.9303 33.1855 28.8666 33.2628 28.701 33.4047C28.5354 33.5337 28.4335 33.7142 28.4844 33.7916C28.5227 33.856 28.4717 33.9463 28.3698 33.9979C28.2679 34.0366 28.1788 34.1398 28.1788 34.23C28.1788 34.3461 28.217 34.3461 28.3189 34.2042C28.4335 34.0495 28.4462 34.0495 28.3826 34.2429C28.3443 34.3719 28.3061 34.5137 28.3061 34.5395C28.3061 34.5782 28.2552 34.5782 28.1915 34.5266C28.0386 34.4364 27.8731 34.9264 27.9877 35.1069C28.0259 35.1714 28.0004 35.2359 27.924 35.2359C27.8348 35.2359 27.8094 35.3262 27.8476 35.4422C27.8985 35.5712 27.8731 35.6099 27.7712 35.5454C27.6693 35.4809 27.6565 35.5196 27.7075 35.6744C27.7584 35.8033 27.7202 35.9839 27.6056 36.087C27.5037 36.2031 27.4145 36.3578 27.4145 36.4352C27.4145 36.5255 27.4655 36.5126 27.5419 36.3965C27.7584 36.0483 27.6693 36.3836 27.4145 36.8737C27.147 37.3895 27.0451 37.944 27.2871 37.5572C27.4655 37.2734 27.44 37.5056 27.2234 38.0343C26.9432 38.692 26.956 41.4388 27.2362 41.8773C27.3636 42.0836 27.4145 42.3157 27.3508 42.5736C27.2999 42.7929 27.3253 42.9863 27.4145 43.0379C27.4909 43.0895 27.5164 43.2442 27.4655 43.3861C27.4145 43.5795 27.4272 43.6182 27.5419 43.5537C27.6565 43.4893 27.6693 43.5279 27.6183 43.7214C27.5674 43.8632 27.5928 44.018 27.6693 44.0696C27.7457 44.1212 27.7712 44.263 27.7329 44.3791C27.6947 44.508 27.7457 44.6886 27.8476 44.7659C27.9495 44.8562 28.0004 45.0239 27.9622 45.127C27.9113 45.2689 27.9367 45.3076 28.0259 45.2431C28.1278 45.1915 28.1533 45.2173 28.1023 45.3334C28.0641 45.4365 28.1278 45.5526 28.2424 45.6042C28.3698 45.6429 28.4335 45.7718 28.3953 45.8621C28.3571 45.9653 28.408 46.0813 28.5099 46.12C28.6246 46.1587 28.6882 46.2748 28.65 46.365C28.6246 46.4424 28.6882 46.5972 28.8029 46.6874C28.9685 46.8293 28.9685 46.8422 28.8156 46.7777C28.7137 46.7261 28.7392 46.7906 28.8666 46.8938C29.0067 47.0098 29.0704 47.1001 29.0067 47.1001C28.943 47.1001 29.0067 47.1904 29.1468 47.2935C29.2742 47.3967 29.3379 47.487 29.2742 47.487C29.1977 47.487 29.2614 47.5772 29.4015 47.6933C29.5289 47.7965 29.5544 47.8609 29.4525 47.8094C29.3506 47.7578 29.3761 47.8223 29.5162 47.9383C29.6563 48.0544 29.7709 48.1962 29.7709 48.2478C29.7709 48.3123 29.9747 48.5444 30.2167 48.7766C30.4588 49.0087 30.5734 49.1376 30.4715 49.0861C30.3696 49.0216 30.5352 49.2537 30.8536 49.589C31.4268 50.1951 31.6179 50.3499 31.4141 50.0275C31.3504 49.9372 31.4268 50.0146 31.5797 50.1951C31.7452 50.3756 31.9363 50.5175 32.0127 50.5175C32.0892 50.5175 32.2293 50.6336 32.3312 50.7625C32.4331 50.9044 32.5095 50.9689 32.5095 50.8915C32.5222 50.827 32.6241 50.9044 32.7515 51.0591C32.8789 51.2139 33.019 51.3041 33.0699 51.2655C33.1082 51.2139 33.1464 51.2526 33.1464 51.3428C33.1464 51.4331 33.1973 51.4718 33.261 51.4202C33.3374 51.3815 33.4393 51.4589 33.5158 51.575C33.5922 51.7039 33.6559 51.7555 33.6559 51.7039C33.6559 51.5621 34.4201 52.0263 34.4201 52.1682C34.4201 52.2198 34.4838 52.2326 34.5475 52.194C34.6239 52.1553 34.6749 52.1811 34.6749 52.2584C34.6749 52.3358 34.7258 52.3745 34.7895 52.3229C34.8532 52.2842 34.9423 52.31 34.9933 52.3874C35.0442 52.4648 35.1334 52.4906 35.1971 52.4519C35.2608 52.4003 35.3117 52.439 35.3117 52.5164C35.3117 52.5937 35.3627 52.6324 35.4264 52.5808C35.4901 52.5421 35.5792 52.5679 35.6302 52.6453C35.6811 52.7227 35.7703 52.7485 35.834 52.7098C35.8977 52.6582 35.9486 52.684 35.9486 52.7485C35.9486 52.8259 36.0632 52.8517 36.2034 52.813C36.3435 52.7743 36.4581 52.8001 36.4581 52.8774C36.4581 52.9548 36.5855 52.9806 36.7383 52.929C36.9421 52.8774 36.9803 52.9032 36.9039 53.0322C36.8275 53.1611 36.853 53.1869 37.0186 53.1225C37.1459 53.0709 37.3115 53.0709 37.3879 53.1225C37.4771 53.174 37.6936 53.1998 37.8847 53.174C38.0885 53.1611 38.2414 53.1869 38.2414 53.2514C38.2414 53.3675 38.7891 53.4191 40.1265 53.4449C41.2474 53.4578 42.19 53.3804 42.19 53.2643C42.19 53.2127 42.3428 53.174 42.5466 53.1611C43.4637 53.1483 43.5911 53.1225 43.5147 53.0064C43.4637 52.929 43.5019 52.9032 43.6038 52.929C43.7057 52.9677 43.9477 52.9161 44.1388 52.813C44.3299 52.7098 44.5464 52.6711 44.6101 52.7098C44.6738 52.7485 44.7502 52.7227 44.8012 52.6453C44.8521 52.5679 44.9413 52.5421 45.005 52.5808C45.0686 52.6324 45.1196 52.5937 45.1196 52.5035C45.1196 52.4132 45.1578 52.3745 45.196 52.4261C45.247 52.4648 45.3616 52.4132 45.4635 52.31C45.5781 52.2069 45.7437 52.1424 45.8329 52.1811C45.9348 52.2198 46.0112 52.194 46.0112 52.1166C46.0112 52.0392 46.0749 52.0263 46.1386 52.065C46.215 52.1037 46.266 52.0779 46.266 52.0005C46.266 51.9231 46.3296 51.8974 46.3933 51.936C46.4698 51.9747 46.5207 51.9489 46.5207 51.8587C46.5207 51.7684 46.5589 51.7297 46.5971 51.7813C46.6353 51.82 46.7882 51.7426 46.941 51.6136C47.0812 51.4718 47.234 51.3944 47.285 51.4202C47.3486 51.4589 47.4251 51.3944 47.4633 51.2784C47.5015 51.1752 47.5907 51.1236 47.6671 51.1623C47.7308 51.201 47.7945 51.1752 47.7945 51.0978C47.7945 51.0204 47.9346 50.9044 48.1129 50.8141C48.5205 50.6336 48.4186 50.453 47.3232 49.3698C46.8519 48.9055 46.5207 48.5186 46.5844 48.5186C46.6481 48.5186 46.5717 48.4284 46.4188 48.3123C46.266 48.2091 46.1768 48.0544 46.215 47.977C46.266 47.8996 46.2405 47.8738 46.1641 47.9254C46.1004 47.9641 46.0112 47.9383 45.9857 47.861C45.9475 47.7578 45.8329 47.7707 45.5909 47.9383C45.3998 48.0544 45.247 48.106 45.247 48.0544C45.247 47.9899 45.196 48.0157 45.1323 48.106C45.0814 48.1962 44.954 48.2865 44.8521 48.2994C44.7502 48.3252 44.5974 48.3768 44.5209 48.4284C44.4318 48.4928 44.3553 48.4928 44.3553 48.4542C44.3553 48.4026 44.2662 48.4671 44.1515 48.5702C43.9732 48.7508 43.7057 48.841 43.4382 48.7895C43.3746 48.7895 43.3363 48.841 43.3363 48.9184C43.3363 48.9958 43.2217 49.0345 43.0816 48.9958C42.9415 48.9571 42.8268 48.9829 42.8268 49.0603C42.8268 49.1376 42.7377 49.1634 42.6358 49.1247C42.5339 49.0732 42.4192 49.099 42.3683 49.1763C42.3301 49.2537 42.2027 49.2795 42.1008 49.2408C41.9989 49.2021 41.8461 49.2021 41.7696 49.2537C41.5531 49.3956 38.7509 49.4085 38.7509 49.2795C38.7509 49.215 38.5853 49.2021 38.3687 49.2537C38.114 49.3053 37.9866 49.2795 37.9866 49.1634C37.9866 49.0732 37.8974 49.0345 37.7955 49.0861C37.6936 49.1247 37.6045 49.099 37.6045 49.0216C37.6045 48.9442 37.4898 48.9184 37.337 48.97C37.1587 49.0345 37.095 49.0216 37.1459 48.9184C37.2096 48.8281 37.1587 48.8023 37.044 48.8539C36.9294 48.8926 36.8402 48.8668 36.8402 48.7895C36.8402 48.7121 36.7638 48.6863 36.6619 48.725C36.5727 48.7637 36.4581 48.6992 36.4199 48.596C36.3689 48.48 36.2543 48.4284 36.1651 48.4671C36.0632 48.5057 35.9486 48.4413 35.9104 48.3381C35.8594 48.222 35.7448 48.1705 35.6302 48.2091C35.5283 48.2607 35.4136 48.1962 35.3627 48.0802C35.3245 47.9641 35.2353 47.8996 35.1844 47.9383C35.1334 47.977 35.0442 47.9125 35.006 47.7965C34.9678 47.6933 34.8787 47.6288 34.815 47.6804C34.7385 47.7191 34.6367 47.6417 34.5602 47.5257C34.4838 47.3967 34.4201 47.3322 34.4201 47.3838C34.4201 47.4999 32.5859 45.6558 32.5732 45.5268C32.5732 45.4752 32.4585 45.3463 32.3184 45.2302C32.1783 45.1141 32.1528 45.0497 32.2547 45.1012C32.3821 45.1528 32.3694 45.127 32.2293 44.9981C32.1019 44.8949 32.0382 44.7788 32.0892 44.7402C32.1274 44.6886 32.0637 44.6241 31.949 44.5725C31.8344 44.5338 31.7707 44.4435 31.8089 44.392C31.9108 44.2372 31.7325 43.8632 31.6051 43.9535C31.5414 43.9922 31.5287 43.9406 31.5669 43.8374C31.6051 43.7343 31.5414 43.6182 31.4268 43.5666C31.2867 43.515 31.2485 43.4119 31.2994 43.2313C31.3504 43.0766 31.3249 42.9734 31.2357 42.9734C31.1466 42.9734 31.1211 42.8831 31.1593 42.7671C31.2103 42.6381 31.1848 42.5994 31.0829 42.6639C30.981 42.7284 30.9683 42.6897 31.0319 42.5221C31.0829 42.3802 31.0574 42.2384 30.9555 42.1868C30.739 42.0449 30.6498 40.5232 30.7517 38.6275C30.7772 38.1633 30.8281 37.9053 30.8918 37.9827C30.9555 38.073 30.981 38.0214 30.9428 37.8409C30.9046 37.6861 30.93 37.5572 31.0065 37.5572C31.0829 37.5572 31.1084 37.4282 31.0574 37.2477C31.0065 37.0542 31.0574 36.8866 31.1848 36.7834C31.2867 36.6931 31.3504 36.5384 31.3122 36.4352C31.274 36.3321 31.2867 36.2805 31.3504 36.3192C31.4905 36.4094 31.6433 36.0354 31.5414 35.8549C31.4905 35.7775 31.5542 35.6357 31.6816 35.5325C31.8217 35.4422 31.8854 35.3649 31.8344 35.3649C31.7835 35.3649 31.8599 35.2488 32 35.1069C32.1528 34.9522 32.2293 34.7717 32.1783 34.6814C32.1274 34.5911 32.1274 34.5653 32.1911 34.6169C32.3312 34.7459 32.6751 34.2429 32.5732 34.0753C32.5222 33.9979 32.535 33.9592 32.5987 33.9721C32.726 34.0108 34.229 32.502 34.1908 32.3601C34.1781 32.3085 34.2036 32.2828 34.2545 32.2828C34.5347 32.3343 34.7131 32.2312 35.0188 31.9088C35.2098 31.7153 35.3117 31.638 35.2608 31.7282C35.1844 31.8572 35.2608 31.8443 35.5537 31.7024C35.7703 31.5864 35.9486 31.4316 35.9486 31.3671C35.9486 31.3027 36.0378 31.2898 36.1651 31.3285C36.318 31.3929 36.3435 31.3671 36.267 31.2382C36.2034 31.1221 36.2161 31.0963 36.318 31.1608C36.3944 31.2124 36.56 31.1866 36.6619 31.0963C36.7638 31.019 37.0313 30.9287 37.2606 30.9029C37.4771 30.89 37.8465 30.7997 38.0503 30.7095C38.2668 30.6321 38.8655 30.5418 39.3877 30.516C39.91 30.4902 40.5978 30.4386 40.9162 30.4C41.3366 30.3613 41.4385 30.3742 41.2983 30.4644C41.1582 30.5676 41.2347 30.5805 41.5913 30.516C41.8843 30.4644 42.0626 30.4902 42.0626 30.5676C42.0626 30.645 42.3046 30.7352 42.5848 30.7868C42.8778 30.8384 43.3109 30.9674 43.5529 31.0576C43.7949 31.1608 44.0369 31.2124 44.1006 31.1737C44.177 31.1221 44.228 31.1608 44.228 31.2382C44.228 31.3156 44.2917 31.3414 44.3553 31.3027C44.4318 31.264 44.4827 31.2898 44.4827 31.3671C44.4827 31.4574 44.5719 31.4961 44.6738 31.4445C44.7757 31.4058 44.9158 31.4703 44.9667 31.5864C45.0432 31.7153 45.1705 31.7669 45.2979 31.7153C45.4253 31.6638 45.4762 31.5606 45.4253 31.4832C45.3743 31.3929 45.3871 31.3671 45.4635 31.4058C45.6418 31.5219 47.5779 29.4972 47.6034 29.1748C47.6161 29.033 47.5397 28.8396 47.4251 28.7493C47.2467 28.6074 47.234 28.6203 47.3996 28.8525C47.4888 28.9943 47.4251 28.9427 47.234 28.7493C47.0557 28.5558 46.9028 28.4269 46.9028 28.4785C46.9028 28.5301 46.8264 28.4785 46.7372 28.3366C46.6353 28.2077 46.4952 28.1432 46.4061 28.1948C46.3297 28.2463 46.2277 28.1948 46.1895 28.0787C46.1386 27.9626 46.0239 27.8982 45.922 27.9368C45.8201 27.9755 45.7692 27.9626 45.8074 27.8982C45.8966 27.7563 45.5272 27.6016 45.3616 27.7047C45.2979 27.7434 45.247 27.7047 45.247 27.6273C45.247 27.55 45.196 27.5242 45.1196 27.5629C45.0559 27.6016 44.9922 27.5758 44.9922 27.4855C44.9922 27.4081 44.8903 27.3694 44.7375 27.4081C44.5974 27.4468 44.5082 27.4339 44.5464 27.3823C44.5719 27.3178 44.4572 27.2147 44.2789 27.1244C43.8968 26.9568 43.7057 26.9439 43.9732 27.1115C44.1006 27.2018 44.1133 27.2405 43.9987 27.2405C43.9095 27.2405 43.8076 27.1502 43.7567 27.0341C43.693 26.8665 43.5656 26.8407 43.0943 26.9052C42.6613 26.9568 42.5721 26.9439 42.7632 26.8536C42.9797 26.7375 42.9797 26.7246 42.674 26.7633C42.4702 26.802 42.3173 26.7762 42.3173 26.7375C42.3173 26.6859 41.4257 26.6473 40.343 26.6344C39.2604 26.6215 38.3687 26.6602 38.3687 26.6988ZM47.5397 29.3425C47.5397 29.3554 47.2085 29.6907 46.8137 30.0776L46.0749 30.7868L46.7755 30.0389C47.4123 29.3554 47.5397 29.2393 47.5397 29.3425ZM46.0112 30.9029C46.0112 30.9287 45.9093 31.0319 45.7947 31.1221C45.5909 31.2898 45.5781 31.2769 45.7437 31.0705C45.9093 30.8642 46.0112 30.7997 46.0112 30.9029ZM34.9296 31.9346C34.9296 31.9604 34.8404 32.0248 34.7258 32.0635C34.6239 32.1022 34.573 32.0893 34.6112 32.0119C34.6876 31.883 34.9296 31.8314 34.9296 31.9346ZM33.4011 46.5198C33.6431 46.7648 33.8087 46.9711 33.7705 46.9711C33.7323 46.9711 33.5158 46.7648 33.2737 46.5198C33.0317 46.2748 32.8661 46.0684 32.9044 46.0684C32.9426 46.0684 33.1591 46.2748 33.4011 46.5198Z" fill="black"/>
<path fill-rule="evenodd" clip-rule="evenodd" d="M23.7972 28.2071C24.0265 28.3877 24.0137 28.4005 23.708 28.2845C23.4151 28.1813 23.3132 28.22 23.0202 28.5295C22.8291 28.7358 22.7145 28.9551 22.7655 29.0324C22.8037 29.1227 22.7782 29.1614 22.689 29.1485C22.6126 29.1227 22.5107 29.1872 22.4725 29.2904C22.4343 29.4064 22.4725 29.4322 22.5871 29.3677C22.689 29.3033 22.7272 29.3162 22.6636 29.3806C22.5999 29.4451 22.4852 29.4967 22.4216 29.4967C22.3451 29.4967 22.256 29.5741 22.2178 29.6772C22.1795 29.7933 22.2178 29.8191 22.3324 29.7675C22.4343 29.7159 22.3706 29.7933 22.1923 29.9481C22.014 30.1028 21.9503 30.1931 22.0394 30.1415C22.1159 30.1028 22.1923 30.1286 22.1923 30.1931C22.1923 30.2704 22.1159 30.3349 22.014 30.3349C21.9121 30.3349 21.7974 30.4252 21.7592 30.5413C21.7083 30.6702 21.7337 30.7089 21.8484 30.6444C21.9248 30.5928 21.8611 30.6831 21.7083 30.8508C21.4662 31.0829 21.4408 31.1603 21.5809 31.2505C21.7083 31.3408 21.7083 31.3666 21.5554 31.3666C21.2879 31.3666 20.8676 32.4112 21.0714 32.553C21.1988 32.6304 21.186 32.6562 21.0332 32.6562C20.8039 32.6562 20.6001 33.2236 20.7402 33.4557C20.7912 33.546 20.7784 33.5589 20.6893 33.5073C20.6001 33.4557 20.5364 33.4686 20.5364 33.546C20.5364 33.6105 20.4982 33.7781 20.46 33.9071C20.3963 34.1005 20.409 34.1134 20.5364 33.9458C20.6638 33.7781 20.6765 33.791 20.6128 33.9845C20.5746 34.1134 20.5364 34.2553 20.5364 34.2811C20.5364 34.3197 20.4727 34.3069 20.3963 34.2553C20.2944 34.1908 20.2689 34.3069 20.3071 34.6293C20.3326 34.8872 20.3199 35.0677 20.2689 35.029C20.1161 34.9387 20.0014 35.7254 20.0779 36.3057C20.1288 36.641 20.1161 36.7571 20.0524 36.5894C19.8741 36.1896 19.7594 37.2213 19.8358 38.4077C19.8868 39.1428 19.8741 39.3491 19.7722 39.1686C19.683 38.9881 19.6703 39.3233 19.7212 40.2647C19.7594 41.0127 19.7976 42.0444 19.7976 42.5602C19.8104 43.1663 19.8486 43.4371 19.925 43.334C20.0014 43.2308 20.0142 43.3211 19.9632 43.579C19.9123 43.8111 19.9377 44.0174 20.0269 44.069C20.1161 44.1206 20.1415 44.314 20.0906 44.5333C20.0396 44.7654 20.0651 44.9072 20.1415 44.9072C20.218 44.9072 20.2434 44.9975 20.2052 45.1007C20.1543 45.2039 20.1798 45.2941 20.2434 45.2941C20.3071 45.2941 20.3326 45.4747 20.3071 45.6939C20.2689 45.9647 20.2944 46.0808 20.3836 46.0163C20.5619 45.9131 20.702 46.3516 20.5874 46.6482C20.5237 46.8029 20.5364 46.8545 20.6256 46.8029C20.702 46.7514 20.8039 46.8029 20.8421 46.919C20.9567 47.2285 20.9313 47.3188 20.7784 47.0995C20.6638 46.9448 20.651 46.9448 20.7147 47.1382C20.7529 47.2672 20.7912 47.4348 20.7912 47.4993C20.7912 47.5767 20.8421 47.6025 20.9058 47.5638C21.0459 47.4735 21.1988 47.8475 21.0969 48.0281C21.0586 48.0925 21.1223 48.2344 21.2497 48.3376C21.3898 48.4536 21.4153 48.5052 21.3389 48.4536C21.0841 48.3247 21.1478 48.4794 21.4662 48.7889C21.6191 48.9437 21.67 49.0339 21.5936 48.9823C21.479 48.9179 21.4535 48.9566 21.5045 49.0855C21.5427 49.1887 21.6573 49.3047 21.7719 49.3434C21.8738 49.395 21.9375 49.5111 21.8993 49.6013C21.8611 49.7045 21.9121 49.8206 22.0267 49.8593C22.1286 49.9108 22.1923 50.0269 22.1541 50.1172C22.1159 50.2203 22.1668 50.3364 22.2814 50.3751C22.3961 50.4267 22.447 50.4912 22.4088 50.5427C22.3579 50.5814 22.4216 50.6975 22.5489 50.8007C22.689 50.9296 22.7018 50.9554 22.5744 50.9038C22.4598 50.8522 22.4725 50.8909 22.6126 51.007C22.74 51.1102 22.8164 51.2649 22.8037 51.3552C22.7782 51.4455 22.8674 51.5357 22.9947 51.5486C23.1094 51.5744 23.1858 51.5357 23.1348 51.4712C23.0966 51.4068 23.1476 51.3552 23.2495 51.3552C23.4915 51.3552 24.1284 50.6588 24.0137 50.517C23.95 50.4654 23.9883 50.4525 24.0774 50.5041C24.1666 50.5556 24.2685 50.517 24.3067 50.4009C24.3449 50.2848 24.4341 50.2203 24.485 50.259C24.536 50.2977 24.6251 50.2332 24.6633 50.1172C24.7143 50.0011 24.778 49.9366 24.8289 49.9753C24.8671 50.0269 24.9818 49.9624 25.0837 49.8335C25.2111 49.6916 25.2365 49.6787 25.1856 49.8077C25.1346 49.9366 25.1601 49.9237 25.2875 49.7819C25.3894 49.6529 25.504 49.5884 25.5422 49.64C25.5932 49.6787 25.6314 49.6529 25.6314 49.5627C25.6314 49.4724 25.6951 49.4466 25.7588 49.4853C25.9626 49.6142 26.0645 49.1887 25.8861 48.9694C25.797 48.8663 25.7715 48.776 25.8352 48.776C25.8861 48.776 25.8225 48.6857 25.6823 48.5697C25.555 48.4665 25.5295 48.402 25.6314 48.4536C25.746 48.5052 25.7206 48.4536 25.5804 48.3376C25.4531 48.2344 25.3894 48.0796 25.4403 48.0152C25.4785 47.9378 25.4276 47.8346 25.313 47.7959C25.1983 47.7443 25.1346 47.6283 25.1728 47.5251C25.2111 47.4348 25.1601 47.3188 25.0455 47.2672C24.9436 47.2285 24.8799 47.1124 24.9181 47.0222C24.9563 46.919 24.9308 46.8416 24.8544 46.8416C24.778 46.8416 24.7652 46.7772 24.8035 46.7127C24.8417 46.6482 24.8289 46.5837 24.7525 46.5837C24.6761 46.5837 24.6633 46.4934 24.7016 46.3645C24.7525 46.2226 24.7398 46.1839 24.6379 46.2484C24.536 46.3129 24.5105 46.2742 24.5614 46.1453C24.5997 46.0292 24.5742 45.9389 24.4978 45.9389C24.4213 45.9389 24.3959 45.8486 24.4468 45.7197C24.5105 45.5649 24.485 45.5391 24.3576 45.6165C24.2303 45.6939 24.2048 45.6681 24.2685 45.5134C24.3067 45.3844 24.294 45.2941 24.2175 45.2941C24.1538 45.2941 24.1284 45.1523 24.1793 44.9588C24.243 44.7267 24.2175 44.6364 24.1284 44.7009C24.0519 44.7525 24.0265 44.6751 24.0774 44.4946C24.1156 44.3398 24.0902 44.2496 24.0137 44.3011C23.95 44.3527 23.9118 44.2238 23.95 43.9916C23.9755 43.7853 23.95 43.6177 23.8864 43.6177C23.8099 43.6177 23.7845 43.4629 23.8227 43.2824C23.8609 43.0374 23.8354 42.96 23.7462 43.0245C23.6316 43.0889 23.6189 42.9342 23.6698 42.4957C23.7208 42.096 23.6953 41.9412 23.6189 42.0444C23.5424 42.1475 23.517 41.8767 23.517 41.2706C23.5297 40.7548 23.4915 39.9552 23.4405 39.491C23.3769 38.8978 23.3896 38.7817 23.466 39.1041C23.5552 39.4523 23.5679 39.362 23.5297 38.6528C23.4915 37.9951 23.5042 37.8016 23.6061 37.9435C23.708 38.0853 23.7208 37.9951 23.6698 37.5824C23.6061 37.1697 23.6316 37.0408 23.7335 37.1182C23.8481 37.1826 23.8609 37.1053 23.7972 36.8602C23.7335 36.6023 23.7462 36.5249 23.8609 36.6023C23.9755 36.6668 23.9883 36.5894 23.9373 36.2799C23.8736 35.9833 23.8991 35.893 24.001 35.9575C24.1029 36.022 24.1156 35.9833 24.0647 35.8415C24.0265 35.7125 24.0392 35.6222 24.1156 35.6222C24.1793 35.6222 24.2048 35.4804 24.1538 35.3127C24.1156 35.1322 24.1411 34.8872 24.2303 34.7582C24.3449 34.5519 24.3576 34.5648 24.294 34.8485C24.2303 35.1193 24.243 35.1322 24.3576 34.9387C24.4341 34.8098 24.485 34.6421 24.4468 34.5519C24.4213 34.4745 24.485 34.3197 24.5742 34.2166C24.6888 34.1134 24.727 33.92 24.6888 33.7265C24.6379 33.5331 24.6633 33.4428 24.7525 33.4557C24.8289 33.4815 24.9308 33.417 24.969 33.3139C25.0073 33.2107 24.969 33.172 24.8799 33.2236C24.7907 33.2752 24.7652 33.2365 24.8162 33.1204C24.8544 33.0044 24.9563 32.9399 25.0327 32.9528C25.1219 32.9657 25.1856 32.8496 25.1728 32.6949C25.1728 32.5401 25.2111 32.437 25.262 32.4627C25.313 32.5014 25.3894 32.437 25.4276 32.3209C25.4785 32.1919 25.4531 32.1532 25.3384 32.2048C25.262 32.2564 25.2875 32.2048 25.4276 32.0888C25.555 31.9856 25.6187 31.8437 25.5804 31.7664C25.5295 31.7019 25.5677 31.5987 25.6441 31.5471C25.746 31.4827 25.7715 31.5213 25.7078 31.6374C25.6569 31.7406 25.6951 31.7148 25.7842 31.5729C25.8734 31.444 26.0772 31.1732 26.2428 30.9668C26.5358 30.6057 26.7396 30.0125 26.5103 30.1415C26.4466 30.1931 26.3956 30.1544 26.3956 30.077C26.3956 29.9996 26.3447 29.9738 26.2683 30.0125C26.2046 30.0512 26.1409 30.0254 26.1409 29.9481C26.1409 29.8578 26.0517 29.8191 25.9498 29.8578C25.8479 29.9094 25.7333 29.8707 25.6823 29.7933C25.6187 29.703 25.6569 29.6901 25.7588 29.7546C25.8734 29.8191 25.8989 29.8062 25.8352 29.703C25.7842 29.6257 25.6314 29.587 25.5168 29.6257C25.3639 29.6772 25.1728 29.5354 24.8799 29.1743C24.6633 28.8906 24.3831 28.6585 24.2685 28.6585C24.1538 28.6585 24.1029 28.6198 24.1411 28.5682C24.243 28.465 23.8609 28.0137 23.6826 28.0137C23.6061 28.0137 23.6571 28.1039 23.7972 28.2071ZM23.466 28.3103C23.466 28.3361 23.3386 28.465 23.1858 28.6069L22.8928 28.8519L23.1348 28.5553C23.3641 28.2845 23.466 28.2071 23.466 28.3103ZM24.6761 29.0453C24.8035 29.1872 24.8799 29.3033 24.8417 29.3033C24.8035 29.3033 24.6761 29.1872 24.5487 29.0453C24.4213 28.9035 24.3449 28.7874 24.3831 28.7874C24.4213 28.7874 24.5487 28.9035 24.6761 29.0453ZM19.9887 37.4534C19.9505 37.5437 19.925 37.4792 19.925 37.2987C19.925 37.1182 19.9505 37.0537 19.9887 37.131C20.0142 37.2213 20.0142 37.3761 19.9887 37.4534ZM23.4278 40.9353C23.3896 41.0385 23.3514 40.9998 23.3514 40.858C23.3386 40.7161 23.3769 40.6387 23.4151 40.6903C23.4533 40.729 23.466 40.8451 23.4278 40.9353Z" fill="black"/>
<path fill-rule="evenodd" clip-rule="evenodd" d="M50.2141 33.043C49.9084 33.3912 49.59 33.6362 49.5263 33.5976C49.4626 33.546 49.4498 33.5847 49.4881 33.6491C49.539 33.7265 49.4499 33.8942 49.2843 34.0231C49.1059 34.1865 49.072 34.1822 49.1824 34.0102C49.2715 33.8684 49.1187 34.0102 48.8385 34.3326C48.3035 34.9258 48.2271 35.2998 48.5582 35.5964C48.6601 35.6996 48.6729 35.7383 48.5964 35.6867C48.4818 35.6351 48.4563 35.6738 48.5073 35.8027C48.5455 35.9188 48.6347 36.0091 48.7111 36.0091C48.7748 36.0091 48.7875 36.0607 48.7493 36.138C48.7111 36.2025 48.7366 36.267 48.813 36.267C48.9021 36.267 48.9404 36.3573 48.9021 36.4604C48.8512 36.5636 48.8767 36.6797 48.9531 36.7312C49.0295 36.7699 49.055 36.8989 49.0168 37.0021C48.9658 37.1052 48.9913 37.1439 49.0805 37.0923C49.1696 37.0407 49.1951 37.0923 49.1442 37.2729C49.0932 37.4147 49.1187 37.5695 49.1951 37.6211C49.2843 37.6726 49.3097 37.8532 49.2588 38.0337C49.2206 38.2143 49.2333 38.3174 49.2843 38.2916C49.3352 38.253 49.3862 38.9364 49.3862 39.8134C49.3862 40.6903 49.3479 41.3351 49.297 41.2577C49.246 41.1674 49.1951 41.2706 49.1951 41.4898C49.1824 42.4054 49.1569 42.586 49.0422 42.586C48.9786 42.586 48.9531 42.6376 49.004 42.702C49.0422 42.7665 49.0168 42.8568 48.9531 42.9084C48.8767 42.9471 48.8512 43.0631 48.8894 43.1534C48.9276 43.2437 48.8639 43.4113 48.762 43.5274C48.6601 43.6305 48.6092 43.7466 48.6474 43.7982C48.6983 43.8369 48.6601 43.8756 48.571 43.8756C48.4818 43.8756 48.4563 43.9271 48.4945 44.0045C48.5328 44.069 48.52 44.1335 48.4691 44.1335C48.2653 44.1335 48.3035 44.8556 48.5073 45.1136C48.6092 45.2425 48.6729 45.2683 48.6219 45.1651C48.5837 45.062 49.0168 45.4617 49.59 46.0679C50.1631 46.674 50.5835 47.0737 50.5325 46.9706C50.4306 46.8029 50.4561 46.8029 50.6344 46.9577C50.7491 47.0479 50.8128 47.1898 50.7618 47.2672C50.7236 47.3445 50.7491 47.3574 50.8255 47.3059C50.9147 47.2543 50.9783 47.2801 50.9783 47.3445C50.9783 47.4219 51.0802 47.3832 51.2076 47.2543C51.3477 47.1382 51.4242 46.9964 51.3987 46.9319C51.3732 46.8803 51.3987 46.8416 51.4751 46.8416C51.5515 46.8416 51.577 46.7642 51.5388 46.674C51.5006 46.5708 51.5643 46.416 51.6662 46.3258C51.7808 46.2355 51.8318 46.1194 51.7935 46.055C51.7553 45.9905 51.7808 45.9389 51.8318 45.9389C51.8954 45.9389 51.9591 45.8099 51.9591 45.6552C51.9719 45.4875 52.0483 45.3457 52.112 45.3199C52.1757 45.2941 52.2011 45.1909 52.1629 45.0878C52.1247 44.9846 52.1629 44.9072 52.2394 44.9072C52.3158 44.9072 52.3413 44.817 52.303 44.7138C52.2521 44.6106 52.2903 44.5203 52.3667 44.5203C52.4432 44.5203 52.4686 44.4301 52.4304 44.3269C52.3795 44.2237 52.4177 44.1335 52.5068 44.1335C52.596 44.1335 52.6215 44.0303 52.5705 43.8756C52.5196 43.7337 52.5451 43.6176 52.6215 43.6176C52.6979 43.6176 52.7234 43.5274 52.6852 43.4242C52.6342 43.321 52.6724 43.1534 52.7489 43.0502C52.8253 42.9599 52.8508 42.8439 52.8125 42.8052C52.7743 42.7665 52.7871 42.6504 52.838 42.5602C52.9781 42.3409 53.0291 41.9928 53.0163 41.2448C53.0163 40.8966 53.08 40.5355 53.1565 40.4453C53.2456 40.3292 53.2711 40.0584 53.2074 39.7231C53.131 39.1815 53.0163 37.9177 53.0036 37.3245C52.9909 37.1697 52.9399 37.0407 52.889 37.0407C52.8253 37.0407 52.7743 36.9376 52.7743 36.8086C52.7616 36.3186 52.7106 36.138 52.6087 36.138C52.5451 36.138 52.5196 36.022 52.5705 35.893C52.6087 35.7512 52.5833 35.6093 52.5068 35.5577C52.4304 35.519 52.4049 35.4159 52.4432 35.3514C52.4941 35.2869 52.4559 35.2353 52.3795 35.2353C52.303 35.2353 52.2648 35.1837 52.3158 35.1193C52.354 35.0548 52.3285 34.9645 52.2521 34.9129C52.1757 34.8613 52.1502 34.7711 52.1884 34.7066C52.2394 34.6421 52.2011 34.5905 52.112 34.5905C52.0228 34.5905 51.9973 34.5518 52.0356 34.5003C52.0865 34.4616 52.0356 34.3068 51.9082 34.1779C51.7935 34.0489 51.7553 33.9457 51.819 33.9457C51.8827 33.9457 51.87 33.8942 51.7808 33.8426C51.7044 33.791 51.6152 33.662 51.5897 33.5589C51.5643 33.4557 51.4624 33.2881 51.3605 33.1978C51.1949 33.043 51.1949 33.0301 51.3605 33.1204C51.4624 33.1849 51.4114 33.043 51.2331 32.8238C51.0548 32.5917 50.8892 32.4111 50.851 32.4111C50.8128 32.424 50.5325 32.7077 50.2141 33.043Z" fill="black"/>
<path fill-rule="evenodd" clip-rule="evenodd" d="M39.387 34.1267C39.387 34.1912 39.2214 34.2041 39.0049 34.1525C38.8011 34.1138 38.6227 34.1396 38.6227 34.2041C38.6227 34.2686 38.5336 34.2944 38.4317 34.2557C38.3298 34.2041 38.2406 34.2428 38.2406 34.3331C38.2406 34.4233 38.1642 34.462 38.0623 34.4233C37.9604 34.3846 37.8457 34.4362 37.8075 34.5394C37.7693 34.6555 37.6547 34.7199 37.5655 34.6812C37.4891 34.6554 37.3362 34.7199 37.2471 34.836C37.1452 34.9521 37.107 34.965 37.1579 34.8747C37.1961 34.7973 37.2089 34.7199 37.1707 34.7199C37.0305 34.7199 35.3747 36.448 35.4129 36.5511C35.4256 36.6027 35.3747 36.6543 35.2983 36.6543C35.2346 36.6543 35.1964 36.7059 35.2346 36.7704C35.2855 36.8349 35.26 36.9122 35.1964 36.938C35.1327 36.9509 35.0562 37.067 35.0308 37.1701C35.0053 37.2733 34.9289 37.4281 34.8397 37.5312C34.7505 37.6215 34.7251 37.7891 34.7633 37.9052C34.827 38.06 34.8015 38.0858 34.6741 38.0084C34.5595 37.9439 34.534 37.9568 34.5977 38.06C34.6486 38.1373 34.6232 38.2921 34.5467 38.3953C34.4576 38.5113 34.4321 38.7305 34.4703 38.924C34.534 39.1432 34.5085 39.2206 34.4194 39.169C34.3429 39.1174 34.292 39.3238 34.292 39.7364C34.292 40.1233 34.3429 40.3941 34.4321 40.3941C34.5213 40.3941 34.534 40.536 34.4831 40.7939C34.4194 41.0776 34.4576 41.2581 34.6104 41.4258C34.7251 41.5547 34.8015 41.7482 34.7633 41.8384C34.7378 41.9287 34.8015 42.1222 34.9161 42.2511C35.0817 42.4574 35.0817 42.4832 34.9289 42.4059C34.8142 42.3414 34.827 42.3801 34.9543 42.4961C35.0817 42.5993 35.1454 42.7154 35.0945 42.7541C35.0562 42.8056 35.0817 42.8443 35.1709 42.8443C35.26 42.8443 35.2983 42.8959 35.26 42.9604C35.2218 43.0249 35.2728 43.1151 35.3874 43.1538C35.5021 43.2054 35.5657 43.2699 35.5275 43.3215C35.4766 43.3602 35.6549 43.5923 35.9224 43.8502C36.1771 44.0952 36.279 44.2242 36.1389 44.121C35.9691 44.0092 35.9648 44.0436 36.1262 44.2242C36.2536 44.3789 36.4064 44.495 36.4574 44.4821C36.521 44.4692 36.6612 44.5724 36.7758 44.7142C36.8904 44.8561 36.9541 44.8819 36.9032 44.7787C36.8522 44.6755 36.9159 44.7013 37.0305 44.8432C37.1452 44.985 37.2471 45.0753 37.2598 45.0495C37.2726 45.0237 37.4127 45.0366 37.5783 45.0882C37.7311 45.1398 37.8203 45.243 37.7821 45.3203C37.7311 45.3977 37.7566 45.4235 37.833 45.3719C37.9094 45.3332 37.9986 45.3461 38.0495 45.4106C38.0878 45.488 38.2024 45.5138 38.3043 45.4622C38.4062 45.4235 38.4954 45.4622 38.4954 45.5396C38.4954 45.6169 38.5845 45.6427 38.6864 45.604C38.7883 45.5525 38.8775 45.5782 38.8775 45.6298C38.8775 45.6943 39.3997 45.7459 40.0239 45.7459C40.648 45.7459 41.1702 45.6943 41.1702 45.6427C41.1702 45.5782 41.2976 45.5782 41.4377 45.6169C41.6415 45.6814 41.6797 45.6685 41.616 45.5396C41.5396 45.4235 41.5778 45.3977 41.7307 45.4622C41.858 45.5138 42.0364 45.4751 42.151 45.3461C42.2656 45.243 42.4312 45.1785 42.5204 45.2172C42.6223 45.2559 42.6987 45.2301 42.6987 45.1527C42.6987 45.0753 42.7624 45.0624 42.8261 45.1011C42.9025 45.1398 42.9535 45.114 42.9535 45.0237C42.9535 44.9335 42.9917 44.9077 43.0426 44.9464C43.0808 44.9979 43.1955 44.9335 43.2974 44.8045C43.4248 44.6626 43.4502 44.6497 43.3993 44.7787C43.3483 44.8819 43.412 44.8561 43.5267 44.7142C43.6413 44.5724 43.7814 44.4692 43.8324 44.4821C43.8833 44.495 44.1635 44.2758 44.431 43.9792C44.6985 43.6826 44.8386 43.4891 44.7367 43.5407C44.6348 43.5923 44.6858 43.5149 44.8641 43.3602C45.0297 43.2054 45.1825 42.9862 45.1953 42.883C45.2207 42.7669 45.3099 42.6251 45.3991 42.5735C45.4882 42.509 45.5137 42.4574 45.45 42.4574C45.3863 42.4574 45.4118 42.3801 45.4882 42.2898C45.5647 42.1866 45.5901 42.0706 45.5392 42.0319C45.501 41.9803 45.5264 41.9416 45.6156 41.9416C45.7048 41.9416 45.743 41.89 45.692 41.8256C45.6538 41.7611 45.6793 41.6708 45.743 41.6321C45.8067 41.5934 45.8321 41.4387 45.7939 41.2968C45.7557 41.155 45.7812 41.0389 45.8321 41.0389C45.8958 41.0389 45.9468 40.5102 45.9468 39.8783C45.9468 39.2464 45.8958 38.7176 45.8449 38.7176C45.7812 38.7176 45.7812 38.6016 45.8194 38.4597C45.8704 38.305 45.8449 38.2018 45.7557 38.2018C45.6666 38.2018 45.6283 38.1115 45.6793 38.0084C45.7175 37.9052 45.692 37.8149 45.6283 37.8149C45.5647 37.8149 45.5392 37.7247 45.5774 37.6215C45.6283 37.5183 45.5901 37.4281 45.501 37.4281C45.4245 37.4281 45.3991 37.3636 45.4373 37.2991C45.4755 37.2217 45.45 37.1701 45.3736 37.1701C45.2972 37.1701 45.2717 37.1057 45.3099 37.0412C45.3481 36.9638 45.3226 36.9122 45.2462 36.9122C45.1698 36.9122 45.1316 36.8606 45.1698 36.7962C45.208 36.7317 45.1571 36.6414 45.0424 36.6027C44.9278 36.5511 44.8641 36.4867 44.9023 36.448C44.9405 36.4093 44.8259 36.2287 44.6348 36.0482C44.4438 35.8677 44.4055 35.8032 44.5457 35.8935C44.6985 35.9966 44.6476 35.8935 44.431 35.6613C44.2272 35.4292 44.0234 35.2487 43.9852 35.2616C43.7305 35.2873 43.5903 35.21 43.6286 35.0681C43.6413 34.9907 43.5776 34.9263 43.5012 34.9392C43.412 34.965 43.3356 34.9134 43.3356 34.836C43.3356 34.7715 43.2846 34.7457 43.2082 34.7844C43.1445 34.8231 43.0808 34.7973 43.0808 34.7199C43.0808 34.6426 43.0299 34.6168 42.9535 34.6555C42.8898 34.6941 42.8261 34.6812 42.8261 34.6039C42.8261 34.5265 42.7369 34.5136 42.6096 34.5523C42.4567 34.6168 42.4312 34.591 42.5077 34.462C42.5841 34.3331 42.5586 34.3073 42.4058 34.3717C42.2784 34.4233 42.1892 34.3975 42.1892 34.3202C42.1892 34.2428 42.1001 34.2041 41.9982 34.2557C41.8963 34.2944 41.8071 34.2686 41.8071 34.1912C41.8071 34.1267 41.667 34.1009 41.4887 34.1525C41.2976 34.2041 41.1702 34.1783 41.1702 34.088C41.1702 34.0107 40.8391 33.972 40.2786 33.9849C39.7946 33.9978 39.387 34.0622 39.387 34.1267ZM40.9155 37.5699C40.9155 37.6473 40.9664 37.6602 41.0429 37.6215C41.1065 37.5828 41.4122 37.7891 41.7052 38.0858C42.0109 38.3824 42.1638 38.5758 42.0619 38.5113C41.9472 38.4468 41.9982 38.5113 42.151 38.6661C42.3421 38.8337 42.4185 39.0014 42.3675 39.1432C42.3293 39.2722 42.3548 39.3624 42.4312 39.3624C42.5077 39.3624 42.5713 39.6075 42.5713 39.9557C42.5713 40.3683 42.5331 40.5102 42.4185 40.4457C42.3166 40.3812 42.3039 40.4199 42.3548 40.5618C42.4058 40.6907 42.3675 40.781 42.2911 40.781C42.2147 40.781 42.1892 40.8197 42.2402 40.8713C42.3421 40.9873 41.5396 41.8256 41.3995 41.7353C41.3486 41.6966 41.2976 41.7353 41.2976 41.8127C41.2976 41.89 41.2467 41.9158 41.1702 41.8771C41.1065 41.8384 41.0429 41.8642 41.0429 41.9416C41.0429 42.0319 40.941 42.0577 40.7881 42.0061C40.648 41.9674 40.5334 41.9674 40.5334 42.0319C40.5334 42.0964 40.3041 42.1351 40.0239 42.1351C39.7436 42.1351 39.5144 42.0835 39.5144 42.0319C39.5144 41.9674 39.4252 41.9416 39.3233 41.9932C39.2214 42.0319 39.1322 42.0061 39.1322 41.9416C39.1322 41.8771 39.0558 41.8513 38.9539 41.89C38.852 41.9287 38.7374 41.89 38.6737 41.7998C38.61 41.6966 38.6355 41.6708 38.7628 41.7353C38.8647 41.7869 38.7501 41.6579 38.5208 41.4387C38.2916 41.2194 38.1514 41.0389 38.2024 41.0389C38.2533 41.0389 38.1897 40.9615 38.0495 40.8713C37.9222 40.7681 37.8585 40.6262 37.9094 40.536C37.9604 40.4586 37.9349 40.2909 37.8457 40.1878C37.7184 40.033 37.7184 39.9299 37.833 39.7493C37.9094 39.6075 37.9476 39.4011 37.8967 39.2851C37.833 39.1174 37.8585 39.0916 37.9859 39.169C38.1005 39.2464 38.126 39.2206 38.0623 39.1174C37.9986 39.0271 38.0623 38.8724 38.1897 38.7692C38.3298 38.6532 38.3425 38.6145 38.2406 38.6661C38.1387 38.7176 38.1897 38.6145 38.368 38.4468C38.5463 38.2792 38.7628 38.06 38.852 37.9439C38.9539 37.8321 38.9794 37.8321 38.9284 37.9439C38.8775 38.0471 38.9666 38.0084 39.1195 37.8536C39.2723 37.6989 39.4761 37.5957 39.578 37.6344C39.6799 37.686 39.7691 37.6602 39.7691 37.5957C39.7691 37.5312 40.0239 37.4667 40.3423 37.4539C40.6735 37.441 40.9155 37.4925 40.9155 37.5699Z" fill="black"/>
<path fill-rule="evenodd" clip-rule="evenodd" d="M35.9988 35.648L35.7568 35.9446L36.0498 35.6996C36.3173 35.4674 36.3937 35.3643 36.2918 35.3643C36.2663 35.3643 36.139 35.4932 35.9988 35.648Z" fill="black"/>
<path fill-rule="evenodd" clip-rule="evenodd" d="M64.6718 41.6834C64.5954 41.7995 64.6209 41.8253 64.7483 41.7479C64.9011 41.6447 64.9011 41.6705 64.7483 41.864C64.6464 41.98 64.5699 42.2766 64.5827 42.5216C64.5954 42.7667 64.5572 42.973 64.5062 42.973C64.4171 42.973 64.3661 43.4115 64.3534 44.1723C64.3407 44.3658 64.3024 44.4947 64.2388 44.4689C64.1878 44.4302 64.1241 44.585 64.1241 44.8171C64.1241 45.0492 64.1114 45.3587 64.0986 45.5135C64.0986 45.6811 64.0477 45.8101 63.984 45.8101C63.9203 45.8101 63.8948 45.9133 63.9331 46.0551C63.9713 46.1841 63.9331 46.3388 63.8566 46.3775C63.7929 46.4291 63.7547 46.5452 63.8057 46.6483C63.8439 46.7515 63.8057 46.8418 63.7293 46.8418C63.6528 46.8418 63.6274 46.932 63.6656 47.0352C63.7165 47.1384 63.6783 47.306 63.6019 47.4092C63.5255 47.4994 63.5 47.6026 63.5382 47.6542C63.5764 47.6929 63.5382 47.8605 63.449 48.0282C63.3599 48.1829 63.2707 48.4408 63.2452 48.5698C63.2198 48.7117 63.1433 48.8922 63.0669 48.9954C62.9905 49.0856 62.965 49.163 63.0032 49.163C63.0542 49.163 63.016 49.292 62.9268 49.4467C62.8376 49.6144 62.7867 49.782 62.7994 49.8336C62.8122 49.8981 62.7739 49.9368 62.723 49.9368C62.672 49.9368 62.6211 50.0657 62.6084 50.2076C62.5956 50.3623 62.4937 50.5816 62.3918 50.6976C62.2899 50.8137 62.2135 50.9297 62.2262 50.9684C62.2517 51.0974 61.6276 52.258 61.3983 52.5159C61.2709 52.6578 61.2072 52.7739 61.2582 52.7739C61.3091 52.7739 61.2709 52.8512 61.1563 52.9415C60.9652 53.0834 60.9652 53.1478 61.1181 53.4186C61.2072 53.5992 61.2837 53.6895 61.2964 53.6121C61.2964 53.5476 61.4747 53.6895 61.6913 53.9345C61.9078 54.1795 62.0352 54.2956 61.997 54.1924C61.946 54.0892 62.1498 54.2569 62.4428 54.5793C62.7485 54.9017 62.9141 55.0435 62.8249 54.9017C62.7357 54.7598 62.8758 54.863 63.1306 55.1209C63.3853 55.3917 63.691 55.6109 63.8184 55.6109C64.035 55.6109 64.519 55.353 64.3024 55.353C64.226 55.353 64.3024 55.237 64.4553 55.0822C64.6081 54.9404 64.71 54.7727 64.6718 54.6953C64.6209 54.6309 64.6846 54.5406 64.7865 54.5019C64.9011 54.4632 64.9648 54.3858 64.9266 54.3214C64.9011 54.2698 64.9775 54.115 65.1176 53.9732C65.245 53.8184 65.3214 53.6637 65.2832 53.625C65.2323 53.5863 65.2705 53.5476 65.3596 53.5476C65.4488 53.5476 65.487 53.496 65.4361 53.4315C65.3979 53.3671 65.4616 53.2123 65.5762 53.1091C65.6781 52.9931 65.729 52.9028 65.6781 52.9028C65.6271 52.9028 65.6908 52.7867 65.8182 52.6449C65.9456 52.503 66.0093 52.387 65.9583 52.387C65.9074 52.387 65.9583 52.2967 66.0602 52.1806C66.1748 52.0775 66.2385 51.9227 66.2003 51.8582C66.1494 51.7938 66.1749 51.7422 66.2258 51.7422C66.2895 51.7422 66.3532 51.6132 66.3532 51.4585C66.3659 51.2908 66.4423 51.149 66.5188 51.1232C66.5824 51.0974 66.6207 51.02 66.5697 50.9555C66.5315 50.8911 66.557 50.8395 66.6334 50.8395C66.7098 50.8395 66.7353 50.7492 66.6971 50.646C66.6461 50.5429 66.6843 50.4526 66.7735 50.4526C66.8499 50.4526 66.8754 50.3881 66.8372 50.3236C66.799 50.2463 66.8245 50.1947 66.9009 50.1947C66.9773 50.1947 67.0155 50.1431 66.9773 50.0915C66.8881 49.9497 67.2957 48.6472 67.4359 48.6472C67.4868 48.6472 67.4995 48.5698 67.4613 48.4666C67.4231 48.3635 67.4613 48.2474 67.525 48.1958C67.6014 48.1571 67.6397 48.054 67.6014 47.9895C67.5505 47.925 67.5887 47.8734 67.6651 47.8734C67.7543 47.8734 67.7798 47.7703 67.7288 47.6284C67.6906 47.4866 67.7161 47.3447 67.7798 47.306C67.8562 47.2544 67.8817 47.1384 67.8307 47.0352C67.7925 46.932 67.8307 46.8418 67.9199 46.8418C68.009 46.8418 68.0345 46.7386 67.9836 46.5967C67.9454 46.4549 67.9708 46.313 68.0473 46.2614C68.1237 46.2099 68.1492 46.068 68.1109 45.9262C68.06 45.7972 68.0727 45.6811 68.1364 45.6811C68.2256 45.6811 68.2765 45.3329 68.302 44.5463C68.302 44.3915 68.353 44.2626 68.4039 44.2626C68.5568 44.2626 68.6459 41.864 68.4931 41.7092C68.4549 41.6576 67.5887 41.606 66.5952 41.5802C65.2195 41.5416 64.7483 41.5674 64.6718 41.6834Z" fill="black"/>
<path fill-rule="evenodd" clip-rule="evenodd" d="M27.1724 42.2765C27.1724 42.4183 27.2106 42.457 27.2488 42.3538C27.2871 42.2636 27.2743 42.1475 27.2361 42.1088C27.1979 42.0572 27.1597 42.1346 27.1724 42.2765Z" fill="black"/>
<path fill-rule="evenodd" clip-rule="evenodd" d="M18.0141 50.9941C17.9249 51.0843 17.8612 51.0972 17.8612 51.0327C17.8612 50.9812 17.7593 51.0327 17.6192 51.1488C17.4919 51.2649 17.2626 51.3809 17.1097 51.3938C16.9696 51.4067 16.8422 51.4583 16.8422 51.5228C16.8422 51.5744 16.7913 51.5873 16.7149 51.5486C16.6512 51.5099 16.5875 51.5357 16.5875 51.6131C16.5875 51.6904 16.5365 51.7162 16.4601 51.6775C16.3964 51.6388 16.3327 51.6646 16.3327 51.742C16.3327 51.8194 16.2818 51.8452 16.2054 51.8065C16.1417 51.7678 16.078 51.7807 16.078 51.8323C16.078 51.8968 15.8487 52.0515 15.5558 52.1805C15.2755 52.3094 15.0081 52.49 14.9698 52.5931C14.9062 52.7608 15.8615 54.6307 16.0907 54.7725C16.1544 54.8241 16.1799 54.9015 16.1417 54.966C16.1035 55.0305 16.1926 55.1465 16.3327 55.2239C16.4729 55.3013 16.562 55.4173 16.5365 55.4689C16.4983 55.5205 16.613 55.6495 16.7786 55.7397C17.0333 55.8816 17.1225 55.8816 17.3135 55.7268C17.4919 55.5721 17.5173 55.5721 17.4154 55.7268C17.3645 55.83 17.5555 55.6624 17.8612 55.3658C18.1542 55.082 18.4472 54.8628 18.4981 54.9015C18.5491 54.9402 18.6382 54.8757 18.6764 54.7596C18.7274 54.6436 18.7911 54.5791 18.8293 54.6178C18.8675 54.6436 19.0204 54.5533 19.1732 54.3986C19.3261 54.2567 19.5935 54.0375 19.7591 53.9214L20.0648 53.728L19.5808 53.0703C19.3133 52.7092 19.0968 52.361 19.0968 52.3094C19.0968 52.245 19.0076 52.1289 18.893 52.0386C18.7783 51.9483 18.7529 51.871 18.8166 51.871C18.893 51.871 18.8802 51.8323 18.8038 51.7678C18.7274 51.7162 18.5491 51.4841 18.409 51.2649C18.2179 50.9425 18.1287 50.878 18.0141 50.9941Z" fill="black"/>
<path fill-rule="evenodd" clip-rule="evenodd" d="M28.0003 52.0129C28.064 52.1161 27.9493 52.1419 27.6182 52.1032C27.3634 52.0774 27.1596 52.1032 27.1596 52.1548C27.1596 52.2064 27.045 52.258 26.9176 52.258C26.7775 52.258 26.6246 52.3224 26.5864 52.3869C26.5355 52.4643 26.4463 52.4901 26.3826 52.4514C26.3189 52.3998 26.268 52.4256 26.268 52.4772C26.268 52.5417 26.0387 52.7609 25.7712 52.9801C25.491 53.1865 25.2999 53.3928 25.3382 53.4573C25.3636 53.5089 25.2999 53.5862 25.198 53.6249C25.0834 53.6636 25.0325 53.7539 25.0707 53.8184C25.1089 53.8828 25.0707 53.9344 24.9815 53.9344C24.8923 53.9344 24.8669 53.9731 24.9051 54.0118C24.9433 54.0634 24.9178 54.2181 24.8541 54.36C24.6631 54.7082 24.7013 56.2557 24.8923 56.2557C24.9433 56.2557 24.9815 56.2944 24.9688 56.346C24.956 56.4104 25.007 56.5781 25.0961 56.7328C25.1853 56.9005 25.2108 57.0294 25.1598 57.0294C25.1089 57.0294 25.198 57.1197 25.3509 57.2358C25.5037 57.3389 25.6056 57.4808 25.5674 57.5453C25.5292 57.5969 25.6056 57.7258 25.7203 57.8161C25.8986 57.9708 25.9241 57.9708 25.8349 57.8032C25.784 57.7 25.8859 57.7645 26.0515 57.9579C26.2298 58.1514 26.4081 58.2674 26.4463 58.2288C26.4845 58.1772 26.5227 58.2159 26.5227 58.3061C26.5227 58.3964 26.5737 58.4351 26.6374 58.3835C26.7011 58.3448 26.7902 58.3706 26.8412 58.448C26.8921 58.5254 26.9813 58.5512 27.045 58.5125C27.1087 58.4609 27.1596 58.4738 27.1596 58.5383C27.1596 58.5898 27.5035 58.6414 27.9239 58.6414C28.3442 58.6414 28.6881 58.5898 28.6881 58.5254C28.6881 58.4738 28.8027 58.448 28.9429 58.4867C29.083 58.5254 29.1976 58.4867 29.1976 58.4093C29.1976 58.3319 29.2358 58.3061 29.274 58.3577C29.3122 58.3964 29.4524 58.3319 29.5925 58.2159C29.7326 58.0998 29.8854 57.9966 29.9364 57.9966C30.102 57.9966 30.9554 57.0423 31.0445 56.7715C31.0955 56.6297 31.1719 56.5136 31.2356 56.5136C31.2993 56.5136 31.3248 56.4233 31.2866 56.3202C31.2356 56.217 31.2611 56.0494 31.3248 55.9591C31.4139 55.8301 31.4521 54.5921 31.363 54.4761C31.3375 54.4632 31.3248 54.4116 31.312 54.3471C31.312 54.2955 31.1719 54.0634 31.0063 53.8313C30.8407 53.612 30.7388 53.4186 30.7771 53.4186C30.8153 53.4186 30.6879 53.2638 30.4968 53.0704C30.3058 52.877 30.102 52.7222 30.051 52.748C30.0001 52.7609 29.9236 52.6835 29.8854 52.5804C29.8472 52.4772 29.7581 52.4256 29.6944 52.4643C29.6307 52.503 29.5797 52.4643 29.5797 52.3869C29.5797 52.3096 29.5288 52.2838 29.4524 52.3224C29.3887 52.3611 29.325 52.3482 29.325 52.2838C29.325 52.2064 29.2486 52.1548 29.1721 52.1677C28.5862 52.1806 28.1786 52.1161 28.2423 52.0001C28.2805 51.9227 28.2296 51.8711 28.1149 51.8711C28.0003 51.8711 27.9493 51.9356 28.0003 52.0129Z" fill="black"/>
<path fill-rule="evenodd" clip-rule="evenodd" d="M57.3858 57.6103C55.9592 59.0159 54.6473 60.0476 53.106 60.9632C52.0616 61.608 49.5268 62.8073 49.1065 62.8718C48.9791 62.8847 48.8008 62.9492 48.7243 63.0007C48.6352 63.0652 48.5078 63.0781 48.4441 63.0394C48.3804 62.9878 48.304 63.0136 48.2785 63.091C48.2403 63.22 45.4508 63.9808 44.6738 64.0711C44.3936 64.0969 43.9096 64.1743 43.5911 64.2387C42.432 64.4838 38.114 64.4451 36.2798 64.1872C34.9679 63.9937 32.3694 63.3876 32.2548 63.2329C32.2166 63.1942 32.0765 63.1297 31.9363 63.1168C31.5797 63.0523 30.1149 62.3946 29.8474 62.1754C29.5417 61.9175 29.3634 61.8788 28.4972 61.853C28.0769 61.8401 27.682 61.8272 27.6056 61.8014C27.5419 61.7885 27.2744 61.7498 27.0324 61.7369C26.7904 61.7112 26.472 61.6725 26.3319 61.6596C25.8988 61.6209 24.5359 60.9503 24.2174 60.6279C24.0519 60.4603 23.8608 60.3184 23.7844 60.3184C23.7207 60.3184 23.5933 60.1765 23.5041 59.996C23.415 59.8155 23.3386 59.7252 23.3386 59.8026C23.3386 59.867 23.2367 59.7768 23.122 59.6091C22.9946 59.4286 22.931 59.2867 22.9564 59.2738C22.9946 59.2738 22.9182 59.1707 22.7908 59.0417C22.6762 58.9128 22.5998 58.758 22.638 58.6935C22.6889 58.629 22.6635 58.5775 22.5998 58.5775C22.4979 58.5775 22.3578 58.2035 22.1285 57.3266C22.0393 56.9784 21.8355 56.9913 21.5298 57.3524C21.4152 57.4942 21.3133 57.5716 21.3006 57.5329C21.3006 57.4942 21.0585 57.6748 20.7783 57.9456C20.4854 58.2164 20.1924 58.4098 20.1414 58.3711C20.0778 58.3324 20.0268 58.3582 20.0268 58.4098C20.0268 58.4743 19.7975 58.6935 19.5173 58.9128C19.2371 59.1191 19.0078 59.3512 19.0078 59.4286C19.0078 59.6091 21.084 61.6467 22.3323 62.6655C22.8673 63.1039 23.8608 63.8261 24.5614 64.2645C25.2492 64.703 25.8606 65.1286 25.9115 65.2059C25.9625 65.2833 26.0134 65.3091 26.0134 65.2575C26.0134 65.2059 26.5866 65.451 27.2872 65.812C28.4718 66.4053 31.7325 67.6046 32.1911 67.6046C32.293 67.6046 32.3822 67.6433 32.3822 67.6948C32.3822 67.7593 32.6242 67.8109 32.9171 67.8238C33.2101 67.8496 33.4776 67.9012 33.5158 67.9528C33.554 68.0172 33.7323 68.0559 33.9107 68.0688C34.4584 68.0817 36.6365 68.4041 36.8403 68.4944C37.2097 68.662 43.2727 68.5331 44.228 68.3396C44.4063 68.3009 45.1451 68.172 45.8839 68.043C46.6227 67.927 47.5907 67.7206 48.0365 67.5917C48.4823 67.4627 48.8899 67.3853 48.9536 67.4111C49.0046 67.4498 49.0683 67.4369 49.0937 67.3853C49.1319 67.2822 51.8068 66.3021 52.0998 66.2763C52.1762 66.2763 52.2526 66.2247 52.2526 66.1602C52.2526 66.0958 52.3036 66.07 52.3673 66.1087C52.4309 66.1602 52.5074 66.1344 52.5328 66.07C52.5711 65.9668 54.8383 64.7675 54.9912 64.7675C55.0294 64.7675 55.1568 64.6772 55.2841 64.5611C55.3988 64.458 55.9847 64.0324 56.5834 63.6455C57.8571 62.8073 58.5195 62.2657 60.1244 60.7956C61.7802 59.2738 61.7548 59.3383 60.7485 58.3711C60.29 57.9327 59.9461 57.5329 59.9715 57.4942C59.997 57.4555 59.9843 57.4426 59.9333 57.4813C59.8824 57.52 59.5767 57.2879 59.2455 56.9526L58.6468 56.3594L57.3858 57.6103Z" fill="black"/>
</g>
<defs>
<clipPath id="clip0_888_3383">
<rect width="57.1429" height="57.1429" fill="white" transform="translate(11.4287 11.4287)"/>
</clipPath>
</defs>
</svg>
