<svg width="25" height="25" viewBox="0 0 25 25" fill="none" xmlns="http://www.w3.org/2000/svg">
<g clip-path="url(#clip0_1234_2868)">
<path fill-rule="evenodd" clip-rule="evenodd" d="M11.3278 0.724986C10.5869 0.79946 9.45202 1.0548 8.6744 1.32609C8.45372 1.40057 8.41169 1.43249 8.4905 1.45376C8.55355 1.47504 8.53254 1.48036 8.44322 1.46972C8.24881 1.44312 8.14898 1.48036 8.14898 1.57611C8.14898 1.61867 8.12271 1.65059 8.09118 1.65059C8.06491 1.65059 8.0544 1.62399 8.07017 1.59739C8.08593 1.56547 8.07542 1.5442 8.04915 1.5442C7.95458 1.5442 7.98085 1.6825 8.09118 1.77826C8.14898 1.83145 8.24356 1.97508 8.30661 2.09211C8.58508 2.65066 8.71643 2.84216 8.73745 2.73577C8.75497 2.67194 8.77773 2.67194 8.80576 2.73577C8.83203 2.79961 8.82152 2.84748 8.77423 2.88472C8.65338 2.96983 8.96338 2.90068 9.62016 2.69322C10.5712 2.39 11.3225 2.28361 12.4312 2.27829C13.1667 2.27829 13.5398 2.30489 14.1125 2.40064C14.5171 2.46448 14.9111 2.52299 14.99 2.52299C15.0635 2.52831 15.1161 2.54427 15.1056 2.56023C15.074 2.61342 15.4891 2.71981 15.5889 2.67726C15.652 2.65598 15.6678 2.6613 15.6415 2.70386C15.6047 2.76769 15.694 2.79429 15.8884 2.77833C15.941 2.77301 15.9672 2.79429 15.9515 2.82089C15.9357 2.8528 15.941 2.87408 15.9725 2.87408C15.9988 2.87408 16.0671 2.89004 16.1196 2.906C16.1984 2.9326 16.1984 2.92728 16.1354 2.8794C16.0408 2.81025 16.1196 2.81025 16.2667 2.87408C16.3403 2.906 16.3455 2.92196 16.293 2.92728C16.23 2.92728 16.2352 2.94324 16.3088 2.98579C16.3561 3.01239 16.4244 3.02303 16.4506 3.00707C16.4822 2.99111 16.5032 3.00175 16.5032 3.03367C16.5032 3.0709 16.5347 3.08686 16.5767 3.0709C16.6135 3.05495 16.6818 3.08686 16.7291 3.14538C16.8289 3.25709 16.9498 3.28369 16.8972 3.1773C16.8762 3.14538 16.9077 3.16666 16.9603 3.22517C17.0654 3.35284 17.3281 3.50711 17.2703 3.41136C17.244 3.37412 17.265 3.36348 17.3123 3.38476C17.3596 3.40072 17.3859 3.43795 17.3701 3.45923C17.3544 3.48051 17.3806 3.51775 17.4279 3.5337C17.4805 3.55498 17.4962 3.54434 17.4752 3.49647C17.4542 3.46455 17.4699 3.46987 17.512 3.51775C17.5488 3.56562 17.6118 3.59222 17.6486 3.57626C17.6854 3.56562 17.7064 3.5869 17.7011 3.62946C17.6906 3.66669 17.7169 3.69329 17.7537 3.68797C17.7852 3.67733 17.8167 3.69329 17.8167 3.72521C17.8167 3.75181 17.8693 3.79968 17.9271 3.83692C18.0164 3.88479 18.0321 3.87948 18.0006 3.82096C17.9796 3.78372 18.0164 3.81032 18.0794 3.88479C18.1425 3.95927 18.1793 3.98055 18.1582 3.93799C18.1372 3.89543 18.1688 3.91671 18.2266 3.98587C18.2843 4.06034 18.3737 4.12417 18.4262 4.12949C18.4788 4.14013 18.5891 4.22525 18.6732 4.321C18.7572 4.41675 18.8045 4.45931 18.7835 4.41675C18.7625 4.37419 18.8571 4.46463 18.9937 4.61889C19.1303 4.76784 19.2616 4.88487 19.2879 4.86891C19.3457 4.83167 19.5033 5.0285 19.4613 5.08169C19.435 5.10297 19.4508 5.10829 19.4876 5.08701C19.5243 5.06573 19.5506 5.07637 19.5506 5.11361C19.5506 5.15085 19.5664 5.1668 19.5821 5.14553C19.5979 5.12957 19.6767 5.18808 19.7503 5.2732C19.8343 5.37959 19.9132 5.42746 19.9815 5.4115C20.0393 5.39555 20.0655 5.40618 20.0445 5.44342C20.0287 5.48066 20.076 5.43278 20.1496 5.34767C20.2232 5.25724 20.2862 5.20936 20.2862 5.24128C20.2862 5.26788 20.3125 5.25192 20.344 5.19872C20.3703 5.15085 20.4281 5.10829 20.4648 5.10829C20.5069 5.10829 20.5752 5.05509 20.6225 4.98594C20.6698 4.92211 20.696 4.90615 20.6803 4.9487C20.6593 4.99126 20.6855 4.98062 20.7328 4.92211C20.7801 4.86359 20.8326 4.81572 20.8589 4.81572C20.8799 4.81572 20.964 4.74124 21.0481 4.65613C21.1269 4.5657 21.1584 4.54442 21.1216 4.60293C21.0533 4.69869 21.0533 4.704 21.1426 4.63485C21.2267 4.5657 21.2267 4.55506 21.1479 4.42207C21.0953 4.3476 21.0113 4.25184 20.9587 4.21461C20.9062 4.17737 20.8747 4.11885 20.8957 4.09226C20.9115 4.06566 20.8957 4.0497 20.8537 4.05502C20.8169 4.06566 20.7906 4.03906 20.8011 4.00183C20.8064 3.96991 20.7801 3.94331 20.7486 3.94863C20.7118 3.95927 20.6855 3.93267 20.696 3.89543C20.7013 3.85288 20.6855 3.83692 20.6645 3.85288C20.6382 3.86884 20.5384 3.78904 20.4386 3.67201C20.344 3.5603 20.2494 3.47519 20.2284 3.49115C20.2074 3.50179 20.1548 3.44859 20.1076 3.37944C20.0603 3.30496 19.9972 3.25709 19.9762 3.27305C19.9499 3.28369 19.8921 3.23581 19.8396 3.16134C19.7923 3.08686 19.7398 3.03899 19.724 3.05495C19.7082 3.0709 19.6504 3.02835 19.5926 2.96451C19.5348 2.90068 19.5033 2.88472 19.5243 2.92728C19.5454 2.96983 19.4928 2.9326 19.4193 2.84748C19.3404 2.75705 19.2932 2.72513 19.3142 2.76769C19.3352 2.81025 19.2984 2.78897 19.2354 2.7145C19.1723 2.64002 19.1355 2.61874 19.1565 2.6613C19.1776 2.70386 19.146 2.68258 19.0882 2.61342C19.0357 2.54427 18.9621 2.50171 18.9306 2.52299C18.8991 2.53895 18.8571 2.52831 18.836 2.49639C18.815 2.45384 18.8203 2.44852 18.8571 2.4698C18.8938 2.49107 18.9201 2.49639 18.9201 2.48044C18.9201 2.46448 18.8518 2.4166 18.7625 2.36873C18.6784 2.32085 18.6049 2.30489 18.6049 2.32617C18.6049 2.34745 18.5681 2.31553 18.5208 2.25701C18.4788 2.20382 18.4525 2.19318 18.4735 2.23574C18.4945 2.28893 18.484 2.28361 18.4315 2.2251C18.3894 2.1719 18.3421 2.1453 18.3264 2.16658C18.3054 2.18254 18.2896 2.16658 18.2896 2.12935C18.2896 2.09211 18.2738 2.07083 18.2581 2.09211C18.2371 2.10807 18.1898 2.08679 18.1477 2.04423C18.1057 2.00168 18.0532 1.9804 18.0269 1.99636C17.9691 2.03359 17.7064 1.91124 17.7379 1.86337C17.7747 1.80485 17.6118 1.74634 17.5435 1.79421C17.512 1.81017 17.5015 1.79953 17.5172 1.77294C17.5382 1.74102 17.5172 1.69846 17.4699 1.6825C17.3491 1.63463 17.3333 1.63995 17.3701 1.71442C17.3911 1.75166 17.3701 1.74102 17.3281 1.69314C17.244 1.58675 16.8394 1.40057 16.8972 1.48568C16.913 1.52292 16.8972 1.52824 16.8499 1.51228C16.8027 1.49632 16.7764 1.45908 16.7922 1.4378C16.8079 1.41653 16.7764 1.38461 16.7238 1.36865C16.6766 1.35269 16.5557 1.31546 16.4611 1.28354C16.3613 1.25162 16.3035 1.25162 16.3193 1.28354C16.3403 1.31014 16.3298 1.33141 16.2983 1.33141C16.272 1.33141 16.2247 1.2995 16.2037 1.25694C16.1827 1.21438 16.0355 1.14523 15.8779 1.09735C15.5732 1.00692 15.405 0.990963 15.5837 1.06544C15.6678 1.10267 15.6572 1.10799 15.5206 1.10267C15.3472 1.09203 15.2895 1.03884 15.405 1.0016C15.4418 0.990963 15.1844 0.921809 14.8428 0.857975C14.3017 0.746264 14.0389 0.730305 12.8778 0.719666C12.1422 0.709027 11.4434 0.714347 11.3278 0.724986ZM14.3752 0.852655C14.391 0.879253 14.2964 0.889892 14.1283 0.868614C13.7605 0.826057 13.7395 0.79946 14.0757 0.79946C14.2228 0.79946 14.3542 0.820738 14.3752 0.852655ZM14.7062 0.943087C14.6537 0.953726 14.5696 0.953726 14.5223 0.943087C14.4698 0.927129 14.5118 0.91649 14.6117 0.91649C14.7115 0.91649 14.7535 0.927129 14.7062 0.943087ZM15.9515 1.21438C15.9357 1.23034 15.8937 1.21438 15.8569 1.17715C15.8096 1.12395 15.8149 1.11863 15.8884 1.15055C15.941 1.16651 15.9672 1.19843 15.9515 1.21438ZM9.21558 1.26226C9.17881 1.2729 9.11575 1.2729 9.08423 1.26226C9.04745 1.2463 9.07372 1.23566 9.14728 1.23566C9.22084 1.23566 9.24711 1.2463 9.21558 1.26226ZM13.5871 2.18254C13.6081 2.21446 13.5293 2.23574 13.3927 2.23042C13.2035 2.2251 13.1878 2.21978 13.2981 2.18254C13.4873 2.12403 13.5503 2.12403 13.5871 2.18254ZM13.9706 2.27297C13.9181 2.28361 13.834 2.28361 13.7867 2.27297C13.7342 2.25701 13.7762 2.24638 13.8761 2.24638C13.9759 2.24638 14.0179 2.25701 13.9706 2.27297ZM14.2281 2.32085C14.2123 2.33681 14.165 2.34213 14.1283 2.32617C14.0862 2.31021 14.102 2.29425 14.1598 2.29425C14.2176 2.28893 14.2491 2.30489 14.2281 2.32085ZM14.5223 2.37936C14.4856 2.39 14.4225 2.39 14.391 2.37936C14.3542 2.36341 14.3805 2.35277 14.454 2.35277C14.5276 2.35277 14.5539 2.36341 14.5223 2.37936ZM14.785 2.43256C14.7483 2.4432 14.6852 2.4432 14.6537 2.43256C14.6169 2.4166 14.6432 2.40596 14.7167 2.40596C14.7903 2.40596 14.8166 2.4166 14.785 2.43256ZM19.2091 4.73592C19.2616 4.79444 19.2932 4.84231 19.2774 4.84231C19.2616 4.84231 19.2091 4.79444 19.1565 4.73592C19.104 4.67741 19.0725 4.62953 19.0882 4.62953C19.104 4.62953 19.1565 4.67741 19.2091 4.73592Z" fill="white"/>
<path fill-rule="evenodd" clip-rule="evenodd" d="M6.41468 2.28337C6.41468 2.35253 6.01536 2.55467 5.96282 2.51211C5.9418 2.49084 5.9418 2.50679 5.96282 2.53871C5.99435 2.59723 5.96808 2.6185 5.85774 2.60255C5.84197 2.60255 5.79469 2.6451 5.75265 2.6983C5.71587 2.75149 5.67909 2.77277 5.67909 2.74617C5.67909 2.71426 5.64231 2.74085 5.60028 2.79937C5.55825 2.85256 5.52147 2.87916 5.52147 2.85256C5.52147 2.83129 5.47418 2.8632 5.41113 2.93236C5.35333 3.00151 5.32181 3.02279 5.33757 2.98023C5.35859 2.93768 5.31655 2.96959 5.23774 3.06003C5.16418 3.14514 5.10639 3.19833 5.10113 3.17174C5.10113 3.15046 5.05384 3.18238 4.99079 3.25153C4.933 3.32068 4.90147 3.34196 4.92249 3.29941C4.9435 3.25685 4.86995 3.31536 4.76486 3.43239C4.65452 3.54942 4.58622 3.60794 4.60724 3.56538C4.62825 3.52283 4.41808 3.72497 4.13961 4.01754C3.86114 4.3048 3.62995 4.56014 3.62995 4.5761C3.62995 4.59206 3.50385 4.741 3.34623 4.90591C3.19385 5.07613 3.07826 5.21976 3.08352 5.2304C3.09402 5.24104 3.02572 5.33147 2.9364 5.43254C2.84182 5.53361 2.76301 5.63469 2.76301 5.65596C2.76301 5.67724 2.72623 5.7198 2.6842 5.7464C2.64216 5.77299 2.6264 5.79959 2.65267 5.79959C2.6842 5.79959 2.65792 5.83683 2.60013 5.8847C2.54759 5.92726 2.53708 5.95386 2.57911 5.93258C2.62114 5.9113 2.60538 5.94322 2.54233 6.00173C2.47928 6.06025 2.4425 6.11876 2.45826 6.14004C2.47928 6.156 2.46352 6.17196 2.42674 6.17196C2.38996 6.17196 2.37945 6.19856 2.39521 6.22516C2.41098 6.25707 2.38996 6.29431 2.34793 6.31027C2.30064 6.32623 2.27437 6.35814 2.29013 6.38474C2.30064 6.40602 2.26911 6.46985 2.21132 6.52837C2.15877 6.5922 2.12725 6.65604 2.14301 6.672C2.16403 6.68796 2.14827 6.70391 2.11674 6.70391C2.07996 6.70391 2.05894 6.71987 2.0642 6.74115C2.07996 6.79967 1.73318 7.52312 1.67539 7.56036C1.64386 7.57632 1.6281 7.60292 1.63861 7.61356C1.66488 7.65611 1.51776 8.0338 1.47573 8.0338C1.44946 8.0338 1.43895 8.06572 1.45471 8.10827C1.47047 8.14551 1.44946 8.21466 1.41268 8.2519C1.3759 8.29446 1.34437 8.34765 1.33912 8.37957C1.33386 8.53916 1.2498 8.83173 1.20776 8.83173C1.18149 8.83173 1.17624 8.86897 1.192 8.91152C1.21302 8.95408 1.20251 8.99132 1.18149 8.99132C1.15522 8.99132 1.12895 9.08175 1.1237 9.18814C1.11844 9.29985 1.09217 9.3956 1.06064 9.40624C1.03437 9.41688 1.02387 9.45944 1.03963 9.50199C1.05539 9.54455 1.05014 9.61902 1.02912 9.6669C1.0081 9.7201 0.981832 9.81053 0.976578 9.86904C0.955561 10.0925 0.882002 10.5074 0.860985 10.5499C0.824206 10.6085 0.79268 11.1351 0.797935 11.5287C0.797935 11.7149 0.776918 11.8639 0.755901 11.8639C0.734884 11.8639 0.713867 12.0767 0.713867 12.3426C0.713867 12.6086 0.72963 12.8214 0.755901 12.8214C0.776918 12.8214 0.797935 13.0182 0.797935 13.2576C0.808443 14.0289 0.818951 14.2045 0.860985 14.2045C0.887256 14.2045 0.897764 14.247 0.89251 14.2949C0.887256 14.3481 0.89251 14.4279 0.908273 14.4704C0.976578 14.662 1.06064 15.1673 1.02912 15.2152C1.01336 15.2418 1.01861 15.2684 1.03963 15.2684C1.09742 15.2684 1.28132 15.9972 1.23929 16.0663C1.22353 16.0929 1.22878 16.1195 1.25505 16.1195C1.28132 16.1195 1.3181 16.1674 1.33386 16.2259C1.36013 16.3323 1.36539 16.3323 1.61759 16.2046C1.7542 16.1355 2.10098 15.9652 2.37945 15.8323L2.89436 15.5822L2.87335 15.3854C2.86284 15.279 2.83131 15.1248 2.79979 15.045C2.76826 14.9705 2.74199 14.8588 2.73674 14.8056C2.73148 14.5715 2.71047 14.4704 2.67369 14.4704C2.65267 14.4704 2.63165 14.3907 2.63165 14.2949C2.62114 13.9172 2.60538 13.7789 2.57386 13.7789C2.54233 13.7789 2.51081 13.0501 2.51081 12.449C2.51081 11.8479 2.54233 11.2787 2.5686 11.2787C2.58962 11.2787 2.61064 11.1936 2.61589 11.0925C2.63165 10.6351 2.64216 10.534 2.67894 10.534C2.69996 10.534 2.71572 10.4914 2.72097 10.4382C2.72623 10.3904 2.73148 10.268 2.74199 10.1723C2.74725 10.0818 2.76826 10.002 2.78403 10.002C2.80504 10.002 2.8208 9.95948 2.82606 9.90628C2.86284 9.57115 2.95741 9.2041 3.01521 9.2041C3.04674 9.2041 3.05199 9.18814 3.03623 9.16686C3.01521 9.1509 3.02572 9.10303 3.05724 9.06047C3.08877 9.02324 3.09928 8.99132 3.08352 8.99132C3.0625 8.99132 3.07826 8.93812 3.11504 8.86897C3.15182 8.80513 3.17809 8.72534 3.18335 8.69874C3.18335 8.66683 3.23063 8.5498 3.27792 8.43277C3.33046 8.31574 3.39877 8.15615 3.43555 8.07104C3.46707 7.99124 3.51436 7.92741 3.53012 7.92741C3.55114 7.92741 3.58266 7.86889 3.59843 7.79442C3.61944 7.71995 3.65622 7.66143 3.68775 7.66143C3.71927 7.66143 3.72453 7.63483 3.70877 7.60824C3.693 7.57632 3.70351 7.55504 3.73504 7.55504C3.76656 7.55504 3.78232 7.53376 3.76131 7.50185C3.74555 7.47525 3.77707 7.40609 3.84012 7.34226C3.89792 7.28374 3.92944 7.23587 3.90843 7.23587C3.88215 7.23587 3.91368 7.19863 3.96622 7.15608C4.02402 7.11352 4.05029 7.07628 4.02402 7.07628C3.99775 7.07628 4.02402 7.03905 4.08181 6.99117C4.13436 6.94861 4.14487 6.92202 4.10283 6.94329C4.0608 6.96457 4.08181 6.92733 4.15537 6.8635C4.22893 6.79967 4.24995 6.76243 4.20792 6.78371C4.16588 6.80499 4.18164 6.76775 4.24995 6.70923C4.31825 6.65072 4.36554 6.58688 4.36554 6.57093C4.36554 6.55497 4.43385 6.4539 4.52842 6.34219C4.61774 6.23579 4.67554 6.17728 4.65452 6.21984C4.623 6.26771 4.63351 6.28367 4.67554 6.25707C4.70707 6.23579 4.72283 6.19856 4.70707 6.17728C4.69656 6.15068 4.74384 6.07621 4.82266 6.00705C4.89622 5.9379 4.9435 5.91662 4.92249 5.95918C4.90147 6.00173 4.92774 5.98046 4.99079 5.90598C5.04859 5.83151 5.1274 5.77299 5.16418 5.77299C5.20096 5.76767 5.22723 5.74108 5.21672 5.70384C5.21147 5.6666 5.22723 5.64001 5.2535 5.64001C5.27977 5.64001 5.29028 5.59745 5.27452 5.53893C5.25876 5.48574 5.27452 5.4219 5.30605 5.40595C5.33757 5.38467 5.34808 5.31019 5.33232 5.23572C5.3113 5.16125 5.32181 5.10805 5.35859 5.10805C5.39011 5.10805 5.40062 5.07613 5.38486 5.03358C5.3691 4.99634 5.39011 4.92719 5.42689 4.88995C5.46367 4.84739 5.50045 4.77824 5.51096 4.73568C5.52147 4.69313 5.58977 4.59737 5.66859 4.52822C5.7474 4.45907 5.77367 4.42183 5.73164 4.44311C5.6896 4.46439 5.75791 4.37395 5.88926 4.23565C6.1257 3.98563 6.18875 3.93775 6.12045 4.05478C6.09943 4.09202 6.14672 4.05478 6.22028 3.97499C6.29909 3.88988 6.38841 3.842 6.42519 3.86328C6.45672 3.88456 6.46723 3.87924 6.45146 3.84732C6.41468 3.79412 6.67214 3.64518 6.71417 3.69305C6.72994 3.70901 6.77722 3.68241 6.81926 3.63986C6.86654 3.5973 6.93485 3.5707 6.97163 3.58666C7.01366 3.60262 7.04519 3.59198 7.04519 3.56006C7.04519 3.52815 7.08722 3.51219 7.13976 3.52283C7.18705 3.53347 7.25536 3.50687 7.28688 3.46431C7.33417 3.40048 7.31841 3.3526 7.19756 3.23025C7.11349 3.14514 7.0557 3.06003 7.07146 3.03343C7.08722 3.01215 7.06095 2.97491 7.01366 2.95896C6.97163 2.943 6.94536 2.90576 6.96112 2.87916C6.97688 2.85256 6.95587 2.81533 6.90858 2.79937C6.86655 2.78341 6.84027 2.74617 6.85604 2.71958C6.8718 2.69298 6.85078 2.65574 6.80349 2.63978C6.76146 2.62382 6.73519 2.58659 6.75095 2.55999C6.76672 2.53339 6.7457 2.49615 6.69841 2.4802C6.65638 2.46424 6.63011 2.43232 6.64061 2.41104C6.67214 2.36317 6.57231 2.26741 6.47773 2.24614C6.44095 2.24082 6.41468 2.25678 6.41468 2.28337Z" fill="white"/>
<path fill-rule="evenodd" clip-rule="evenodd" d="M11.7999 3.86875C11.7158 3.87939 11.6055 3.90598 11.5634 3.92194C11.5214 3.9379 11.4426 3.94854 11.39 3.94322C11.3375 3.93258 11.017 3.99642 10.6807 4.07621C10.2026 4.19324 10.0975 4.23048 10.1973 4.26239L10.3287 4.29963L10.1868 4.30495C10.1028 4.31027 10.0397 4.33687 10.0397 4.36878C10.0397 4.39538 10.0134 4.40602 9.97665 4.38474C9.94513 4.36347 9.97665 4.4273 10.0502 4.52837C10.1185 4.62944 10.2341 4.84222 10.3024 5.00181C10.3655 5.1614 10.4548 5.31566 10.4916 5.33694C10.5336 5.35822 10.5651 5.44333 10.5599 5.52313L10.5546 5.66675L10.5073 5.53376L10.4653 5.40078L10.4758 5.52845C10.4916 5.69335 10.5966 5.70931 11.1168 5.61356C12.1204 5.43269 12.5985 5.41142 13.3236 5.50717C13.7019 5.56036 14.0854 5.60292 14.18 5.60292C14.2851 5.60292 14.3271 5.61888 14.2851 5.65079C14.2326 5.68271 14.2378 5.69335 14.3061 5.69335C14.3534 5.69335 14.4375 5.70931 14.49 5.72527C14.5688 5.75187 14.5688 5.74655 14.5058 5.69867C14.448 5.65611 14.448 5.64016 14.4953 5.64016C14.532 5.64016 14.5741 5.67739 14.5951 5.72527C14.6109 5.77314 14.6634 5.79974 14.7212 5.78378C14.779 5.76782 14.8105 5.77846 14.7895 5.80506C14.7737 5.83166 14.7948 5.85826 14.8315 5.85826C14.8683 5.86358 14.9366 5.87422 14.9787 5.87954C15.0207 5.88485 15.089 5.89549 15.1258 5.90081C15.1626 5.90081 15.1783 5.93273 15.1573 5.96997C15.131 6.0072 15.1468 6.01784 15.2046 5.99657C15.2519 5.98061 15.2992 5.99657 15.3149 6.04444C15.3359 6.09764 15.3832 6.1136 15.4515 6.09232C15.5198 6.07104 15.5671 6.087 15.5881 6.14019C15.6039 6.18807 15.6407 6.20935 15.667 6.19339C15.6932 6.17743 15.7142 6.19339 15.7142 6.22531C15.7142 6.25722 15.7405 6.26786 15.7668 6.2519C15.7983 6.23594 15.8193 6.24658 15.8193 6.2785C15.8193 6.31042 15.8403 6.32638 15.8666 6.3051C15.8981 6.28914 15.9402 6.32106 15.9717 6.36893C16.0032 6.42213 16.0295 6.44341 16.0295 6.41681C16.0295 6.38489 16.0663 6.41149 16.1136 6.47C16.1556 6.5232 16.1819 6.53384 16.1609 6.49128C16.1398 6.44873 16.1766 6.47 16.2397 6.54448C16.3027 6.61895 16.3395 6.64023 16.3185 6.59767C16.2975 6.55512 16.3342 6.5764 16.3973 6.65087C16.4603 6.72534 16.4971 6.74662 16.4761 6.70406C16.4551 6.66151 16.5129 6.70938 16.6022 6.81046C16.6968 6.91153 16.7546 6.9594 16.7388 6.91685C16.7178 6.86365 16.7283 6.86897 16.7809 6.92749C16.8229 6.98068 16.8754 7.00196 16.8964 6.98068C16.9227 6.9594 16.9227 6.97004 16.907 7.00196C16.8859 7.03388 16.9227 7.10835 16.991 7.16155C17.0646 7.22893 17.0768 7.22715 17.0278 7.15623C16.9858 7.09771 17.0278 7.11899 17.1224 7.2041C17.2117 7.28921 17.2747 7.38497 17.2537 7.41156C17.238 7.44348 17.2485 7.4488 17.2747 7.43284C17.3063 7.41156 17.3693 7.44348 17.4219 7.502C17.4744 7.56051 17.4954 7.60839 17.4692 7.60839C17.4429 7.61371 17.5637 7.7467 17.7371 7.90628C17.9105 8.07119 18.0156 8.18822 17.9736 8.16694C17.9315 8.15098 17.9473 8.17758 18.0156 8.22545C18.0786 8.27333 18.1312 8.34248 18.1312 8.37972C18.1312 8.41164 18.1785 8.48611 18.2363 8.53931C18.2941 8.5925 18.3414 8.66166 18.3414 8.69889C18.3414 8.73613 18.3886 8.80528 18.4464 8.85848C18.5042 8.91167 18.5358 8.97551 18.52 8.99679C18.5042 9.02339 18.5147 9.04466 18.5463 9.04466C18.5988 9.04466 18.6881 9.24681 18.6671 9.32128C18.6619 9.34788 18.6829 9.36384 18.7144 9.36384C18.7407 9.36384 18.7564 9.38511 18.7407 9.41171C18.7197 9.43831 18.7354 9.47023 18.7617 9.48087C18.7932 9.4915 18.8247 9.53406 18.83 9.57662C18.8405 9.61917 18.8615 9.68833 18.8825 9.72024C18.9088 9.75748 18.9088 9.81068 18.893 9.84259C18.8773 9.86919 18.8878 9.89579 18.9193 9.89579C18.9508 9.89579 18.9613 9.91707 18.9456 9.94899C18.9298 9.97558 18.9403 10.0022 18.9719 10.0022C19.0086 10.0022 19.0244 10.0394 19.0034 10.082C18.9876 10.1245 18.9981 10.1618 19.0297 10.1618C19.0612 10.1618 19.0717 10.183 19.0559 10.2096C19.0349 10.2362 19.0454 10.2682 19.0769 10.2788C19.1032 10.2841 19.1347 10.3639 19.1505 10.4543C19.161 10.5395 19.1873 10.6565 19.2083 10.7044C19.2293 10.7522 19.2293 10.8161 19.2135 10.848C19.1925 10.8746 19.2083 10.9171 19.2398 10.9331C19.2661 10.9544 19.2819 11.0023 19.2661 11.0448C19.2503 11.082 19.2661 11.1299 19.2924 11.1512C19.3239 11.1672 19.3397 11.2523 19.3186 11.3321C19.3029 11.4119 19.3081 11.497 19.3291 11.5183C19.3817 11.5661 19.3974 11.8002 19.4027 12.4332C19.408 13.1194 19.3922 13.3482 19.3397 13.3801C19.3134 13.396 19.3081 13.4918 19.3239 13.5929C19.3449 13.7205 19.3344 13.7791 19.2924 13.7791C19.2503 13.7791 19.2398 13.8216 19.2608 13.8801C19.2766 13.9386 19.2661 13.9972 19.2398 14.0131C19.2083 14.0344 19.1978 14.0823 19.2135 14.1248C19.2293 14.1674 19.2241 14.2312 19.203 14.2685C19.1768 14.3057 19.1505 14.3961 19.14 14.4706C19.1295 14.5398 19.1032 14.6302 19.0717 14.6621C19.0454 14.694 19.0402 14.7366 19.0612 14.7525C19.0769 14.7738 19.0664 14.7898 19.0349 14.7898C19.0034 14.7898 18.9876 14.8217 19.0034 14.8642C19.0191 14.9068 19.0034 14.9547 18.9771 14.976C18.9456 14.9919 18.9298 15.0345 18.9456 15.0611C18.9666 15.0877 18.9561 15.1089 18.9298 15.1089C18.9036 15.1089 18.8825 15.1409 18.8773 15.1728C18.8668 15.3004 18.8352 15.4015 18.788 15.4813C18.7617 15.5239 18.7354 15.5983 18.7249 15.6409C18.7197 15.6835 18.6881 15.726 18.6566 15.7366C18.6303 15.7473 18.6146 15.7792 18.6356 15.8058C18.6514 15.8324 18.6356 15.8537 18.6041 15.8537C18.5725 15.8537 18.562 15.875 18.5778 15.9069C18.5936 15.9335 18.583 15.9601 18.5515 15.9601C18.52 15.9601 18.5042 15.9813 18.52 16.0026C18.5358 16.0292 18.499 16.0984 18.4464 16.1622C18.3886 16.226 18.3414 16.3005 18.3414 16.3324C18.3414 16.359 18.3203 16.3856 18.2888 16.3856C18.2625 16.3856 18.2363 16.4229 18.2363 16.4654C18.2363 16.508 18.2153 16.5452 18.1837 16.5452C18.1575 16.5452 18.1312 16.5825 18.1312 16.625C18.1312 16.6729 18.0944 16.7208 18.0524 16.7367C18.0103 16.758 17.9841 16.7899 17.9998 16.8112C18.0156 16.8325 17.963 16.891 17.8947 16.9389C17.8212 16.9867 17.7739 17.0506 17.7897 17.0772C17.8054 17.1038 17.7634 17.1623 17.7003 17.2102C17.632 17.2527 17.5795 17.3219 17.5795 17.3591C17.5742 17.391 17.548 17.4176 17.5112 17.407C17.4744 17.4017 17.4534 17.4229 17.4586 17.4549C17.4692 17.4868 17.4271 17.54 17.3693 17.5719C17.3115 17.6091 17.1749 17.7315 17.0593 17.8485C16.949 17.9655 16.8334 18.056 16.8124 18.0506C16.7861 18.04 16.7441 18.0826 16.7125 18.1411C16.681 18.1996 16.6232 18.2475 16.5864 18.2475C16.5444 18.2475 16.4971 18.2847 16.4814 18.3326C16.4656 18.3751 16.4288 18.4017 16.4025 18.3858C16.3763 18.3698 16.3395 18.3911 16.3237 18.439C16.3027 18.4869 16.2764 18.5134 16.2607 18.4975C16.2449 18.4815 16.1871 18.5134 16.1293 18.572C16.0715 18.6305 16.0032 18.6624 15.977 18.6464C15.9454 18.6252 15.9244 18.6411 15.9244 18.673C15.9244 18.705 15.9034 18.7156 15.8719 18.6996C15.8456 18.6837 15.8193 18.6943 15.8193 18.7262C15.8193 18.7581 15.7983 18.7688 15.7668 18.7528C15.7405 18.7369 15.7142 18.7475 15.7142 18.7794C15.7142 18.8113 15.6932 18.822 15.6617 18.806C15.6354 18.7901 15.6092 18.8007 15.6092 18.8273C15.6092 18.8858 15.2729 19.0454 15.1258 19.0614C15.0732 19.0667 15.0312 19.0933 15.0312 19.1199C15.0312 19.1465 15.0154 19.1518 14.9944 19.1358C14.9787 19.1146 14.9314 19.1252 14.8946 19.1518C14.8263 19.2103 14.6476 19.2635 14.4953 19.2741C14.4427 19.2795 14.4007 19.3007 14.4007 19.3273C14.4007 19.3486 14.3744 19.3539 14.3482 19.338C14.3166 19.3167 14.2588 19.3327 14.2168 19.3646C14.1748 19.4018 14.1012 19.4178 14.0592 19.3965C14.0171 19.3805 13.9804 19.3912 13.9804 19.4178C13.9804 19.4656 13.8595 19.4763 13.3393 19.4816C13.1975 19.4869 13.0871 19.5082 13.0871 19.5295C13.0871 19.5561 12.8402 19.572 12.5355 19.572C12.2307 19.572 11.9943 19.5508 12.01 19.5242C12.0258 19.4976 11.926 19.4816 11.7894 19.4816C11.4531 19.4869 11.1431 19.455 11.1431 19.4231C11.1431 19.3965 11.0275 19.3752 10.7648 19.3646C10.7122 19.3593 10.6702 19.3327 10.6702 19.3061C10.6702 19.2741 10.6492 19.2688 10.6177 19.2848C10.5914 19.3007 10.4811 19.2954 10.3812 19.2635C10.2709 19.2369 10.2078 19.2316 10.2236 19.2635C10.2446 19.2901 10.2289 19.3114 10.1973 19.3114C10.1605 19.3114 10.15 19.3539 10.1711 19.4231C10.1973 19.4976 10.1921 19.5242 10.15 19.5029C10.1133 19.4763 10.1028 19.4976 10.1238 19.5454C10.1395 19.5933 10.129 19.6306 10.0922 19.6306C10.0607 19.6306 10.0502 19.6518 10.066 19.6837C10.0817 19.7103 10.0712 19.7369 10.0397 19.7369C10.0029 19.7369 9.98716 19.7742 10.0029 19.8167C10.0239 19.8593 10.0134 19.9072 9.98191 19.9231C9.95563 19.9444 9.94513 19.9816 9.96089 20.0082C9.98191 20.0348 9.96614 20.0561 9.93462 20.0561C9.90309 20.0561 9.88733 20.0774 9.90835 20.104C9.92411 20.1306 9.9136 20.1678 9.88208 20.1891C9.85055 20.2104 9.84004 20.2423 9.8558 20.2689C9.87157 20.2955 9.84004 20.3647 9.77699 20.4285C9.65089 20.5562 9.64564 20.5881 9.75072 20.5881C9.79275 20.5881 9.82953 20.6094 9.82953 20.6413C9.82953 20.6679 9.86106 20.6785 9.90309 20.6625C9.94513 20.6466 9.99241 20.6572 10.0082 20.6891C10.0292 20.7211 10.0765 20.7317 10.1185 20.7104C10.1605 20.6945 10.1973 20.7051 10.1973 20.7317C10.1973 20.7743 10.2814 20.7955 10.5283 20.8062C10.5756 20.8062 10.6177 20.8274 10.6177 20.854C10.6177 20.8806 10.6544 20.8913 10.6965 20.8753C10.7385 20.854 10.8173 20.8594 10.8646 20.8806C10.9172 20.9072 11.0012 20.9179 11.0538 20.9126C11.1011 20.9072 11.1431 20.9232 11.1431 20.9498C11.1431 20.9764 11.2114 20.987 11.2955 20.9711C11.3795 20.9604 11.4636 20.9764 11.4794 21.0083C11.5004 21.0402 11.6055 21.0509 11.7473 21.0296C11.8787 21.0136 11.9838 21.019 11.9838 21.0456C11.9838 21.0721 12.257 21.0934 12.588 21.0934C12.919 21.0934 13.1922 21.0775 13.1922 21.0509C13.1922 21.0296 13.3288 21.0136 13.497 21.0136C13.9961 21.0083 14.0854 21.003 14.0854 20.9445C14.0854 20.9179 14.1432 20.9126 14.2115 20.9285C14.2851 20.9445 14.3587 20.9338 14.3797 20.9019C14.3954 20.87 14.4585 20.854 14.511 20.87C14.5688 20.886 14.6109 20.8753 14.6109 20.8434C14.6109 20.8115 14.6582 20.8009 14.7159 20.8168C14.7737 20.8328 14.821 20.8221 14.821 20.7902C14.821 20.7583 14.8683 20.7477 14.9261 20.7636C14.9839 20.7796 15.0312 20.7689 15.0312 20.737C15.0312 20.7051 15.068 20.6945 15.11 20.7104C15.152 20.7317 15.1993 20.7211 15.2204 20.6891C15.2361 20.6572 15.2834 20.6466 15.3202 20.6625C15.3622 20.6785 15.399 20.6679 15.4095 20.6413C15.42 20.6147 15.4831 20.5828 15.5566 20.5774C15.6302 20.5668 15.7037 20.5402 15.7195 20.5189C15.7353 20.4923 15.7826 20.471 15.8246 20.4657C15.8666 20.4551 15.9297 20.4338 15.9664 20.4125C15.998 20.3859 16.0295 20.3859 16.0295 20.4019C16.0295 20.4232 16.0663 20.3966 16.1136 20.354C16.1556 20.3061 16.2187 20.2795 16.2449 20.2955C16.2712 20.3168 16.2922 20.3008 16.2922 20.2689C16.2922 20.237 16.3185 20.2263 16.3448 20.2423C16.3763 20.2583 16.3973 20.2476 16.3973 20.2157C16.3973 20.1838 16.4236 20.1731 16.4498 20.1891C16.4814 20.2051 16.5024 20.1944 16.5024 20.1625C16.5024 20.1306 16.5286 20.12 16.5549 20.1359C16.5864 20.1519 16.6075 20.1412 16.6075 20.1093C16.6075 20.0774 16.6337 20.0668 16.66 20.0827C16.6915 20.0987 16.7125 20.088 16.7125 20.0561C16.7125 20.0242 16.7388 20.0136 16.7651 20.0295C16.7966 20.0455 16.8176 20.0348 16.8176 20.0029C16.8176 19.971 16.8439 19.9604 16.8702 19.9763C16.9017 19.9923 16.9227 19.9816 16.9227 19.955C16.9227 19.9231 16.9437 19.8965 16.9753 19.8965C17.0015 19.8965 17.0698 19.8593 17.1171 19.8167C17.1697 19.7742 17.2327 19.7316 17.2642 19.721C17.2905 19.7157 17.3693 19.6572 17.4429 19.588C17.5112 19.5242 17.59 19.471 17.6215 19.471C17.6478 19.471 17.7161 19.4125 17.7739 19.338C17.8264 19.2688 17.8947 19.2103 17.9158 19.2209C17.9368 19.2263 18.0208 19.1518 18.0997 19.056C18.1785 18.9656 18.2625 18.8965 18.2836 18.9071C18.3308 18.939 18.8668 18.3911 18.8668 18.3113C18.8668 18.2794 18.9456 18.189 19.0402 18.1145C19.1295 18.0347 19.1715 17.9868 19.1295 18.0081C19.0874 18.0241 19.1347 17.9655 19.2346 17.8698C19.3344 17.7794 19.3817 17.7208 19.3397 17.7368C19.2976 17.7581 19.3239 17.7155 19.4027 17.6464C19.4815 17.5719 19.5288 17.4974 19.513 17.4815C19.4973 17.4655 19.5235 17.4389 19.5708 17.4176C19.6181 17.4017 19.6391 17.3644 19.6234 17.3378C19.6076 17.3112 19.6339 17.274 19.6759 17.258C19.7232 17.2421 19.7442 17.2048 19.7285 17.1782C19.7127 17.1516 19.739 17.1144 19.781 17.0985C19.8283 17.0825 19.8493 17.0453 19.8335 17.0187C19.8178 16.9921 19.8335 16.9708 19.8651 16.9708C19.8966 16.9708 19.9124 16.9495 19.8913 16.9176C19.8756 16.891 19.9019 16.8218 19.9544 16.7686C20.0069 16.7154 20.0542 16.6357 20.0647 16.5931C20.0752 16.5505 20.1068 16.508 20.133 16.5027C20.1593 16.492 20.1698 16.4654 20.1541 16.4388C20.1383 16.4122 20.1646 16.3537 20.2118 16.3112C20.2539 16.2633 20.2749 16.226 20.2539 16.226C20.2381 16.226 20.2486 16.1941 20.2802 16.1569C20.3117 16.1143 20.3222 16.0665 20.3012 16.0505C20.2854 16.0292 20.2907 16.0133 20.3169 16.0133C20.3432 16.0133 20.3695 15.9601 20.3747 15.8962C20.38 15.8377 20.4063 15.7686 20.4273 15.7526C20.4483 15.7366 20.4798 15.6728 20.4851 15.6143C20.4956 15.5558 20.5271 15.5026 20.5481 15.4919C20.5744 15.4813 20.5849 15.4441 20.5691 15.4015C20.5534 15.3643 20.5691 15.3164 20.5954 15.2951C20.6269 15.2792 20.6427 15.2366 20.6269 15.21C20.6059 15.1834 20.6164 15.1621 20.6479 15.1621C20.6795 15.1621 20.69 15.1302 20.6742 15.0877C20.6585 15.0451 20.669 14.9972 20.7005 14.9813C20.732 14.96 20.7425 14.9121 20.7215 14.8696C20.7057 14.827 20.7163 14.7898 20.7425 14.7898C20.7846 14.7898 20.8108 14.6781 20.8108 14.428C20.8108 14.3589 20.8318 14.3163 20.8581 14.3323C20.9002 14.3589 20.9107 14.2365 20.9107 13.8163C20.9107 13.7046 20.9317 13.6248 20.9527 13.6354C20.9737 13.6514 21.0052 13.5131 21.0157 13.3322C21.0683 12.6354 21.0315 11.1725 20.9632 11.1725C20.9422 11.1725 20.9264 11.1193 20.9212 11.0501C20.9002 10.6937 20.8844 10.5873 20.8529 10.5873C20.8318 10.5873 20.8161 10.5448 20.8161 10.4916C20.8056 10.2522 20.7846 10.1618 20.7425 10.1618C20.7215 10.1618 20.7057 10.1298 20.7163 10.0926C20.7215 10.0607 20.6952 9.97026 20.6585 9.90111C20.6007 9.80004 20.6007 9.78408 20.6637 9.82132C20.7057 9.84791 20.6952 9.81068 20.6374 9.72024C20.5849 9.64045 20.5586 9.55002 20.5744 9.52342C20.5902 9.4915 20.5796 9.47023 20.5534 9.47023C20.5218 9.47023 20.5008 9.45427 20.5061 9.42767C20.5061 9.40639 20.4746 9.3 20.422 9.18829C20.3747 9.07658 20.3485 8.95955 20.3695 8.92763C20.3905 8.89572 20.3852 8.88508 20.3537 8.90104C20.2907 8.93827 20.2171 8.79464 20.2591 8.72549C20.2749 8.70421 20.2486 8.66698 20.2013 8.65102C20.1593 8.63506 20.1383 8.59782 20.1541 8.5659C20.1698 8.53931 20.1593 8.51271 20.1225 8.51271C20.0857 8.51271 20.07 8.49675 20.091 8.48079C20.1068 8.46483 20.0805 8.40632 20.0332 8.3478C19.9859 8.28929 19.9544 8.23609 19.9702 8.22545C19.9859 8.21481 19.9491 8.1563 19.8966 8.09247C19.8388 8.02863 19.8125 7.98075 19.8283 7.98075C19.8441 7.98075 19.802 7.91692 19.7337 7.84245C19.6602 7.76265 19.6181 7.68286 19.6286 7.66158C19.6444 7.6403 19.6181 7.60307 19.5708 7.58711C19.5235 7.56583 19.4973 7.53923 19.513 7.52327C19.5288 7.50731 19.4815 7.43284 19.4027 7.35837C19.3239 7.28389 19.3081 7.2573 19.3659 7.29453C19.4237 7.33709 19.3449 7.24134 19.1925 7.08707C19.0402 6.9328 18.9298 6.78386 18.9403 6.76258C18.9561 6.7413 18.809 6.57108 18.6146 6.37957C18.4254 6.19339 18.2993 6.087 18.3414 6.15083C18.3834 6.20935 18.2941 6.12955 18.1364 5.96465C17.9841 5.79974 17.8737 5.70399 17.8947 5.74655C17.9158 5.79442 17.9 5.79442 17.8527 5.73059C17.8107 5.68271 17.7529 5.64016 17.7214 5.64016C17.6898 5.64016 17.6478 5.61356 17.6268 5.57632C17.6005 5.53908 17.611 5.53376 17.6583 5.56036C17.7056 5.58696 17.7161 5.58164 17.6898 5.53908C17.6688 5.50717 17.6268 5.49121 17.6005 5.50717C17.5742 5.52845 17.4954 5.47525 17.4219 5.39546C17.3483 5.31566 17.2905 5.27311 17.2905 5.29439C17.2905 5.32098 17.2537 5.29439 17.2064 5.23587C17.1644 5.18268 17.1381 5.17204 17.1592 5.21459C17.1802 5.25715 17.1486 5.24119 17.0961 5.17736C17.0436 5.11352 16.9647 5.05501 16.9227 5.04437C16.8807 5.03373 16.8124 4.99117 16.7756 4.94862C16.7125 4.87946 16.7073 4.87946 16.7388 4.94862C16.7598 5.00181 16.7493 4.99649 16.6968 4.93798C16.6548 4.88478 16.6075 4.85818 16.5917 4.87946C16.5707 4.89542 16.5549 4.88478 16.5549 4.85286C16.5549 4.82095 16.5181 4.80499 16.4656 4.82627C16.4131 4.84754 16.392 4.8369 16.4131 4.80499C16.4551 4.74115 16.1083 4.57093 16.0085 4.60816C15.9664 4.62412 15.9192 4.60816 15.8929 4.57093C15.8666 4.52837 15.8771 4.51773 15.9244 4.54965C15.9717 4.58157 15.9822 4.57093 15.9507 4.52837C15.9297 4.49113 15.8666 4.46986 15.8141 4.48582C15.7563 4.50177 15.7142 4.49113 15.7142 4.45922C15.7142 4.4273 15.6775 4.42198 15.6302 4.43794C15.5829 4.45922 15.5619 4.44858 15.5881 4.41134C15.6092 4.36878 15.5829 4.36347 15.5041 4.39006C15.4305 4.41134 15.399 4.40602 15.42 4.3741C15.462 4.30495 15.3202 4.25175 15.2046 4.29431C15.152 4.31559 15.131 4.30495 15.152 4.27303C15.1941 4.20388 14.7475 4.07089 14.6582 4.12409C14.6161 4.156 14.6056 4.14536 14.6371 4.09749C14.6687 4.04429 14.6424 4.03365 14.5426 4.05493C14.4637 4.07089 14.3954 4.05493 14.3849 4.02301C14.3744 3.98578 14.201 3.96982 13.9226 3.96982C13.6599 3.96982 13.5548 3.95918 13.6651 3.9379C13.828 3.9113 13.8122 3.90598 13.5127 3.86875C13.1712 3.83151 12.0888 3.83151 11.7999 3.86875ZM12.919 3.92194C12.8087 3.93258 12.6195 3.93258 12.4987 3.92194C12.3726 3.9113 12.4619 3.90067 12.6931 3.90067C12.9243 3.90067 13.0241 3.9113 12.919 3.92194ZM11.1273 4.07621C11.1116 4.09217 11.0643 4.09749 11.0275 4.08153C10.9855 4.06557 11.0012 4.04961 11.059 4.04961C11.1168 4.04429 11.1483 4.06025 11.1273 4.07621ZM12.1046 5.41142C12.0678 5.42205 12.0048 5.42205 11.9733 5.41142C11.9365 5.39546 11.9627 5.38482 12.0363 5.38482C12.1099 5.38482 12.1361 5.39546 12.1046 5.41142ZM13.2605 5.41142C13.2238 5.42205 13.1502 5.42205 13.1029 5.41142C13.0504 5.39546 13.0819 5.38482 13.166 5.38482C13.2553 5.38482 13.2921 5.39546 13.2605 5.41142ZM13.7334 5.46461C13.6966 5.47525 13.6336 5.47525 13.6021 5.46461C13.5653 5.44865 13.5915 5.43801 13.6651 5.43801C13.7387 5.43801 13.7649 5.44865 13.7334 5.46461ZM13.9646 5.51249C13.9488 5.52845 13.9015 5.53376 13.8648 5.51781C13.8227 5.50185 13.8385 5.48589 13.8963 5.48589C13.9541 5.48057 13.9856 5.49653 13.9646 5.51249ZM18.8142 6.62427C18.8825 6.69875 18.9246 6.75726 18.9088 6.75726C18.8983 6.75726 18.83 6.69875 18.7617 6.62427C18.6934 6.5498 18.6514 6.49128 18.6671 6.49128C18.6776 6.49128 18.7459 6.5498 18.8142 6.62427ZM17.632 7.71478C17.6846 7.77329 17.7161 7.82117 17.7003 7.82117C17.6846 7.82117 17.632 7.77329 17.5795 7.71478C17.5269 7.65626 17.4954 7.60839 17.5112 7.60839C17.5269 7.60839 17.5795 7.65626 17.632 7.71478Z" fill="white"/>
<path fill-rule="evenodd" clip-rule="evenodd" d="M7.37103 4.60337C7.09781 4.72572 6.88239 4.89594 6.91917 4.95978C6.94019 4.9917 6.92968 5.00234 6.90341 4.98638C6.82985 4.9385 6.66172 5.19916 6.709 5.27895C6.73002 5.31619 6.72477 5.32151 6.68799 5.30023C6.63019 5.26831 6.61443 5.30023 6.63019 5.40662C6.63019 5.4279 6.60392 5.45982 6.56189 5.48641C6.5146 5.51833 6.49358 5.65132 6.49883 5.94389C6.49883 6.3801 6.59341 6.64607 6.7668 6.75247C6.81934 6.78438 6.84036 6.81098 6.81934 6.81098C6.79307 6.81098 6.80883 6.84822 6.85612 6.89077C6.89816 6.93333 6.96646 6.95993 7.00849 6.94397C7.04527 6.92801 7.11358 6.95461 7.15561 7.0078C7.22392 7.09292 7.21866 7.09824 7.13459 7.02908C7.08731 6.98653 7.02951 6.97057 7.01375 6.98653C6.97697 7.02376 7.12934 7.10356 7.43934 7.21527C7.69679 7.30038 8.18018 7.2791 8.12239 7.18335C8.10662 7.16207 8.13815 7.15143 8.19069 7.16739C8.24849 7.17803 8.3273 7.15675 8.36933 7.10887C8.41662 7.06632 8.45866 7.03972 8.46916 7.05036C8.48493 7.061 8.54798 7.02376 8.62154 6.95993C8.69509 6.90141 8.71611 6.87481 8.67408 6.89609C8.63204 6.91737 8.61103 6.91737 8.63204 6.89077C8.65306 6.8695 8.72662 6.82162 8.78967 6.7897C8.94204 6.71523 9.14696 6.3269 9.05764 6.29498C9.02086 6.28435 9.01035 6.23647 9.02611 6.19391C9.05238 6.12476 9.06289 6.12476 9.09967 6.18327C9.12594 6.22583 9.14696 6.14072 9.14696 5.95985C9.14696 5.74175 9.13119 5.68856 9.08916 5.74707C9.04713 5.81091 9.04187 5.80027 9.06814 5.70983C9.1417 5.44386 8.7634 4.86403 8.3956 4.67252C8.11188 4.5289 7.60222 4.49166 7.37103 4.60337ZM8.21696 4.6672C8.18018 4.67784 8.11713 4.67784 8.08561 4.6672C8.04883 4.65125 8.0751 4.64061 8.14866 4.64061C8.22222 4.64061 8.24849 4.65125 8.21696 4.6672Z" fill="white"/>
<path fill-rule="evenodd" clip-rule="evenodd" d="M22.1717 5.83146C22.1402 5.87402 22.0929 5.8953 22.0719 5.87934C22.0456 5.86338 21.9931 5.90062 21.951 5.95913C21.9142 6.01765 21.867 6.04957 21.8459 6.03361C21.8302 6.01765 21.7934 6.05488 21.7566 6.1134C21.7251 6.17723 21.6778 6.21447 21.6515 6.19851C21.6253 6.18255 21.578 6.21979 21.5464 6.27831C21.5149 6.33682 21.4676 6.37406 21.4414 6.3581C21.4151 6.34214 21.3783 6.36342 21.352 6.40597C21.331 6.44853 21.289 6.49109 21.2575 6.50173C21.1786 6.52832 20.9685 6.75706 21.021 6.75706C21.0525 6.75706 21.0683 6.77834 21.0631 6.80494C21.0525 6.83154 21.0946 6.89537 21.1524 6.94325C21.2102 6.99112 21.2207 7.01772 21.1786 6.99644C21.1366 6.97517 21.1471 7.00176 21.1997 7.04432C21.2575 7.0922 21.2837 7.12943 21.2575 7.12943C21.2312 7.12943 21.2575 7.16667 21.3153 7.20923C21.3678 7.25178 21.3941 7.28902 21.3678 7.28902C21.3363 7.28902 21.3625 7.32626 21.4203 7.36881C21.4729 7.41137 21.4992 7.44861 21.4781 7.44861C21.4519 7.44861 21.4729 7.48584 21.5149 7.53372C21.5622 7.57627 21.5885 7.64011 21.5727 7.66671C21.5517 7.6933 21.5675 7.71458 21.599 7.71458C21.6305 7.71458 21.641 7.73586 21.6253 7.76778C21.6095 7.79438 21.62 7.82097 21.6568 7.82097C21.6936 7.82097 21.7093 7.83693 21.6883 7.85289C21.6725 7.87417 21.6936 7.92204 21.7356 7.9646C21.7776 8.00716 21.7986 8.06567 21.7829 8.09227C21.7619 8.11887 21.7776 8.14015 21.8092 8.14015C21.8407 8.14015 21.8512 8.16142 21.8354 8.19334C21.8197 8.21994 21.8302 8.24654 21.8617 8.24654C21.8932 8.24654 21.909 8.26781 21.888 8.29441C21.8722 8.32101 21.8827 8.35825 21.9142 8.37953C21.9458 8.4008 21.9563 8.43804 21.9405 8.46464C21.9195 8.49124 21.9353 8.51251 21.9668 8.51251C21.9983 8.51251 22.0141 8.53379 21.9931 8.56039C21.9773 8.58699 21.9878 8.62422 22.0193 8.6455C22.0508 8.66678 22.0614 8.70402 22.0456 8.73062C22.0246 8.75721 22.0351 8.77849 22.0666 8.77849C22.0981 8.77849 22.1086 8.81573 22.0929 8.85828C22.0719 8.90084 22.0876 8.93808 22.1244 8.93808C22.1612 8.93808 22.1769 8.97531 22.1559 9.01787C22.1402 9.06043 22.1507 9.09766 22.1769 9.09766C22.2032 9.09766 22.2137 9.1349 22.198 9.17746C22.1769 9.22001 22.1927 9.25725 22.2295 9.25725C22.2663 9.25725 22.2768 9.29981 22.2558 9.36364C22.2347 9.42216 22.2453 9.47003 22.2768 9.47003C22.3083 9.47003 22.3188 9.50195 22.303 9.54451C22.2873 9.58706 22.3031 9.63494 22.3346 9.65622C22.3661 9.67749 22.3766 9.73601 22.3608 9.79452C22.3398 9.85304 22.3503 9.8956 22.3871 9.8956C22.4292 9.8956 22.4397 9.94347 22.4186 10.0233C22.4029 10.0977 22.4134 10.1722 22.4449 10.1882C22.4764 10.2094 22.4869 10.2839 22.4712 10.3531C22.4502 10.4222 22.4607 10.4807 22.4869 10.4807C22.5132 10.4807 22.5395 10.5605 22.5395 10.651C22.5553 11.1191 22.5658 11.2202 22.613 11.1882C22.6393 11.1723 22.6446 11.2255 22.6236 11.3212C22.5763 11.5447 22.6761 11.6564 22.86 11.5872C22.9336 11.5606 23.2751 11.5447 23.6219 11.55L24.2524 11.5606V11.2095C24.2524 11.0127 24.2366 10.8531 24.2156 10.8531C24.1946 10.8531 24.1788 10.752 24.1735 10.6244C24.1683 10.1829 24.1578 10.1084 24.121 10.1084C24.0947 10.1084 24.079 10.0552 24.0737 9.98603C24.058 9.69877 24.0422 9.57642 24.0054 9.57642C23.9686 9.57642 23.9634 9.52323 23.9581 9.24129C23.9529 9.1615 23.9319 9.09766 23.9003 9.09766C23.8741 9.09766 23.8635 9.07639 23.8846 9.04979C23.9003 9.02319 23.8898 8.98595 23.8636 8.96468C23.832 8.94872 23.8215 8.90084 23.8425 8.85828C23.8583 8.81573 23.8425 8.77849 23.8058 8.77849C23.769 8.77849 23.7532 8.74125 23.7742 8.6987C23.79 8.65614 23.7795 8.61891 23.748 8.61891C23.7164 8.61891 23.7007 8.58167 23.7164 8.53911C23.7374 8.49656 23.7269 8.44868 23.6954 8.43272C23.6691 8.41144 23.6586 8.37421 23.6744 8.34761C23.6954 8.32101 23.6797 8.29973 23.6481 8.29973C23.6113 8.29973 23.5956 8.2625 23.6166 8.21994C23.6324 8.17738 23.6219 8.14015 23.5903 8.14015C23.5588 8.14015 23.5536 8.11355 23.5693 8.08695C23.5851 8.05503 23.5746 8.03376 23.543 8.03376C23.5063 8.03376 23.4905 7.99652 23.5115 7.95396C23.5273 7.91141 23.5168 7.87417 23.4852 7.87417C23.4537 7.87417 23.4485 7.84757 23.4642 7.82097C23.48 7.78906 23.4695 7.76778 23.438 7.76778C23.4012 7.76778 23.3854 7.73054 23.4064 7.68798C23.4222 7.64543 23.4117 7.60819 23.3802 7.60819C23.3486 7.60819 23.3434 7.58159 23.3591 7.555C23.3749 7.52308 23.3644 7.5018 23.3329 7.5018C23.3013 7.5018 23.2856 7.48052 23.3066 7.45393C23.3224 7.42733 23.2961 7.36349 23.2488 7.32094C23.2068 7.27306 23.1858 7.23582 23.2068 7.23582C23.2278 7.23582 23.2015 7.18263 23.1437 7.11879C23.0754 7.04432 23.0702 7.01772 23.1227 7.04432C23.1647 7.0656 23.1437 7.03368 23.0702 6.96985C22.9966 6.90601 22.9756 6.86878 23.0176 6.89005C23.0597 6.91133 23.0491 6.87941 22.9861 6.82622C22.881 6.73579 22.8232 6.63472 22.818 6.52832C22.818 6.50173 22.7707 6.44853 22.7181 6.40066C22.6603 6.35278 22.6551 6.33682 22.7024 6.3581C22.7444 6.37938 22.7339 6.35278 22.6761 6.3049C22.6183 6.25703 22.5763 6.19319 22.5868 6.1666C22.592 6.14 22.571 6.11872 22.5395 6.11872C22.5132 6.11872 22.4922 6.10276 22.5027 6.07616C22.5132 6.05488 22.4607 5.97509 22.3766 5.90062C22.2558 5.77827 22.2242 5.76763 22.1717 5.83146Z" fill="white"/>
<path fill-rule="evenodd" clip-rule="evenodd" d="M11.8261 7.01299C11.8261 7.03427 11.7315 7.05555 11.6159 7.05555C11.5003 7.06087 11.369 7.10342 11.3269 7.1513C11.2796 7.19918 11.2008 7.23641 11.1535 7.23641C11.0747 7.23641 11.0747 7.22577 11.143 7.1779C11.2008 7.13534 11.1903 7.13002 11.0905 7.16194C11.0222 7.18322 10.9329 7.23109 10.8908 7.26833C10.8068 7.35344 10.7542 7.36408 10.8015 7.28961C10.8646 7.18854 10.7279 7.23641 10.6124 7.35344C10.5493 7.4226 10.5178 7.44388 10.5388 7.40132C10.5703 7.3428 10.5598 7.33217 10.4915 7.35876C10.439 7.38004 10.3864 7.396 10.3759 7.396C10.3602 7.396 10.3654 7.41728 10.3812 7.4492C10.4022 7.48111 10.3759 7.48643 10.3234 7.46515C10.2551 7.43856 10.2446 7.4492 10.2761 7.50239C10.3076 7.55027 10.2971 7.56091 10.2551 7.53431C10.2183 7.50771 10.1552 7.53431 10.1132 7.5875C10.0659 7.64602 10.0502 7.65666 10.0659 7.61942C10.0922 7.56622 10.0607 7.57154 9.93982 7.63538C9.84524 7.68326 9.78219 7.73645 9.79795 7.75773C9.80846 7.77901 9.7349 7.85348 9.62982 7.91732L9.43541 8.03966L9.59304 7.90136C9.7349 7.77369 9.7349 7.76837 9.61931 7.82688C9.43016 7.92263 9.01507 8.24713 9.08338 8.24713C9.1149 8.24713 9.15694 8.22585 9.1727 8.19393C9.18846 8.16733 9.25677 8.11414 9.31982 8.08222C9.38287 8.0503 9.35134 8.09286 9.25151 8.18329C9.15168 8.26841 9.03609 8.32692 8.99406 8.31096C8.94677 8.295 8.93101 8.30564 8.95728 8.34288C8.97829 8.38012 8.96253 8.40671 8.92575 8.40671C8.82592 8.40671 8.50542 8.74716 8.5527 8.80036C8.57897 8.82164 8.56847 8.8376 8.5422 8.83228C8.43186 8.80568 8.38982 8.8376 8.46338 8.88547C8.53169 8.92803 8.53169 8.93867 8.45813 8.93867C8.41084 8.93867 8.33203 8.99186 8.27423 9.0557C8.20768 9.13726 8.21118 9.15145 8.28474 9.09825C8.34254 9.0557 8.31101 9.09293 8.21118 9.18337C8.1061 9.27912 8.04305 9.37487 8.06406 9.41211C8.09033 9.44934 8.07457 9.4653 8.03254 9.45998C7.99576 9.44934 7.96949 9.48658 7.96949 9.53446C7.97474 9.58765 7.95898 9.61957 7.93796 9.60361C7.91694 9.58765 7.88017 9.61425 7.8644 9.66213C7.84339 9.71532 7.85389 9.73128 7.90118 9.71C7.93271 9.68872 7.90644 9.72064 7.83813 9.77916C7.76983 9.83235 7.72779 9.90682 7.74881 9.93874C7.76457 9.96534 7.74356 10.0026 7.70152 10.0239C7.65949 10.0398 7.62271 10.0824 7.62271 10.1196C7.62271 10.1675 7.63847 10.1675 7.68051 10.109C7.72779 10.0451 7.73305 10.0451 7.70678 10.1249C7.69101 10.1781 7.67525 10.2366 7.67525 10.2473C7.67525 10.2632 7.65423 10.2632 7.62796 10.242C7.56491 10.2047 7.49661 10.4069 7.5439 10.4813C7.55966 10.5079 7.54915 10.5345 7.51762 10.5345C7.48085 10.5345 7.47034 10.5718 7.4861 10.6196C7.50712 10.6728 7.49661 10.6888 7.45457 10.6622C7.41254 10.6356 7.40729 10.6516 7.4283 10.7154C7.44932 10.7686 7.43356 10.8431 7.38627 10.8856C7.34424 10.9335 7.30746 10.9973 7.30746 11.0292C7.30746 11.0665 7.32847 11.0612 7.36 11.0133C7.44932 10.8697 7.41254 11.008 7.30746 11.2101C7.19712 11.4229 7.15508 11.6516 7.25491 11.492C7.32847 11.375 7.31796 11.4708 7.22864 11.6889C7.11305 11.9602 7.1183 13.0932 7.2339 13.2741C7.28644 13.3592 7.30746 13.455 7.28119 13.5614C7.26017 13.6518 7.27068 13.7316 7.30746 13.7529C7.33898 13.7741 7.34949 13.838 7.32847 13.8965C7.30746 13.9763 7.31271 13.9922 7.36 13.9656C7.40729 13.939 7.41254 13.955 7.39152 14.0348C7.37051 14.0933 7.38102 14.1571 7.41254 14.1784C7.44407 14.1997 7.45457 14.2582 7.43881 14.3061C7.42305 14.3593 7.44407 14.4338 7.4861 14.4657C7.52813 14.5029 7.54915 14.5721 7.53339 14.6146C7.51237 14.6731 7.52288 14.6891 7.55966 14.6625C7.60169 14.6412 7.6122 14.6519 7.59118 14.6997C7.57542 14.7423 7.60169 14.7902 7.64898 14.8114C7.70152 14.8274 7.72779 14.8806 7.71203 14.9178C7.69627 14.9604 7.71729 15.0083 7.75932 15.0242C7.80661 15.0402 7.83288 15.0881 7.81711 15.1253C7.80661 15.1572 7.83288 15.221 7.88016 15.2583C7.94847 15.3168 7.94847 15.3221 7.88542 15.2955C7.84339 15.2742 7.85389 15.3008 7.90644 15.3434C7.96423 15.3913 7.9905 15.4285 7.96423 15.4285C7.93796 15.4285 7.96423 15.4657 8.02203 15.5083C8.07457 15.5509 8.10084 15.5881 8.07457 15.5881C8.04305 15.5881 8.06932 15.6253 8.12711 15.6732C8.17966 15.7158 8.19016 15.7424 8.14813 15.7211C8.1061 15.6998 8.1166 15.7264 8.1744 15.7743C8.2322 15.8222 8.27949 15.8807 8.27949 15.902C8.27949 15.9285 8.36355 16.0243 8.46338 16.1201C8.56321 16.2158 8.6105 16.269 8.56847 16.2477C8.52643 16.2211 8.59474 16.3169 8.72609 16.4552C8.96253 16.7052 9.04135 16.769 8.95728 16.636C8.93101 16.5988 8.96253 16.6307 9.02558 16.7052C9.09389 16.7797 9.1727 16.8382 9.20423 16.8382C9.23575 16.8382 9.29355 16.8861 9.33558 16.9393C9.37761 16.9978 9.40914 17.0244 9.40914 16.9925C9.41439 16.9659 9.45643 16.9978 9.50897 17.0616C9.56151 17.1254 9.61931 17.1627 9.64032 17.1467C9.65609 17.1254 9.67185 17.1414 9.67185 17.1786C9.67185 17.2159 9.69287 17.2318 9.71914 17.2106C9.75066 17.1946 9.7927 17.2265 9.82422 17.2744C9.85575 17.3276 9.88202 17.3489 9.88202 17.3276C9.88202 17.2691 10.1973 17.4606 10.1973 17.5191C10.1973 17.5404 10.2235 17.5457 10.2498 17.5297C10.2813 17.5138 10.3024 17.5244 10.3024 17.5563C10.3024 17.5882 10.3234 17.6042 10.3496 17.5829C10.3759 17.567 10.4127 17.5776 10.4337 17.6095C10.4547 17.6414 10.4915 17.6521 10.5178 17.6361C10.544 17.6148 10.5651 17.6308 10.5651 17.6627C10.5651 17.6946 10.5861 17.7106 10.6124 17.6893C10.6386 17.6734 10.6754 17.684 10.6964 17.7159C10.7174 17.7478 10.7542 17.7585 10.7805 17.7425C10.8068 17.7212 10.8278 17.7319 10.8278 17.7585C10.8278 17.7904 10.8751 17.801 10.9329 17.7851C10.9907 17.7691 11.0379 17.7797 11.0379 17.8117C11.0379 17.8436 11.0905 17.8542 11.1535 17.8329C11.2376 17.8117 11.2534 17.8223 11.2218 17.8755C11.1903 17.9287 11.2008 17.9393 11.2691 17.9127C11.3217 17.8915 11.39 17.8915 11.4215 17.9127C11.4583 17.934 11.5476 17.9447 11.6264 17.934C11.7105 17.9287 11.7735 17.9393 11.7735 17.9659C11.7735 18.0138 11.9995 18.0351 12.5512 18.0457C13.0135 18.051 13.4023 18.0191 13.4023 17.9713C13.4023 17.95 13.4654 17.934 13.5495 17.9287C13.9278 17.9234 13.9803 17.9127 13.9488 17.8649C13.9278 17.8329 13.9435 17.8223 13.9856 17.8329C14.0276 17.8489 14.1274 17.8276 14.2062 17.7851C14.285 17.7425 14.3744 17.7266 14.4006 17.7425C14.4269 17.7585 14.4584 17.7478 14.4795 17.7159C14.5005 17.684 14.5372 17.6734 14.5635 17.6893C14.5898 17.7106 14.6108 17.6946 14.6108 17.6574C14.6108 17.6202 14.6266 17.6042 14.6423 17.6255C14.6633 17.6414 14.7106 17.6202 14.7527 17.5776C14.8 17.5351 14.8683 17.5085 14.905 17.5244C14.9471 17.5404 14.9786 17.5297 14.9786 17.4978C14.9786 17.4659 15.0049 17.4606 15.0311 17.4765C15.0627 17.4925 15.0837 17.4819 15.0837 17.4499C15.0837 17.418 15.11 17.4074 15.1362 17.4233C15.1678 17.4393 15.1888 17.4287 15.1888 17.3914C15.1888 17.3542 15.2045 17.3382 15.2203 17.3595C15.2361 17.3755 15.2991 17.3435 15.3622 17.2904C15.42 17.2318 15.483 17.1999 15.504 17.2106C15.5303 17.2265 15.5618 17.1999 15.5776 17.152C15.5933 17.1095 15.6301 17.0882 15.6616 17.1042C15.6879 17.1201 15.7142 17.1095 15.7142 17.0776C15.7142 17.0457 15.772 16.9978 15.8455 16.9605C16.0137 16.8861 15.9716 16.8116 15.5198 16.3648C15.3254 16.1732 15.1888 16.0137 15.215 16.0137C15.2413 16.0137 15.2098 15.9764 15.1467 15.9285C15.0837 15.886 15.0469 15.8222 15.0627 15.7902C15.0837 15.7583 15.0732 15.7477 15.0417 15.769C15.0154 15.7849 14.9786 15.7743 14.9681 15.7424C14.9523 15.6998 14.905 15.7051 14.8052 15.7743C14.7264 15.8222 14.6633 15.8434 14.6633 15.8222C14.6633 15.7956 14.6423 15.8062 14.6161 15.8434C14.595 15.8807 14.5425 15.9179 14.5005 15.9232C14.4584 15.9339 14.3954 15.9551 14.3639 15.9764C14.3271 16.003 14.2956 16.003 14.2956 15.9871C14.2956 15.9658 14.2588 15.9924 14.2115 16.0349C14.1379 16.1094 14.0276 16.1466 13.9173 16.1254C13.891 16.1254 13.8752 16.1466 13.8752 16.1786C13.8752 16.2105 13.8279 16.2264 13.7701 16.2105C13.7123 16.1945 13.665 16.2052 13.665 16.2371C13.665 16.269 13.6283 16.2796 13.5862 16.2637C13.5442 16.2424 13.4969 16.253 13.4759 16.285C13.4601 16.3169 13.4076 16.3275 13.3656 16.3116C13.3235 16.2956 13.2605 16.2956 13.2289 16.3169C13.1396 16.3754 11.9837 16.3807 11.9837 16.3275C11.9837 16.3009 11.9154 16.2956 11.8261 16.3169C11.721 16.3382 11.6684 16.3275 11.6684 16.2796C11.6684 16.2424 11.6317 16.2264 11.5896 16.2477C11.5476 16.2637 11.5108 16.253 11.5108 16.2211C11.5108 16.1892 11.4635 16.1786 11.4005 16.1998C11.3269 16.2264 11.3007 16.2211 11.3217 16.1786C11.3479 16.1413 11.3269 16.1307 11.2796 16.152C11.2324 16.1679 11.1956 16.1573 11.1956 16.1254C11.1956 16.0935 11.164 16.0828 11.122 16.0988C11.0852 16.1147 11.0379 16.0881 11.0222 16.0456C11.0012 15.9977 10.9539 15.9764 10.9171 15.9924C10.8751 16.0083 10.8278 15.9817 10.812 15.9392C10.791 15.8913 10.7437 15.87 10.6964 15.886C10.6544 15.9073 10.6071 15.8807 10.5861 15.8328C10.5703 15.7849 10.5335 15.7583 10.5125 15.7743C10.4915 15.7902 10.4547 15.7636 10.439 15.7158C10.4232 15.6732 10.3864 15.6466 10.3602 15.6679C10.3286 15.6838 10.2866 15.6519 10.2551 15.6041C10.2235 15.5509 10.1973 15.5243 10.1973 15.5455C10.1973 15.5934 9.44067 14.8327 9.43541 14.7795C9.43541 14.7582 9.38812 14.7051 9.33033 14.6572C9.27253 14.6093 9.26202 14.5827 9.30406 14.604C9.3566 14.6253 9.35134 14.6146 9.29355 14.5614C9.24101 14.5189 9.21473 14.471 9.23575 14.455C9.25151 14.4338 9.22524 14.4072 9.17795 14.3859C9.13067 14.3699 9.1044 14.3327 9.12016 14.3114C9.16219 14.2476 9.08863 14.0933 9.03609 14.1305C9.00982 14.1465 9.00457 14.1252 9.02033 14.0827C9.03609 14.0401 9.00982 13.9922 8.96253 13.971C8.90474 13.9497 8.88897 13.9071 8.90999 13.8326C8.93101 13.7688 8.9205 13.7263 8.88372 13.7263C8.84694 13.7263 8.83643 13.689 8.85219 13.6411C8.87321 13.5879 8.8627 13.572 8.82067 13.5986C8.77864 13.6252 8.77338 13.6092 8.79965 13.5401C8.82067 13.4816 8.81016 13.423 8.76813 13.4018C8.6788 13.3432 8.64203 12.7155 8.68406 11.9336C8.69457 11.7421 8.71558 11.6357 8.74186 11.6676C8.76813 11.7048 8.77863 11.6836 8.76287 11.6091C8.74711 11.5452 8.75762 11.492 8.78914 11.492C8.82067 11.492 8.83118 11.4389 8.81016 11.3644C8.78914 11.2846 8.81016 11.2154 8.8627 11.1729C8.90474 11.1356 8.93101 11.0718 8.91524 11.0292C8.89948 10.9867 8.90474 10.9654 8.93101 10.9814C8.9888 11.0186 9.05185 10.8643 9.00982 10.7899C8.9888 10.758 9.01507 10.6994 9.06762 10.6569C9.12541 10.6196 9.15168 10.5877 9.13067 10.5877C9.10965 10.5877 9.14118 10.5399 9.19897 10.4813C9.26202 10.4175 9.29355 10.343 9.27253 10.3058C9.25151 10.2686 9.25151 10.2579 9.27778 10.2792C9.33558 10.3324 9.47744 10.1249 9.43541 10.0558C9.41439 10.0239 9.41965 10.0079 9.44592 10.0132C9.49846 10.0292 10.1185 9.40679 10.1027 9.34827C10.0974 9.32699 10.1079 9.31636 10.129 9.31636C10.2446 9.33763 10.3181 9.29508 10.4442 9.16209C10.523 9.08229 10.5651 9.05038 10.544 9.08761C10.5125 9.14081 10.544 9.13549 10.6649 9.07698C10.7542 9.0291 10.8278 8.96527 10.8278 8.93867C10.8278 8.91207 10.8646 8.90675 10.9171 8.92271C10.9801 8.94931 10.9907 8.93867 10.9591 8.88547C10.9329 8.8376 10.9381 8.82696 10.9801 8.85355C11.0117 8.87483 11.08 8.86419 11.122 8.82696C11.164 8.79504 11.2744 8.7578 11.369 8.74716C11.4583 8.74184 11.6107 8.70461 11.6947 8.66737C11.784 8.63545 12.031 8.59822 12.2464 8.58758C12.4618 8.57694 12.7456 8.55566 12.8769 8.5397C13.0503 8.52374 13.0923 8.52906 13.0345 8.5663C12.9767 8.60886 13.0083 8.61417 13.1554 8.58758C13.2762 8.5663 13.3498 8.57694 13.3498 8.60886C13.3498 8.64077 13.4496 8.67801 13.5652 8.69929C13.6861 8.72057 13.8647 8.77376 13.9645 8.811C14.0644 8.85356 14.1642 8.87483 14.1905 8.85887C14.222 8.8376 14.243 8.85355 14.243 8.88547C14.243 8.91739 14.2693 8.92803 14.2956 8.91207C14.3271 8.89611 14.3481 8.90675 14.3481 8.93867C14.3481 8.9759 14.3849 8.99186 14.4269 8.97058C14.4689 8.95463 14.5267 8.98122 14.5478 9.0291C14.5793 9.08229 14.6318 9.10357 14.6844 9.08229C14.7369 9.06102 14.7579 9.01846 14.7369 8.98654C14.7159 8.94931 14.7211 8.93867 14.7527 8.95463C14.8262 9.0025 15.6249 8.16733 15.6354 8.03435C15.6406 7.97583 15.6091 7.89604 15.5618 7.8588C15.4883 7.80028 15.483 7.8056 15.5513 7.90136C15.5881 7.95987 15.5618 7.93859 15.483 7.8588C15.4094 7.77901 15.3464 7.72581 15.3464 7.74709C15.3464 7.76837 15.3149 7.74709 15.2781 7.68857C15.2361 7.63538 15.1783 7.60878 15.1415 7.63006C15.11 7.65134 15.0679 7.63006 15.0522 7.58218C15.0311 7.53431 14.9839 7.50771 14.9418 7.52367C14.8998 7.53963 14.8788 7.53431 14.8945 7.50771C14.9313 7.4492 14.7789 7.38536 14.7106 7.42792C14.6844 7.44388 14.6633 7.42792 14.6633 7.396C14.6633 7.36408 14.6423 7.35344 14.6108 7.3694C14.5845 7.38536 14.5583 7.37472 14.5583 7.33748C14.5583 7.30557 14.5162 7.28961 14.4532 7.30557C14.3954 7.32153 14.3586 7.31621 14.3744 7.29493C14.3849 7.26833 14.3376 7.22577 14.264 7.18854C14.1064 7.11938 14.0276 7.11406 14.1379 7.18322C14.1905 7.22045 14.1957 7.23641 14.1484 7.23641C14.1117 7.23641 14.0696 7.19918 14.0486 7.1513C14.0223 7.08215 13.9698 7.07151 13.7754 7.09811C13.5967 7.11938 13.56 7.11406 13.6388 7.07683C13.7281 7.02895 13.7281 7.02363 13.602 7.03959C13.5179 7.05555 13.4549 7.04491 13.4549 7.02895C13.4549 7.00767 13.0871 6.99171 12.6405 6.9864C12.1939 6.98108 11.8261 6.99703 11.8261 7.01299ZM15.6091 8.1035C15.6091 8.10882 15.4725 8.24713 15.3096 8.40671L15.0049 8.69929L15.2939 8.39075C15.5566 8.10882 15.6091 8.06094 15.6091 8.1035ZM14.9786 8.74716C14.9786 8.7578 14.9366 8.80036 14.8893 8.8376C14.8052 8.90675 14.8 8.90143 14.8683 8.81632C14.9366 8.73121 14.9786 8.70461 14.9786 8.74716ZM10.4074 9.17273C10.4074 9.18337 10.3707 9.20996 10.3234 9.22592C10.2813 9.24188 10.2603 9.23656 10.2761 9.20464C10.3076 9.15145 10.4074 9.13017 10.4074 9.17273ZM9.77693 15.1891C9.87676 15.2902 9.94507 15.3753 9.92931 15.3753C9.91354 15.3753 9.82422 15.2902 9.72439 15.1891C9.62456 15.0881 9.55626 15.0029 9.57202 15.0029C9.58778 15.0029 9.6771 15.0881 9.77693 15.1891Z" fill="white"/>
<path fill-rule="evenodd" clip-rule="evenodd" d="M5.81571 7.63546C5.91029 7.70993 5.90503 7.71525 5.77893 7.66737C5.65808 7.62482 5.61605 7.64078 5.4952 7.76845C5.41639 7.85356 5.3691 7.94399 5.39012 7.97591C5.40588 8.01314 5.39537 8.0291 5.35859 8.02378C5.32707 8.01315 5.28503 8.03974 5.26927 8.0823C5.25351 8.13017 5.26927 8.14081 5.31656 8.11422C5.35859 8.08762 5.37436 8.09294 5.34808 8.11954C5.32181 8.14613 5.27453 8.16741 5.24826 8.16741C5.21673 8.16741 5.17995 8.19933 5.16419 8.24188C5.14842 8.28976 5.16419 8.3004 5.21148 8.27912C5.25351 8.25784 5.22724 8.28976 5.15368 8.3536C5.08012 8.41743 5.05385 8.45467 5.09063 8.43339C5.12215 8.41743 5.15368 8.42807 5.15368 8.45467C5.15368 8.48658 5.12215 8.51318 5.08012 8.51318C5.03809 8.51318 4.9908 8.55042 4.97504 8.5983C4.95402 8.65149 4.96453 8.66745 5.01182 8.64085C5.04334 8.61957 5.01707 8.65681 4.95402 8.72596C4.85419 8.82172 4.84368 8.85363 4.90148 8.89087C4.95402 8.92811 4.95402 8.93875 4.89097 8.93875C4.78063 8.93875 4.60724 9.36963 4.69131 9.42814C4.74385 9.46006 4.7386 9.4707 4.67555 9.4707C4.58097 9.4707 4.4969 9.70476 4.5547 9.80051C4.57572 9.83775 4.57046 9.84307 4.53368 9.82179C4.4969 9.80051 4.47063 9.80583 4.47063 9.83775C4.47063 9.86435 4.45487 9.9335 4.43911 9.9867C4.41284 10.0665 4.41809 10.0718 4.47063 10.0027C4.52317 9.9335 4.52843 9.93882 4.50216 10.0186C4.48639 10.0718 4.47063 10.1303 4.47063 10.141C4.47063 10.1569 4.44436 10.1516 4.41284 10.1303C4.3708 10.1037 4.36029 10.1516 4.37606 10.2846C4.38656 10.391 4.38131 10.4655 4.36029 10.4495C4.29724 10.4123 4.24996 10.7368 4.28148 10.9761C4.3025 11.1144 4.29724 11.1623 4.27097 11.0932C4.19741 10.9283 4.15013 11.3538 4.18165 11.8432C4.20267 12.1464 4.19741 12.2315 4.15538 12.1571C4.1186 12.0826 4.11335 12.2209 4.13436 12.6092C4.15013 12.9178 4.16589 13.3433 4.16589 13.5561C4.17114 13.8061 4.1869 13.9178 4.21843 13.8753C4.24996 13.8327 4.25521 13.87 4.23419 13.9764C4.21318 14.0721 4.22368 14.1572 4.26046 14.1785C4.29724 14.1998 4.30775 14.2796 4.28673 14.37C4.26572 14.4658 4.27623 14.5243 4.30775 14.5243C4.33928 14.5243 4.34979 14.5615 4.33402 14.6041C4.31301 14.6466 4.32351 14.6839 4.34979 14.6839C4.37606 14.6839 4.38656 14.7583 4.37606 14.8488C4.36029 14.9605 4.3708 15.0083 4.40758 14.9817C4.48114 14.9392 4.53894 15.1201 4.49165 15.2424C4.46538 15.3062 4.47063 15.3275 4.50741 15.3062C4.53894 15.285 4.58097 15.3062 4.59673 15.3541C4.64402 15.4818 4.63351 15.519 4.57046 15.4286C4.52317 15.3648 4.51792 15.3648 4.54419 15.4445C4.55995 15.4977 4.57572 15.5669 4.57572 15.5935C4.57572 15.6254 4.59673 15.6361 4.623 15.6201C4.6808 15.5829 4.74385 15.7371 4.70182 15.8116C4.68605 15.8382 4.71233 15.8967 4.76487 15.9393C4.82266 15.9871 4.83317 16.0084 4.80165 15.9871C4.69656 15.9339 4.72283 15.9978 4.85419 16.1254C4.91724 16.1893 4.93826 16.2265 4.90673 16.2052C4.85944 16.1786 4.84894 16.1946 4.86995 16.2478C4.88571 16.2904 4.933 16.3382 4.98029 16.3542C5.02232 16.3755 5.0486 16.4233 5.03283 16.4606C5.01707 16.5031 5.03809 16.551 5.08537 16.567C5.12741 16.5883 5.15368 16.6361 5.13792 16.6734C5.12215 16.7159 5.14317 16.7638 5.19046 16.7798C5.23775 16.801 5.25876 16.8276 5.243 16.8489C5.22198 16.8649 5.24826 16.9127 5.3008 16.9553C5.35859 17.0085 5.36385 17.0191 5.31131 16.9979C5.26402 16.9766 5.26927 16.9925 5.32707 17.0404C5.37961 17.083 5.41114 17.1468 5.40588 17.184C5.39537 17.2213 5.43215 17.2585 5.48469 17.2638C5.53198 17.2745 5.56351 17.2585 5.54249 17.2319C5.52673 17.2053 5.54775 17.184 5.58978 17.184C5.68961 17.184 5.95232 16.8968 5.90503 16.8383C5.87876 16.817 5.89452 16.8117 5.9313 16.8329C5.96808 16.8542 6.01012 16.8383 6.02588 16.7904C6.04164 16.7425 6.07842 16.7159 6.09944 16.7319C6.12045 16.7478 6.15723 16.7212 6.173 16.6734C6.19401 16.6255 6.22028 16.5989 6.2413 16.6148C6.25706 16.6361 6.30435 16.6095 6.34638 16.5563C6.39893 16.4978 6.40944 16.4925 6.38842 16.5457C6.3674 16.5989 6.37791 16.5936 6.43045 16.5351C6.47249 16.4819 6.51977 16.4553 6.53554 16.4765C6.55655 16.4925 6.57232 16.4819 6.57232 16.4446C6.57232 16.4074 6.59859 16.3967 6.62486 16.4127C6.70893 16.4659 6.75096 16.2904 6.6774 16.1999C6.64062 16.1574 6.63011 16.1201 6.65638 16.1201C6.6774 16.1201 6.65113 16.0829 6.59333 16.035C6.54079 15.9925 6.53028 15.9659 6.57232 15.9871C6.6196 16.0084 6.6091 15.9871 6.5513 15.9393C6.49876 15.8967 6.47249 15.8329 6.4935 15.8063C6.50927 15.7744 6.48825 15.7318 6.44096 15.7158C6.39367 15.6946 6.3674 15.6467 6.38316 15.6041C6.39893 15.5669 6.37791 15.519 6.33062 15.4977C6.28859 15.4818 6.26232 15.4339 6.27808 15.3967C6.29384 15.3541 6.28333 15.3222 6.25181 15.3222C6.22028 15.3222 6.21503 15.2956 6.23079 15.269C6.24655 15.2424 6.2413 15.2158 6.20978 15.2158C6.17825 15.2158 6.173 15.1786 6.18876 15.1254C6.20978 15.0669 6.20452 15.0509 6.16249 15.0775C6.12045 15.1041 6.10995 15.0881 6.13096 15.0349C6.14672 14.9871 6.13622 14.9498 6.10469 14.9498C6.07317 14.9498 6.06266 14.9126 6.08367 14.8594C6.10995 14.7956 6.09944 14.7849 6.04689 14.8168C5.99435 14.8488 5.98384 14.8381 6.01012 14.7743C6.02588 14.7211 6.02062 14.6839 5.9891 14.6839C5.96283 14.6839 5.95232 14.6253 5.97334 14.5455C5.99961 14.4498 5.9891 14.4126 5.95232 14.4392C5.92079 14.4604 5.91029 14.4285 5.9313 14.354C5.94706 14.2902 5.93656 14.253 5.90503 14.2742C5.87876 14.2955 5.863 14.2423 5.87876 14.1466C5.88927 14.0615 5.87876 13.9923 5.85249 13.9923C5.82096 13.9923 5.81046 13.9285 5.82622 13.854C5.84198 13.7529 5.83147 13.721 5.79469 13.7476C5.7474 13.7742 5.74215 13.7104 5.76317 13.5295C5.78418 13.3646 5.77368 13.3008 5.74215 13.3433C5.71063 13.3859 5.70012 13.2742 5.70012 13.0242C5.70537 12.8114 5.68961 12.4816 5.66859 12.2901C5.64232 12.0454 5.64758 11.9975 5.6791 12.1305C5.71588 12.2741 5.72113 12.2369 5.70537 11.9443C5.68961 11.673 5.69486 11.5932 5.7369 11.6517C5.77893 11.7102 5.78418 11.673 5.76317 11.5028C5.7369 11.3325 5.7474 11.2793 5.78944 11.3113C5.83673 11.3379 5.84198 11.3059 5.81571 11.2049C5.78944 11.0985 5.79469 11.0666 5.84198 11.0985C5.88927 11.1251 5.89452 11.0932 5.87351 10.9655C5.84723 10.8431 5.85774 10.8059 5.89978 10.8325C5.94181 10.8591 5.94706 10.8431 5.92605 10.7846C5.91029 10.7314 5.91554 10.6942 5.94706 10.6942C5.97334 10.6942 5.98384 10.6357 5.96283 10.5665C5.94706 10.4921 5.95757 10.391 5.99435 10.3378C6.04164 10.2527 6.04689 10.258 6.02062 10.375C5.99435 10.4867 5.99961 10.4921 6.04689 10.4123C6.07842 10.3591 6.09944 10.2899 6.08367 10.2527C6.07317 10.2208 6.09944 10.1569 6.13622 10.1144C6.1835 10.0718 6.19927 9.99202 6.1835 9.91222C6.16249 9.83243 6.173 9.79519 6.20978 9.80051C6.2413 9.81115 6.28333 9.78455 6.2991 9.742C6.31486 9.69944 6.2991 9.68348 6.26232 9.70476C6.22554 9.72604 6.21503 9.71008 6.23605 9.6622C6.25181 9.61433 6.29384 9.58773 6.32537 9.59305C6.36215 9.59837 6.38842 9.55049 6.38316 9.48666C6.38316 9.42282 6.39893 9.38027 6.41994 9.39091C6.44096 9.40687 6.47249 9.38027 6.48825 9.33239C6.50927 9.2792 6.49876 9.26324 6.45147 9.28452C6.41994 9.30579 6.43045 9.28452 6.48825 9.23664C6.54079 9.19408 6.56706 9.13557 6.5513 9.10365C6.53028 9.07705 6.54604 9.0345 6.57757 9.01322C6.6196 8.98662 6.63011 9.00258 6.60384 9.05046C6.58282 9.09301 6.59859 9.08237 6.63537 9.02386C6.67215 8.97066 6.75621 8.85895 6.82452 8.77384C6.94536 8.62489 7.02943 8.38019 6.93486 8.43339C6.90859 8.45467 6.88757 8.43871 6.88757 8.40679C6.88757 8.37487 6.86655 8.36423 6.83503 8.38019C6.80876 8.39615 6.78248 8.38551 6.78248 8.3536C6.78248 8.31636 6.7457 8.3004 6.70367 8.31636C6.66164 8.33764 6.61435 8.32168 6.59333 8.28976C6.56706 8.25252 6.58282 8.2472 6.62486 8.2738C6.67215 8.3004 6.68265 8.29508 6.65638 8.25252C6.63537 8.22061 6.57232 8.20465 6.52503 8.22061C6.46198 8.24189 6.38316 8.18337 6.26232 8.03442C6.173 7.91739 6.0574 7.82164 6.01012 7.82164C5.96283 7.82164 5.94181 7.80568 5.95757 7.7844C5.99961 7.74185 5.84198 7.55566 5.76842 7.55566C5.7369 7.55566 5.75791 7.5929 5.81571 7.63546ZM5.6791 7.67801C5.6791 7.68865 5.62656 7.74185 5.56351 7.80036L5.44266 7.90143L5.54249 7.77908C5.63707 7.66737 5.6791 7.63546 5.6791 7.67801ZM6.17825 7.98123C6.23079 8.03974 6.26232 8.08762 6.24655 8.08762C6.23079 8.08762 6.17825 8.03974 6.12571 7.98123C6.07317 7.92271 6.04164 7.87484 6.0574 7.87484C6.07317 7.87484 6.12571 7.92271 6.17825 7.98123ZM4.2447 11.4496C4.22894 11.4868 4.21843 11.4602 4.21843 11.3857C4.21843 11.3113 4.22894 11.2847 4.2447 11.3166C4.25521 11.3538 4.25521 11.4177 4.2447 11.4496ZM5.66334 12.8858C5.64757 12.9284 5.63181 12.9124 5.63181 12.8539C5.62656 12.7954 5.64232 12.7635 5.65808 12.7848C5.67385 12.8007 5.6791 12.8486 5.66334 12.8858Z" fill="white"/>
<path fill-rule="evenodd" clip-rule="evenodd" d="M16.713 9.6298C16.5869 9.77343 16.4556 9.8745 16.4293 9.85854C16.403 9.83726 16.3978 9.85322 16.4136 9.87982C16.4346 9.91173 16.3978 9.98089 16.3295 10.0341C16.2559 10.1015 16.2419 10.0997 16.2875 10.0288C16.3242 9.97025 16.2612 10.0288 16.1456 10.1618C15.9249 10.4065 15.8934 10.5607 16.03 10.6831C16.072 10.7256 16.0773 10.7416 16.0458 10.7203C15.9985 10.699 15.988 10.715 16.009 10.7682C16.0247 10.8161 16.0615 10.8533 16.0931 10.8533C16.1193 10.8533 16.1246 10.8746 16.1088 10.9065C16.0931 10.9331 16.1036 10.9597 16.1351 10.9597C16.1719 10.9597 16.1876 10.9969 16.1719 11.0395C16.1508 11.082 16.1614 11.1299 16.1929 11.1512C16.2244 11.1671 16.2349 11.2203 16.2192 11.2629C16.1981 11.3055 16.2086 11.3214 16.2454 11.3001C16.2822 11.2789 16.2927 11.3001 16.2717 11.3746C16.2507 11.4331 16.2612 11.497 16.2927 11.5182C16.3295 11.5395 16.34 11.614 16.319 11.6885C16.3032 11.7629 16.3085 11.8055 16.3295 11.7949C16.3505 11.7789 16.3715 12.0608 16.3715 12.4226C16.3715 12.7843 16.3558 13.0503 16.3347 13.0183C16.3137 12.9811 16.2927 13.0237 16.2927 13.1141C16.2875 13.4918 16.2769 13.5663 16.2297 13.5663C16.2034 13.5663 16.1929 13.5875 16.2139 13.6141C16.2297 13.6407 16.2192 13.678 16.1929 13.6992C16.1614 13.7152 16.1508 13.7631 16.1666 13.8003C16.1824 13.8376 16.1561 13.9067 16.1141 13.9546C16.072 13.9971 16.051 14.045 16.0668 14.0663C16.0878 14.0823 16.072 14.0982 16.0353 14.0982C15.9985 14.0982 15.988 14.1195 16.0037 14.1514C16.0195 14.178 16.0142 14.2046 15.9932 14.2046C15.9092 14.2046 15.9249 14.5025 16.009 14.6089C16.051 14.6621 16.0773 14.6727 16.0563 14.6302C16.0405 14.5876 16.2192 14.7525 16.4556 15.0025C16.692 15.2526 16.8654 15.4175 16.8444 15.3749C16.8024 15.3057 16.8129 15.3058 16.8864 15.3696C16.9337 15.4068 16.96 15.4653 16.939 15.4973C16.9232 15.5292 16.9337 15.5345 16.9652 15.5132C17.002 15.4919 17.0283 15.5026 17.0283 15.5292C17.0283 15.5611 17.0703 15.5451 17.1229 15.4919C17.1807 15.4441 17.2122 15.3855 17.2017 15.3589C17.1912 15.3377 17.2017 15.3217 17.2332 15.3217C17.2647 15.3217 17.2752 15.2898 17.2595 15.2526C17.2437 15.21 17.27 15.1462 17.312 15.1089C17.3593 15.0717 17.3803 15.0238 17.3646 14.9972C17.3488 14.9706 17.3593 14.9493 17.3803 14.9493C17.4066 14.9493 17.4329 14.8961 17.4329 14.8323C17.4381 14.7632 17.4697 14.7046 17.4959 14.694C17.5222 14.6834 17.5327 14.6408 17.5169 14.5983C17.5012 14.5557 17.5169 14.5238 17.5485 14.5238C17.58 14.5238 17.5905 14.4865 17.5747 14.444C17.5537 14.4014 17.5695 14.3642 17.601 14.3642C17.6325 14.3642 17.643 14.327 17.6273 14.2844C17.6063 14.2418 17.622 14.2046 17.6588 14.2046C17.6956 14.2046 17.7061 14.162 17.6851 14.0982C17.6641 14.0397 17.6746 13.9918 17.7061 13.9918C17.7376 13.9918 17.7481 13.9546 17.7324 13.912C17.7113 13.8695 17.7271 13.8003 17.7586 13.7578C17.7902 13.7205 17.8007 13.6727 17.7849 13.6567C17.7691 13.6407 17.7744 13.5929 17.7954 13.5556C17.8532 13.4652 17.8742 13.3216 17.869 13.013C17.869 12.8694 17.8952 12.7205 17.9268 12.6832C17.9635 12.6353 17.9741 12.5236 17.9478 12.3853C17.9163 12.1619 17.869 11.6406 17.8637 11.3959C17.8585 11.3321 17.8374 11.2789 17.8164 11.2789C17.7902 11.2789 17.7691 11.2363 17.7691 11.1831C17.7639 10.981 17.7429 10.9065 17.7008 10.9065C17.6746 10.9065 17.6641 10.8586 17.6851 10.8054C17.7008 10.7469 17.6903 10.6884 17.6588 10.6671C17.6273 10.6512 17.6168 10.6086 17.6325 10.582C17.6536 10.5554 17.6378 10.5341 17.6063 10.5341C17.5747 10.5341 17.559 10.5128 17.58 10.4862C17.5958 10.4596 17.5852 10.4224 17.5537 10.4011C17.5222 10.3799 17.5117 10.3426 17.5274 10.316C17.5485 10.2894 17.5327 10.2681 17.4959 10.2681C17.4591 10.2681 17.4486 10.2522 17.4644 10.2309C17.4854 10.2149 17.4644 10.1511 17.4119 10.0979C17.3646 10.0447 17.3488 10.0022 17.3751 10.0022C17.4013 10.0022 17.3961 9.98089 17.3593 9.95961C17.3278 9.93833 17.291 9.88514 17.2805 9.84258C17.27 9.80002 17.228 9.73087 17.1859 9.69363C17.1176 9.6298 17.1176 9.62448 17.1859 9.66172C17.228 9.68831 17.2069 9.6298 17.1334 9.53937C17.0598 9.44361 16.9915 9.36914 16.9758 9.36914C16.96 9.37446 16.8444 9.49149 16.713 9.6298Z" fill="white"/>
<path fill-rule="evenodd" clip-rule="evenodd" d="M12.2472 10.0771C12.2472 10.1037 12.1789 10.109 12.0896 10.0877C12.0055 10.0718 11.9319 10.0824 11.9319 10.109C11.9319 10.1356 11.8952 10.1463 11.8531 10.1303C11.8111 10.109 11.7743 10.125 11.7743 10.1622C11.7743 10.1995 11.7428 10.2154 11.7008 10.1995C11.6587 10.1835 11.6114 10.2048 11.5957 10.2473C11.5799 10.2952 11.5326 10.3218 11.4958 10.3058C11.4643 10.2952 11.4013 10.3218 11.3645 10.3697C11.3225 10.4176 11.3067 10.4229 11.3277 10.3856C11.3435 10.3537 11.3487 10.3218 11.333 10.3218C11.2752 10.3218 10.5921 11.0346 10.6079 11.0772C10.6131 11.0985 10.5921 11.1197 10.5606 11.1197C10.5343 11.1197 10.5186 11.141 10.5343 11.1676C10.5553 11.1942 10.5448 11.2261 10.5186 11.2368C10.4923 11.2421 10.4608 11.29 10.4503 11.3325C10.4397 11.3751 10.4082 11.4389 10.3714 11.4815C10.3347 11.5187 10.3242 11.5879 10.3399 11.6357C10.3662 11.6996 10.3557 11.7102 10.3031 11.6783C10.2558 11.6517 10.2453 11.657 10.2716 11.6996C10.2926 11.7315 10.2821 11.7953 10.2506 11.8379C10.2138 11.8857 10.2033 11.9762 10.2191 12.056C10.2453 12.1464 10.2348 12.1783 10.198 12.157C10.1665 12.1358 10.1455 12.2209 10.1455 12.3911C10.1455 12.5507 10.1665 12.6624 10.2033 12.6624C10.2401 12.6624 10.2453 12.7209 10.2243 12.8273C10.198 12.9443 10.2138 13.0188 10.2769 13.088C10.3242 13.1412 10.3557 13.221 10.3399 13.2582C10.3294 13.2954 10.3557 13.3752 10.403 13.4284C10.4713 13.5135 10.4713 13.5242 10.4082 13.4922C10.3609 13.4657 10.3662 13.4816 10.4187 13.5295C10.4713 13.572 10.4975 13.6199 10.4765 13.6359C10.4608 13.6572 10.4713 13.6731 10.508 13.6731C10.5448 13.6731 10.5606 13.6944 10.5448 13.721C10.5291 13.7476 10.5501 13.7848 10.5974 13.8008C10.6447 13.8221 10.6709 13.8487 10.6552 13.8699C10.6341 13.8859 10.7077 13.9816 10.818 14.088C10.9231 14.1891 10.9652 14.2423 10.9074 14.1997C10.8373 14.1536 10.8356 14.1678 10.9021 14.2423C10.9547 14.3061 11.0177 14.354 11.0387 14.3487C11.065 14.3434 11.1228 14.3859 11.1701 14.4444C11.2174 14.503 11.2436 14.5136 11.2226 14.471C11.2016 14.4285 11.2279 14.4391 11.2752 14.4976C11.3225 14.5562 11.3645 14.5934 11.3697 14.5828C11.375 14.5721 11.4328 14.5774 11.5011 14.5987C11.5641 14.62 11.6009 14.6625 11.5852 14.6945C11.5641 14.7264 11.5747 14.737 11.6062 14.7157C11.6377 14.6998 11.6745 14.7051 11.6955 14.7317C11.7113 14.7636 11.7585 14.7743 11.8006 14.753C11.8426 14.737 11.8794 14.753 11.8794 14.7849C11.8794 14.8168 11.9162 14.8275 11.9582 14.8115C12.0002 14.7902 12.037 14.8009 12.037 14.8221C12.037 14.8487 12.2524 14.87 12.5099 14.87C12.7674 14.87 12.9828 14.8487 12.9828 14.8275C12.9828 14.8009 13.0353 14.8009 13.0931 14.8168C13.1772 14.8434 13.1929 14.8381 13.1667 14.7849C13.1352 14.737 13.1509 14.7264 13.214 14.753C13.2665 14.7743 13.3401 14.7583 13.3874 14.7051C13.4346 14.6625 13.5029 14.636 13.5397 14.6519C13.5818 14.6679 13.6133 14.6572 13.6133 14.6253C13.6133 14.5934 13.6396 14.5881 13.6658 14.604C13.6974 14.62 13.7184 14.6094 13.7184 14.5721C13.7184 14.5349 13.7341 14.5242 13.7551 14.5402C13.7709 14.5615 13.8182 14.5349 13.8602 14.4817C13.9128 14.4232 13.9233 14.4178 13.9023 14.471C13.8813 14.5136 13.9075 14.503 13.9548 14.4444C14.0021 14.3859 14.0599 14.3434 14.0809 14.3487C14.1019 14.354 14.2175 14.2636 14.3279 14.1412C14.4382 14.0189 14.496 13.9391 14.454 13.9604C14.4119 13.9816 14.4329 13.9497 14.5065 13.8859C14.5748 13.8221 14.6379 13.7316 14.6431 13.6891C14.6536 13.6412 14.6904 13.5827 14.7272 13.5614C14.764 13.5348 14.7745 13.5135 14.7482 13.5135C14.7219 13.5135 14.7324 13.4816 14.764 13.4444C14.7955 13.4018 14.806 13.3539 14.785 13.338C14.7692 13.3167 14.7797 13.3007 14.8165 13.3007C14.8533 13.3007 14.869 13.2795 14.848 13.2529C14.8323 13.2263 14.8428 13.189 14.869 13.1731C14.8953 13.1571 14.9058 13.0933 14.8901 13.0348C14.8743 12.9763 14.8848 12.9284 14.9058 12.9284C14.9321 12.9284 14.9531 12.7103 14.9531 12.4496C14.9531 12.189 14.9321 11.9709 14.9111 11.9709C14.8848 11.9709 14.8848 11.923 14.9006 11.8645C14.9216 11.8006 14.9111 11.7581 14.8743 11.7581C14.8375 11.7581 14.8218 11.7208 14.8428 11.6783C14.8585 11.6357 14.848 11.5985 14.8218 11.5985C14.7955 11.5985 14.785 11.5613 14.8007 11.5187C14.8218 11.4761 14.806 11.4389 14.7692 11.4389C14.7377 11.4389 14.7272 11.4123 14.7429 11.3857C14.7587 11.3538 14.7482 11.3325 14.7167 11.3325C14.6851 11.3325 14.6746 11.3059 14.6904 11.2793C14.7062 11.2474 14.6957 11.2261 14.6641 11.2261C14.6326 11.2261 14.6168 11.2048 14.6326 11.1782C14.6484 11.1516 14.6273 11.1144 14.5801 11.0985C14.5328 11.0772 14.5065 11.0506 14.5223 11.0346C14.538 11.0187 14.4907 10.9442 14.4119 10.8697C14.3331 10.7952 14.3173 10.7686 14.3751 10.8059C14.4382 10.8484 14.4172 10.8059 14.3279 10.7101C14.2438 10.6144 14.1597 10.5399 14.144 10.5452C14.0389 10.5559 13.9811 10.5239 13.9968 10.4654C14.0021 10.4335 13.9758 10.4069 13.9443 10.4122C13.9075 10.4229 13.876 10.4016 13.876 10.3697C13.876 10.3431 13.855 10.3324 13.8235 10.3484C13.7972 10.3644 13.7709 10.3537 13.7709 10.3218C13.7709 10.2899 13.7499 10.2792 13.7184 10.2952C13.6921 10.3112 13.6658 10.3058 13.6658 10.2739C13.6658 10.242 13.629 10.2367 13.5765 10.2526C13.5135 10.2792 13.5029 10.2686 13.5345 10.2154C13.566 10.1622 13.5555 10.1516 13.4924 10.1782C13.4399 10.1995 13.4031 10.1888 13.4031 10.1569C13.4031 10.125 13.3663 10.109 13.3243 10.1303C13.2823 10.1463 13.2455 10.1356 13.2455 10.1037C13.2455 10.0771 13.1877 10.0665 13.1141 10.0877C13.0353 10.109 12.9828 10.0984 12.9828 10.0611C12.9828 10.0292 12.8462 10.0133 12.615 10.0186C12.4153 10.0239 12.2472 10.0505 12.2472 10.0771ZM12.8777 11.4974C12.8777 11.5293 12.8987 11.5347 12.9302 11.5187C12.9565 11.5027 13.0826 11.5879 13.2035 11.7102C13.3296 11.8326 13.3926 11.9123 13.3506 11.8857C13.3033 11.8591 13.3243 11.8857 13.3874 11.9496C13.4662 12.0187 13.4977 12.0879 13.4767 12.1464C13.4609 12.1996 13.4714 12.2368 13.5029 12.2368C13.5345 12.2368 13.5607 12.3379 13.5607 12.4815C13.5607 12.6518 13.545 12.7103 13.4977 12.6837C13.4557 12.6571 13.4504 12.673 13.4714 12.7316C13.4924 12.7847 13.4767 12.822 13.4452 12.822C13.4136 12.822 13.4031 12.8379 13.4241 12.8592C13.4662 12.9071 13.1352 13.2529 13.0774 13.2156C13.0563 13.1997 13.0353 13.2156 13.0353 13.2475C13.0353 13.2795 13.0143 13.2901 12.9828 13.2741C12.9565 13.2582 12.9302 13.2688 12.9302 13.3007C12.9302 13.338 12.8882 13.3486 12.8252 13.3273C12.7674 13.3114 12.7201 13.3114 12.7201 13.338C12.7201 13.3646 12.6255 13.3805 12.5099 13.3805C12.3943 13.3805 12.2997 13.3593 12.2997 13.338C12.2997 13.3114 12.263 13.3007 12.2209 13.322C12.1789 13.338 12.1421 13.3273 12.1421 13.3007C12.1421 13.2741 12.1106 13.2635 12.0685 13.2795C12.0265 13.2954 11.9792 13.2795 11.953 13.2422C11.9267 13.1997 11.9372 13.189 11.9897 13.2156C12.0318 13.2369 11.9845 13.1837 11.8899 13.0933C11.7953 13.0029 11.7375 12.9284 11.7585 12.9284C11.7796 12.9284 11.7533 12.8965 11.6955 12.8592C11.643 12.8167 11.6167 12.7582 11.6377 12.7209C11.6587 12.689 11.6482 12.6198 11.6114 12.5773C11.5589 12.5135 11.5589 12.4709 11.6062 12.3964C11.6377 12.3379 11.6535 12.2528 11.6324 12.2049C11.6062 12.1358 11.6167 12.1251 11.6692 12.157C11.7165 12.189 11.727 12.1783 11.7008 12.1358C11.6745 12.0985 11.7008 12.0347 11.7533 11.9921C11.8111 11.9443 11.8163 11.9283 11.7743 11.9496C11.7323 11.9709 11.7533 11.9283 11.8269 11.8591C11.9004 11.79 11.9897 11.6996 12.0265 11.6517C12.0685 11.6056 12.0791 11.6056 12.058 11.6517C12.037 11.6942 12.0738 11.6783 12.1369 11.6144C12.1999 11.5506 12.284 11.5081 12.326 11.524C12.368 11.5453 12.4048 11.5347 12.4048 11.5081C12.4048 11.4815 12.5099 11.4549 12.6413 11.4495C12.7779 11.4442 12.8777 11.4655 12.8777 11.4974Z" fill="white"/>
<path fill-rule="evenodd" clip-rule="evenodd" d="M10.8489 10.7049L10.749 10.8273L10.8699 10.7262C10.9802 10.6304 11.0117 10.5879 10.9697 10.5879C10.9592 10.5879 10.9066 10.6411 10.8489 10.7049Z" fill="white"/>
<path fill-rule="evenodd" clip-rule="evenodd" d="M22.6764 13.194C22.6449 13.2419 22.6554 13.2525 22.708 13.2206C22.771 13.178 22.771 13.1887 22.708 13.2685C22.6659 13.3164 22.6344 13.4387 22.6397 13.5398C22.6449 13.6408 22.6292 13.726 22.6081 13.726C22.5714 13.726 22.5503 13.9068 22.5451 14.2207C22.5398 14.3005 22.5241 14.3537 22.4978 14.343C22.4768 14.3271 22.4505 14.3909 22.4505 14.4867C22.4505 14.5824 22.4453 14.7101 22.44 14.7739C22.44 14.8431 22.419 14.8963 22.3927 14.8963C22.3664 14.8963 22.3559 14.9388 22.3717 14.9973C22.3875 15.0505 22.3717 15.1144 22.3402 15.1303C22.3139 15.1516 22.2981 15.1995 22.3192 15.242C22.3349 15.2846 22.3192 15.3218 22.2876 15.3218C22.2561 15.3218 22.2456 15.3591 22.2614 15.4016C22.2824 15.4442 22.2666 15.5133 22.2351 15.5559C22.2036 15.5931 22.1931 15.6357 22.2088 15.657C22.2246 15.6729 22.2088 15.7421 22.172 15.8112C22.1353 15.8751 22.0985 15.9814 22.088 16.0346C22.0775 16.0932 22.0459 16.1676 22.0144 16.2102C21.9829 16.2474 21.9724 16.2793 21.9881 16.2793C22.0092 16.2793 21.9934 16.3325 21.9566 16.3964C21.9198 16.4655 21.8988 16.5347 21.9041 16.556C21.9093 16.5826 21.8936 16.5985 21.8726 16.5985C21.8515 16.5985 21.8305 16.6517 21.8253 16.7102C21.82 16.7741 21.778 16.8645 21.7359 16.9124C21.6939 16.9602 21.6624 17.0081 21.6676 17.0241C21.6781 17.0773 21.4207 17.556 21.3261 17.6624C21.2736 17.7209 21.2473 17.7688 21.2683 17.7688C21.2893 17.7688 21.2736 17.8007 21.2263 17.838C21.1475 17.8965 21.1475 17.9231 21.2105 18.0348C21.2473 18.1093 21.2788 18.1465 21.2841 18.1146C21.2841 18.088 21.3576 18.1465 21.447 18.2476C21.5363 18.3486 21.5888 18.3965 21.5731 18.354C21.552 18.3114 21.6361 18.3806 21.757 18.5135C21.8831 18.6465 21.9514 18.7051 21.9146 18.6465C21.8778 18.588 21.9356 18.6306 22.0407 18.737C22.1458 18.8487 22.2719 18.9391 22.3244 18.9391C22.4137 18.9391 22.6134 18.8327 22.5241 18.8327C22.4925 18.8327 22.5241 18.7848 22.5871 18.721C22.6502 18.6625 22.6922 18.5933 22.6764 18.5614C22.6554 18.5348 22.6817 18.4976 22.7237 18.4816C22.771 18.4657 22.7973 18.4338 22.7815 18.4072C22.771 18.3859 22.8025 18.322 22.8603 18.2635C22.9129 18.1997 22.9444 18.1359 22.9286 18.1199C22.9076 18.1039 22.9234 18.088 22.9602 18.088C22.997 18.088 23.0127 18.0667 22.9917 18.0401C22.9759 18.0135 23.0022 17.9497 23.0495 17.9071C23.0915 17.8592 23.1125 17.822 23.0915 17.822C23.0705 17.822 23.0968 17.7741 23.1493 17.7156C23.2019 17.6571 23.2281 17.6092 23.2071 17.6092C23.1861 17.6092 23.2071 17.572 23.2492 17.5241C23.2964 17.4816 23.3227 17.4177 23.307 17.3911C23.2859 17.3645 23.2964 17.3432 23.3175 17.3432C23.3437 17.3432 23.37 17.2901 23.37 17.2262C23.3753 17.1571 23.4068 17.0985 23.4383 17.0879C23.4646 17.0773 23.4803 17.0454 23.4593 17.0188C23.4436 16.9922 23.4541 16.9709 23.4856 16.9709C23.5171 16.9709 23.5276 16.9336 23.5119 16.8911C23.4908 16.8485 23.5066 16.8113 23.5434 16.8113C23.5749 16.8113 23.5854 16.7847 23.5697 16.7581C23.5539 16.7262 23.5644 16.7049 23.5959 16.7049C23.6275 16.7049 23.6432 16.6836 23.6275 16.6623C23.5907 16.6038 23.7588 16.0666 23.8166 16.0666C23.8376 16.0666 23.8429 16.0346 23.8271 15.9921C23.8114 15.9495 23.8271 15.9017 23.8534 15.8804C23.8849 15.8644 23.9007 15.8219 23.8849 15.7953C23.8639 15.7687 23.8797 15.7474 23.9112 15.7474C23.948 15.7474 23.9585 15.7048 23.9375 15.6463C23.9217 15.5878 23.9322 15.5293 23.9585 15.5133C23.99 15.492 24.0005 15.4442 23.9795 15.4016C23.9637 15.3591 23.9795 15.3218 24.0163 15.3218C24.053 15.3218 24.0636 15.2793 24.0425 15.2208C24.0268 15.1622 24.0373 15.1037 24.0688 15.0824C24.1003 15.0612 24.1108 15.0027 24.0951 14.9441C24.0741 14.8909 24.0793 14.8431 24.1056 14.8431C24.1424 14.8431 24.1634 14.6994 24.1739 14.3749C24.1739 14.3111 24.1949 14.2579 24.2159 14.2579C24.279 14.2579 24.3158 13.2685 24.2527 13.2046C24.2369 13.1834 23.8797 13.1621 23.4698 13.1514C22.9024 13.1355 22.708 13.1461 22.6764 13.194Z" fill="white"/>
<path fill-rule="evenodd" clip-rule="evenodd" d="M7.20806 13.439C7.20806 13.4976 7.22382 13.5135 7.23959 13.471C7.25535 13.4337 7.2501 13.3859 7.23433 13.3699C7.21857 13.3486 7.20281 13.3805 7.20806 13.439Z" fill="white"/>
<path fill-rule="evenodd" clip-rule="evenodd" d="M3.42986 17.0348C3.39308 17.0721 3.36681 17.0774 3.36681 17.0508C3.36681 17.0295 3.32478 17.0508 3.26698 17.0987C3.21444 17.1465 3.11986 17.1944 3.05681 17.1997C2.99902 17.205 2.94647 17.2263 2.94647 17.2529C2.94647 17.2742 2.92546 17.2795 2.89393 17.2636C2.86766 17.2476 2.84139 17.2582 2.84139 17.2902C2.84139 17.3221 2.82037 17.3327 2.78885 17.3168C2.76258 17.3008 2.73631 17.3114 2.73631 17.3433C2.73631 17.3753 2.71529 17.3859 2.68376 17.3699C2.65749 17.354 2.63122 17.3593 2.63122 17.3806C2.63122 17.4072 2.53665 17.471 2.4158 17.5242C2.30021 17.5774 2.18987 17.6519 2.17411 17.6944C2.14783 17.7636 2.5419 18.5349 2.63648 18.5934C2.66275 18.6147 2.67326 18.6466 2.65749 18.6732C2.64173 18.6998 2.67851 18.7477 2.73631 18.7796C2.7941 18.8115 2.83088 18.8594 2.82037 18.8807C2.80461 18.902 2.8519 18.9552 2.9202 18.9924C3.02529 19.0509 3.06207 19.0509 3.14088 18.9871C3.21444 18.9233 3.22495 18.9233 3.18291 18.9871C3.1619 19.0296 3.24071 18.9605 3.36681 18.8381C3.48766 18.7211 3.6085 18.6307 3.62952 18.6466C3.65054 18.6626 3.68732 18.636 3.70308 18.5881C3.7241 18.5402 3.75037 18.5136 3.76613 18.5296C3.78189 18.5402 3.84494 18.503 3.90799 18.4392C3.97105 18.3807 4.08138 18.2902 4.14969 18.2424L4.27579 18.1626L4.07613 17.8913C3.96579 17.7423 3.87647 17.5987 3.87647 17.5774C3.87647 17.5508 3.83969 17.5029 3.7924 17.4657C3.74511 17.4285 3.73461 17.3965 3.76088 17.3965C3.7924 17.3965 3.78715 17.3806 3.75562 17.354C3.7241 17.3327 3.65054 17.237 3.59274 17.1465C3.51393 17.0135 3.47715 16.9869 3.42986 17.0348Z" fill="white"/>
<path fill-rule="evenodd" clip-rule="evenodd" d="M7.5498 17.455C7.57607 17.4976 7.52878 17.5082 7.39217 17.4922C7.28709 17.4816 7.20302 17.4922 7.20302 17.5135C7.20302 17.5348 7.15573 17.5561 7.10319 17.5561C7.0454 17.5561 6.98235 17.5827 6.96658 17.6093C6.94557 17.6412 6.90879 17.6518 6.88252 17.6359C6.85625 17.6146 6.83523 17.6252 6.83523 17.6465C6.83523 17.6731 6.74065 17.7635 6.63031 17.854C6.51472 17.9391 6.43591 18.0242 6.45167 18.0508C6.46218 18.0721 6.43591 18.104 6.39387 18.1199C6.34659 18.1359 6.32557 18.1731 6.34133 18.1997C6.3571 18.2263 6.34133 18.2476 6.30455 18.2476C6.26777 18.2476 6.25727 18.2636 6.27303 18.2795C6.28879 18.3008 6.27828 18.3646 6.25201 18.4232C6.1732 18.5668 6.18896 19.2051 6.26777 19.2051C6.28879 19.2051 6.30455 19.2211 6.2993 19.2424C6.29404 19.269 6.31506 19.3381 6.35184 19.402C6.38862 19.4711 6.39913 19.5243 6.37811 19.5243C6.3571 19.5243 6.39387 19.5615 6.45693 19.6094C6.51998 19.652 6.56201 19.7105 6.54625 19.7371C6.53048 19.7584 6.56201 19.8116 6.6093 19.8488C6.68286 19.9126 6.69336 19.9126 6.65659 19.8435C6.63557 19.8009 6.6776 19.8275 6.74591 19.9073C6.81947 19.9871 6.89302 20.035 6.90879 20.019C6.92455 19.9977 6.94031 20.0137 6.94031 20.0509C6.94031 20.0882 6.96133 20.1041 6.9876 20.0829C7.01387 20.0669 7.05065 20.0775 7.07167 20.1095C7.09268 20.1414 7.12946 20.152 7.15573 20.136C7.18201 20.1148 7.20302 20.1201 7.20302 20.1467C7.20302 20.168 7.34489 20.1892 7.51828 20.1892C7.69166 20.1892 7.83353 20.168 7.83353 20.1414C7.83353 20.1201 7.88082 20.1095 7.93861 20.1254C7.99641 20.1414 8.0437 20.1254 8.0437 20.0935C8.0437 20.0616 8.05946 20.0509 8.07522 20.0722C8.09098 20.0882 8.14878 20.0616 8.20658 20.0137C8.26437 19.9658 8.32742 19.9233 8.34844 19.9233C8.41674 19.9233 8.76878 19.5296 8.80556 19.4179C8.82657 19.3594 8.8581 19.3115 8.88437 19.3115C8.91064 19.3115 8.92115 19.2743 8.90539 19.2317C8.88437 19.1892 8.89488 19.12 8.92115 19.0828C8.95793 19.0296 8.97369 18.5189 8.93691 18.471C8.9264 18.4657 8.92115 18.4444 8.91589 18.4178C8.91589 18.3966 8.8581 18.3008 8.78979 18.2051C8.72149 18.1146 8.67945 18.0348 8.69522 18.0348C8.71098 18.0348 8.65844 17.971 8.57962 17.8912C8.50081 17.8114 8.41674 17.7476 8.39573 17.7582C8.37471 17.7635 8.34319 17.7316 8.32742 17.6891C8.31166 17.6465 8.27488 17.6252 8.24861 17.6412C8.22234 17.6571 8.20132 17.6412 8.20132 17.6093C8.20132 17.5773 8.18031 17.5667 8.14878 17.5827C8.12251 17.5986 8.09624 17.5933 8.09624 17.5667C8.09624 17.5348 8.06471 17.5135 8.03319 17.5188C7.79149 17.5242 7.62336 17.4976 7.64963 17.4497C7.66539 17.4178 7.64438 17.3965 7.59709 17.3965C7.5498 17.3965 7.52878 17.4231 7.5498 17.455Z" fill="white"/>
<path fill-rule="evenodd" clip-rule="evenodd" d="M19.6708 19.764C19.0823 20.3439 18.5411 20.7694 17.9054 21.1471C17.4745 21.4131 16.4289 21.9078 16.2555 21.9344C16.203 21.9397 16.1294 21.9663 16.0979 21.9876C16.0611 22.0142 16.0086 22.0195 15.9823 22.0036C15.956 21.9823 15.9245 21.9929 15.914 22.0248C15.8983 22.078 14.7476 22.3919 14.4271 22.4291C14.3115 22.4398 14.1118 22.4717 13.9805 22.4983C13.5023 22.5994 11.7212 22.5834 10.9646 22.477C10.4234 22.3972 9.35151 22.1472 9.30422 22.0834C9.28846 22.0674 9.23066 22.0408 9.17287 22.0355C9.02575 22.0089 8.42151 21.7376 8.31118 21.6472C8.18507 21.5408 8.11152 21.5248 7.75423 21.5142C7.58084 21.5089 7.41796 21.5035 7.38643 21.4929C7.36016 21.4876 7.24983 21.4716 7.15 21.4663C7.05016 21.4557 6.91881 21.4397 6.86101 21.4344C6.68237 21.4184 6.12017 21.1418 5.98882 21.0088C5.92051 20.9397 5.8417 20.8811 5.81017 20.8811C5.7839 20.8811 5.73136 20.8226 5.69458 20.7482C5.6578 20.6737 5.62627 20.6364 5.62627 20.6684C5.62627 20.695 5.58424 20.6577 5.53695 20.5886C5.48441 20.5141 5.45814 20.4556 5.46865 20.4503C5.48441 20.4503 5.45289 20.4077 5.40034 20.3545C5.35306 20.3013 5.32153 20.2375 5.33729 20.2109C5.35831 20.1843 5.3478 20.163 5.32153 20.163C5.2795 20.163 5.2217 20.0087 5.12712 19.647C5.09035 19.5034 5.00628 19.5087 4.88018 19.6577C4.83289 19.7162 4.79086 19.7481 4.7856 19.7321C4.7856 19.7162 4.68577 19.7906 4.57018 19.9024C4.44933 20.0141 4.32849 20.0939 4.30747 20.0779C4.2812 20.0619 4.26018 20.0726 4.26018 20.0939C4.26018 20.1205 4.1656 20.2109 4.05001 20.3013C3.93442 20.3864 3.83984 20.4822 3.83984 20.5141C3.83984 20.5886 4.69628 21.4291 5.21119 21.8493C5.43187 22.0302 5.8417 22.3281 6.13068 22.5089C6.41441 22.6898 6.66661 22.8653 6.68762 22.8973C6.70864 22.9292 6.72966 22.9398 6.72966 22.9185C6.72966 22.8973 6.9661 22.9983 7.25508 23.1473C7.74372 23.392 9.0888 23.8867 9.27795 23.8867C9.31998 23.8867 9.35676 23.9026 9.35676 23.9239C9.35676 23.9505 9.45659 23.9718 9.57744 23.9771C9.69829 23.9878 9.80862 24.009 9.82439 24.0303C9.84015 24.0569 9.91371 24.0729 9.98727 24.0782C10.2132 24.0835 11.1117 24.2165 11.1957 24.2537C11.3481 24.3229 13.8491 24.2697 14.2432 24.1899C14.3167 24.1739 14.6215 24.1208 14.9262 24.0676C15.231 24.0197 15.6303 23.9346 15.8142 23.8814C15.9981 23.8282 16.1662 23.7963 16.1925 23.8069C16.2135 23.8229 16.2398 23.8175 16.2503 23.7963C16.266 23.7537 17.3694 23.3494 17.4903 23.3388C17.5218 23.3388 17.5533 23.3175 17.5533 23.2909C17.5533 23.2643 17.5743 23.2537 17.6006 23.2696C17.6269 23.2909 17.6584 23.2803 17.6689 23.2537C17.6847 23.2111 18.6199 22.7164 18.683 22.7164C18.6987 22.7164 18.7513 22.6792 18.8038 22.6313C18.8511 22.5887 19.0928 22.4132 19.3398 22.2536C19.8652 21.9078 20.1384 21.6844 20.8004 21.078C21.4835 20.4503 21.473 20.4769 21.0579 20.0779C20.8687 19.897 20.7269 19.7321 20.7374 19.7162C20.7479 19.7002 20.7426 19.6949 20.7216 19.7108C20.7006 19.7268 20.5745 19.6311 20.4379 19.4927L20.1909 19.248L19.6708 19.764Z" fill="white"/>
</g>
<defs>
<clipPath id="clip0_1234_2868">
<rect width="23.5714" height="23.5714" fill="white" transform="translate(0.713867 0.713867)"/>
</clipPath>
</defs>
</svg>
