<svg width="24" height="24" viewBox="0 0 24 24" fill="none" xmlns="http://www.w3.org/2000/svg">
<path d="M14.0003 16H16.1268C17.314 16 18.4397 16.5273 19.1997 17.4393L20.2667 18.7196C21.3522 20.0223 20.4259 22 18.7303 22H5.27042C3.57475 22 2.64844 20.0223 3.73398 18.7196L4.80096 17.4393C5.56093 16.5273 6.68672 16 7.87384 16H10.0003" stroke="#28303F" stroke-width="1.5" stroke-linecap="round" stroke-linejoin="round"/>
<path d="M12 6C13.1046 6 14 5.10457 14 4C14 2.89543 13.1046 2 12 2C10.8954 2 10 2.89543 10 4C10 5.10457 10.8954 6 12 6ZM12 6C14.2091 6 16 7.79086 16 10V12C16 12.5523 15.5523 13 15 13C14.4477 13 14 13.4477 14 14V17C14 18.1046 13.1046 19 12 19C10.8954 19 10 18.1046 10 17V14C10 13.4477 9.55228 13 9 13C8.44772 13 8 12.5523 8 12V10C8 7.79086 9.79086 6 12 6Z" stroke="#28303F" stroke-width="1.5" stroke-linejoin="round"/>
</svg>
