<svg width="28" height="28" viewBox="0 0 28 28" fill="none" xmlns="http://www.w3.org/2000/svg">
<path d="M21.3512 22.0825L22.0751 21.6538C23.5756 20.7652 24.5 19.123 24.5 17.3458V10.6536C24.5 8.87637 23.5756 7.23416 22.0751 6.34555L16.4249 2.99946C14.9244 2.11086 13.0756 2.11086 11.5751 2.99946L5.92487 6.34555C4.42436 7.23416 3.5 8.87637 3.5 10.6536V17.3458C3.5 19.123 4.42436 20.7652 5.92487 21.6538L6.64878 22.0825M21.3512 22.0825L16.4249 24.9999C14.9244 25.8885 13.0756 25.8885 11.5751 24.9999L6.64878 22.0825M21.3512 22.0825C19.8836 19.4809 17.1411 17.7306 14 17.7306C10.8589 17.7306 8.11634 19.4809 6.64878 22.0825" stroke="#A1A5B7" stroke-width="1.5" stroke-linejoin="round"/>
<circle cx="3.5" cy="3.5" r="3.5" transform="matrix(1 0 0 -1 10.5 14)" stroke="#A1A5B7" stroke-width="1.5" stroke-linejoin="round"/>
</svg>
